<?xml version="1.0" encoding="utf-8"?>
<!-- Generator: Adobe Illustrator 26.2.1, SVG Export Plug-In . SVG Version: 6.00 Build 0)  -->
<svg version="1.1" id="katman_1" xmlns="http://www.w3.org/2000/svg" xmlns:xlink="http://www.w3.org/1999/xlink" x="0px" y="0px"
	 viewBox="0 0 616 216" style="enable-background:new 0 0 616 216;" xml:space="preserve">
<style type="text/css">
	.st0{fill:#373737;}
</style>
<g>
	<g>
		<g>
			<path class="st0" d="M251.5,117c-1.1,1.4-2.5,2-4.2,2c-1.5,0-2.8-0.5-3.8-1.6c-1.1-1.1-1.6-2.3-1.6-3.8c0-1.4,0.4-2.4,1.1-3.3
				l27.3-36.8c1.3-1.7,3-3.1,5.1-4.2s4.4-1.6,6.7-1.6c2.2,0,4.4,0.5,6.4,1.5s3.7,2.3,5,4.1l27.3,36.6c0.5,0.5,0.8,1.1,1.1,1.7
				c0.3,0.6,0.5,1.3,0.5,2.1c0,1.5-0.5,2.8-1.6,3.8c-1.1,1.1-2.3,1.6-3.8,1.6c-1.8,0-3.2-0.7-4.3-2.1l-26.2-35c-0.5-0.6-1.2-1.3-2-2
				s-1.6-1.1-2.4-1.1s-1.6,0.4-2.4,1.1s-1.4,1.4-1.9,2L251.5,117L251.5,117z"/>
			<path class="st0" d="M331,94.5c0-2.8,0.5-5.7,1.4-8.6s2.3-5.5,4.1-7.9c1.8-2.4,4-4.3,6.5-5.8s5.4-2.2,8.7-2.2h65.6
				c1.5,0,2.8,0.5,3.8,1.6c1.1,1.1,1.6,2.3,1.6,3.8s-0.5,2.8-1.6,3.8c-1.1,1.1-2.3,1.6-3.8,1.6h-63.2c-2.6,0-4.7,0.5-6.4,1.4
				c-1.6,0.9-2.9,2.1-3.8,3.4c-0.9,1.4-1.6,2.8-1.9,4.5c-0.3,1.6-0.5,3.1-0.5,4.4s0.2,2.8,0.5,4.5c0.3,1.6,1,3.1,1.9,4.4
				c0.9,1.4,2.2,2.5,3.8,3.4c1.6,0.9,3.7,1.4,6.4,1.4h63.2c1.5,0,2.8,0.5,3.8,1.6c1.1,1.1,1.6,2.3,1.6,3.8s-0.5,2.8-1.6,3.8
				c-1.1,1.1-2.3,1.6-3.8,1.6h-66.7c-3.1,0-5.8-0.8-8.2-2.2c-2.4-1.5-4.4-3.4-6.1-5.8s-3-5-3.9-7.9C331.5,100.1,331,97.3,331,94.5
				L331,94.5z"/>
			<path class="st0" d="M443.5,117c-1.1,1.4-2.5,2-4.2,2c-1.5,0-2.8-0.5-3.8-1.6c-1.1-1.1-1.6-2.3-1.6-3.8c0-1.4,0.4-2.4,1.1-3.3
				l27.3-36.8c1.3-1.7,3-3.1,5.1-4.2s4.4-1.6,6.7-1.6c2.2,0,4.4,0.5,6.4,1.5s3.7,2.3,5,4.1l27.3,36.6c0.5,0.5,0.8,1.1,1.1,1.7
				s0.5,1.3,0.5,2.1c0,1.5-0.5,2.8-1.6,3.8c-1.1,1.1-2.3,1.6-3.8,1.6c-1.8,0-3.2-0.7-4.3-2.1l-26.2-35c-0.5-0.6-1.2-1.3-2-2
				s-1.6-1.1-2.4-1.1s-1.6,0.4-2.4,1.1s-1.4,1.4-1.9,2L443.5,117L443.5,117z"/>
			<path class="st0" d="M604.4,104c2.1,1.5,4.2,3.1,6.4,4.8c0.8,0.6,1.5,1.3,2.1,2.1c0.6,0.8,0.9,1.7,0.9,2.8c0,1.5-0.5,2.8-1.6,3.8
				c-1.1,1.1-2.3,1.6-3.8,1.6c-1.3,0-2.5-0.5-3.8-1.6c-3.1-2.2-6.2-4.4-9.5-6.5c-3.2-2.1-6.6-4-10.1-5.6c-3.5-1.7-7.1-3-10.9-3.9
				c-3.8-1-7.7-1.5-11.7-1.5H540c-1,0.2-1.8,0.6-2.5,1.4s-1,1.7-1,2.8v9.6c0,1.5-0.5,2.8-1.6,3.8c-1.1,1.1-2.3,1.6-3.8,1.6
				s-2.8-0.5-3.8-1.6c-1.1-1.1-1.6-2.3-1.6-3.8V103c0-1.9,0.4-3.7,1.1-5.3c0.7-1.7,1.7-3.1,2.9-4.4c1.2-1.2,2.6-2.2,4.3-2.9
				c1.7-0.7,3.4-1.1,5.4-1.1H599c1.1,0,2.1-0.4,3-1.2c0.9-0.8,1.3-1.8,1.3-3c0-1.1-0.4-2.1-1.3-2.9c-0.9-0.8-1.9-1.2-3-1.2h-67.9
				c-1.5,0-2.8-0.5-3.8-1.6c-1.1-1.1-1.6-2.3-1.6-3.8s0.5-2.8,1.6-3.8c1.1-1.1,2.3-1.6,3.8-1.6h67.4c2.1,0,4.1,0.4,5.9,1.2
				c1.8,0.8,3.4,1.9,4.8,3.2c1.4,1.4,2.5,2.9,3.3,4.7c0.8,1.8,1.2,3.8,1.2,5.8c0,2.1-0.4,4.1-1.2,5.8c-0.8,1.8-1.9,3.4-3.3,4.7
				c-1.4,1.4-3,2.4-4.8,3.2c-1.8,0.8-3.8,1.2-5.9,1.2H598C600.2,101.2,602.3,102.5,604.4,104L604.4,104z"/>
		</g>
		<g>
			<path class="st0" d="M249.5,183.2l-3.1-3.6h-2.7v3.6h-1.5V175h1.5v3.3h2.6l3.1-3.3h1.8l-3.6,3.8l3.6,4.4H249.5L249.5,183.2z"/>
			<path class="st0" d="M254.6,183.2c-0.5,0-0.9,0-1.2-0.1s-0.6-0.2-0.8-0.4s-0.4-0.4-0.4-0.6c-0.1-0.2-0.1-0.5-0.1-0.8V175h1.5v6.2
				c0,0.5,0.3,0.8,1,0.8h5.1c0.7,0,1-0.3,1-0.8V175h1.5v6.2c0,0.3,0,0.6-0.1,0.8s-0.2,0.4-0.3,0.6c-0.2,0.2-0.4,0.3-0.7,0.4
				c-0.3,0.1-0.7,0.1-1.1,0.1L254.6,183.2L254.6,183.2z"/>
			<path class="st0" d="M271.5,183.2l-1.9-3.6h-4.3v3.6h-1.5V175h7c0.5,0,0.9,0,1.2,0.1c0.3,0.1,0.6,0.2,0.8,0.4
				c0.2,0.2,0.4,0.4,0.4,0.6c0.1,0.2,0.1,0.5,0.1,0.8v0.6c0,0.5-0.2,1-0.5,1.3c-0.3,0.4-0.8,0.6-1.6,0.6l1.9,3.7L271.5,183.2
				L271.5,183.2z M271.7,177c0-0.5-0.3-0.8-1-0.8h-5.4v2.1h5.4c0.7,0,1-0.3,1-0.8V177z"/>
			<path class="st0" d="M277,183.2c-0.5,0-0.9,0-1.2-0.1s-0.6-0.2-0.8-0.4c-0.2-0.2-0.4-0.4-0.4-0.6c-0.1-0.2-0.1-0.5-0.1-0.8V175
				h1.5v6.2c0,0.5,0.3,0.8,1,0.8h5.1c0.7,0,1-0.3,1-0.8V175h1.5v6.2c0,0.3,0,0.6-0.1,0.8s-0.2,0.4-0.3,0.6c-0.2,0.2-0.4,0.3-0.7,0.4
				s-0.7,0.1-1.1,0.1L277,183.2L277,183.2z"/>
			<path class="st0" d="M297.1,183.2v-5.7l-4.2,5.7h-1.3l-4.2-5.7v5.7H286V175h1.4l4.9,6.7l4.8-6.7h1.3v8.2H297.1L297.1,183.2z"/>
			<path class="st0" d="M300.2,183.2V182h7.1c0.7,0,1-0.3,1-0.8v-1c0-0.5-0.3-0.8-1-0.8h-4.8c-0.5,0-0.9,0-1.2-0.1
				c-0.3-0.1-0.6-0.2-0.8-0.4c-0.2-0.2-0.4-0.4-0.4-0.6c-0.1-0.2-0.1-0.5-0.1-0.8V177c0-0.3,0-0.6,0.1-0.8s0.2-0.4,0.4-0.6
				c0.2-0.2,0.5-0.3,0.8-0.4c0.3-0.1,0.7-0.1,1.2-0.1h6.9v1.2h-6.9c-0.7,0-1,0.3-1,0.8v0.5c0,0.5,0.3,0.8,1,0.8h4.8
				c0.5,0,0.9,0,1.2,0.1c0.3,0.1,0.6,0.2,0.8,0.4c0.2,0.2,0.4,0.4,0.4,0.6c0.1,0.2,0.1,0.5,0.1,0.8v1c0,0.3,0,0.6-0.1,0.8
				s-0.2,0.4-0.4,0.6c-0.2,0.2-0.5,0.3-0.8,0.4c-0.3,0.1-0.7,0.1-1.2,0.1L300.2,183.2L300.2,183.2z"/>
			<path class="st0" d="M320.2,183.2l-4.2-6.6l-4.3,6.6H310l5.4-8.2h1.1l5.4,8.2H320.2L320.2,183.2z"/>
			<path class="st0" d="M322.7,183.2V175h1.6v7h6.6v1.2H322.7L322.7,183.2z"/>
			<path class="st0" d="M342.3,183.2v-3.3L337,175h2l4,3.7l4-3.7h1.9l-5.2,4.9v3.3H342.3L342.3,183.2z"/>
			<path class="st0" d="M351.8,183.2c-0.5,0-0.9,0-1.2-0.1c-0.3-0.1-0.6-0.2-0.8-0.4c-0.2-0.2-0.4-0.4-0.4-0.6
				c-0.1-0.2-0.1-0.5-0.1-0.8V177c0-0.3,0-0.6,0.1-0.8s0.2-0.4,0.4-0.6c0.2-0.2,0.5-0.3,0.8-0.4c0.3-0.1,0.7-0.1,1.2-0.1h5.4
				c0.5,0,0.9,0,1.2,0.1s0.6,0.2,0.8,0.4c0.2,0.2,0.4,0.4,0.4,0.6c0.1,0.2,0.1,0.5,0.1,0.8v4.2c0,0.3,0,0.6-0.1,0.8
				s-0.2,0.4-0.4,0.6c-0.2,0.2-0.5,0.3-0.8,0.4s-0.7,0.1-1.2,0.1L351.8,183.2L351.8,183.2z M358.2,177c0-0.5-0.3-0.8-1-0.8h-5.4
				c-0.7,0-1,0.3-1,0.8v4.3c0,0.5,0.3,0.8,1,0.8h5.4c0.7,0,1-0.3,1-0.8V177z M352.1,174.1v-1.5h1.6v1.5H352.1z M355.2,174.1v-1.5
				h1.6v1.5H355.2z"/>
			<path class="st0" d="M371.3,183.2l-8.7-6.4v6.4h-1.4V175h1.3l8.1,6.1V175h1.4v8.2H371.3z"/>
			<path class="st0" d="M373.5,183.2V175h8.4v1.2H375v2h6.5v1.2H375v2.5h6.9v1.2h-8.4V183.2z"/>
			<path class="st0" d="M387,183.2v-7h-4.3V175h10v1.2h-4.2v7H387L387,183.2z"/>
			<path class="st0" d="M393.8,174.1v-1.5h1.6v1.5H393.8z M393.8,183.2V175h1.5v8.2H393.8z"/>
			<path class="st0" d="M408,183.2v-5.7l-4.2,5.7h-1.3l-4.2-5.7v5.7H397V175h1.4l4.9,6.7l4.8-6.7h1.3v8.2H408z"/>
			<path class="st0" d="M425,183.2v-3.7h-6.7v3.7h-1.5V175h1.5v3.3h6.7V175h1.5v8.2H425z"/>
			<path class="st0" d="M428.1,174.1v-1.5h1.6v1.5H428.1z M428.1,183.2V175h1.5v8.2H428.1z"/>
			<path class="st0" d="M431,183.2v-1l8.3-5.8H431V175h11v1l-8.3,5.8h8.3v1.3L431,183.2L431,183.2z"/>
			<path class="st0" d="M454.2,183.2v-5.7l-4.2,5.7h-1.3l-4.2-5.7v5.7h-1.4V175h1.4l4.9,6.7l4.8-6.7h1.3v8.2H454.2L454.2,183.2z"/>
			<path class="st0" d="M457.1,183.2V175h8.4v1.2h-6.9v2h6.5v1.2h-6.5v2.5h6.9v1.2h-8.4V183.2z"/>
			<path class="st0" d="M470.7,183.2v-7h-4.3V175h10v1.2h-4.2v7H470.7z"/>
			<path class="st0" d="M477.4,183.2V175h1.6v7h6.6v1.2H477.4L477.4,183.2z"/>
			<path class="st0" d="M486.7,183.2V175h8.4v1.2h-6.9v2h6.5v1.2h-6.5v2.5h6.9v1.2h-8.4V183.2z"/>
			<path class="st0" d="M504.2,183.2l-1.9-3.6H498v3.6h-1.5V175h7c0.5,0,0.9,0,1.2,0.1c0.3,0.1,0.6,0.2,0.8,0.4s0.4,0.4,0.4,0.6
				c0.1,0.2,0.1,0.5,0.1,0.8v0.6c0,0.5-0.2,1-0.5,1.3c-0.3,0.4-0.8,0.6-1.6,0.6l1.9,3.7L504.2,183.2L504.2,183.2z M504.4,177
				c0-0.5-0.3-0.8-1-0.8H498v2.1h5.4c0.7,0,1-0.3,1-0.8V177z"/>
			<path class="st0" d="M507.2,174.1v-1.5h1.6v1.5H507.2z M507.2,183.2V175h1.5v8.2H507.2z"/>
			<path class="st0" d="M520,183.2v-7h-4.3V175h10v1.2h-4.2v7H520z"/>
			<path class="st0" d="M526.7,174.1v-1.5h1.6v1.5H526.7z M526.8,183.2V175h1.5v8.2H526.8z"/>
			<path class="st0" d="M532.4,183.2c-0.5,0-0.9,0-1.2-0.1s-0.6-0.2-0.8-0.4s-0.4-0.4-0.4-0.6c-0.1-0.2-0.1-0.5-0.1-0.8V177
				c0-0.3,0-0.6,0.1-0.8s0.2-0.4,0.4-0.6c0.2-0.2,0.5-0.3,0.8-0.4c0.3-0.1,0.7-0.1,1.2-0.1h6.6v1.2h-6.6c-0.7,0-1,0.3-1,0.8v4.3
				c0,0.5,0.3,0.8,1,0.8h6.6v1.2L532.4,183.2L532.4,183.2z"/>
			<path class="st0" d="M540.2,183.2v-1.5h1.8v1.5H540.2z"/>
			<path class="st0" d="M549.4,183.2V175h1.6v7h6.6v1.2H549.4L549.4,183.2z"/>
			<path class="st0" d="M559.9,183.2v-7h-4.3V175h10v1.2h-4.2v7H559.9z"/>
			<path class="st0" d="M566.7,183.2V175h7.5c0.6,0,1.1,0,1.4,0.2c0.4,0.1,0.7,0.3,0.9,0.5s0.4,0.5,0.5,0.8s0.1,0.7,0.1,1.1v3.4
				c0,0.4,0,0.7-0.1,1s-0.3,0.5-0.5,0.7s-0.5,0.3-0.9,0.4c-0.4,0.1-0.9,0.2-1.4,0.2L566.7,183.2L566.7,183.2z M575.6,177.5
				c0-0.2,0-0.4-0.1-0.6c0-0.2-0.1-0.3-0.2-0.4c-0.1-0.1-0.3-0.2-0.5-0.2s-0.4-0.1-0.7-0.1h-5.9v5.8h5.9c0.3,0,0.5,0,0.7-0.1
				c0.2,0,0.3-0.1,0.5-0.2c0.1-0.1,0.2-0.2,0.2-0.3s0.1-0.3,0.1-0.6V177.5L575.6,177.5z"/>
			<path class="st0" d="M578.4,183.2v-1.5h1.8v1.5H578.4z"/>
			<path class="st0" d="M587.6,183.2V182h7.1c0.7,0,1-0.3,1-0.8v-1c0-0.5-0.3-0.8-1-0.8h-4.8c-0.5,0-0.9,0-1.2-0.1s-0.6-0.2-0.8-0.4
				s-0.4-0.4-0.4-0.6c-0.1-0.2-0.1-0.5-0.1-0.8V177c0-0.3,0-0.6,0.1-0.8s0.2-0.4,0.4-0.6c0.2-0.2,0.5-0.3,0.8-0.4
				c0.3-0.1,0.7-0.1,1.2-0.1h6.9v1.2h-6.9c-0.7,0-1,0.3-1,0.8v0.5c0,0.5,0.3,0.8,1,0.8h4.8c0.5,0,0.9,0,1.2,0.1s0.6,0.2,0.8,0.4
				s0.4,0.4,0.4,0.6c0.1,0.2,0.1,0.5,0.1,0.8v1c0,0.3,0,0.6-0.1,0.8s-0.2,0.4-0.4,0.6c-0.2,0.2-0.5,0.3-0.8,0.4
				c-0.3,0.1-0.7,0.1-1.2,0.1L587.6,183.2L587.6,183.2z M591.5,186v-2.4h1.6v0.7l-1,1.7H591.5z"/>
			<path class="st0" d="M602.1,183.2v-7h-4.3V175h10v1.2h-4.2v7H602.1z"/>
			<path class="st0" d="M608.9,174.1v-1.5h1.6v1.5H608.9z M608.9,183.2V175h1.5v8.2H608.9z"/>
			<path class="st0" d="M612,183.2v-1.5h1.8v1.5H612z"/>
		</g>
		<g>
			<g>
				<path class="st0" d="M419.5,161.2c0.2,0.1,0.4,0.2,0.6,0.3c0.1,0,0.1,0,0.2,0.1v-0.2c0,0-0.1,0-0.1-0.1
					c-0.2-0.1-0.4-0.2-0.6-0.3s-0.4-0.2-0.6-0.3s-0.4-0.3-0.6-0.4c-0.2-0.1-0.4-0.3-0.6-0.5s-0.4-0.3-0.7-0.5
					c-0.1-0.1-0.2-0.2-0.3-0.3c-0.1-0.1-0.2-0.2-0.3-0.3c-0.2-0.2-0.4-0.4-0.7-0.6c-0.9-0.9-1.7-1.9-2.5-3.2
					c-0.7-1.2-1.4-2.6-1.8-4.1c-0.1-0.4-0.2-0.7-0.3-1.1c-0.1-0.4-0.1-0.8-0.2-1.2s-0.1-0.8-0.1-1.2l-0.1-0.6v-0.6v-0.6v-0.2v-0.1
					l0,0l0,0l0,0v-0.3c0-0.4,0.1-0.8,0.1-1.2s0.1-0.8,0.2-1.2l0.1-0.6c0-0.2,0.1-0.4,0.2-0.6c0.1-0.4,0.2-0.8,0.3-1.2
					c0.2-0.4,0.3-0.7,0.5-1.1c0.1-0.4,0.3-0.7,0.5-1.1c0.2-0.3,0.3-0.7,0.6-1c0.2-0.3,0.4-0.7,0.6-1s0.5-0.6,0.7-0.9
					c0.1-0.1,0.2-0.3,0.4-0.4l0.4-0.4c0.3-0.3,0.5-0.6,0.8-0.8c0.6-0.5,1.1-1,1.7-1.4c0.3-0.2,0.6-0.4,0.9-0.6
					c0.3-0.2,0.6-0.3,0.9-0.5s0.6-0.3,0.9-0.4c0.3-0.1,0.6-0.3,0.9-0.4c0.3-0.1,0.6-0.2,0.9-0.3c0.1,0,0.3-0.1,0.4-0.1
					s0.3-0.1,0.4-0.1c0.3-0.1,0.6-0.1,0.8-0.2c0.3-0.1,0.5-0.1,0.8-0.2c0.4,0,0.7-0.1,1-0.1l1.7-3l0,0c-0.4,0-0.9,0.1-1.4,0.1
					c-0.6,0.1-1.2,0.2-1.8,0.3c-0.3,0-0.6,0.2-0.9,0.2c-0.3,0.1-0.6,0.2-1,0.3c-0.2,0-0.3,0.1-0.5,0.2s-0.3,0.1-0.5,0.2
					c-0.3,0.1-0.7,0.3-1,0.4c-0.3,0.2-0.7,0.3-1,0.5s-0.7,0.3-1,0.6c-0.3,0.2-0.7,0.4-1,0.6s-0.6,0.5-1,0.7
					c-0.7,0.5-1.2,1.1-1.8,1.7c-0.3,0.3-0.6,0.6-0.8,1c-0.1,0.2-0.3,0.3-0.4,0.5s-0.3,0.3-0.4,0.5c-0.2,0.4-0.5,0.7-0.7,1.1
					c-0.2,0.4-0.4,0.8-0.6,1.1c-0.2,0.4-0.4,0.8-0.6,1.2s-0.4,0.8-0.5,1.2s-0.3,0.8-0.4,1.3c-0.1,0.4-0.2,0.9-0.3,1.3
					c0,0.2-0.1,0.4-0.1,0.6l-0.1,0.7c0,0.4-0.1,0.9-0.1,1.3c0,0.4,0,0.9,0,1.3v0.3v0.1v0.1v0.2v0.6v0.6l0.1,0.6
					c0.1,0.4,0.1,0.9,0.2,1.3c0.1,0.4,0.2,0.8,0.3,1.2c0.1,0.4,0.3,0.8,0.4,1.2c0.6,1.5,1.3,2.9,2.2,4.1c0.8,1.2,1.8,2.2,2.8,3.1
					c0.3,0.2,0.5,0.4,0.7,0.6c0.1,0.1,0.2,0.2,0.3,0.3c0.1,0.1,0.2,0.2,0.4,0.3c0.2,0.2,0.5,0.3,0.7,0.5s0.5,0.3,0.7,0.4
					c0.2,0.1,0.4,0.3,0.6,0.4C419.2,161,419.4,161.1,419.5,161.2L419.5,161.2z"/>
				<path class="st0" d="M446.4,145.3L446.4,145.3V145v-0.6c0-0.2,0-0.4,0-0.6l-0.1-0.6c-0.1-0.4-0.1-0.8-0.2-1.2s-0.2-0.8-0.3-1.2
					c-0.1-0.4-0.3-0.8-0.4-1.2c-0.6-1.5-1.3-2.9-2.1-4.1c-0.8-1.2-1.8-2.2-2.7-3.1c-0.2-0.2-0.5-0.4-0.7-0.6
					c-0.1-0.1-0.2-0.2-0.3-0.3c-0.1-0.1-0.2-0.2-0.4-0.3c-0.2-0.2-0.5-0.3-0.7-0.5s-0.5-0.3-0.7-0.4c-0.2-0.1-0.4-0.3-0.6-0.4
					c-0.2-0.1-0.4-0.2-0.6-0.3s-0.4-0.2-0.6-0.3h-0.1v0.2l0,0c0.2,0.1,0.4,0.2,0.5,0.3c0.2,0.1,0.4,0.2,0.6,0.3s0.4,0.3,0.6,0.4
					c0.2,0.1,0.4,0.3,0.6,0.4c0.2,0.2,0.4,0.3,0.6,0.5c0.1,0.1,0.2,0.2,0.3,0.3c0.1,0.1,0.2,0.2,0.3,0.3c0.2,0.2,0.4,0.4,0.7,0.6
					c0.8,0.9,1.7,1.9,2.4,3.1c0.7,1.2,1.4,2.5,1.8,4c0.1,0.4,0.2,0.7,0.3,1.1c0.1,0.4,0.1,0.8,0.2,1.1c0.1,0.4,0.1,0.8,0.1,1.1
					l0.1,0.6c0,0.2,0,0.4,0,0.6v0.6v0.3v0.3c0,0.4-0.1,0.8-0.1,1.2v0.3l-0.1,0.3l-0.1,0.6c-0.1,0.4-0.1,0.8-0.3,1.2l-0.3,1.1
					c-0.1,0.4-0.3,0.7-0.4,1.1c-0.1,0.2-0.1,0.4-0.2,0.6l-0.3,0.5c-0.2,0.3-0.3,0.7-0.6,1c-0.2,0.3-0.4,0.6-0.6,1l-0.2,0.2l-0.2,0.2
					l-0.4,0.4c-0.4,0.6-1,1.1-1.5,1.7c-0.3,0.3-0.6,0.5-0.8,0.7c-0.1,0.1-0.3,0.2-0.4,0.3s-0.3,0.2-0.4,0.3
					c-0.3,0.2-0.6,0.4-0.9,0.6c-0.3,0.2-0.6,0.3-0.9,0.5c-1.2,0.7-2.3,1.1-3.4,1.4c-0.1,0-0.3,0.1-0.4,0.1s-0.3,0.1-0.4,0.1
					c-0.3,0.1-0.5,0.1-0.8,0.2c-0.2,0-0.4,0.1-0.6,0.1l-1.7,3.1c0.1,0,0.3,0,0.4,0s0.2,0,0.4,0c0.1,0,0.3,0,0.4-0.1
					c0.6-0.1,1.2-0.2,1.8-0.3c0.3-0.1,0.6-0.2,0.9-0.3c0.2,0,0.3-0.1,0.5-0.1s0.3-0.1,0.5-0.2c1.3-0.5,2.6-1.1,3.9-1.9
					c0.3-0.2,0.7-0.4,1-0.6c0.3-0.2,0.6-0.5,0.9-0.7c0.2-0.1,0.3-0.2,0.5-0.4c0.1-0.1,0.3-0.3,0.4-0.4c0.3-0.3,0.6-0.6,0.9-0.9
					c0.5-0.6,1.1-1.2,1.6-2l0.4-0.5l0.2-0.3l0.2-0.3c0.2-0.4,0.4-0.7,0.6-1.1c0.2-0.4,0.4-0.8,0.6-1.2l0.3-0.6
					c0.1-0.2,0.1-0.4,0.2-0.6c0.1-0.4,0.3-0.8,0.4-1.2l0.3-1.3c0.1-0.4,0.1-0.9,0.2-1.3l0.1-0.6V147v-0.3c0-0.4,0-0.9,0-1.3v-0.2
					L446.4,145.3L446.4,145.3L446.4,145.3L446.4,145.3z"/>
			</g>
			<polygon class="st0" points="435.7,143.3 429.4,143.3 432.9,125.7 420.1,148.4 426.4,148.4 422.8,166.1 			"/>
		</g>
		<g>
			<path class="st0" d="M404.9,145.9c0-0.6,0-1.1,0.1-1.7H242v2.3h162.9C404.9,146.3,404.9,146.1,404.9,145.9L404.9,145.9z"/>
			<path class="st0" d="M451.2,144.2c0,0.6,0.1,1.1,0.1,1.7c0,0.2,0,0.4,0,0.6h162.6v-2.3H451.2L451.2,144.2z"/>
		</g>
	</g>
	<g>
		<path class="st0" d="M103.6,86.3c-1.4,2.8-2.5,5.4-3.8,7.9c-1.7,3.3-3.3,6.5-5.1,9.7c-1,1.9-1.4,2.1-3.3,0.9
			C86.9,102,82,100,76.7,99c-5.3-1-10.6-1.2-15.9-0.4c-2.8,0.5-5.6,1.1-8.4,2.1c-0.5,0.2-1.1,0.6-1.6,0S50.7,99.5,51,99
			c2.2-4.1,4.4-8.2,6.6-12.3c5-9.3,9.9-18.7,14.9-28C78.4,47.8,84.3,36.9,90.1,26c4-7.5,8-15.1,12-22.6c0.3-0.6,0.6-1.4,1.4-1.5
			c0.9-0.1,1.1,0.9,1.4,1.5c8.1,15.3,16.3,30.6,24.4,45.9c6.1,11.5,12.4,23.1,18.5,34.6c6.8,12.8,13.6,25.6,20.4,38.4
			c1.9,3.6,3.9,7.1,5.7,10.6c0.6,1.1,1.1,1.1,2.1,0.5c13.4-9.2,25.6-19.7,36-32.3c6-7.3,11.3-15.1,15.2-23.7c0.2-0.5,0.5-1,1.1-0.8
			s0.4,0.8,0.3,1.2c-0.5,5.1-2.2,9.9-4.1,14.6c-3.8,9.3-9.2,17.6-15.4,25.4c-9.8,12.4-21.4,22.8-34.2,32
			c-9.1,6.6-18.6,12.5-28.7,17.5c-7.8,3.9-15.8,7.3-24,10.1c-6.3,2.2-12.8,4-19.3,5.4c-3.5,0.7-6.9,1.6-10.5,1.9
			c-0.5,0-1.1,0.4-1.4-0.3c-0.2-0.7,0.3-1,0.8-1.3c3.5-2.2,6.6-4.8,9.4-7.8c3-3.2,5.4-6.8,7.4-10.7c0.8-1.5,1.7-2.2,3.3-2.5
			c7-1.5,13.8-3.8,20.6-6.2c1.4-0.5,2.7-1.1,4.1-1.6c1.8-0.7,1.8-0.8,0.9-2.6c-2.8-5.3-5.6-10.6-8.4-16
			c-5.6-10.7-11.2-21.4-16.7-32.2c-2.8-5.3-5.5-10.7-8.3-16.1C104.2,87.3,104,87,103.6,86.3L103.6,86.3z"/>
		<path class="st0" d="M74.7,191.5c5.3,0.2,11.5-0.6,17.6-1.4c5.6-0.8,11.1-2,16.6-3.3c9.3-2.4,18.4-5.5,27.3-9.3
			c12.9-5.5,25.1-12.1,36.8-19.9c10-6.6,19.5-14,28.2-22.3c11.1-10.6,20.9-22.3,28.1-36c3.4-6.5,6.1-13.3,7.7-20.5
			c0.2-1,0.2-2.1,0.4-3.1c0.1-0.5,0.2-1.3,0.9-1.3s0.8,0.8,1,1.3c0.1,0.4,0.1,0.8,0.1,1.2c0.4,8-1,15.7-3.5,23.3
			c-3.2,9.6-8,18.4-13.7,26.7c-8.1,11.6-17.6,22-28.2,31.3c-6.9,6.1-14.2,11.8-21.8,17c-9.5,6.5-19.5,12.4-29.9,17.6
			c-7.9,3.9-15.9,7.4-24.2,10.4c-6.2,2.2-12.6,4.2-19,5.8c-5.7,1.4-11.4,2.7-17.2,3.5c-7.4,1-14.9,1.6-22.4,1.4
			c-8.5-0.2-16.9-1.1-25-3.7c-9.2-2.9-17.4-7.6-23.5-15.2c-3.5-4.3-6-9.3-7.4-14.8c-1.2-4.7-1.7-9.4-1.4-14.2
			c0.3-3.9,0.9-7.7,1.9-11.4c1.6-6.5,4.1-12.6,7.1-18.5c2.9-5.7,6.4-11.2,10.1-16.4c4.8-6.7,10.2-12.9,15.9-18.8
			c1.8-1.9,3.7-3.6,5.5-5.4c0.4-0.4,0.8-1.1,1.4-0.5c0.5,0.5,0.1,1.1-0.3,1.5c-2.3,2.5-4.4,5.2-6.4,7.9c-4.9,6.6-9.1,13.7-12.5,21.2
			c-2.4,5.5-4.4,11.1-5.2,17c-0.8,5.5-0.9,11.1,0.3,16.7c2.9,13.1,11.3,21.5,23.3,26.6C53.1,190.3,63.3,191.7,74.7,191.5L74.7,191.5
			z"/>
		<path class="st0" d="M70.5,107.2c0,0.5,0,0.9,0,1.4c0,2.5,0.3,2.7,2.8,2.3c1.1-0.2,2.3-0.4,3.4-0.5c1.7-0.2,1.9-0.5,0.9-2
			c-1-1.7-2-3.3-3-5c-0.3-0.5-0.9-1.1-0.4-1.5c0.7-0.6,1.1,0.2,1.5,0.6c1.7,1.7,3.1,3.5,4.3,5.6c0.7,1.2,1.4,1.4,2.7,0.9
			c1.8-0.6,3.6-1.2,5.2-2.1c0.9-0.5,1.8-0.6,2.1,0.8c0.1,0.3,0.4,0.6,0.6,0.9c3.6,3.2,6.9,6.6,9.3,10.7c0.7,1.2,1.4,1.5,2.5,0.6
			c0.4-0.4,1.1-0.8,1.5-0.2c0.5,0.6-0.2,1.1-0.6,1.4c-1.4,1-1.3,2-0.6,3.4c2.3,4.9,3.8,10,3.9,15.6c0,2.7,0.3,2.8,3,3.1
			c0.3,0,0.5,0,0.8,0.1c0.6,0.1,1.3,0.2,1.2,1c0,0.7-0.7,0.7-1.2,0.7s-0.9,0.1-1.4,0c-1.6-0.2-2.3,0.6-2.4,2.1
			c-0.2,5.9-2,11.3-4.5,16.5c-1.3,2.7-1.3,2.7,0.8,4.8c0.4,0.4,0.9,0.7,0.5,1.3c-0.5,0.6-1,0.3-1.5-0.1c-0.4-0.3-0.8-0.5-1.2-0.8
			c-0.8-0.5-1.4-0.4-2,0.4c-2.9,4.2-6.5,7.7-10.6,10.6c-1,0.7-0.2,1.1,0.2,1.5c0.4,0.3,1.1,0.6,0.6,1.2c-0.4,0.6-1,0.4-1.6,0.1
			c-2.4-1.3-5-1.7-7.5-2.6c-0.8-0.3-1.2,0.1-1.7,0.7c-0.9,1.2-1.8,2.3-2.8,3.4c-0.4,0.4-0.9,1-1.4,0.5c-0.5-0.4,0.1-0.8,0.3-1.2
			c0.5-0.8,1.1-1.7,1.7-2.5s0.3-1.5-0.6-1.6c-1.4-0.1-2.8-0.1-4.2-0.1c-0.8,0-0.9,0.6-0.9,1.2c0,1.5,0,2.9,0,4.4c0,0.4,0,1-0.5,1
			c-0.6,0.1-0.7-0.5-0.8-1c-0.2-1.4-0.3-2.8-0.4-4.2c0-1.1-0.5-1.5-1.5-1.5c-1.3,0-2.6-0.1-3.9,0.2c-1.6,0.4-1.7,0.6-0.9,1.9
			c0.5,0.8,1.1,1.6,1.6,2.4c0.2,0.4,0.4,0.8,0,1.1s-0.8,0-1.1-0.3c-0.8-1-1.6-1.9-2.4-2.9c-0.7-1-1.6-1.3-2.7-1
			c-2.1,0.6-4.2,1.3-6.2,2.1c-0.6,0.2-1.3,0.8-1.7,0.2c-0.5-0.7,0.3-1.1,0.8-1.4c0.6-0.5,0.5-0.8-0.1-1.3c-4.3-2.9-7.9-6.5-11-10.7
			c-0.6-0.9-1.2-1.2-2.2-0.5s-2,1.3-3,2c-0.4,0.2-0.8,0.4-1.1-0.1c-0.3-0.4,0.1-0.7,0.3-0.9c0.8-0.7,1.5-1.5,2.4-2.1
			c1.3-0.9,1.5-1.7,0.7-3.1c-3.1-5.5-4.7-11.4-5.3-17.6c-0.1-1.4-0.8-1.8-1.9-1.9c-1.4-0.1-2.8-0.2-4.2-0.3c-0.5,0-1.1,0-1.3-0.6
			c-0.1-0.7,0.5-1,1.1-1.1c1.5-0.5,3.1-0.2,4.7-0.3c1.2,0,1.6-0.5,1.6-1.7c0.1-6,1.6-11.7,4.2-17.1c0.7-1.6,0.6-2.5-0.8-3.4
			c-0.5-0.4-1.6-0.9-1.1-1.6c0.6-0.9,1.4,0.1,2,0.5c1.2,0.9,1.9,0.7,2.7-0.6c2.8-4.7,6.8-8.4,11-12c0.6-0.5,1.1-0.6,1.8-0.2
			c1.5,0.8,3.1,1.3,4.7,1.8c1.2,0.4,1.9,0.1,2.6-0.9c1.2-1.7,2.5-3.4,3.8-5c0.4-0.6,1-1.6,1.8-1c0.7,0.6-0.2,1.3-0.6,1.9
			c-0.9,1.6-1.9,3.3-2.8,4.9c-0.6,1-0.2,1.6,0.8,1.6c1.8,0.1,3.5,0.5,5.3,0.8c1.3,0.2,1.9-0.3,1.9-1.7c0.1-1.9,0.4-3.7,0.6-5.6
			c0-0.4,0.1-0.9,0.6-0.9c0.7,0,0.7,0.6,0.7,1C70.4,105,70.5,106.1,70.5,107.2L70.5,107.2L70.5,107.2z M38.8,146c-0.6,0-1.1,0-1.7,0
			c-2.4,0-2.6,0.1-2.3,2.5c0.7,5.4,2.1,10.6,4.5,15.4c0.4,0.9,0.9,1,1.7,0.5c2.6-1.5,5.2-2.8,8-3.9c0.9-0.3,1.1-0.9,0.9-1.7
			c-0.8-3.4-1.5-6.7-1.5-10.2c0-1.5-0.7-2.2-2.2-2.2C43.7,146.3,41.3,146.1,38.8,146L38.8,146z M95.1,146c-1.2,0-2.4,0-3.6,0
			c-0.8,0-1.4,0.2-1.4,1.1c-0.3,4-1.1,7.9-1.7,11.8c-0.1,0.9,0.2,1.2,1,1.5c2.5,0.9,4.8,2.1,7.1,3.4c2,1.1,2,1.1,2.9-1
			c2.3-5.1,3.7-10.4,4.1-16c0.1-1-0.5-1.1-1.2-1.1C99.8,145.7,97.5,146.2,95.1,146L95.1,146z M42.5,142.8c1.5,0,2.9,0,4.2-0.2
			c1-0.2,1.3-0.6,1.4-1.5c0.2-3.2,0.1-6.5,0.9-9.7c0.3-1-0.2-1.7-1.2-2c-2.2-0.8-4.3-2-6.3-3.1c-3.4-1.9-3.6-1.7-4.7,2.2
			c-1.2,4.2-2.2,8.5-2.4,12.9c-0.1,1.4,0.4,1.7,1.6,1.8C38.4,143.2,40.5,142.6,42.5,142.8L42.5,142.8z M97.7,143.1
			c1.4,0,2.4,0,3.4,0c2.1,0,2.4-0.3,2.3-2.3c-0.3-5.2-1.4-10.3-3.4-15.2c-0.3-0.7-0.7-0.9-1.3-0.5c-2.9,1.8-5.9,3.4-9,4.7
			c-0.5,0.2-0.8,0.5-0.7,1.2c0.6,3.5,0.8,7,1.1,10.6c0.1,0.8,0.4,1.3,1.2,1.2C93.6,142.7,95.9,143.3,97.7,143.1L97.7,143.1z
			 M65.8,129.2c1.4,0.3,1.6-0.5,1.6-1.5c-0.1-3.7,0.4-7.3,0.6-10.9c0.2-2,0.2-2.1-1.8-2.4c-2.1-0.3-4.3-0.4-6.3-1.1
			c-1.5-0.6-1.9,0.2-2.3,1.3c-1.5,3.8-2.7,7.8-3.6,11.8c-0.2,0.8,0,1.2,0.8,1.4C58.4,128.4,62.1,128.9,65.8,129.2L65.8,129.2z
			 M70.9,116.7c0.5,3.7,0.3,7.4,0.3,11.1c0,1.2,0.4,1.7,1.6,1.4c3.2-0.6,6.4-0.4,9.6-1.3c1.8-0.5,2-0.5,1.6-2.3
			c-0.9-3.7-2.1-7.3-3.4-10.9c-0.4-1.2-1.2-1.6-2.3-1.2c-1.8,0.6-3.7,0.7-5.5,0.9C71.4,114.5,70.6,115.2,70.9,116.7L70.9,116.7z
			 M68.2,172.3c-0.1-2.7-0.7-6.1-0.6-9.6c0-1.1-0.6-1.5-1.7-1.6c-3-0.1-5.8,0.5-8.7,0.9c-2.6,0.4-2.6,0.6-2,3c1,3.8,2.5,7.4,4.1,11
			c0.4,0.8,0.9,1.1,1.9,0.8c1.5-0.4,3-0.7,4.6-1C68.2,175.5,68.2,175.5,68.2,172.3L68.2,172.3z M59.7,146.7v-0.1c-2,0-4.1,0.1-6.1,0
			c-1,0-1.4,0.4-1.3,1.3c0.3,3.4,0.5,6.9,1.3,10.2c0.2,0.7,0.5,0.9,1.1,0.7c3.7-1.1,7.6-1.5,11.4-1.8c1-0.1,1.2-0.6,1.2-1.5
			c0-2.5,0-4.9,0-7.4c0-1-0.4-1.4-1.4-1.4C63.9,146.7,61.8,146.7,59.7,146.7L59.7,146.7z M74.1,161.1L74.1,161.1
			c-0.3,0.1-0.5,0.1-0.8,0.1c-2,0-2.1,0-2.1,2.1c0,2.9,0,5.8-0.3,8.8c-0.1,1.1-0.4,2.4,0.1,3.2c0.6,0.9,2.1,0.5,3.2,0.7
			c0.5,0.1,0.9,0.3,1.4,0.4c2.5,0.6,3,0.3,4.1-2.1c1.4-3.1,2.4-6.4,3.5-9.7c0.4-1.3,0.1-2.2-1.3-2.4
			C79.3,161.7,76.7,161.4,74.1,161.1L74.1,161.1z M77.2,146.7c-0.9,0-2.4,0.1-4,0c-1.3-0.1-1.8,0.5-1.8,1.7c0,2.3,0.2,4.6-0.2,6.9
			c-0.2,1.2,0.3,1.6,1.4,1.6c3.5,0.2,7,0.7,10.4,1.5c1.3,0.3,1.6-0.2,1.7-1.2c0.3-3.2,0.9-6.4,0.8-9.7c0-1-0.4-1.4-1.3-1.2
			C82.2,146.8,80.1,146.6,77.2,146.7L77.2,146.7z M55.5,112.1c0-0.6-0.4-0.8-0.8-1c-1.1-0.6-2.2-1.2-3.3-1.9c-1-0.6-1.8-0.6-2.6,0.3
			c-3.4,3.3-6.1,7-8.4,11.1c-0.7,1.3-0.4,2,0.8,2.6c2.4,1.1,4.8,2.1,7.3,2.9c1.1,0.4,1.8,0,2.1-1.1c1.1-4.2,2.7-8.1,4.6-12
			C55.3,112.6,55.4,112.3,55.5,112.1L55.5,112.1z M88.8,126.3c3.1-1,6.2-1.9,9-3.6c0.6-0.4,0.5-0.8,0.2-1.3
			c-2.3-4.5-5.2-8.4-8.9-11.9c-0.5-0.5-1-0.4-1.5-0.1c-1.3,0.8-2.6,1.5-4,2.1c-1.1,0.4-1,0.9-0.5,1.8c2.1,3.8,3.5,7.9,4.7,12.1
			C87.9,126,88.1,126.4,88.8,126.3L88.8,126.3z M63,142.5c0-0.1,0-0.2,0-0.3c0.7,0,1.5,0,2.2,0c1.2,0.1,1.8-0.3,1.9-1.6
			c0.1-1.8,0.2-3.7,0.2-5.5c0.1-1.4-0.6-1.9-1.8-1.9c-1.8,0-3.7-0.1-5.5-0.4c-1.8-0.4-3.7-0.8-5.5-1.2c-1.1-0.3-1.5,0-1.7,1.2
			c-0.4,2.7-0.5,5.3-0.7,8c-0.1,1.4,0.4,1.8,1.7,1.7C56.9,142.4,59.9,142.5,63,142.5L63,142.5z M78.6,142.5c2.1,0,3.8,0,5.5,0
			c1.1,0,1.8-0.4,1.7-1.6c-0.2-2.6-0.2-5.2-0.6-7.8c-0.2-1.3-0.9-1.6-2.1-1.4c-3.2,0.8-6.5,1.6-9.9,1.5c-1.3,0-1.9,0.6-1.8,1.9
			c0.1,1.8,0.1,3.7,0,5.5c0,1.1,0.4,1.6,1.5,1.7C75,142.6,77,142.4,78.6,142.5L78.6,142.5z M52.8,180.2c0.9-0.4,2.1-1.2,3.4-1.7
			c1.1-0.3,1.2-0.9,0.6-2c-2.2-3.7-4.1-7.5-5.2-11.7c-0.3-1-0.8-1.3-1.7-0.9c-2,0.7-4,1.3-5.9,2.1c-3.1,1.3-3,1.4-1.1,4.1
			c2.6,3.6,5.6,6.8,8.7,9.8C51.8,180.2,52,180.3,52.8,180.2L52.8,180.2z M96.8,167.6c-0.1-0.8-0.5-1-1-1.2c-1.7-0.6-3.3-1.3-5-1.9
			c-2.3-0.9-3.9-0.2-4.7,2c0,0.1-0.1,0.2-0.1,0.3c-1.2,3.2-2.7,6.4-4.4,9.3c-0.4,0.6-0.9,1.3,0.2,1.8c1.1,0.4,2.1,0.9,3.1,1.4
			s1.7,0.4,2.5-0.4c2.6-2.4,5-4.9,7-7.8C95.3,170,96,168.8,96.8,167.6L96.8,167.6z"/>
	</g>
</g>
</svg>
