<?xml version="1.0" encoding="utf-8"?>
<!-- Generator: Adobe Illustrator 26.2.1, SVG Export Plug-In . SVG Version: 6.00 Build 0)  -->
<svg version="1.1" id="katman_1" xmlns="http://www.w3.org/2000/svg" xmlns:xlink="http://www.w3.org/1999/xlink" x="0px" y="0px"
	 viewBox="0 0 616 216" style="enable-background:new 0 0 616 216;" xml:space="preserve">
<style type="text/css">
	.st0{fill:#373737;}
</style>
<g>
	<path class="st0" d="M575.6,208.7H573v2.7h2.6V208.7z M561.1,200.4l-2.1-0.3c-2.3-0.4-3.5-1.5-3.5-3.4c0-1.2,0.4-2.1,1.2-2.8
		c0.8-0.6,1.7-0.9,2.9-0.9c1.8,0,3.3,0.6,4.6,1.7l1.3-1.4c-1.6-1.5-3.5-2.2-5.8-2.2c-1.8,0-3.3,0.5-4.4,1.4c-1.2,1-1.8,2.4-1.8,4.3
		c0,3,1.7,4.7,5.1,5.3l2.3,0.4c1.2,0.2,2,0.5,2.5,1c0.6,0.5,1,1.4,1,2.5c0,1.3-0.5,2.2-1.4,2.9c-0.8,0.6-1.9,0.8-3.2,0.8
		c-2.1,0-3.9-0.7-5.3-2.2l-1.4,1.5c1.5,1.6,3.5,2.5,5.9,2.6l-1.2,3.6h2.2l0.9-3.6c1.7-0.2,3-0.7,4-1.6c1.1-1,1.7-2.3,1.7-4
		C566.3,202.8,564.6,201,561.1,200.4 M546.5,208.7h-2.6v2.7h2.6V208.7z M526.7,205l3.7-10.6L534,205H526.7z M531.2,191.3h-1.8
		l-7.2,20.1h2.2l1.5-4.5h8.6l1.6,4.5h2.2L531.2,191.3z M506.7,191.3h-2.1v20.1h2.1V191.3z M506.8,187.4h-2.2v2.3h2.2V187.4z
		 M496.6,191.3l-4.6,9.6l-4.6-9.6h-2.3l5.8,11.8v8.3h2.1v-8.3l5.8-11.8H496.6z M470.1,205l3.7-10.6l3.6,10.6H470.1z M474.6,191.3
		h-1.8l-7.2,20.1h2.2l1.5-4.5h8.6l1.6,4.5h2.2L474.6,191.3z M459.7,191.3h-2.1v16l-10.4-16h-2v20.1h2.1v-16.1l10.4,16.1h2V191.3z
		 M427.6,205l3.7-10.6l3.6,10.6H427.6z M432.1,191.3h-1.8l-7.2,20.1h2.2l1.5-4.5h8.6l1.6,4.5h2.2L432.1,191.3z M413.3,200.4
		l-2.1-0.3c-2.3-0.4-3.5-1.5-3.5-3.4c0-1.2,0.4-2.1,1.2-2.8c0.8-0.6,1.7-0.9,2.9-0.9c1.8,0,3.3,0.6,4.6,1.7l1.3-1.4
		c-1.6-1.5-3.5-2.2-5.8-2.2c-1.8,0-3.3,0.5-4.4,1.4c-1.2,1-1.8,2.4-1.8,4.3c0,3,1.7,4.7,5.1,5.3l2.3,0.4c1.2,0.2,2,0.5,2.5,1
		c0.6,0.5,1,1.4,1,2.5c0,1.3-0.5,2.2-1.4,2.9c-0.8,0.6-1.9,0.8-3.2,0.8c-2.1,0-3.9-0.7-5.3-2.2l-1.4,1.5c1.7,1.8,4,2.7,6.7,2.7
		c1.9,0,3.5-0.4,4.7-1.3c1.4-1,2.1-2.5,2.1-4.4C418.6,202.8,416.8,201,413.3,200.4 M390,209.4h-10.1v-7.2h8.6v-1.9h-8.6v-7.1H390
		v-1.9h-12.2v20.1H390V209.4z M369.8,191.3l-5.1,16.2l-5.1-16.2h-2.2l6.4,20.1h1.7l6.4-20.1H369.8z M344.1,191.3h-13.4v1.9h5.7v18.2
		h2.1v-18.2h5.7V191.3z M325.5,209.4h-10.1v-7.2h8.6v-1.9h-8.6v-7.1h10.1v-1.9h-12.2v20.1h12.2V209.4z M302.7,199.7
		c-0.7,0.6-1.7,0.9-2.8,0.9h-5.2v-7.4h5.2c1.2,0,2.1,0.3,2.8,1c0.7,0.6,1.1,1.6,1.1,2.7C303.8,198.1,303.4,199,302.7,199.7
		 M301.6,202.3c1.3-0.3,2.4-0.9,3.1-1.8c0.8-0.9,1.1-2.1,1.1-3.5c0-1.7-0.5-3.1-1.6-4.1c-1.1-1-2.5-1.5-4.2-1.5h-7.5v20.1h2.1v-8.9
		h4.7l4.5,8.9h2.5L301.6,202.3z M274.9,205l3.7-10.6l3.6,10.6H274.9z M279.4,191.3h-1.8l-7.2,20.1h2.2l1.5-4.5h8.6l1.6,4.5h2.2
		L279.4,191.3z M263.5,205.5c-0.3,1.2-0.8,2.2-1.6,3c-0.8,0.7-1.9,1.1-3.1,1.1c-1.2,0-2.1-0.3-3-1c-0.8-0.7-1.3-1.6-1.6-2.7
		c-0.1-0.8-0.2-2.3-0.2-4.5s0.1-3.8,0.2-4.5c0.2-1.1,0.7-2.1,1.6-2.7c0.8-0.7,1.8-1,3-1c1.2,0,2.2,0.4,3,1.1s1.4,1.7,1.6,3h2.1
		c-0.3-1.8-1.1-3.3-2.3-4.4c-1.2-1.1-2.7-1.6-4.5-1.6c-2,0-3.7,0.7-5,2.1c-0.9,0.9-1.4,1.9-1.6,3.2c-0.1,0.8-0.2,2.5-0.2,5
		c0,2.5,0.1,4.2,0.2,5c0.2,1.2,0.8,2.3,1.6,3.2c1.4,1.4,3,2.1,5,2.1c1.8,0,3.3-0.5,4.5-1.6c1.2-1.1,2-2.5,2.3-4.4H263.5z
		 M244.2,191.3h-2.1v20.1h2.1V191.3z M244.4,187.4h-2.2v2.3h2.2V187.4z M235.8,191.3h-13.4v1.9h5.7v18.2h2.1v-18.2h5.7V191.3z
		 M202.4,200.4l-2.1-0.3c-2.3-0.4-3.5-1.5-3.5-3.4c0-1.2,0.4-2.1,1.2-2.8c0.8-0.6,1.7-0.9,2.9-0.9c1.8,0,3.3,0.6,4.6,1.7l1.3-1.4
		c-1.6-1.5-3.5-2.2-5.8-2.2c-1.8,0-3.3,0.5-4.4,1.4c-1.2,1-1.8,2.4-1.8,4.3c0,3,1.7,4.7,5.1,5.3l2.3,0.4c1.2,0.2,2,0.5,2.5,1
		c0.6,0.5,1,1.4,1,2.5c0,1.3-0.5,2.2-1.4,2.9c-0.8,0.6-1.9,0.8-3.2,0.8c-2.1,0-3.9-0.7-5.3-2.2l-1.4,1.5c1.5,1.6,3.5,2.5,5.9,2.6
		l-1.2,3.6h2.2l0.9-3.6c1.7-0.2,3-0.7,4-1.6c1.1-1,1.7-2.3,1.7-4C207.6,202.8,205.9,201,202.4,200.4 M187.4,191.3h-2.1v20.1h2.1
		V191.3z M175.4,204.9c-0.2,1.4-0.6,2.4-1.2,3c-0.9,1-2.2,1.5-3.9,1.5h-4.3v-16.2h4.3c3,0,4.6,1.4,5,4.3c0.1,0.7,0.1,1.9,0.1,3.6
		C175.5,202.9,175.4,204.2,175.4,204.9 M177.4,196.9c-0.3-1.8-1-3.2-2.2-4.2c-1.2-0.9-2.7-1.4-4.5-1.4H164v20.1h6.7
		c3.9,0,6.1-1.9,6.7-5.8c0.1-0.8,0.2-2.3,0.2-4.5C177.6,199.1,177.5,197.7,177.4,196.9 M148,209.4h-10v-18.2h-2.1v20.1H148V209.4z
		 M118.2,205l3.7-10.6l3.6,10.6H118.2z M122.7,191.3H121l-7.2,20.1h2.2l1.5-4.5h8.6l1.6,4.5h2.2L122.7,191.3z M105.4,208.5
		c-0.7,0.6-1.7,1-2.8,1h-5.3v-7.4h5.3c1.2,0,2.1,0.3,2.8,0.9c0.8,0.7,1.1,1.6,1.1,2.8S106.1,207.8,105.4,208.5 M105.1,199.3
		c-0.7,0.6-1.6,0.9-2.8,0.9h-5.1v-7h5.1c2.6,0,3.9,1.2,3.9,3.5C106.2,197.8,105.8,198.7,105.1,199.3 M105.4,201
		c0.9-0.3,1.6-0.9,2.1-1.7c0.5-0.8,0.8-1.7,0.8-2.7c0-1.7-0.6-3-1.7-4c-1-0.9-2.4-1.4-4.1-1.4h-7.4v20.1h7.6c1.8,0,3.2-0.5,4.3-1.4
		c1.1-0.9,1.6-2.3,1.6-4.1C108.6,203.4,107.5,201.8,105.4,201 M85.1,205.8c-0.2,1.1-0.7,2.1-1.6,2.7c-0.8,0.7-1.8,1-3,1
		c-1.1,0-2.1-0.3-3-1c-0.8-0.7-1.4-1.6-1.6-2.7c-0.1-0.8-0.2-2.3-0.2-4.5s0.1-3.8,0.2-4.5c0.2-1.1,0.7-2.1,1.6-2.7
		c0.8-0.7,1.8-1,3-1c1.1,0,2.1,0.3,3,1c0.8,0.7,1.4,1.6,1.6,2.7c0.1,0.8,0.2,2.3,0.2,4.5S85.3,205.1,85.1,205.8 M87.2,196.4
		c-0.2-1.2-0.8-2.3-1.6-3.2c-1.4-1.4-3-2.1-5-2.1c-2,0-3.7,0.7-5,2.1c-0.9,0.9-1.4,1.9-1.6,3.2c-0.1,0.8-0.2,2.5-0.2,5
		c0,2.5,0.1,4.2,0.2,5c0.2,1.2,0.8,2.3,1.6,3.2c1.4,1.4,3,2.1,5,2.1c2,0,3.7-0.7,5-2.1c0.9-0.9,1.4-1.9,1.6-3.2
		c0.1-0.8,0.2-2.5,0.2-5C87.5,198.8,87.4,197.2,87.2,196.4 M68.1,209.4h-10v-18.2H56v20.1h12.1V209.4z M48.3,200.9h-6.9v1.9h4.8v1.5
		c0,1.6-0.4,2.8-1.2,3.8c-0.9,1-2.1,1.6-3.6,1.6c-1.2,0-2.1-0.3-3-1c-0.8-0.7-1.3-1.6-1.6-2.7c-0.1-0.8-0.2-2.3-0.2-4.5
		s0.1-3.8,0.2-4.5c0.2-1.1,0.8-2.1,1.6-2.7c0.8-0.7,1.8-1,3-1c1.3,0,2.3,0.4,3.1,1.1c0.8,0.7,1.4,1.7,1.7,3h2.1
		c-0.3-1.8-1.1-3.3-2.3-4.4c-1.2-1.1-2.8-1.6-4.6-1.6c-2,0-3.7,0.7-5,2.1c-0.9,0.9-1.4,1.9-1.6,3.2c-0.1,0.8-0.2,2.5-0.2,5
		c0,2.5,0.1,4.2,0.2,5c0.2,1.2,0.8,2.3,1.6,3.2c1.4,1.4,3,2.1,5,2.1c2.1,0,3.8-0.8,5.2-2.3c1.1-1.2,1.7-3,1.7-5.2V200.9z"/>
	<path class="st0" d="M394.2,80.4c0-47.5-31.4-77-81.7-76.9h-19.5h-0.5h-54v23.9h54.5v-0.1h19.4c34.8,0,56.7,20.4,56.7,52.9
		c0,32.4-21.7,52.6-56.4,52.6h-20.2v0h-54v23.9h54h0.5h19.5C362.8,156.9,394.2,127.5,394.2,80.4"/>
	<polygon class="st0" points="473.8,132.9 473.8,3.4 448.9,3.4 448.9,156.9 581.4,156.9 581.4,132.9 	"/>
	<polygon class="st0" points="185.8,159.4 111.3,3 110.5,0.9 109.7,3 35.2,159.4 62.1,159.4 110.4,55.2 110.5,55.5 110.6,55.4 
		136.4,111.1 148,136.1 148,136.1 150.6,141.5 158.9,159.4 	"/>
</g>
</svg>
