<?xml version="1.0" encoding="utf-8"?>
<!-- Generator: Adobe Illustrator 26.2.1, SVG Export Plug-In . SVG Version: 6.00 Build 0)  -->
<svg version="1.1" id="katman_1" xmlns="http://www.w3.org/2000/svg" xmlns:xlink="http://www.w3.org/1999/xlink" x="0px" y="0px"
	 viewBox="0 0 616 216" style="enable-background:new 0 0 616 216;" xml:space="preserve">
<style type="text/css">
	.st0{fill:#373737;}
</style>
<g id="Alternatif_Logo_RGB" transform="translate(-485 -415.012)">
	<g id="Group_2889" transform="translate(485 415.012)">
		<path id="Path_16841" class="st0" d="M23.1,70.5c0-1.6-1.3-2.9-2.9-2.9H4.8c-1.6,0-2.9,1.3-2.9,2.9c0,1.6,1.3,2.9,2.9,2.9h15.3
			C21.8,73.4,23.1,72.1,23.1,70.5C23.1,70.5,23.1,70.5,23.1,70.5L23.1,70.5z"/>
		<path id="Path_16842" class="st0" d="M19.2,82.1c0,1.6,1.3,2.9,2.9,2.9l0,0h7.1c1.6,0,2.9-1.3,2.9-2.9c0-1.6-1.3-2.9-2.9-2.9
			c0,0,0,0,0,0h-7.1C20.5,79.2,19.2,80.5,19.2,82.1L19.2,82.1z"/>
		<path id="Path_16843" class="st0" d="M105.4,101L33.9,29.6c-2.8-2.8-7.4-2.8-10.2,0c-1.3,1.3-2.1,3.2-2.1,5.1c0,3,0.6,6,1.7,8.8
			L28.1,56H15.4c-1.6,0-2.9,1.3-2.9,2.9c0,1.6,1.3,2.9,2.9,2.9c0,0,0,0,0,0h35.4c1.6,0,2.9,1.3,2.9,2.9c0,1.6-1.3,2.9-2.9,2.9
			c0,0,0,0,0,0H32.6L39.4,85h18.9c1.6,0,2.9,1.3,2.9,2.9c0,1.6-1.3,2.9-2.9,2.9c0,0,0,0,0,0H9.9c-1.6,0-2.9,1.3-2.9,2.9
			c0,1.6,1.3,2.9,2.9,2.9c0,0,0,0,0,0h33.9l4.4,11.3l-24.9,64.4c-1.1,2.8-1.6,5.7-1.7,8.7c0.1-4.9,2.5-9.4,6.5-12.1l77-53.6l0.3-0.3
			C109.2,111.1,109.2,104.9,105.4,101C105.4,101.1,105.4,101.1,105.4,101L105.4,101z"/>
	</g>
	<path id="Path_16844" class="st0" d="M518.9,601.4l71.2-71.2l-77,53.7c-4,2.8-6.4,7.3-6.5,12.1v0.3c0,4,3.2,7.2,7.2,7.2
		C515.7,603.5,517.5,602.8,518.9,601.4L518.9,601.4z"/>
	<g id="Group_2890" transform="translate(524.933 427.509)">
		<path id="Path_16845" class="st0" d="M92.5,135.8c-1.5,0-2.3-1-1.7-2.4L120,56.9c0.3-1.1,1.3-1.8,2.4-1.7h14.5
			c1.1-0.1,2.2,0.6,2.4,1.7l29.1,76.4c0.6,1.5-0.1,2.4-1.7,2.4H155c-1.1,0.1-2.1-0.6-2.4-1.7l-4.8-13.1c-0.3-1.1-1.3-1.8-2.4-1.7
			H114c-1.1-0.1-2.1,0.7-2.4,1.7l-4.9,13.1c-0.3,1.1-1.3,1.8-2.4,1.7H92.5z M139.9,106.1c1.5,0,2.2-1,1.7-2.4L131,75
			c-0.7-1.9-2.1-1.9-2.8,0l-10.5,28.6c-0.5,1.5,0.1,2.4,1.7,2.4H139.9z"/>
		<path id="Path_16846" class="st0" d="M177,135.8c-1,0.1-2-0.6-2.1-1.6c0-0.2,0-0.4,0-0.5V57.3c-0.1-1,0.6-2,1.6-2.1
			c0.2,0,0.4,0,0.5,0h10.6c1-0.1,2,0.6,2.1,1.6c0,0.2,0,0.4,0,0.5v76.2c0.1,1-0.6,2-1.6,2.1c-0.2,0-0.4,0-0.5,0L177,135.8L177,135.8
			z"/>
		<path id="Path_16847" class="st0" d="M223.2,135.8c-11.3,0-18-6.3-18-17.3V92.9c0.1-1-0.6-2-1.6-2.1c-0.2,0-0.4,0-0.5,0h-4.4
			c-1,0.1-2-0.6-2.1-1.6c0-0.2,0-0.4,0-0.5v-6.1c-0.1-1,0.6-2,1.6-2.1c0.2,0,0.4,0,0.5,0h4.4c1,0.1,2-0.6,2.1-1.6c0-0.2,0-0.4,0-0.5
			V67.1c-0.1-1,0.6-2,1.6-2.1c0.2,0,0.4,0,0.5,0h10.7c1-0.1,2,0.6,2.1,1.6c0,0.2,0,0.4,0,0.5v11c-0.1,1,0.6,2,1.6,2.1
			c0.2,0,0.4,0,0.5,0h8.3c1-0.1,2,0.6,2.1,1.6c0,0.2,0,0.4,0,0.5v6.1c0.1,1-0.6,2-1.6,2.1c-0.2,0-0.4,0-0.5,0h-8.3
			c-1-0.1-2,0.6-2.1,1.6c0,0.2,0,0.4,0,0.5v23.9c0,4.9,2.6,7.5,6.8,7.5h3.5c1-0.1,2,0.6,2.1,1.6c0,0.2,0,0.4,0,0.5v7.2
			c0.1,1-0.6,2-1.6,2.1c-0.2,0-0.4,0-0.5,0h-7.3L223.2,135.8z"/>
		<path id="Path_16848" class="st0" d="M252.7,131.9c-4.4-2.4-8.1-6-10.6-10.4c-2.5-4.4-3.8-9.4-3.7-14.5
			c-0.2-15.8,12.4-28.7,28.2-28.9c0.4,0,0.8,0,1.2,0c7.5-0.2,14.8,2.5,20.2,7.7c5.4,5.3,8.4,12.6,8.3,20.2l-0.1,1.2
			c0.1,1.1-0.8,2-1.8,2.1c-0.1,0-0.2,0-0.3,0h-38.8c-1.4,0-2.3,0.9-1.9,2.3c0.6,3.5,2.4,6.7,5.2,8.9c7,5.3,16.9,4.2,22.4-2.6
			c0.6-1,1.8-1.4,2.9-1l7.9,3.4c1.4,0.6,1.8,1.5,1.2,2.6c-5.3,8.4-14.7,13.3-24.6,12.9C262.7,135.9,257.4,134.5,252.7,131.9
			L252.7,131.9z M279.4,100.3c1.5,0,2.4-1,1.8-2.4c-2.1-5.4-7.4-9-13.2-8.7c-5.9-0.2-11.3,3.2-13.7,8.6c-0.6,1.5,0.3,2.5,1.8,2.5
			L279.4,100.3z"/>
		<path id="Path_16849" class="st0" d="M306.8,135.8c-1,0.1-2-0.6-2.1-1.6c0-0.2,0-0.4,0-0.5V82.6c-0.1-1,0.6-2,1.6-2.1
			c0.2,0,0.4,0,0.5,0h9.9c1-0.1,2,0.6,2.1,1.6c0,0.2,0,0.4,0,0.5v4.3c0,1.9,1,2.3,2.4,0.8c3.7-4.3,8.8-7,14.4-7.6
			c1-0.3,2,0.3,2.3,1.3c0.1,0.2,0.1,0.5,0.1,0.7v9.9c0.1,1.1-0.7,2-1.7,2.1c-0.1,0-0.3,0-0.4,0c-10.7,0.6-16.3,5.2-16.3,15.2v24.4
			c0.1,1-0.6,2-1.6,2.1c-0.2,0-0.4,0-0.5,0L306.8,135.8L306.8,135.8z"/>
		<path id="Path_16850" class="st0" d="M346.8,135.8c-1,0.1-2-0.6-2.1-1.6c0-0.2,0-0.4,0-0.5V82.5c-0.1-1,0.6-2,1.6-2.1
			c0.2,0,0.4,0,0.5,0h10.7c1-0.1,2,0.6,2.1,1.6c0,0.2,0,0.4,0,0.5v1.9c0,1.9,1,2.3,2.4,0.8c3.7-3.9,9-6,14.4-5.9
			c12,0,19.1,7.6,19.1,21.3v33.1c0.1,1-0.6,2-1.6,2.1c-0.2,0-0.4,0-0.5,0h-10.8c-1,0.1-2-0.6-2.1-1.6c0-0.2,0-0.4,0-0.5v-30.4
			c0-8.3-3.6-11.4-9.9-11.4c-6.6,0-11,4.3-11,12.5v29.3c0.1,1-0.6,2-1.6,2.1c-0.2,0-0.4,0-0.5,0L346.8,135.8z"/>
		<path id="Path_16851" class="st0" d="M417.4,132c-4.1-2.5-7.5-6.2-9.8-10.4c-6.3-11.6-4.5-25.9,4.3-35.6
			c4.9-5.2,11.7-8.1,18.8-8.2c5.8-0.2,11.5,1.9,15.9,5.7c1.5,1.2,2.5,1.1,2.5-0.6v-1.6c-0.1-1,0.6-2,1.6-2.1c0.2,0,0.4,0,0.5,0h10.6
			c1-0.1,2,0.6,2.1,1.6c0,0.2,0,0.4,0,0.5v51.1c0.1,1-0.6,2-1.6,2.1c-0.2,0-0.4,0-0.5,0h-10.7c-1,0.1-2-0.6-2.1-1.6
			c0-0.2,0-0.4,0-0.5v-1.3c0-1.8-0.8-2.5-1.9-1.5c-4.5,4.1-10.4,6.3-16.4,6.1C426,135.8,421.4,134.5,417.4,132L417.4,132z
			 M446.2,118.5c6.1-6.6,6.1-16.8,0-23.4c-6.4-6-16.4-6-22.8,0c-3.1,3.1-4.8,7.3-4.6,11.7c-0.2,4.4,1.5,8.6,4.6,11.7
			c3,3,7.1,4.7,11.4,4.6C439.1,123.2,443.2,121.5,446.2,118.5L446.2,118.5z"/>
		<path id="Path_16852" class="st0" d="M497.5,135.8c-11.3,0-18-6.3-18-17.3V92.9c0.1-1-0.6-2-1.6-2.1c-0.2,0-0.4,0-0.5,0H473
			c-1,0.1-2-0.6-2.1-1.6c0-0.2,0-0.4,0-0.5v-6.1c-0.1-1,0.6-2,1.6-2.1c0.2,0,0.4,0,0.5,0h4.4c1,0.1,2-0.6,2.1-1.6c0-0.2,0-0.4,0-0.5
			V67.1c-0.1-1,0.6-2,1.6-2.1c0.2,0,0.4,0,0.5,0h10.7c1-0.1,2,0.6,2.1,1.6c0,0.2,0,0.4,0,0.5v11c-0.1,1,0.6,2,1.6,2.1
			c0.2,0,0.4,0,0.5,0h8.3c1-0.1,2,0.6,2.1,1.6c0,0.2,0,0.4,0,0.5v6.1c0.1,1-0.6,2-1.6,2.1c-0.2,0-0.4,0-0.5,0h-8.3
			c-1-0.1-2,0.6-2.1,1.6c0,0.2,0,0.4,0,0.5v23.9c0,4.9,2.6,7.5,6.8,7.5h3.5c1-0.1,2,0.6,2.1,1.6c0,0.2,0,0.4,0,0.5v7.2
			c0.1,1-0.6,2-1.6,2.1c-0.2,0-0.4,0-0.5,0h-7.3L497.5,135.8z"/>
		<path id="Path_16853" class="st0" d="M517.6,69.9c-1.7-1.6-2.6-3.8-2.6-6.1c0-2.3,0.9-4.5,2.6-6.1c3.4-3.3,8.8-3.3,12.2,0
			c1.6,1.6,2.5,3.8,2.5,6.1c0,4.7-3.8,8.6-8.6,8.6C521.4,72.4,519.2,71.5,517.6,69.9z"/>
		<path id="Path_16854" class="st0" d="M518.4,135.8c-1,0.1-2-0.6-2.1-1.6c0-0.2,0-0.4,0-0.5V82.5c-0.1-1,0.6-2,1.6-2.1
			c0.2,0,0.4,0,0.5,0h10.5c1-0.1,2,0.6,2.1,1.6c0,0.2,0,0.4,0,0.5v51.1c0.1,1-0.6,2-1.6,2.1c-0.2,0-0.4,0-0.5,0H518.4z"/>
		<path id="Path_16855" class="st0" d="M548.6,135.8c-1,0.1-2-0.6-2.1-1.6c0-0.2,0-0.4,0-0.5V93.8c0.1-1-0.6-2-1.6-2.1
			c-0.2,0-0.4,0-0.5,0h-4.4c-1,0.1-2-0.6-2.1-1.6c0-0.2,0-0.4,0-0.5v-6.1c-0.1-1,0.6-2,1.6-2.1c0.2,0,0.4,0,0.5,0h4.4
			c1,0.1,2-0.6,2.1-1.6c0-0.2,0-0.4,0-0.5v-4.3c0-13.1,6-19.7,18-19.7c2.6,0,5.2,0.3,7.7,1c1.2,0.2,2,1.2,1.8,2.4v7
			c0,1.5-0.8,2.1-2.4,1.9c-1-0.2-2.1-0.4-3.2-0.4c-4.3,0-6.8,2.5-6.8,7.5v4.5c-0.2,1,0.5,2,1.6,2.1c0.2,0,0.3,0,0.5,0h8.4
			c1-0.1,2,0.6,2.1,1.6c0,0.2,0,0.4,0,0.5v6.1c0.1,1-0.6,2-1.6,2.1c-0.2,0-0.4,0-0.5,0h-8.4c-1.4,0-2.1,0.7-2.1,2.1v39.8
			c0.1,1-0.6,2-1.6,2.1c-0.2,0-0.4,0-0.5,0L548.6,135.8L548.6,135.8z"/>
	</g>
</g>
</svg>
