<?xml version="1.0" encoding="utf-8"?>
<!-- Generator: Adobe Illustrator 26.2.1, SVG Export Plug-In . SVG Version: 6.00 Build 0)  -->
<svg version="1.1" id="katman_1" xmlns="http://www.w3.org/2000/svg" xmlns:xlink="http://www.w3.org/1999/xlink" x="0px" y="0px"
	 viewBox="0 0 616 216" style="enable-background:new 0 0 616 216;" xml:space="preserve">
<style type="text/css">
	.st0{fill:#373737;}
	.st1{fill-rule:evenodd;clip-rule:evenodd;fill:#373737;}
</style>
<g>
	<path class="st0" d="M45.7,85.4c-6.4-4.8-15.8-6.9-28.3-6.9H0.2v41.4l17.1,8.5V92.9h0.6c6.7,0,12.2,0.7,15.9,3.4
		c3.4,2.6,5.2,6.7,5.2,12.3c0,3.9-0.8,7.6-3.1,10.3c-2.6,3.1-7,5.2-17.9,5.2h-0.7l-17.1-8.5v23h17.6c14.5,0,23.7-2.9,29.7-8.3
		c5.7-5.2,8.6-12.7,8.6-21.7C56,98.5,52.4,90.4,45.7,85.4"/>
	<path class="st0" d="M93.3,77.6c18.1,0,32.2,13.6,32.2,31c0,17.4-14,31-32.2,31s-32.2-13.6-32.2-31C61.1,91.2,75.2,77.6,93.3,77.6
		 M93.3,124.2c8.5,0,15-6.9,15-15.6c0-8.7-6.6-15.6-15-15.6s-15,6.9-15,15.6C78.2,117.3,84.8,124.2,93.3,124.2"/>
	<polygon class="st0" points="132.9,78.5 150,78.5 150,124.2 175.1,124.2 175.1,138.7 132.9,138.7 	"/>
	<path class="st0" d="M216.7,121.4c-1.8,2.1-4.4,3.3-8.1,3.3c-4.2,0-7.1-1.7-8.7-4c-1.7-2.3-2.3-5.7-2.3-11.6V78.5h-17.1v31.7
		c0,8.8,1.6,15.2,4.7,19.6c4.6,6.4,13.2,9.8,23.1,9.8c3,0,5.8-0.4,8.4-1V121.4z"/>
	<path class="st0" d="M361.4,83.7c-5.6-4.2-13.3-6.4-23.3-7v15.2c4.4,0.4,8,1.3,10.7,3.3c3.6,2.7,5.4,7,5.4,12.9
		c0,4.1-0.9,7.9-3.2,10.8c-2.2,2.6-5.6,4.6-12.9,5.3v15.2c11.8-0.7,19.7-3.7,25.1-8.5c6-5.5,9-13.3,9-22.8
		C372.2,97.4,368.4,88.9,361.4,83.7"/>
	<polygon class="st0" points="404.7,139.6 404.6,139.4 430.6,91.8 430.5,91.6 407.2,91.6 407.2,76.4 459.1,76.4 459.2,76.6 
		433.2,124.2 433.3,124.4 458.6,124.4 458.6,139.6 	"/>
	<path class="st0" d="M517.9,136c-5.8,2.8-13.6,4.5-21.2,4.5c-21.5,0-35.8-13.8-35.8-32.2c0-18.8,14.9-32.9,35.4-32.9
		c7.4,0,14.2,1.8,19.4,4.4v17.4c-5.6-3.4-12.4-5.8-18.8-5.8c-11.2,0-18.1,7.4-18.1,16.9c0,9.3,6.7,17,17.8,17c1.3,0,2.9-0.2,3.8-0.4
		v-6.7h-8.6V105h26V136z"/>
	<path class="st0" d="M582.2,116.7c-3.5-4.7-6.5-9-9.7-13.5l-0.2,0.1c0.1,5.3,0.2,10.7,0.2,16v20.2h-17.3V76.4h16.8l16.7,22.8
		c3.5,4.7,6.5,9,9.7,13.5l0.2-0.1c-0.1-5.3-0.2-10.7-0.2-16V76.4h17.3v63.1H599L582.2,116.7z"/>
	<polygon class="st0" points="379.4,139.6 397.4,139.6 397.4,101 379.4,92 	"/>
	<polygon class="st0" points="397.4,76.4 379.4,76.4 379.4,86 397.4,95 	"/>
	<polygon class="st0" points="525.9,139.6 543.9,139.6 543.9,101 525.9,92 	"/>
	<polygon class="st0" points="543.9,76.4 525.9,76.4 525.9,86 543.9,95 	"/>
	<polygon class="st1" points="224.2,76.4 330.6,129.4 330.6,139.6 224.2,86.6 	"/>
	<polygon class="st1" points="233.6,100.6 233.6,124.2 257.2,112.7 268.2,117.5 224.2,139 224.2,96 	"/>
	<polygon class="st1" points="321.3,114.1 321.3,91.8 297.7,103.2 286.7,98.5 323.8,80.3 330.6,77 330.6,118.7 	"/>
</g>
</svg>
