<?xml version="1.0" encoding="utf-8"?>
<!-- Generator: Adobe Illustrator 26.2.1, SVG Export Plug-In . SVG Version: 6.00 Build 0)  -->
<svg version="1.1" id="katman_1" xmlns="http://www.w3.org/2000/svg" xmlns:xlink="http://www.w3.org/1999/xlink" x="0px" y="0px"
	 viewBox="0 0 616 216" style="enable-background:new 0 0 616 216;" xml:space="preserve">
<style type="text/css">
	.st0{fill-rule:evenodd;clip-rule:evenodd;fill:#373737;}
	.st1{fill:#373737;}
</style>
<g>
	<path class="st0" d="M84.1,61.5c6.1,3.2,13.8,0.9,17-5.3c3.2-6.1,0.9-13.8-5.3-17c-6.1-3.2-13.8-0.9-17,5.3
		C75.6,50.6,77.9,58.2,84.1,61.5"/>
	<path class="st1" d="M38.4,59.9V46.8c0-12,3.7-21.7,11.1-29s17.5-11,30.3-11c3.8,0,13.8,0.3,16.8,0.8c3.1,0.5,5.4,3.4,5.4,6.6v11.2
		c0,4.1-3.5,7.3-7.3,6.7c-1.4-0.2-9.3-0.3-10.6-0.3c-9.9,0-14.8,5.7-14.8,17V60 M69.2,59.9v98.6c0,3.7-2.9,6.7-6.4,6.7h-18
		c-3.5,0-6.4-3-6.4-6.7V59.9"/>
	<path class="st0" d="M1.3,102.9c0.3-12.1,2.9-20.3,7.3-25.8C30.1,49.9,93.3,89.9,121,59.8C108,119.8,32.7,75.6,1.3,102.9"/>
	<polygon class="st0" points="131.9,37.6 130.9,46.2 138.7,49.8 130.3,51.5 129.3,60 125.1,52.5 116.6,54.2 122.5,47.9 118.2,40.4 
		126.1,44 	"/>
	<path class="st1" d="M92.2,132.5c0-3.1,0.4-6,1.2-8.8c0.8-2.8,1.9-5.4,3.3-7.9c1.4-2.4,3.1-4.6,5.1-6.6s4.2-3.7,6.6-5.1
		s5-2.5,7.9-3.2c2.8-0.8,5.7-1.2,8.8-1.2c4.5,0,8.8,0.8,12.8,2.5s7.4,4,10.4,6.9c2.9,2.9,5.3,6.4,7,10.4s2.6,8.3,2.6,12.9
		c0,3.1-0.4,6-1.2,8.8s-1.9,5.4-3.3,7.9c-1.4,2.4-3.1,4.6-5.1,6.6s-4.2,3.7-6.6,5.1c-2.4,1.4-5,2.5-7.8,3.3s-5.7,1.2-8.7,1.2
		s-6-0.4-8.8-1.2s-5.4-1.9-7.9-3.3c-2.4-1.4-4.6-3.1-6.6-5.1s-3.7-4.2-5.1-6.6c-1.4-2.4-2.5-5-3.3-7.9
		C92.6,138.5,92.2,135.5,92.2,132.5 M110.4,132.5c0,2.2,0.3,4.3,1,6.2s1.6,3.6,2.9,5c1.2,1.4,2.8,2.5,4.5,3.3c1.8,0.8,3.8,1.2,6,1.2
		s4.1-0.4,5.9-1.2c1.8-0.8,3.2-1.9,4.4-3.3c1.2-1.4,2.2-3.1,2.8-5s1-4,1-6.2s-0.3-4.2-1-6.1c-0.6-1.9-1.6-3.6-2.8-5.1
		s-2.7-2.6-4.4-3.5c-1.8-0.9-3.7-1.3-5.9-1.3c-2.2,0-4.2,0.4-6,1.3s-3.3,2-4.5,3.5s-2.2,3.2-2.9,5.1
		C110.8,128.3,110.4,130.3,110.4,132.5"/>
	<path class="st1" d="M169,101.6c0.4-0.4,0.9-0.6,1.4-0.7s0.9-0.1,1.4-0.1h7.5c0.6,0,1.1,0.1,1.5,0.3s0.8,0.5,1.1,0.9
		s0.5,0.8,0.7,1.2c0.2,0.5,0.4,0.9,0.5,1.4l1,4.4c0.5-1,1.3-2.1,2.4-3.2c1.1-1.1,2.5-2.1,4.1-3s3.5-1.6,5.7-2.2s4.6-0.9,7.2-0.9
		c3.8,0,7.2,0.7,10.2,2.2s5.5,3.5,7.6,6s3.7,5.5,4.7,8.8c1.1,3.4,1.6,7,1.6,10.8v32.7c0,1.3-0.3,2.2-0.8,2.9c-0.6,0.6-1.4,1-2.6,1
		h-11.5c-1.4,0-2.4-0.2-2.9-0.7s-0.8-1.4-0.8-2.8v-32.5c0-1.4-0.3-2.8-1-4.1c-0.6-1.3-1.5-2.4-2.6-3.4s-2.3-1.8-3.6-2.3
		s-2.7-0.9-4.1-0.9c-1.2,0-2.4,0.3-3.7,0.8c-1.2,0.5-2.4,1.3-3.4,2.2c-1,0.9-1.9,2.1-2.6,3.4c-0.7,1.3-1.1,2.7-1.2,4.2v32.5
		c0,0.6-0.1,1.1-0.3,1.7c-0.2,0.6-0.5,1-1,1.3c-0.4,0.3-0.8,0.4-1.2,0.6c-0.4,0.1-0.8,0.1-1.3,0.1h-11.3c-1.4,0-2.5-0.3-3.1-1
		s-0.9-1.6-0.9-2.8v-55.8c0-0.6,0.1-1.2,0.4-1.7c0.3-0.5,0.7-0.9,1.2-1.2L169,101.6L169,101.6z"/>
	<path class="st1" d="M305.1,161.8c0,0.6-0.1,1.1-0.3,1.6c-0.2,0.5-0.5,0.9-1,1.2c-0.4,0.4-0.8,0.6-1.3,0.7
		c-0.5,0.1-0.9,0.1-1.3,0.1h-9.8c-0.7,0-1.3-0.1-1.7-0.3c-0.4-0.2-0.8-0.4-1-0.8c-0.3-0.3-0.5-0.7-0.7-1.2s-0.4-1-0.6-1.6l-0.6-2.2
		c-0.9,0.9-1.9,1.8-3.1,2.6c-1.2,0.9-2.4,1.6-3.8,2.3s-2.9,1.2-4.4,1.6c-1.6,0.4-3.2,0.6-4.9,0.6c-3,0-5.9-0.4-8.7-1.2
		c-2.8-0.8-5.4-1.9-7.8-3.3c-2.4-1.4-4.6-3.1-6.6-5.1s-3.7-4.2-5.1-6.6c-1.4-2.4-2.5-5-3.3-7.9c-0.8-2.8-1.2-5.7-1.2-8.8
		c0-4.6,0.9-8.9,2.5-12.9c1.7-4,4-7.4,6.9-10.4s6.4-5.3,10.3-6.9c4-1.7,8.2-2.5,12.7-2.5c2.1,0,4,0.2,5.8,0.7s3.4,1.1,4.9,1.9
		s2.8,1.8,4,2.9s2.2,2.3,3.1,3.6l1.5-4.5c0.3-0.8,0.6-1.5,0.8-2c0.2-0.5,0.4-0.9,0.7-1.2s0.6-0.4,0.9-0.5c0.4-0.1,0.9-0.1,1.5-0.1
		h7.4c0.4,0,0.8,0,1.3,0.1s0.9,0.3,1.3,0.7c0.5,0.4,0.8,0.8,1,1.2c0.2,0.5,0.3,1,0.3,1.6L305.1,161.8L305.1,161.8z M255.9,133.8
		c0,2.2,0.3,4.3,1,6.2s1.7,3.6,2.9,5c1.3,1.4,2.8,2.5,4.6,3.3c1.8,0.8,3.8,1.2,5.9,1.2s4.3-0.4,6.2-1.2c1.9-0.8,3.6-1.9,5-3.3
		c1.4-1.4,2.5-3.1,3.3-5s1.2-4,1.2-6.2s-0.4-4.2-1.2-6.1c-0.8-1.9-1.9-3.6-3.3-5.1s-3.1-2.6-5-3.5s-4-1.3-6.2-1.3s-4.1,0.4-5.9,1.3
		s-3.3,2-4.6,3.5c-1.3,1.5-2.2,3.2-2.9,5.1C256.2,129.7,255.9,131.7,255.9,133.8"/>
	<path class="st1" d="M318.3,103c0.4-0.4,0.9-0.6,1.4-0.7s0.9-0.1,1.4-0.1h7.5c0.6,0,1.1,0.1,1.5,0.3c0.4,0.2,0.8,0.5,1.1,0.9
		c0.3,0.4,0.5,0.8,0.7,1.2c0.2,0.5,0.4,0.9,0.5,1.4l1,4.4c0.5-1,1.3-2.1,2.4-3.2s2.5-2.1,4.1-3s3.5-1.6,5.7-2.2s4.6-0.9,7.2-0.9
		c3.8,0,7.2,0.7,10.2,2.2s5.5,3.5,7.6,6s3.7,5.5,4.7,8.8c1.1,3.4,1.6,7,1.6,10.8v32.7c0,1.3-0.3,2.2-0.8,2.9c-0.6,0.6-1.4,1-2.6,1
		H362c-1.4,0-2.4-0.2-2.9-0.7s-0.8-1.4-0.8-2.8v-32.5c0-1.4-0.3-2.8-1-4.1c-0.6-1.3-1.5-2.4-2.6-3.4s-2.3-1.8-3.6-2.3
		c-1.3-0.6-2.7-0.9-4.1-0.9c-1.2,0-2.4,0.3-3.7,0.8c-1.2,0.5-2.4,1.3-3.4,2.2c-1,0.9-1.9,2.1-2.6,3.3c-0.7,1.3-1.1,2.7-1.2,4.2v32.5
		c0,0.6-0.1,1.1-0.3,1.7c-0.2,0.6-0.5,1-1,1.3c-0.4,0.3-0.8,0.4-1.2,0.6c-0.4,0.1-0.8,0.1-1.3,0.1H321c-1.4,0-2.5-0.3-3.1-1
		s-0.9-1.6-0.9-2.8v-55.8c0-0.6,0.1-1.2,0.4-1.7s0.7-0.9,1.2-1.2L318.3,103L318.3,103z"/>
	<path class="st1" d="M435.6,156.5c-1,1-1.9,2.1-2.9,3.1s-2.1,1.9-3.3,2.7c-1.2,0.8-2.6,1.4-4.1,1.9s-3.3,0.7-5.3,0.7
		c-4.5,0-8.7-0.8-12.5-2.3s-7.1-3.7-9.9-6.4s-5-6-6.5-9.9c-1.6-3.8-2.4-8-2.4-12.6s0.8-8.8,2.4-12.8s3.7-7.4,6.5-10.4
		c2.8-2.9,6.1-5.3,9.9-6.9c3.8-1.7,8-2.5,12.5-2.5c2.1,0,4,0.2,5.6,0.7c1.7,0.5,3.2,1.1,4.7,1.9c1.4,0.8,2.7,1.8,3.9,2.9
		c1.2,1.1,2.2,2.3,3.2,3.5l1.4-4.4c0.2-0.6,0.4-1.1,0.6-1.5c0.2-0.5,0.4-0.9,0.6-1.2c0.3-0.3,0.6-0.6,1-0.7c0.4-0.2,1-0.3,1.6-0.3
		h7.4c0.5,0,0.9,0.1,1.4,0.3c0.5,0.2,0.9,0.4,1.3,0.7c0.4,0.3,0.7,0.7,0.9,1.2c0.2,0.5,0.3,1,0.3,1.6v70.8c0,5.2-0.9,9.8-2.5,13.9
		c-1.7,4.1-4,7.5-7,10.3c-2.9,2.8-6.4,4.9-10.5,6.4c-4,1.5-8.4,2.2-13,2.2c-1.8,0-3.7-0.1-5.8-0.5c-2.1-0.3-4.1-0.8-6.2-1.4
		s-4-1.4-5.9-2.4s-3.6-2.1-5.1-3.4c-0.5-0.4-0.9-0.8-1.3-1.4c-0.3-0.6-0.5-1.2-0.5-1.8c0-0.8,0.3-1.7,0.9-2.6l4.7-6.5
		c0.5-0.5,0.9-0.9,1.3-1.1c0.4-0.3,0.8-0.4,1.3-0.4c0.7,0,1.6,0.4,2.7,1.2c0.8,0.8,1.8,1.4,2.9,1.9s2.2,0.9,3.3,1.2
		c1.2,0.3,2.3,0.5,3.4,0.6s2.1,0.1,3,0.1c1.5,0,3.1-0.2,4.7-0.6c1.6-0.4,3.2-1,4.6-1.8s2.7-1.7,3.7-2.9c1.1-1.1,1.8-2.4,2.2-3.9
		c0.2-0.7,0.4-1.4,0.4-2.2c0.1-0.8,0.1-1.6,0.1-2.5 M406.5,133.6c0,2.2,0.3,4.3,1,6.2s1.7,3.6,2.9,5c1.3,1.4,2.8,2.5,4.6,3.3
		c1.8,0.8,3.8,1.2,5.9,1.2s4.1-0.4,6-1.1c1.9-0.7,3.5-1.8,4.9-3.1s2.5-2.9,3.4-4.7s1.3-3.7,1.4-5.8V133c-0.1-2-0.6-4-1.4-5.8
		s-2-3.4-3.4-4.8s-3-2.5-4.9-3.3s-3.9-1.2-6-1.2s-4.1,0.4-5.9,1.3s-3.3,2-4.6,3.4c-1.3,1.4-2.2,3.1-2.9,5
		C406.8,129.5,406.5,131.5,406.5,133.6"/>
	<path class="st1" d="M519,157.9c-2.9,2.7-6.2,4.8-9.9,6.3c-3.7,1.5-7.5,2.3-11.6,2.3c-4.6,0-8.9-0.8-12.9-2.5
		c-4.1-1.7-7.6-4-10.7-6.9s-5.5-6.4-7.3-10.4s-2.7-8.3-2.7-13c0-2.9,0.4-5.8,1.1-8.5s1.7-5.3,3-7.7c1.3-2.4,2.9-4.6,4.8-6.6
		s4-3.7,6.3-5.2c2.3-1.4,4.9-2.5,7.6-3.4s5.6-1.2,8.6-1.2c2.8,0,5.4,0.4,8,1.1s5,1.8,7.3,3.1c2.3,1.3,4.4,2.9,6.3,4.8
		c1.9,1.9,3.5,3.9,4.9,6.1s2.4,4.6,3.2,7.1c0.7,2.5,1.1,5.1,1.1,7.8c0,1.7,0,3.1-0.1,4.3c0,1.1-0.3,2-0.8,2.6s-1.2,1.1-2.3,1.3
		c-1.1,0.3-2.7,0.4-4.8,0.4h-35.9c0.3,2.1,1,3.9,2,5.3c1,1.4,2.2,2.6,3.5,3.4c1.3,0.9,2.7,1.5,4.2,1.8c1.5,0.4,2.9,0.6,4.3,0.6
		c1.2,0,2.4-0.1,3.7-0.4c1.3-0.3,2.5-0.6,3.7-1s2.3-0.9,3.2-1.5c1-0.6,1.8-1.1,2.4-1.7c0.5-0.4,1-0.8,1.4-1s0.8-0.3,1.2-0.3
		c0.4,0,0.9,0.1,1.3,0.4c0.4,0.3,1,0.7,1.5,1.3l5.3,6c0.4,0.4,0.6,0.8,0.7,1.2c0.1,0.3,0.1,0.7,0.1,1.1c0,0.7-0.2,1.2-0.6,1.7
		C519.9,157.1,519.5,157.5,519,157.9 M495,116.3c-1.3,0-2.6,0.3-3.8,0.8c-1.2,0.5-2.4,1.2-3.4,2.1c-1.1,0.9-2,1.8-2.9,2.9
		s-1.5,2.2-2.1,3.3h25.5c-0.7-1.3-1.5-2.5-2.3-3.6s-1.8-2.1-2.8-2.9s-2.2-1.5-3.6-1.9C498.4,116.5,496.8,116.3,495,116.3"/>
	<path class="st1" d="M536.6,87c0-1.1,0.3-2,0.8-2.7s1.5-1.1,2.8-1.1h12.2c0.3,0,0.7,0.1,1,0.3s0.7,0.4,1,0.8
		c0.3,0.3,0.6,0.7,0.8,1.2s0.3,1,0.3,1.5v74.6c0,1.3-0.4,2.2-1.1,2.9c-0.7,0.6-1.6,1-2.8,1H540c-1.3,0-2.2-0.3-2.8-1
		c-0.5-0.6-0.8-1.6-0.8-2.9L536.6,87L536.6,87z"/>
	<path class="st1" d="M577,145.7c0.9,0.9,1.9,1.7,2.9,2.3s2.1,1.1,3,1.5s1.8,0.7,2.5,0.8s1.2,0.3,1.5,0.3c0.6,0,1.4,0,2.4-0.1
		c1,0,1.9-0.2,2.8-0.4c0.9-0.3,1.7-0.7,2.3-1.2c0.6-0.6,1-1.4,1-2.4c0-0.9-0.2-1.7-0.6-2.2c-0.4-0.6-0.9-1-1.6-1.4
		c-0.7-0.4-1.6-0.7-2.6-1s-2.2-0.6-3.4-1c-4-1.1-7.3-2.4-9.9-3.8c-2.6-1.5-4.7-3.2-6.2-5s-2.6-3.8-3.2-6c-0.6-2.1-0.9-4.4-0.9-6.7
		c0-2.8,0.6-5.3,1.6-7.5c1.1-2.3,2.7-4.2,4.7-5.8c2-1.6,4.5-2.9,7.3-3.7c2.8-0.9,6-1.3,9.4-1.3c2.1,0,4.1,0.2,5.9,0.5
		c1.8,0.3,3.6,0.9,5.2,1.6c1.7,0.7,3.3,1.7,4.9,2.9c1.6,1.2,3.2,2.6,4.7,4.2c0.6,0.7,0.9,1.3,0.9,1.9s-0.4,1.2-1.1,1.9
		c-1.3,1.1-2.5,2.1-3.7,3.1s-2.4,2.2-3.7,3.4c-0.4,0.3-0.8,0.5-1.2,0.6s-0.8,0.1-1.2,0s-0.7-0.3-1-0.5s-0.6-0.5-0.9-0.9
		c-1.2-1.3-2.5-2.2-4-2.6s-2.9-0.7-4.2-0.7c-1.6,0-2.9,0.3-3.9,0.9s-1.4,1.4-1.3,2.6c0.1,0.9,0.4,1.5,1,2s1.3,0.9,2.1,1.2
		c0.9,0.3,1.8,0.5,2.7,0.7s1.8,0.4,2.6,0.6c3,1,5.7,2,8.2,3.1s4.7,2.5,6.5,4.2c1.8,1.6,3.2,3.6,4.3,5.9c1,2.3,1.5,5.1,1.5,8.4
		s-0.7,6.2-2,8.8s-3.1,4.8-5.4,6.5c-2.3,1.8-5,3.1-8.2,4c-3.1,0.9-6.5,1.4-10.2,1.4c-2.1,0-4.2-0.2-6.3-0.6s-4.2-1-6.2-1.8
		s-3.9-1.9-5.7-3.1c-1.8-1.3-3.4-2.8-4.8-4.7c-0.4-0.5-0.6-1-0.8-1.5s-0.3-1-0.3-1.5s0.1-1,0.3-1.4s0.5-0.8,0.9-1.1l6.4-6.4
		c0.8-0.7,1.5-0.9,2.1-0.7S576,144.8,577,145.7"/>
	<path class="st1" d="M474.7,207.4c0,0.8-0.4,1.2-1.2,1.2h-2.8c-0.8,0-1.3-0.4-1.3-1.2v-2.8c0-0.4,0.1-0.7,0.3-0.9
		c0.2-0.2,0.5-0.3,0.9-0.3h2.8c0.4,0,0.7,0.1,0.9,0.3c0.2,0.2,0.3,0.5,0.3,0.9v2.8H474.7z"/>
	<path class="st1" d="M508,200.6c0.1-0.1,0.3-0.2,0.4-0.3s0.3-0.2,0.5-0.3s0.3-0.1,0.5,0s0.4,0.2,0.5,0.4c0.4,0.5,0.7,0.9,0.9,1.2
		c0.2,0.3,0.4,0.6,0.6,0.7c0.1,0.2,0.3,0.3,0.3,0.4c0.1,0.1,0.2,0.3,0.2,0.4c0.1,0.1,0.1,0.3,0,0.5c0,0.2-0.1,0.4-0.3,0.6
		c-0.1,0.2-0.4,0.4-0.7,0.7c-0.8,0.6-1.6,1.2-2.5,1.7s-1.8,0.9-2.7,1.3c-0.9,0.4-1.9,0.6-2.9,0.9c-1,0.2-2.1,0.3-3.3,0.3
		c-1.6,0-3.2-0.2-4.7-0.6c-1.5-0.4-2.9-1-4.3-1.8s-2.6-1.8-3.7-2.8c-1.1-1.1-2.1-2.3-2.9-3.7s-1.4-2.8-1.9-4.3
		c-0.4-1.5-0.7-3.1-0.7-4.8s0.2-3.2,0.7-4.8c0.4-1.5,1.1-3,1.9-4.3s1.8-2.6,2.9-3.7c1.1-1.1,2.3-2.1,3.7-2.8
		c1.3-0.8,2.8-1.4,4.3-1.8c1.5-0.4,3.1-0.6,4.7-0.6c1,0,2.1,0.1,3.1,0.3s2,0.5,2.9,0.8s1.8,0.7,2.7,1.2c0.8,0.5,1.6,1,2.2,1.5
		c0.1,0.1,0.3,0.2,0.4,0.4c0.2,0.1,0.3,0.3,0.4,0.5s0.2,0.4,0.2,0.6c0,0.2,0,0.4-0.1,0.7l-2,2.6c-0.5,0.6-1,0.6-1.6,0
		c-0.5-0.5-1.1-1-1.7-1.4s-1.3-0.8-2.1-1.1c-0.7-0.3-1.5-0.5-2.3-0.7s-1.6-0.3-2.3-0.3c-1.6,0-3.2,0.3-4.7,1s-2.8,1.6-4,2.8
		s-2.1,2.6-2.8,4.1c-0.7,1.6-1,3.2-1,5s0.3,3.4,1,5s1.6,2.9,2.8,4.1c1.2,1.2,2.5,2.1,4,2.8s3.1,1,4.7,1c1,0,1.9-0.1,2.7-0.3
		c0.8-0.2,1.6-0.4,2.2-0.8c0.7-0.3,1.3-0.7,1.9-1.1C507,201.5,507.5,201.1,508,200.6"/>
	<path class="st1" d="M515.4,191.2c0-2.5,0.5-4.8,1.4-7c1-2.2,2.3-4.1,3.9-5.8c1.6-1.6,3.5-2.9,5.7-3.9s4.5-1.4,7-1.4
		c1.6,0,3.2,0.2,4.7,0.6c1.5,0.4,3,1,4.3,1.8s2.6,1.8,3.7,2.8s2.1,2.3,2.8,3.7c0.8,1.3,1.4,2.8,1.8,4.3c0.4,1.5,0.6,3.1,0.6,4.8
		s-0.2,3.2-0.6,4.8c-0.4,1.5-1,3-1.8,4.3s-1.8,2.6-2.8,3.7c-1.1,1.1-2.3,2-3.7,2.8s-2.8,1.4-4.3,1.8c-1.5,0.4-3.1,0.6-4.7,0.6
		c-1.6,0-3.2-0.2-4.7-0.6s-3-1-4.3-1.8s-2.6-1.7-3.7-2.8c-1.1-1.1-2.1-2.3-2.8-3.7c-0.8-1.3-1.4-2.8-1.8-4.3
		C515.6,194.4,515.4,192.8,515.4,191.2 M520.8,191.2c0,1.7,0.3,3.4,1,4.9c0.7,1.6,1.6,2.9,2.7,4.1c1.1,1.2,2.5,2.1,4,2.8
		s3.2,1,4.9,1s3.3-0.3,4.8-1s2.8-1.6,4-2.8c1.1-1.2,2-2.5,2.7-4.1s1-3.2,1-4.9s-0.3-3.3-1-4.9c-0.6-1.6-1.5-3-2.7-4.2
		c-1.1-1.2-2.4-2.2-4-2.9c-1.5-0.7-3.1-1.1-4.8-1.1s-3.4,0.4-4.9,1.1c-1.5,0.7-2.8,1.7-4,2.9s-2,2.6-2.7,4.2
		C521.2,187.8,520.8,189.5,520.8,191.2"/>
	<path class="st1" d="M564,177.8c0.5-0.6,1.1-1.2,1.6-1.8s1.2-1,2-1.5c0.7-0.4,1.5-0.7,2.5-1s2-0.4,3.2-0.4c2.9,0,5.3,0.5,7.1,1.6
		s3.3,2.6,4.4,4.7c0.5-1.2,1.2-2.1,2-2.9c0.8-0.8,1.7-1.5,2.8-2c1-0.5,2.1-0.9,3.3-1.1c1.2-0.2,2.4-0.3,3.6-0.3c2.3,0,4.2,0.4,6,1.2
		c1.7,0.8,3.2,1.8,4.3,3.2c1.2,1.3,2,2.9,2.6,4.7s0.9,3.8,0.9,5.8v18.7c0,0.6-0.2,1.1-0.5,1.4c-0.3,0.3-0.7,0.5-1.2,0.5h-2
		c-0.7,0-1.1-0.1-1.3-0.4c-0.2-0.3-0.3-0.7-0.3-1.4V188c0-1.1-0.1-2.2-0.4-3.4c-0.3-1.1-0.8-2.2-1.5-3.1c-0.7-0.9-1.6-1.7-2.7-2.3
		c-1.1-0.6-2.5-0.9-4.2-0.9c-1.4,0-2.6,0.2-3.7,0.7c-1.1,0.4-2,1.1-2.8,1.9c-0.8,0.8-1.3,1.9-1.8,3.1c-0.4,1.2-0.6,2.5-0.6,4.1v18.7
		c0,0.6-0.2,1.1-0.5,1.4c-0.3,0.3-0.7,0.5-1.2,0.5h-2c-0.7,0-1.1-0.1-1.3-0.4c-0.2-0.3-0.3-0.7-0.3-1.4v-18.7c0-1.1-0.1-2.2-0.4-3.4
		c-0.3-1.1-0.8-2.2-1.5-3.1c-0.7-0.9-1.6-1.7-2.7-2.3c-1.1-0.6-2.5-0.9-4.2-0.9c-1,0-2.1,0.2-3.2,0.6c-1.1,0.4-2,0.9-2.9,1.7
		c-0.9,0.7-1.5,1.6-2.1,2.7c-0.5,1.1-0.8,2.3-0.8,3.7v20.3c0,0.8-0.4,1.2-1.2,1.2h-2.8c-0.9,0-1.3-0.4-1.3-1.2V175
		c0-0.4,0.1-0.7,0.4-0.9c0.2-0.2,0.5-0.3,0.9-0.3h2.9c0.4,0,0.7,0.1,0.9,0.4c0.2,0.2,0.3,0.5,0.3,0.9L564,177.8L564,177.8z"/>
</g>
</svg>
