<?xml version="1.0" encoding="utf-8"?>
<!-- Generator: Adobe Illustrator 26.2.1, SVG Export Plug-In . SVG Version: 6.00 Build 0)  -->
<svg version="1.1" id="katman_1" xmlns="http://www.w3.org/2000/svg" xmlns:xlink="http://www.w3.org/1999/xlink" x="0px" y="0px"
	 viewBox="0 0 616 216" style="enable-background:new 0 0 616 216;" xml:space="preserve">
<style type="text/css">
	.st0{fill:#373737;}
</style>
<g id="logo">
	<path class="st0" d="M46.4,78.5c9.1,0,17.9,2.6,26,11.5l10.7-24.8C73.7,57.5,61,53.1,46.4,53.1c-2.6,0-5.1,0.2-7.6,0.4l-17,38.8
		C26.4,83.6,35.1,78.5,46.4,78.5z"/>
	<path class="st0" d="M47.1,99.1v23.3h20.7c-2.8,10.9-10.2,15.1-22.2,15.1c-15.5,0-27.3-11.3-27.3-29.5c0-4.4,0.5-8.5,1.9-12.1
		L0.4,140.8c9.6,14,25.7,22.1,44.3,22.1c33.1,0,51.8-19.1,51.8-54.9v-8.9C96.5,99.1,47.1,99.1,47.1,99.1z"/>
	<path class="st0" d="M615.6,77.3H587v85.6h-28.5V77.3h-10.7l10.7-24.3h57.1L615.6,77.3L615.6,77.3z"/>
	<path class="st0" d="M528.3,121.5h-37.1v41.4h-28.5v-45.1l28.5-64.8h45.7v24.3h-45.7v20h37.1L528.3,121.5L528.3,121.5z"/>
	<path class="st0" d="M396,162.9c-20.2,0-36.5-8.1-46.2-22L370,95.1c-1.4,3.8-2.2,8.1-2.2,12.9c0,18.3,11.3,29.5,28.1,29.5
		c16.9,0,28.1-11.3,28.1-29.5S412.8,78.5,396,78.5c-11.4,0-20.2,5.1-24.7,14l17.2-39c2.5-0.3,5-0.4,7.6-0.4
		c33.1,0,55.6,21.8,55.6,54.9S429.1,162.9,396,162.9z"/>
	<path class="st0" d="M311.1,129.2c0-6.6-8.8-9.4-19.1-12.6c-5.1-1.5-9.8-3.3-14.1-5.7l12.6-28.5c-0.2,0.5-0.2,1.2-0.2,1.8
		c0,7,9,8.3,17.4,10.7c20.3,6,31.3,13.2,31.3,34.7c0,15.9-15.7,33.2-41.7,33.2c-16,0-28.3-5.4-35.6-15.3l5.8-13.2l4.2-9.4
		c2.6,7.2,16.2,14.7,24.9,14.7C305.1,139.7,311.1,136.1,311.1,129.2z M291.2,80.7l12.1-27.6c15.3-0.2,26.7,4.1,34.7,14.3l-9.8,22.3
		C317,76.3,303.9,75.9,300,76.3C295.1,76.8,292.6,78.1,291.2,80.7z"/>
	<polygon class="st0" points="227.3,53.1 157.7,53.1 147,77.3 190.1,77.3 152.2,162.9 227.3,162.9 227.3,138.7 189.6,138.7 	"/>
	<path class="st0" d="M136,53.1h-28.5v24.3h24.3c-0.9,1.3-23.4,53.6-24.3,54.9v30.7H136"/>
</g>
</svg>
