<?xml version="1.0" encoding="utf-8"?>
<!-- Generator: Adobe Illustrator 26.2.1, SVG Export Plug-In . SVG Version: 6.00 Build 0)  -->
<svg version="1.1" id="katman_1" xmlns="http://www.w3.org/2000/svg" xmlns:xlink="http://www.w3.org/1999/xlink" x="0px" y="0px"
	 viewBox="0 0 616 216" style="enable-background:new 0 0 616 216;" xml:space="preserve">
<style type="text/css">
	.st0{fill-rule:evenodd;clip-rule:evenodd;fill:#373737;}
	.st1{fill:#373737;}
	.st2{fill:none;}
</style>
<g>
	<polygon class="st0" points="169.9,104.8 207.8,163.2 236.9,163.2 186.1,87.5 233.3,36.5 202.4,36.5 148.5,98 148.5,36.5 
		124.4,36.5 124.4,163.2 148.5,163.2 148.5,127.9 	"/>
	<path class="st0" d="M14.5,151.2c9.5,9.3,22.8,13.9,39.6,13.9c15.9,0,28.4-4.1,37.5-12.2c9.1-8.1,13.7-20.4,13.7-36.8V95.2H53.8
		v19.8h27.7v4.6c0,8-2.2,13.9-6.6,17.9c-4.4,4-11.2,6-20.4,6c-10.2,0-17.7-2.8-22.7-8.4c-5-5.6-7.4-14.3-7.4-26.2V90.8
		c0-12.1,2.5-21.1,7.4-26.9c5-5.8,12.5-8.7,22.5-8.7c8.4,0,15.1,2,19.8,6.1c4.8,4.1,7.2,9.5,7.2,16.2v0.7h24v-1.5
		c0-8.8-2.1-16.5-6.3-22.9c-4.2-6.5-10.2-11.4-17.9-14.8c-7.7-3.4-16.6-5-26.8-5c-17,0-30.3,4.6-39.8,13.9
		C4.9,57.4,0.2,71.3,0.2,89.7v19.8C0.2,128,4.9,141.9,14.5,151.2z"/>
	<path class="st0" d="M592,125.2c0,11.4-6.5,17.1-19.5,17.1h-33.6v-33h32.7C585.2,109.2,592,114.5,592,125.2z M538.9,57.4h31.9
		c12.7,0,19.1,5.3,19.1,15.8c0,10-6.7,15.1-20,15.1h-31V57.4z M610.8,109.2c-3.4-4.9-8.3-8.6-14.8-11.2c5.8-2.6,10.2-6.1,13.3-10.7
		c3.1-4.6,4.7-9.8,4.7-15.5c0-11.4-3.8-20.1-11.4-26.2c-7.6-6.1-18.5-9.1-32.9-9.1h-54.9v126.6h57.3c14.1,0,24.9-3.2,32.4-9.5
		c7.5-6.3,11.3-15.3,11.3-26.9C615.8,120,614.1,114.1,610.8,109.2z"/>
	<path class="st0" d="M398.3,126.9c1.3,11.7,6,20.8,13.9,27.2c8.4,6.8,20.4,10.2,35.8,10.2c15.8,0,28.2-3.4,37.3-10.2
		c9.1-6.8,13.6-16.5,13.6-29.3c0-10.3-3.1-18.4-9.4-24.3c-6.2-5.9-15.4-9.7-27.3-11.3l-15.2-2c-5.4-0.7-9.8-1.7-13.2-3.2
		c8.5,11.2,19.8,12.7,30.9,19.7c11.4,7.3,10.7,20.5,10.5,22.3c0,0.2,0,0.4,0,0.6c0,11.4-8.6,17.1-25.9,17.1
		c-8.8,0-15.5-1.5-20.1-4.5c-4.1-2.6-6.7-6.8-7.8-12.3h10.9L409.5,101l-22.8,25.9H398.3z"/>
	<path class="st0" d="M495.3,65.6c-1.9-8.9-6.1-16-12.6-21.2c-8.1-6.5-19.3-9.7-33.6-9.7c-14.8,0-26.5,3.4-35.1,10.2
		c-8.6,6.8-12.8,16.1-12.8,28c0,20.4,12.8,32.2,38.5,35.4l13.4,1.7c6.6,0.7,11.7,2.1,15.2,4.1c-4.5-8.2-13-10.3-24.7-16.2
		c-12.7-6.4-17.1-17.8-18.4-22.1c-0.5-1.4-0.7-3-0.7-4.6c0-5.1,2-9.1,6.1-11.9c4-2.8,10-4.2,18-4.2c8,0,13.9,1.4,17.9,4.2
		c2.3,1.6,4,3.8,5.1,6.5h-10.9l22.8,25.9l22.8-25.9H495.3z"/>
	<g>
		<path class="st1" d="M342.7,58.1c-1.3-0.8-4.3-2.3-4.3-2.3l0-1.6l-0.2,0c0,0,0.4-0.9,0.4-1.1c0-0.1-0.2,0-0.3,0
			c-1.2,0.4-2.3,0.9-2.2,1.8c0,0.5,0.4,1.1,0.3,1.4c-0.1,0.3-0.5,0.3-0.8,0.2c-0.3-0.1-0.6-0.4-0.8-0.7c-0.3-0.6-0.3-1.1-1.2-1.3
			c-0.7-0.2-1.2,0.1-1.6,0.7c-0.5,0.9-1.5,3.8-1.1,4.7c0.4,0.9,1.8,1.3,2.7,1c0.9-0.3,1.7-1.1,2.5-1.4c0.4-0.1,0.7-0.1,1.1,0
			c1,0.2,4.4,1.5,6,0.2C343.8,59.2,343.2,58.4,342.7,58.1z"/>
		<path class="st1" d="M303.9,21.2c-40.8,0.4-73.5,33.8-73.1,74.5c0.4,40.8,33.8,73.5,74.5,73.1c40.8-0.4,73.5-33.8,73.1-74.5
			C378,53.5,344.7,20.8,303.9,21.2z M284.6,33.2c1.7-1.6,2.8-3.3,4.4-3.9c2.1-0.7,2.7-0.4,3.9-1.9c0.7-1,0.8-1.1,2.3-1.5
			c2.9-0.8,8.8-1.5,11.3-1.5c2.3,0,5.2,0.2,5.2,0.2s-2.5,2-4.1,3.2c-2.2,1.5-7.2,4.1-9.2,4.2c-1.2,0.1-2.5-0.4-3.6-0.1
			c-0.9,0.3-1.7,1-2.5,1.1c-0.7,0.1-1.4-0.3-2-0.1c-0.7,0.2-1.3,1-2.1,1.3c-0.4,0.2-0.9,0.2-1.3,0.4c-0.8,0.4-1.6,1.4-2.4,1.8
			c-0.3,0.2-0.6,0.2-0.6,0c-0.1-0.2,0-0.6,0-0.6l0.2,0c0,0-0.2-0.6-0.3-1.1C283.8,34.2,284.1,33.6,284.6,33.2z M302.8,49.7
			c0,0-0.6-0.3-0.8-0.4c-0.3-0.2,0.3-0.7,0.8-1.6c0.1-0.2,0.2-0.4,0.4-0.6c0.2-0.2,0.2-0.3-0.2-0.8c-0.4-0.5-1-1.1-1-1.6
			c-0.1-0.4,0.7-1.7,1.4-2c0.3-0.1,0.7-0.2,0.8,0c0,0.1,0,0.2,0.1,0.3c0.1,0.2,0.3,0.4,0.4,0.5c0.2,0.2,0.2,0.3,0.2,0.9
			c-0.1,0.6-0.3,1.4-0.1,1.9c0.1,0.3,0.4,0.5,0.5,0.8c0.1,0.2,0.2,0.6,0.4,0.8c0.2,0.3,0.6,0.6,0.8,0.8c0.3,0.4,0,0.8-0.5,1.3
			c-0.3,0.3-0.4,0.3-1,0.4l-3.7,0.1L302.8,49.7z M301.3,47c-0.3,0.5-0.4,0.9-0.6,1.3c-0.2,0.4-1.5,0.9-2.1,1c-0.2,0-0.5,0-0.5,0
			l0-0.2l-0.2,0c0,0,0-0.2,0-0.5c0-0.5,0.7-1.6,1.3-2.1c0.7-0.7,1.6-1.3,2.2-0.7C301.9,46.3,301.7,46.4,301.3,47z M264.1,121.5
			c-0.9,1.1-2.2,2.7-2.3,3.2c-0.2,0.9,0.6,3.1,0.8,4.3c0.2,2,0,4.9,0,4.9l-0.4,0l0,0.2c0,0-0.7-0.1-1.3,0c-0.4,0-3,2-3,2.3
			c0.1,0.3,0.7,0.7,0.8,1.8c0,0.4,0,1,0,1s-4.8-5.9-7.6-10.2c-2.8-4.3-5.6-10.7-7-15.6c-2.2-7.3-3.5-15.9-2.9-23.2
			c0.3-3.3,0.8-7.8,0.8-7.8s0.8,1,1.4,1.5c0.5,0.4,0.8,0.5,1,0.7c0.3,0.3,0.2,1.9,0.3,3.2c0.1,3.8,3.1,7.2,5.5,10.3
			c0.7,0.9,2,3.4,2,3.8c0,0.8-0.5,1.6-0.2,2.3c0.2,0.4,0.7,0.8,0.8,1.2c0.1,0.3,0.1,0.7,0.2,0.9c0.3,0.3,1.1,0.1,1.6,0.4
			c0.4,0.2,0.7,0.6,0.9,1c0.3,0.6,0.4,1.4,0.9,1.8c0.5,0.5,1.2,0.6,1.9,0.9c0.9,0.5,4.3,4.7,4.7,5.2
			C264.9,117.9,265.9,119.2,264.1,121.5z M367.2,73.3c-0.7,0.5-3.3,1.3-3.6,1.1c-0.6-0.3-1-1.2-1.5-1.5c-0.7-0.3-0.7,0.4-1.5,1
			c-0.7,0.4-2.3-0.4-3.1-1.1c-1.4-1.2-2.2-2.7-3.1-2.2c-1.4,0.8,1,3.5,2.4,5.1c0.9,1.1,2.3,2.4,2.3,2.4s1.6-1.6,3-2
			c0.4-0.1,3.1,0.6,3.6,0.9c1.1,0.9,0.7,1.6,0.3,3.4c-0.1,0.6-0.1,1.3-0.2,1.9c-0.1,0.7-1.4,3.4-1.8,3.7c-0.6,0.5-1.3,0.7-1.7,1.2
			c-0.4,0.5-0.5,1.5-0.9,2.1c-0.2,0.3-0.5,0.6-0.8,0.9c-1.4,1.2-3.8,3.4-4.9,4c-0.7,0.4-1.2,0.5-1.5,0c-1-1.3-1.6-4.7-2.6-6
			c-0.9-1.2-2.2-1.5-3.1-2.7c-0.9-1.2-1.4-3.4-2.3-4.3c-0.3-0.3-0.6-0.5-1.1-0.8c-1.4-1.2-3.8-4.6-3.8-4.6s-0.2,0.7-0.4,0.8
			c-0.1,0.1-0.2,0-0.3-0.1c-0.2-0.2-0.5-0.4-0.6-0.4c-0.1,0-0.1,0.2-0.1,0.3c0.2,0.9,4.5,6,5.8,8.6c1.4,2.8,1.2,4.1,3.4,5.9
			c1.3,1.1,3.3,2,4.2,3.2c0.4,0.6,0.7,1.2,0.9,1.7c0.6,1.1,2.2,1,3.8,0.2c1.4-0.7,4.1-2.4,4.1-2.4s0.1,1.5,0,2.8
			c-0.1,1.5-1.7,6.8-2.8,8.9c-1.1,2.1-2.7,3.4-4.3,5.4c-1,1.3-3.1,5.2-4.6,7.8c-0.3,0.5-0.3,0.7-0.2,1.3c0.5,2.7,2,8.9,0.3,11.5
			c-0.7,1.1-5.9,4.2-6.2,5c-0.6,1.4-0.3,3.6-0.8,4.2c-0.5,0.6-1.6,0.8-2.4,1.5c-0.9,0.7-0.8,1.3-1.4,2.4c-1.1,2.1-5.8,5.1-7.4,5.9
			c-0.9,0.4-6.1,1.4-6.9,1.3c-1.9-0.2-2-0.6-2.6-2.2c-0.7-1.9-2.7-4.1-2.9-5.2c-0.2-0.9,0.1-1.8-0.1-2.6c-0.1-0.6-0.8-1.5-1.8-2.6
			c-1.1-1.2-2.5-3-2.5-3s0.9-3.1,1.8-4.5c0.3-0.4,0.5-0.7,0.7-0.9c0.8-1.1,0.3-2-0.6-4.4c-1.2-3-1.2-3.8-3.6-5.5
			c-0.9-0.6-1.7-1.4-1.8-1.8c-0.2-0.7,0.5-1.5,0.9-2.7c0.6-1.8,0.5-3.1-0.3-3.8c-1.5-1.4-2.1-0.8-4.1-0.5c-0.4,0.1-0.6,0-0.9-0.3
			c-0.8-0.7-2-3.1-2-3.1l-7.8,2.5l-8.8-1.6c-0.6-0.1-0.7-0.1-1.1-0.3c-0.3-0.1-0.5-0.3-0.7-0.5c-1.6-1.3-3-2.6-4.1-3.9
			c-0.4-0.5-3.3-8.8-3.2-9.3c0.3-2.1,1.5-4.1,1.6-6c0.1-1.6-0.5-3.1-0.4-4.7c0-0.4,4.3-6.4,4.7-6.6c1.9-1,4.5-1.9,5-2.6
			c0.7-0.9,0.7-2.3,1.6-3.5c0.5-0.7,3.3-3.1,4.2-3.3c0.9-0.2,1.9,0.3,2.9,0.4c0.8,0,2.6-0.6,4.2-1.1c1-0.3,9.1-1.1,9.7-0.9
			c0.4,0.1,0.6,0.2,0.9,0.6c0.3,0.5,0.8,1.5,0.7,1.9c-0.2,0.5-1,1.6-1,1.6s3.8,1.2,5.4,2.3c0.6,0.4,0.9,0.8,1.3,1.1
			c0.9,0.7,2.6,1.2,3.5,0.8c1-0.4,0.3-1,1-2.3c0.3-0.5,1.5-1.3,1.8-1.3c0.7,0,1.4,0.7,2.3,1.1c0.6,0.3,1.3,0.4,2.1,0.5
			c3.6,0.3,8.7,0.5,9.4-1.9c0.5-1.7-0.2-2.1-0.5-3.9c-0.2-0.8-0.3-2-0.3-2s-1.6,1.1-2.7,1.3c-0.7,0.1-1.1-0.2-1.7-0.2
			c-0.6-0.1-1.4,0.2-2.2,0.1c-1,0-2.2-0.7-2.6-1.5c-0.5-0.9-0.4-2.5-1-3c-0.5-0.4-1.5-0.4-2.2,0c-1,0.6-0.7,1-0.9,1.9
			c-0.2,1-1.5,0.7-2.3,0.1c-1.2-0.8-0.9-1.9-1.4-2.9c-0.2-0.4-3.6-2.4-5.5-3.6c-0.5-0.3-0.6-0.4-0.9-0.3c-0.8,0.1-0.7,0.3-0.1,1.3
			c0.6,0.9,1,1.7,1.7,2.3c1,0.8,2.8,1.1,3.7,2c0.2,0.2,0.3,0.3,0.3,0.5c0.1,0.8-0.4,0-0.7-0.1c-0.4-0.1-1,0.1-1,0.1s0.4,0.8,0.4,1.4
			c0,0.4-0.4,1-0.7,1.1c-0.3,0.2-0.5-0.1-0.4-1.2c0-0.5,0-0.6-0.5-1l-6.3-5.4c0,0-1.6,1.2-2.8,1.4c-1,0.1-1.7-0.5-2.2-0.4
			c-0.7,0.1-0.7,1.3-1.4,2.2c-0.6,0.7-1.8,0.8-2.5,1.3c-1.4,0.9-0.8,1.9-1.5,3.2c-0.2,0.4-1.3,1.1-1.9,1.2c-0.7,0.1-1.5,0-2.2,0.1
			c-0.7,0.1-1.3,0.5-1.7,0.4c-0.4-0.1-0.5-0.7-0.8-1c-0.4-0.4-1.2-0.2-1.6-0.5c-0.2-0.2-0.4-1.8-0.3-2.3c0.2-0.8,0.7-1.5,0.9-2.4
			c0.2-0.9,0.2-1.9,0.5-2.4c0.7-1,4,0.1,6.3,0.5c0.6,0.1,0.8,0,1.1-0.6c0.8-1.8,0.9-3.1-0.7-4.3c-0.4-0.3-0.9-0.5-1.1-0.7
			c-0.3-0.4,0.1-0.7,0.7-0.7c0.5,0,1.2,0.1,1.5-0.1c0.2-0.1,0.2-0.3,0.3-0.4c0.2-0.2,0.7-0.1,1.1-0.2c0.9-0.1,3.7-3,5.7-3.9
			c0.6-0.3,1.3-0.4,1.8-0.5c1-0.2,0.4-0.4,0.5-1.8c0-0.3,0.2-0.6,0.3-0.9c0-0.1,0.5-1.2,0.8-1c0,0,0,0,0.1,0.1c0,0,0.1,0,0.2,0
			c0.4,0-0.5,1.5-0.5,2.3c0,0.3,0.6,0.8,0.9,0.7c0.5,0,1.2-0.3,1.8-0.1c0.2,0.1,0.4,0.2,0.5,0.3c0.9,0.5,1.1-0.2,2.8-0.5
			c0.5-0.1,1,0.1,1.4,0c0.4-0.1,0.8-0.5,0.9-0.9c0.2-0.8-0.3-2.1,0-2.3c0.2-0.2,0.7,0,1.1-0.1c0.8-0.3,0.3-0.7,0.3-1.5
			c0.1-1.4,1.2-0.2,2-0.7c0.3-0.2,0.7-0.8,0.7-0.8s-1.1-0.1-1.9,0c-1,0.1-1.5,0.6-2,0.6c-0.6,0-1.2-0.8-1.4-1.7
			c-0.2-1.1,0.5-1,0.9-2.8c0.1-0.4,0.1-0.6-0.2-0.9c-1.1-0.9-1.2,0.3-1.7,1.4c-0.2,0.4-0.5,0.7-0.7,1.1c-0.5,1-0.4,5.8-0.8,6.4
			c-0.7,0.8-1.9,1.4-1.9,1.4s-0.9-2.2-1.5-2.9c-0.3-0.3-1-0.5-1.5-0.4c-0.5,0.1-0.9,0.5-1.3,0.6c-0.5,0.1-1.3-0.5-1.7-1.1
			c-1.7-2.4,2.6-3.7,4.1-5.2c0.9-0.9,1.3-2,2-3.1c1.1-1.4,2.7-2.6,4.4-2.9c1-0.2,1,0.3,2.6,1c1.4,0.6,3.3,0.5,4.2,0.9
			c1.1,0.5-0.2,0.9-1,1.8c-0.3,0.4,0,1.1,1,1.3c0.3,0.1,1.3-0.3,1.5-0.9c0-0.2,0-0.3,0-0.5c0.1-0.9,1.1-1,1.6-1.4
			c0.5-0.4,0.5-1.4,1.1-1.9c0.7-0.7,2.2-0.8,2.3-1c0-0.1-0.3-0.2-0.3-0.8c0-0.3,0.1-0.6,0.1-0.6s5.1,2.1,8.3,3.7
			c2.2,1.1,4,2.3,5.7,3.6c10.1,7.4,18.9,16.9,24,29.6c1,2.6,2.4,6.4,2.4,6.4s-1.1-0.5-1.8-0.8C370.8,70.8,369.3,71.9,367.2,73.3z
			 M319.6,67.4c0,0-0.2,0-0.5,0c-0.5-0.1-0.9-0.4-1.3-0.6c-0.5-0.3-0.6-0.4-0.6-0.5l0-0.2l2.4-0.2l0,1.1l-0.2,0L319.6,67.4z"/>
		<path class="st2" d="M258.3,110.2c-0.7-0.4-1.4-0.5-1.9-0.9c-0.4-0.4-0.6-1.1-0.9-1.8c-0.2-0.4-0.5-0.9-0.9-1
			c-0.5-0.2-1.3-0.1-1.6-0.4c-0.2-0.2-0.1-0.6-0.2-0.9c-0.2-0.5-0.6-0.8-0.8-1.2c-0.3-0.7,0.1-1.5,0.2-2.3c0-0.5-1.3-2.9-2-3.8
			c-2.5-3-5.4-6.4-5.5-10.3c0-1.2,0-2.8-0.3-3.2c-0.2-0.2-0.5-0.3-1-0.7c-0.6-0.5-1.4-1.5-1.4-1.5s-0.6,4.5-0.8,7.8
			c-0.6,7.3,0.7,15.9,2.9,23.2c1.5,4.8,4.2,11.3,7,15.6c2.9,4.3,7.6,10.2,7.6,10.2s0-0.6,0-1c-0.1-1.1-0.7-1.5-0.8-1.8
			c0-0.3,2.5-2.2,3-2.3c0.6-0.1,1.3,0,1.3,0l0-0.2l0.4,0c0,0,0.2-2.9,0-4.9c-0.1-1.2-1-3.4-0.8-4.3c0.1-0.5,1.4-2.1,2.3-3.2
			c1.8-2.3,0.8-3.5-1.2-6.1C262.6,115,259.1,110.7,258.3,110.2z"/>
		<path class="st2" d="M283.9,35.7c0,0,0,0.4,0,0.6c0.1,0.2,0.3,0.2,0.6,0c0.7-0.5,1.5-1.5,2.4-1.8c0.4-0.2,0.9-0.2,1.3-0.4
			c0.7-0.3,1.4-1.1,2.1-1.3c0.7-0.2,1.4,0.2,2,0.1c0.8-0.1,1.6-0.8,2.5-1.1c1.1-0.3,2.3,0.1,3.6,0.1c2-0.1,7-2.6,9.2-4.2
			c1.6-1.2,4.1-3.2,4.1-3.2s-2.9-0.2-5.2-0.2c-2.6,0-8.4,0.8-11.3,1.5c-1.5,0.4-1.5,0.6-2.3,1.5c-1.2,1.6-1.8,1.2-3.9,1.9
			c-1.6,0.6-2.7,2.3-4.4,3.9c-0.4,0.4-0.8,1-0.7,1.4c0,0.5,0.3,1.1,0.3,1.1L283.9,35.7z"/>
		<path class="st2" d="M372.2,66c-5.1-12.6-13.9-22.1-24-29.6c-1.7-1.2-3.4-2.4-5.7-3.6c-3.3-1.7-8.3-3.7-8.3-3.7s-0.1,0.4-0.1,0.6
			c0,0.6,0.3,0.7,0.3,0.8c0,0.2-1.6,0.3-2.3,1c-0.6,0.6-0.6,1.5-1.1,1.9c-0.5,0.4-1.5,0.4-1.6,1.4c0,0.2,0,0.3,0,0.5
			c-0.2,0.6-1.2,1-1.5,0.9c-1-0.3-1.3-0.9-1-1.3c0.8-1,2.1-1.3,1-1.8c-0.9-0.4-2.8-0.3-4.2-0.9c-1.6-0.7-1.6-1.2-2.6-1
			c-1.8,0.3-3.4,1.5-4.4,2.9c-0.8,1-1.1,2.2-2,3.1c-1.5,1.5-5.8,2.8-4.1,5.2c0.4,0.6,1.2,1.2,1.7,1.1c0.4-0.1,0.8-0.5,1.3-0.6
			c0.6-0.1,1.2,0,1.5,0.4c0.7,0.7,1.5,2.9,1.5,2.9s1.2-0.6,1.9-1.4c0.5-0.6,0.3-5.4,0.8-6.4c0.2-0.4,0.5-0.7,0.7-1.1
			c0.5-1.1,0.6-2.3,1.7-1.4c0.3,0.2,0.3,0.4,0.2,0.9c-0.5,1.8-1.1,1.7-0.9,2.8c0.2,0.9,0.8,1.7,1.4,1.7c0.5,0,1-0.5,2-0.6
			c0.8-0.1,1.9,0,1.9,0s-0.3,0.5-0.7,0.8c-0.8,0.5-1.9-0.7-2,0.7c0,0.8,0.5,1.2-0.3,1.5c-0.4,0.1-0.9,0-1.1,0.1
			c-0.3,0.3,0.2,1.5,0,2.3c-0.1,0.4-0.5,0.8-0.9,0.9c-0.4,0.1-0.8-0.1-1.4,0c-1.7,0.3-1.9,1-2.8,0.5c-0.2-0.1-0.4-0.2-0.5-0.3
			c-0.5-0.2-1.2,0.1-1.8,0.1c-0.3,0-0.9-0.5-0.9-0.7c0.1-0.8,0.9-2.4,0.5-2.3c-0.1,0-0.1,0-0.2,0c0,0,0-0.1-0.1-0.1
			c-0.3-0.2-0.7,0.9-0.8,1c-0.1,0.3-0.2,0.6-0.3,0.9c-0.2,1.4,0.4,1.6-0.5,1.8c-0.5,0.1-1.2,0.2-1.8,0.5c-2,0.9-4.8,3.7-5.7,3.9
			c-0.5,0.1-0.9,0-1.1,0.2c-0.1,0.1-0.1,0.3-0.3,0.4c-0.3,0.2-1,0.1-1.5,0.1c-0.6,0-0.9,0.3-0.7,0.7c0.2,0.2,0.7,0.4,1.1,0.7
			c1.6,1.2,1.5,2.5,0.7,4.3c-0.3,0.6-0.5,0.7-1.1,0.6c-2.3-0.4-5.6-1.5-6.3-0.5c-0.3,0.5-0.3,1.5-0.5,2.4c-0.2,0.9-0.7,1.6-0.9,2.4
			c-0.2,0.5,0,2.1,0.3,2.3c0.4,0.3,1.2,0.1,1.6,0.5c0.3,0.3,0.5,0.9,0.8,1c0.4,0.1,1-0.2,1.7-0.4c0.7-0.1,1.5,0,2.2-0.1
			c0.5-0.1,1.7-0.8,1.9-1.2c0.7-1.3,0.1-2.4,1.5-3.2c0.8-0.5,1.9-0.5,2.5-1.3c0.8-0.9,0.8-2.1,1.4-2.2c0.5-0.1,1.2,0.5,2.2,0.4
			c1.2-0.2,2.8-1.4,2.8-1.4l6.3,5.4c0.5,0.4,0.5,0.5,0.5,1c-0.1,1,0.1,1.3,0.4,1.2c0.3-0.1,0.7-0.7,0.7-1.1c0-0.6-0.4-1.4-0.4-1.4
			s0.6-0.2,1-0.1c0.3,0.1,0.7,0.9,0.7,0.1c0-0.2-0.2-0.4-0.3-0.5c-0.9-0.8-2.6-1.2-3.7-2c-0.7-0.5-1.1-1.4-1.7-2.3
			c-0.7-1-0.7-1.2,0.1-1.3c0.3,0,0.3,0,0.9,0.3c1.9,1.1,5.3,3.2,5.5,3.6c0.5,1,0.2,2.1,1.4,2.9c0.8,0.6,2.1,0.9,2.3-0.1
			c0.2-0.9-0.2-1.3,0.9-1.9c0.6-0.4,1.7-0.4,2.2,0c0.6,0.5,0.5,2.1,1,3c0.4,0.8,1.6,1.5,2.6,1.5c0.7,0,1.5-0.2,2.2-0.1
			c0.6,0.1,1,0.3,1.7,0.2c1-0.2,2.7-1.3,2.7-1.3s0.1,1.2,0.3,2c0.4,1.8,1,2.2,0.5,3.9c-0.7,2.4-5.8,2.2-9.4,1.9
			c-0.7-0.1-1.4-0.1-2.1-0.5c-0.8-0.4-1.6-1.2-2.3-1.1c-0.3,0-1.5,0.7-1.8,1.3c-0.7,1.3,0.1,1.9-1,2.3c-0.9,0.3-2.5-0.1-3.5-0.8
			c-0.5-0.3-0.7-0.7-1.3-1.1c-1.6-1.1-5.4-2.3-5.4-2.3s0.9-1,1-1.6c0.1-0.4-0.3-1.5-0.7-1.9c-0.3-0.4-0.5-0.5-0.9-0.6
			c-0.7-0.2-8.7,0.6-9.7,0.9c-1.6,0.5-3.5,1.1-4.2,1.1c-1-0.1-2.1-0.5-2.9-0.4c-0.9,0.2-3.7,2.6-4.2,3.3c-0.8,1.2-0.9,2.6-1.6,3.5
			c-0.5,0.7-3.1,1.6-5,2.6c-0.5,0.2-4.7,6.2-4.7,6.6c-0.1,1.6,0.5,3.2,0.4,4.7c-0.1,1.9-1.3,3.8-1.6,6c-0.1,0.5,2.8,8.7,3.2,9.3
			c1,1.3,2.5,2.7,4.1,3.9c0.2,0.2,0.5,0.4,0.7,0.5c0.4,0.2,0.5,0.2,1.1,0.3l8.8,1.6l7.8-2.5c0,0,1.2,2.3,2,3.1
			c0.3,0.3,0.6,0.3,0.9,0.3c1.9-0.3,2.6-0.9,4.1,0.5c0.7,0.7,0.9,2,0.3,3.8c-0.4,1.2-1.1,2-0.9,2.7c0.1,0.4,0.9,1.2,1.8,1.8
			c2.4,1.7,2.4,2.5,3.6,5.5c0.9,2.4,1.4,3.3,0.6,4.4c-0.2,0.3-0.5,0.5-0.7,0.9c-0.9,1.4-1.8,4.5-1.8,4.5s1.4,1.7,2.5,3
			c1,1.1,1.7,2.1,1.8,2.6c0.2,0.8-0.1,1.7,0.1,2.6c0.2,1.2,2.2,3.3,2.9,5.2c0.6,1.6,0.7,2,2.6,2.2c0.8,0.1,6-0.9,6.9-1.3
			c1.6-0.7,6.3-3.7,7.4-5.9c0.5-1.1,0.5-1.7,1.4-2.4c0.8-0.6,1.9-0.9,2.4-1.5c0.5-0.6,0.2-2.8,0.8-4.2c0.3-0.7,5.5-3.9,6.2-5
			c1.7-2.6,0.2-8.7-0.3-11.5c-0.1-0.6-0.1-0.7,0.2-1.3c1.5-2.6,3.5-6.5,4.6-7.8c1.6-2,3.2-3.2,4.3-5.4c1.1-2.1,2.8-7.4,2.8-8.9
			c0.1-1.3,0-2.8,0-2.8s-2.7,1.8-4.1,2.4c-1.6,0.8-3.2,0.9-3.8-0.2c-0.3-0.5-0.5-1.2-0.9-1.7c-0.9-1.1-2.9-2.1-4.2-3.2
			c-2.2-1.8-2-3.1-3.4-5.9c-1.3-2.6-5.6-7.7-5.8-8.6c0-0.2,0-0.3,0.1-0.3c0.1,0,0.4,0.2,0.6,0.4c0.1,0.1,0.2,0.1,0.3,0.1
			c0.2-0.2,0.4-0.8,0.4-0.8s2.4,3.4,3.8,4.6c0.4,0.4,0.8,0.5,1.1,0.8c0.9,0.9,1.4,3.1,2.3,4.3c0.9,1.2,2.2,1.5,3.1,2.7
			c1,1.3,1.6,4.6,2.6,6c0.3,0.5,0.8,0.4,1.5,0c1.1-0.6,3.5-2.8,4.9-4c0.3-0.3,0.6-0.5,0.8-0.9c0.4-0.6,0.5-1.5,0.9-2.1
			c0.4-0.6,1.1-0.8,1.7-1.2c0.4-0.3,1.7-3,1.8-3.7c0.1-0.7,0-1.3,0.2-1.9c0.4-1.8,0.8-2.5-0.3-3.4c-0.4-0.3-3.2-1-3.6-0.9
			c-1.4,0.5-3,2-3,2s-1.3-1.3-2.3-2.4c-1.4-1.6-3.8-4.3-2.4-5.1c0.9-0.5,1.7,1.1,3.1,2.2c0.8,0.7,2.4,1.6,3.1,1.1
			c0.8-0.5,0.8-1.2,1.5-1c0.6,0.2,0.9,1.1,1.5,1.5c0.3,0.1,2.8-0.7,3.6-1.1c2.1-1.3,3.6-2.4,5.5-1.7c0.7,0.3,1.8,0.8,1.8,0.8
			S373.2,68.6,372.2,66z M343.1,59.7c-1.6,1.3-5,0-6-0.2c-0.4-0.1-0.7-0.1-1.1,0c-0.8,0.2-1.6,1.1-2.5,1.4c-0.9,0.3-2.3-0.1-2.7-1
			c-0.4-1,0.6-3.8,1.1-4.7c0.4-0.6,0.9-0.9,1.6-0.7c0.9,0.3,0.9,0.7,1.2,1.3c0.2,0.3,0.5,0.6,0.8,0.7c0.3,0.1,0.7,0.1,0.8-0.2
			c0.1-0.3-0.2-0.9-0.3-1.4c-0.1-0.9,0.9-1.4,2.2-1.8c0.1-0.1,0.3-0.1,0.3,0c0.1,0.2-0.4,1.1-0.4,1.1l0.2,0l0,1.6c0,0,3,1.5,4.3,2.3
			C343.2,58.4,343.8,59.2,343.1,59.7z"/>
		<path class="st2" d="M319.8,65.9l-2.4,0.2l0,0.2c0,0.1,0.1,0.1,0.6,0.5c0.4,0.3,0.7,0.6,1.3,0.6c0.2,0,0.5,0,0.5,0l0-0.4l0.2,0
			L319.8,65.9z"/>
		<path class="st2" d="M306.1,50c0.5-0.5,0.8-0.9,0.5-1.3c-0.2-0.3-0.6-0.5-0.8-0.8c-0.2-0.3-0.3-0.6-0.4-0.8
			c-0.2-0.3-0.4-0.5-0.5-0.8c-0.2-0.5,0-1.3,0.1-1.9c0.1-0.6,0.1-0.7-0.2-0.9c-0.2-0.1-0.4-0.4-0.4-0.5c-0.1-0.1,0-0.2-0.1-0.3
			c-0.1-0.2-0.5-0.1-0.8,0c-0.6,0.3-1.4,1.5-1.4,2c0.1,0.5,0.6,1.1,1,1.6c0.4,0.5,0.4,0.6,0.2,0.8c-0.2,0.2-0.3,0.4-0.4,0.6
			c-0.5,0.9-1.2,1.4-0.8,1.6c0.2,0.1,0.8,0.4,0.8,0.4l-1.4,0.8l3.7-0.1C305.7,50.4,305.8,50.3,306.1,50z"/>
		<path class="st2" d="M299.3,46.5c-0.6,0.5-1.3,1.6-1.3,2.1c0,0.2,0,0.5,0,0.5l0.2,0l0,0.2c0,0,0.2,0,0.5,0c0.6,0,1.9-0.6,2.1-1
			c0.2-0.4,0.3-0.8,0.6-1.3c0.4-0.6,0.6-0.6,0.1-1.2C300.9,45.1,300,45.8,299.3,46.5z"/>
	</g>
	<g>
		<path class="st1" d="M397.1,33.9c-1.6,0-8.7,1.2-10.4,1.7c-1.1,0.3-2.2,0.7-3.4,1.2c-3.6,1.5-10.6,5.6-13,8.4
			c-2.1,2.4-3.5,6.3-3.5,9.8c-1.6-2.4-3.4-4.8-5.5-7.2c0.2-0.3,1.1-1.8,1.6-2.8c2.7-5.5,1.9-12.5-1-16.9c-0.6-0.8-3.9-4.6-5.2-5.8
			c-3.9-3.6-7.9-6.2-13.2-7.9c-8.1-2.6-21.9-3.1-30.1,0.2c-1.4,0.6-3.2,1.4-3.2,1.4s2.8,0.2,4.7,0.5c6,0.9,11.4,4.1,13.8,8.9
			c0.6,1.1,3.7,14.4,4.7,17.2c1.8,5,5.4,8.6,10.4,10.4c3.8,1.3,8.9,1.5,12.6-1.1c0.1-0.1,0.3-0.2,0.5-0.3l0.8-0.7
			c4.4,6.1,15,22.6,15.2,39.8l0,0c-0.2,15.8-4.8,30.2-15,43.7c-11.8,15.8-30.6,27.4-49.8,28.4c-21,1.1-41.7-7.2-56.5-22.4
			c-11.5-11.8-19.3-29.9-19.8-47.5c-0.1-4.3,0.1-10.6,0.1-10.6s-1,6-1.2,9.8c-0.2,2.3-0.1,3.8,0.1,5.4c1.2,15,4.4,26.2,12.1,38
			c1.2,1.8,8.4,10.7,10,12.2c12.5,12.4,29,19.9,46.9,21.2c29,2.1,56.3-13.5,69.6-38.4c4.8-8.9,9.3-20.5,9.1-35.9
			c0-1.8,0-2.8-0.1-3.8l0,0c0,0-0.1-11.7-6.1-25.4c0.7,0.4,2,1.2,2.9,1.6c4.2,2,10.5-0.6,13.8-4.6c2.6-3.1,2.3-7,4.7-13
			c1.7-4.4,7.1-10.2,11.2-12.6c1.7-1,4.1-2.2,4.1-2.2S402,33.8,397.1,33.9z M355.6,40.3c-0.9,1.9-0.6,2.9-0.6,2.9l2.7,3.1
			c-0.2,0.2-0.4,0.4-0.6,0.6l-3.5-4.1c-0.9-2.1-4.3-1.2-4.3-1.2l-1.8,0.3c-1.5,0.1-6.9-0.1-9.7-0.3c-0.1-0.2-0.2-0.3-0.3-0.5
			c3,0.3,9.1,0.5,9.1,0.5l2.5-0.5c1.2-0.5,3.4-0.4,3.4-0.4l-1.8-2.5l-1.2-1.3c-0.6-0.6-2.4-0.6-2.4-0.6l-3.1,0.4
			c-1.7,0.3-6.7-0.3-9.1-0.7c-0.1-0.2-0.1-0.3-0.2-0.5c5,1,9,0.7,9,0.7l1.4-0.4c0.8-0.5,3.3-0.4,3.3-0.4l-3.3-3.4
			c-0.8-0.8-3.4-0.7-3.4-0.7l-3,0.3c-1,0.2-4-0.2-5.5-0.4c0-0.1-0.1-0.2-0.1-0.4c3.1,0.4,8.5-0.1,8.5-0.1l2.2,0l-1.9-2
			c-1.6-1.5-3.6-1.4-3.6-1.4l-1.1,0.1c-1.9,0.6-4,0.5-5.3,0.2l-0.1-0.3c3.1,0.7,5.8-0.8,5.8-0.8l1,0c-0.2-0.8-9.8-8.7-10.6-9.2
			l0.5-0.4l8.8,7.6c-0.2-2.2-1.6-6.7-2.3-8.9c0.2,0,0.4,0.1,0.7,0.1c0.6,1.7,1.4,4.2,1.4,4.2l0.2,0.7c0.3,3.6,1.8,5.2,1.8,5.2
			l3.5,2.3c-0.4-1.5,0.2-5.6,0.2-5.6l-0.3-5c0.2,0.1,0.5,0.2,0.7,0.3c0.2,2.8,0.1,7.6-0.1,9c-0.2,1.7,1.1,3,1.1,3l3.4,3.5
			c-0.5-0.7-0.1-3-0.1-3l0.2-0.8c0.9-1.7,1.5-8.4,1.5-8.4l0,0c0.2,0.1,0.4,0.2,0.5,0.4c-0.3,2.5-1.2,7.4-1.6,9.6
			c-0.5,2.8,1.1,4,1.1,4l2.1,2.6c0.3-0.5,2.3-9.1,3.1-12.1c0.1,0.1,0.2,0.2,0.3,0.4c-0.7,3.2-2.2,9-2.5,10.4
			c-0.4,1.9,0.5,3.2,0.5,3.2l1.6,2.5c0.9-1.5,3-11.6,3.2-12.4c0.1,0.2,0.2,0.3,0.3,0.5C357.4,33.2,356.3,38.9,355.6,40.3z
			 M386.6,46.4l0.7,0.1c0,0,1.7,1.2,3.8,1l-0.1,0.2c-0.9,0.1-2.3,0.1-3.5-0.5l-0.7-0.1c0,0-1.3-0.2-2.5,0.7l-1.4,1.3l1.5,0.2
			c0,0,3.6,0.8,5.6,0.7c0,0.1-0.1,0.2-0.1,0.3c-1,0-3,0-3.7-0.2l-2-0.4c0,0-1.7-0.3-2.3,0.2l-2.4,2.2c0,0,1.6,0.1,2.1,0.5l0.9,0.4
			c0,0,2.6,0.5,6,0.1c-0.1,0.1-0.1,0.2-0.2,0.4c-1.6,0.1-5,0.1-6.1-0.2l-2-0.5c0,0-1.2-0.1-1.6,0.3l-0.9,0.8l-1.4,1.6
			c0,0,1.4,0.1,2.2,0.5l1.6,0.5c0,0,4,0.3,6,0.4c-0.1,0.1-0.2,0.2-0.3,0.4c-1.8-0.1-5.5-0.3-6.4-0.5l-1.1-0.4c0,0-2.1-0.9-2.9,0.6
			l-2.6,2.7c-0.1-0.2-0.2-0.3-0.3-0.5l2-2c0,0,0.3-0.6-0.2-2.1c-0.3-1.1-0.6-5.2-0.8-7.6c0.1-0.1,0.2-0.2,0.2-0.3
			c0,0.6,0.7,8,1.2,9.1l1.3-1.7c0,0,0.7-0.9,0.6-2.3c-0.1-1-0.6-5.3-0.8-7.6c0.1-0.1,0.2-0.2,0.2-0.2c0.3,2.3,1,8.6,1.1,8.9l1.6-1.7
			c0,0,1.2-0.7,1-2.8c-0.1-1.6-0.3-5.2-0.3-7c0.1-0.1,0.3-0.1,0.4-0.2l0,0c0,0-0.1,4.9,0.4,6.2l0.1,0.6c0,0,0.1,1.7-0.3,2.1l2.5-2.3
			c0,0,0.9-0.8,0.9-2c0-1,0.3-4.5,0.6-6.4c0.2-0.1,0.3-0.1,0.5-0.1l-0.6,3.5c0,0,0.1,2.9-0.3,4l2.5-1.4c0,0,1.1-1,1.6-3.6l0.2-0.5
			c0,0,0.7-1.7,1.2-2.9c0.2,0,0.3,0,0.4,0c-0.6,1.5-1.9,4.7-2.2,6.2l7.5-5.5l0.3,0.3C394.9,40,386.8,45.8,386.6,46.4z"/>
		<path class="st2" d="M354.5,41.9l-1.6-2.5c0,0-0.9-1.3-0.5-3.2c0.3-1.4,1.7-7.2,2.5-10.4c-0.1-0.1-0.2-0.2-0.3-0.4
			c-0.7,3.1-2.8,11.7-3.1,12.1l-2.1-2.6c0,0-1.6-1.2-1.1-4c0.4-2.1,1.3-7.1,1.6-9.6c-0.2-0.1-0.4-0.2-0.5-0.4l0,0
			c0,0-0.7,6.7-1.5,8.4l-0.2,0.8c0,0-0.4,2.3,0.1,3l-3.4-3.5c0,0-1.3-1.2-1.1-3c0.1-1.4,0.2-6.2,0.1-9c-0.2-0.1-0.5-0.2-0.7-0.3
			l0.3,5c0,0-0.6,4-0.2,5.6l-3.5-2.3c0,0-1.5-1.6-1.8-5.2l-0.2-0.7c0,0-0.8-2.4-1.4-4.2c-0.2,0-0.4-0.1-0.7-0.1
			c0.7,2.2,2.2,6.8,2.3,8.9l-8.8-7.6l-0.5,0.4c0.7,0.5,10.3,8.4,10.6,9.2l-1,0c0,0-2.7,1.4-5.8,0.8l0.1,0.3c1.4,0.3,3.4,0.4,5.3-0.2
			l1.1-0.1c0,0,2-0.1,3.6,1.4l1.9,2l-2.2,0c0,0-5.5,0.5-8.5,0.1c0,0.1,0.1,0.2,0.1,0.4c1.5,0.2,4.6,0.5,5.5,0.4l3-0.3
			c0,0,2.6-0.1,3.4,0.7l3.3,3.4c0,0-2.5-0.1-3.3,0.4l-1.4,0.4c0,0-4,0.3-9-0.7c0.1,0.2,0.1,0.3,0.2,0.5c2.4,0.3,7.4,1,9.1,0.7
			l3.1-0.4c0,0,1.8,0,2.4,0.6l1.2,1.3l1.8,2.5c0,0-2.1-0.1-3.4,0.4l-2.5,0.5c0,0-6-0.2-9.1-0.5c0.1,0.2,0.2,0.4,0.3,0.5
			c2.8,0.1,8.2,0.4,9.7,0.3l1.8-0.3c0,0,3.3-0.8,4.3,1.2l3.5,4.1c0.2-0.2,0.4-0.4,0.6-0.6l-2.7-3.1c0,0-0.3-0.9,0.6-2.9
			c0.7-1.5,1.8-7.1,2.4-10.4c-0.1-0.2-0.2-0.3-0.3-0.5C357.5,30.3,355.3,40.4,354.5,41.9z"/>
		<path class="st2" d="M387.6,45c0.3-1.5,1.6-4.7,2.2-6.2c-0.1,0-0.3,0-0.4,0c-0.5,1.2-1.2,2.9-1.2,2.9l-0.2,0.5
			c-0.5,2.6-1.6,3.6-1.6,3.6l-2.5,1.4c0.4-1.1,0.3-4,0.3-4l0.6-3.5c-0.2,0-0.3,0.1-0.5,0.1c-0.3,2-0.6,5.4-0.6,6.4
			c0,1.2-0.9,2-0.9,2l-2.5,2.3c0.4-0.5,0.3-2.1,0.3-2.1l-0.1-0.6c-0.5-1.3-0.4-6.2-0.4-6.2l0,0c-0.1,0.1-0.3,0.1-0.4,0.2
			c0,1.8,0.2,5.4,0.3,7c0.1,2.1-1,2.8-1,2.8l-1.6,1.7c-0.1-0.4-0.8-6.7-1.1-8.9c-0.1,0.1-0.2,0.2-0.2,0.2c0.2,2.4,0.8,6.6,0.8,7.6
			c0.1,1.4-0.6,2.3-0.6,2.3l-1.3,1.7c-0.5-1.1-1.1-8.5-1.2-9.1c-0.1,0.1-0.2,0.2-0.2,0.3c0.1,2.3,0.4,6.5,0.8,7.6
			c0.5,1.5,0.2,2.1,0.2,2.1l-2,2c0.1,0.2,0.2,0.3,0.3,0.5l2.6-2.7c0.8-1.4,2.9-0.6,2.9-0.6l1.1,0.4c1,0.2,4.6,0.4,6.4,0.5
			c0.1-0.1,0.2-0.2,0.3-0.4c-2,0-6-0.4-6-0.4l-1.6-0.5c-0.8-0.5-2.2-0.5-2.2-0.5l1.4-1.6l0.9-0.8c0.4-0.4,1.6-0.3,1.6-0.3l2,0.5
			c1.1,0.3,4.5,0.3,6.1,0.2c0.1-0.1,0.1-0.2,0.2-0.4c-3.4,0.4-6-0.1-6-0.1l-0.9-0.4c-0.5-0.4-2.1-0.5-2.1-0.5l2.4-2.2
			c0.6-0.5,2.3-0.2,2.3-0.2l2,0.4c0.6,0.2,2.7,0.2,3.7,0.2c0-0.1,0.1-0.2,0.1-0.3c-2.1,0-5.6-0.7-5.6-0.7l-1.5-0.2l1.4-1.3
			c1.1-1,2.5-0.7,2.5-0.7l0.7,0.1c1.2,0.6,2.6,0.6,3.5,0.5l0.1-0.2c-2.1,0.2-3.8-1-3.8-1l-0.7-0.1c0.2-0.5,8.3-6.3,8.8-6.6l-0.3-0.3
			L387.6,45z"/>
	</g>
	<g>
		<path class="st0" d="M43.5,195.4v-2.9H36v3.3h3.7v0.7c0,0.5-0.1,1-0.2,1.4c-0.1,0.4-0.4,0.8-0.7,1.2c-0.3,0.4-0.7,0.6-1.2,0.8
			c-0.5,0.2-1,0.3-1.6,0.3c-0.5,0-1-0.1-1.4-0.3c-0.4-0.2-0.8-0.4-1.1-0.8c-0.2-0.3-0.4-0.6-0.6-1s-0.2-0.9-0.3-1.7s-0.1-1.7-0.1-3
			c0-1.2,0-2.2,0.1-2.9c0.1-0.7,0.2-1.3,0.3-1.7c0.1-0.4,0.3-0.7,0.6-1c0.3-0.3,0.6-0.6,1.1-0.8c0.4-0.2,0.9-0.3,1.4-0.3
			c1,0,1.8,0.2,2.4,0.7c0.6,0.5,1,1.2,1.2,2.2h3.9c-0.2-1.1-0.6-2.2-1.1-3.1s-1.4-1.7-2.5-2.3s-2.3-0.9-3.9-0.9
			c-1.1,0-2.1,0.2-3,0.5c-0.9,0.4-1.6,0.9-2.3,1.5c-0.9,1-1.5,2.1-1.7,3.3c-0.2,1.3-0.3,2.8-0.3,4.7c0,1.9,0,3.4,0.3,4.7
			c0.2,1.3,0.8,2.4,1.7,3.3c0.7,0.7,1.4,1.2,2.3,1.5s1.9,0.5,3,0.5c1.1,0,2.1-0.1,3-0.5c0.9-0.3,1.8-0.9,2.6-1.8
			c0.7-0.7,1.2-1.6,1.5-2.5C43.4,198,43.5,196.9,43.5,195.4z"/>
		<polygon class="st0" points="60.3,203.6 60.3,200.1 51.3,200.1 51.3,183.7 47.4,183.7 47.4,203.6 		"/>
		<path class="st0" d="M72.6,193.7c0,1.2,0,2.2-0.1,2.9c-0.1,0.7-0.2,1.3-0.3,1.6c-0.1,0.4-0.3,0.7-0.6,1c-0.3,0.3-0.6,0.6-1.1,0.8
			c-0.4,0.2-0.9,0.3-1.4,0.3c-0.5,0-1-0.1-1.4-0.3c-0.4-0.2-0.8-0.5-1.1-0.8c-0.2-0.3-0.4-0.6-0.6-1c-0.1-0.4-0.2-0.9-0.3-1.6
			c-0.1-0.7-0.1-1.7-0.1-2.9c0-1.2,0-2.2,0.1-2.9c0.1-0.7,0.2-1.3,0.3-1.7c0.1-0.4,0.3-0.7,0.6-1c0.3-0.3,0.7-0.6,1.1-0.8
			c0.4-0.2,0.9-0.3,1.4-0.3c0.5,0,1,0.1,1.4,0.3c0.4,0.2,0.8,0.4,1.1,0.8c0.2,0.3,0.4,0.6,0.6,1c0.1,0.4,0.2,0.9,0.3,1.7
			C72.6,191.4,72.6,192.4,72.6,193.7z M76.5,193.7c0-1.9-0.1-3.4-0.3-4.7c-0.2-1.3-0.8-2.4-1.8-3.3c-0.7-0.7-1.4-1.2-2.3-1.5
			c-0.9-0.4-1.9-0.5-3-0.5c-1.1,0-2.1,0.2-3,0.5c-0.9,0.4-1.6,0.9-2.3,1.5c-0.9,1-1.5,2.1-1.7,3.3c-0.2,1.3-0.3,2.8-0.3,4.7
			c0,1.9,0,3.4,0.3,4.7s0.8,2.4,1.7,3.3c0.7,0.7,1.4,1.2,2.3,1.5s1.9,0.5,3,0.5c1.1,0,2.1-0.2,3-0.5c0.9-0.4,1.6-0.9,2.3-1.5
			c0.9-1,1.5-2.1,1.8-3.3C76.4,197.1,76.5,195.5,76.5,193.7z"/>
		<path class="st0" d="M90.7,189.5c0,0.7-0.2,1.2-0.7,1.7c-0.4,0.4-1.1,0.6-1.9,0.6h-3.8v-4.6h3.8c0.8,0,1.5,0.2,1.9,0.6
			C90.4,188.2,90.7,188.8,90.7,189.5z M90.9,197.7c0,0.7-0.2,1.3-0.6,1.7c-0.4,0.5-1.1,0.7-2,0.7h-4v-4.9h4c0.9,0,1.5,0.3,2,0.7
			C90.7,196.4,91,197,90.9,197.7z M94.8,197.9c0-1.3-0.3-2.3-0.9-3c-0.6-0.7-1.2-1.2-1.8-1.4c0.5-0.2,1.1-0.7,1.6-1.4
			c0.5-0.7,0.8-1.6,0.8-2.7c0-1.7-0.6-3.1-1.6-4.1c-1.1-1-2.6-1.5-4.5-1.5h-8v19.8h8.3c1.8,0,3.3-0.5,4.4-1.5
			C94.2,201.1,94.8,199.7,94.8,197.9z"/>
		<path class="st0" d="M107.6,196.8h-4.9l2.5-7.2L107.6,196.8z M113.8,203.6l-7.2-19.8h-3l-7.2,19.8h4l1.2-3.5h7.1l1.2,3.5H113.8z"
			/>
		<polygon class="st0" points="129.2,203.6 129.2,200.1 120.2,200.1 120.2,183.7 116.3,183.7 116.3,203.6 		"/>
		<polygon class="st0" points="154.8,203.6 147.8,191.6 154.4,183.7 149.7,183.7 142.7,192.4 142.7,183.7 138.8,183.7 138.8,203.6 
			142.7,203.6 142.7,197.6 145.2,194.6 150.3,203.6 		"/>
		<path class="st0" d="M166.7,196.8h-4.9l2.5-7.2L166.7,196.8z M172.9,203.6l-7.2-19.8h-3l-7.2,19.8h4l1.2-3.5h7.1l1.2,3.5H172.9z"
			/>
		<path class="st0" d="M185.7,189.8c0,0.8-0.3,1.4-0.8,1.9c-0.5,0.5-1.2,0.7-2,0.7h-3.7v-5.2h3.7c0.9,0,1.5,0.3,2,0.7
			C185.5,188.4,185.7,189,185.7,189.8z M190.4,203.6L186,195c1-0.3,1.8-1,2.5-1.8c0.7-0.9,1.1-2,1.1-3.4c0-1.7-0.6-3.1-1.7-4.3
			c-1.1-1.1-2.7-1.7-4.7-1.8h-7.8v19.8h3.9v-7.9h2.8l3.9,7.9H190.4z"/>
		<polygon class="st0" points="211.6,203.6 211.6,183.7 207.8,183.7 202.6,194.5 197.4,183.7 193.6,183.7 193.6,203.6 197.5,203.6 
			197.5,192 201.3,199.5 203.9,199.5 207.7,192 207.7,203.6 		"/>
		<path class="st0" d="M225.3,196.8h-4.9l2.5-7.2L225.3,196.8z M231.6,203.6l-7.2-19.8h-3l-7.2,19.8h4l1.2-3.5h7.1l1.2,3.5H231.6z"
			/>
		<path class="st0" d="M250.3,193.7c0,1.2,0,2.2-0.1,2.9c-0.1,0.7-0.2,1.3-0.3,1.6c-0.1,0.4-0.3,0.7-0.6,1c-0.3,0.3-0.6,0.6-1.1,0.8
			c-0.4,0.2-0.9,0.3-1.4,0.3c-0.5,0-1-0.1-1.4-0.3c-0.4-0.2-0.8-0.5-1.1-0.8c-0.2-0.3-0.4-0.6-0.6-1c-0.1-0.4-0.2-0.9-0.3-1.6
			c-0.1-0.7-0.1-1.7-0.1-2.9c0-1.2,0-2.2,0.1-2.9c0.1-0.7,0.2-1.3,0.3-1.7c0.1-0.4,0.3-0.7,0.6-1c0.3-0.3,0.7-0.6,1.1-0.8
			c0.4-0.2,0.9-0.3,1.4-0.3c0.5,0,1,0.1,1.4,0.3c0.4,0.2,0.8,0.4,1.1,0.8c0.2,0.3,0.4,0.6,0.6,1c0.1,0.4,0.2,0.9,0.3,1.7
			C250.3,191.4,250.3,192.4,250.3,193.7z M254.2,193.7c0-1.9-0.1-3.4-0.3-4.7c-0.2-1.3-0.8-2.4-1.8-3.3c-0.7-0.7-1.4-1.2-2.3-1.5
			c-0.9-0.4-1.9-0.5-3-0.5c-1.1,0-2.1,0.2-3,0.5c-0.9,0.4-1.6,0.9-2.3,1.5c-0.9,1-1.5,2.1-1.7,3.3c-0.2,1.3-0.3,2.8-0.3,4.7
			c0,1.9,0,3.4,0.3,4.7c0.2,1.3,0.8,2.4,1.7,3.3c0.7,0.7,1.4,1.2,2.3,1.5s1.9,0.5,3,0.5c1.1,0,2.1-0.2,3-0.5
			c0.9-0.4,1.6-0.9,2.3-1.5c0.9-1,1.5-2.1,1.8-3.3C254.1,197.1,254.2,195.5,254.2,193.7z"/>
		<path class="st0" d="M268.5,189.8c0,0.8-0.3,1.4-0.8,1.9c-0.5,0.5-1.2,0.7-2,0.7H262v-5.2h3.7c0.9,0,1.5,0.3,2,0.7
			C268.2,188.4,268.5,189,268.5,189.8z M273.2,203.6l-4.4-8.6c1-0.3,1.8-1,2.5-1.8c0.7-0.9,1.1-2,1.1-3.4c0-1.7-0.6-3.1-1.7-4.3
			c-1.1-1.1-2.7-1.7-4.7-1.8h-7.8v19.8h3.9v-7.9h2.8l3.9,7.9H273.2z"/>
		<path class="st0" d="M290.5,195.4v-2.9H283v3.3h3.7v0.7c0,0.5-0.1,1-0.2,1.4c-0.1,0.4-0.4,0.8-0.7,1.2c-0.3,0.4-0.7,0.6-1.2,0.8
			c-0.5,0.2-1,0.3-1.6,0.3c-0.5,0-1-0.1-1.4-0.3c-0.4-0.2-0.8-0.4-1.1-0.8c-0.2-0.3-0.4-0.6-0.6-1c-0.1-0.4-0.2-0.9-0.3-1.7
			s-0.1-1.7-0.1-3c0-1.2,0-2.2,0.1-2.9c0.1-0.7,0.2-1.3,0.3-1.7c0.1-0.4,0.3-0.7,0.6-1c0.3-0.3,0.6-0.6,1.1-0.8
			c0.4-0.2,0.9-0.3,1.4-0.3c1,0,1.8,0.2,2.4,0.7c0.6,0.5,1,1.2,1.2,2.2h3.9c-0.2-1.1-0.6-2.2-1.1-3.1s-1.4-1.7-2.5-2.3
			c-1-0.6-2.3-0.9-3.9-0.9c-1.1,0-2.1,0.2-3,0.5c-0.9,0.4-1.6,0.9-2.3,1.5c-0.9,1-1.5,2.1-1.7,3.3c-0.2,1.3-0.3,2.8-0.3,4.7
			c0,1.9,0,3.4,0.3,4.7c0.2,1.3,0.8,2.4,1.7,3.3c0.7,0.7,1.4,1.2,2.3,1.5c0.9,0.4,1.9,0.5,3,0.5c1.1,0,2.1-0.1,3-0.5
			c0.9-0.3,1.8-0.9,2.6-1.8c0.7-0.7,1.2-1.6,1.5-2.5C290.4,198,290.5,196.9,290.5,195.4z"/>
		<path class="st0" d="M303.3,196.8h-4.9l2.5-7.2L303.3,196.8z M309.5,203.6l-7.2-19.8h-3l-7.2,19.8h4l1.2-3.5h7.1l1.2,3.5H309.5z"
			/>
		<polygon class="st0" points="327.2,203.6 327.2,183.7 323.3,183.7 323.3,195.9 315.4,183.7 312,183.7 312,203.6 315.8,203.6 
			315.8,191.4 323.7,203.6 		"/>
		<rect x="331.8" y="183.7" class="st0" width="3.9" height="19.8"/>
		<polygon class="st0" points="352.1,203.6 352.1,200.1 343.6,200.1 352.1,186.8 352.1,183.7 339.5,183.7 339.5,187.2 347.6,187.2 
			339.1,200.5 339.1,203.6 		"/>
		<polygon class="st0" points="368.6,203.6 368.6,200.1 359.4,200.1 359.4,195.3 367.3,195.3 367.3,191.9 359.4,191.9 359.4,187.2 
			368.6,187.2 368.6,183.7 355.6,183.7 355.6,203.6 		"/>
		<path class="st0" d="M391.7,197.7c0-0.9-0.1-1.7-0.4-2.4c-0.2-0.7-0.6-1.3-1.2-1.8c-0.4-0.4-0.9-0.7-1.5-1
			c-0.6-0.3-1.4-0.4-2.3-0.6l-2.4-0.4c-0.4-0.1-0.8-0.2-1.1-0.3c-0.3-0.1-0.5-0.3-0.7-0.5c-0.2-0.2-0.4-0.4-0.4-0.7
			c-0.1-0.2-0.1-0.5-0.1-0.8c0-0.7,0.2-1.3,0.7-1.8c0.5-0.5,1.3-0.7,2.3-0.7c0.7,0,1.4,0.1,2.1,0.2c0.7,0.2,1.4,0.6,2,1.1l2.5-2.4
			c-0.8-0.8-1.8-1.4-2.8-1.8c-1-0.4-2.2-0.5-3.6-0.5c-2.2,0-3.9,0.6-5.1,1.7c-1.2,1.1-1.8,2.5-1.8,4.3c0,0.8,0.1,1.6,0.4,2.2
			c0.2,0.7,0.6,1.2,1.1,1.7c0.4,0.4,1,0.8,1.6,1.1c0.6,0.3,1.4,0.5,2.2,0.6l2.4,0.4c0.5,0.1,0.9,0.1,1.1,0.3
			c0.3,0.1,0.5,0.2,0.7,0.4c0.2,0.2,0.4,0.5,0.5,0.7c0.1,0.3,0.2,0.6,0.1,0.9c0,0.8-0.3,1.4-0.9,1.8c-0.6,0.4-1.5,0.6-2.6,0.6
			c-0.9,0-1.8-0.1-2.6-0.4c-0.8-0.3-1.5-0.7-2.2-1.3l-2.5,2.5c1,1,2,1.7,3.2,2.1c1.2,0.4,2.5,0.6,4,0.6c2.1,0,3.9-0.5,5.2-1.6
			C391,201.2,391.7,199.7,391.7,197.7z"/>
		<path class="st0" d="M404.5,196.8h-4.9l2.5-7.2L404.5,196.8z M410.7,203.6l-7.2-19.8h-3l-7.2,19.8h4l1.2-3.5h7.1l1.2,3.5H410.7z"
			/>
		<polygon class="st0" points="428.4,203.6 428.4,183.7 424.5,183.7 424.5,195.9 416.6,183.7 413.2,183.7 413.2,203.6 417,203.6 
			417,191.4 424.9,203.6 		"/>
		<path class="st0" d="M442.1,196.8h-4.9l2.5-7.2L442.1,196.8z M448.3,203.6l-7.2-19.8h-3l-7.2,19.8h4l1.2-3.5h7.1l1.2,3.5H448.3z"
			/>
		<polygon class="st0" points="463.2,183.7 459,183.7 455.3,191.7 451.6,183.7 447.4,183.7 453.4,195.4 453.4,203.6 457.2,203.6 
			457.2,195.4 		"/>
		<rect x="465.6" y="183.7" class="st0" width="3.9" height="19.8"/>
		<path class="st0" d="M490.8,189.5c0,0.7-0.2,1.2-0.7,1.7c-0.4,0.4-1.1,0.6-1.9,0.6h-3.8v-4.6h3.8c0.8,0,1.5,0.2,1.9,0.6
			C490.6,188.2,490.8,188.8,490.8,189.5z M491.1,197.7c0,0.7-0.2,1.3-0.6,1.7s-1.1,0.7-2,0.7h-4v-4.9h4c0.9,0,1.5,0.3,2,0.7
			S491.1,197,491.1,197.7z M494.9,197.9c0-1.3-0.3-2.3-0.9-3c-0.6-0.7-1.2-1.2-1.8-1.4c0.5-0.2,1.1-0.7,1.6-1.4
			c0.5-0.7,0.8-1.6,0.8-2.7c0-1.7-0.6-3.1-1.6-4.1c-1.1-1-2.6-1.5-4.5-1.5h-8v19.8h8.3c1.8,0,3.3-0.5,4.4-1.5
			C494.3,201.1,494.9,199.7,494.9,197.9z"/>
		<path class="st0" d="M504,181.8v-3.5h-3.1v3.5H504z M510.2,181.8v-3.5h-3.1v3.5H510.2z M512.9,193.7c0-1.9-0.1-3.4-0.3-4.7
			c-0.2-1.3-0.8-2.4-1.8-3.3c-0.7-0.7-1.4-1.2-2.3-1.5s-1.9-0.5-3-0.5c-1.1,0-2.1,0.2-3,0.5c-0.9,0.4-1.6,0.9-2.3,1.5
			c-0.9,1-1.5,2.1-1.7,3.3c-0.2,1.3-0.3,2.8-0.3,4.7c0,1.9,0,3.4,0.3,4.7c0.2,1.3,0.8,2.4,1.7,3.3c0.7,0.7,1.4,1.2,2.3,1.5
			c0.9,0.4,1.9,0.5,3,0.5c1.1,0,2.1-0.2,3-0.5s1.6-0.9,2.3-1.5c1-1,1.5-2.1,1.8-3.3C512.8,197.1,512.9,195.5,512.9,193.7z
			 M509,193.7c0,1.2,0,2.2-0.1,2.9s-0.2,1.3-0.3,1.6c-0.1,0.4-0.3,0.7-0.6,1c-0.3,0.3-0.6,0.6-1.1,0.8c-0.4,0.2-0.9,0.3-1.4,0.3
			c-0.5,0-1-0.1-1.4-0.3c-0.4-0.2-0.8-0.5-1.1-0.8c-0.2-0.3-0.4-0.6-0.6-1c-0.1-0.4-0.2-0.9-0.3-1.6c-0.1-0.7-0.1-1.7-0.1-2.9
			c0-1.2,0-2.2,0.1-2.9c0.1-0.7,0.2-1.3,0.3-1.7c0.1-0.4,0.3-0.7,0.6-1c0.3-0.3,0.7-0.6,1.1-0.8s0.9-0.3,1.4-0.3
			c0.5,0,1,0.1,1.4,0.3c0.4,0.2,0.8,0.4,1.1,0.8c0.2,0.3,0.4,0.6,0.6,1s0.2,0.9,0.3,1.7C509,191.4,509,192.4,509,193.7z"/>
		<polygon class="st0" points="529.7,203.6 529.7,200.1 520.7,200.1 520.7,183.7 516.9,183.7 516.9,203.6 		"/>
		<path class="st0" d="M546,195.4v-2.9h-7.5v3.3h3.7v0.7c0,0.5-0.1,1-0.2,1.4c-0.1,0.4-0.4,0.8-0.7,1.2c-0.3,0.4-0.7,0.6-1.2,0.8
			c-0.5,0.2-1,0.3-1.6,0.3c-0.5,0-1-0.1-1.4-0.3c-0.4-0.2-0.8-0.4-1.1-0.8c-0.2-0.3-0.4-0.6-0.6-1c-0.1-0.4-0.2-0.9-0.3-1.7
			s-0.1-1.7-0.1-3c0-1.2,0-2.2,0.1-2.9c0.1-0.7,0.2-1.3,0.3-1.7c0.1-0.4,0.3-0.7,0.6-1c0.3-0.3,0.6-0.6,1.1-0.8
			c0.4-0.2,0.9-0.3,1.4-0.3c1,0,1.8,0.2,2.4,0.7c0.6,0.5,1,1.2,1.2,2.2h3.9c-0.2-1.1-0.6-2.2-1.1-3.1c-0.6-1-1.4-1.7-2.5-2.3
			c-1-0.6-2.3-0.9-3.9-0.9c-1.1,0-2.1,0.2-3,0.5c-0.9,0.4-1.6,0.9-2.3,1.5c-0.9,1-1.5,2.1-1.7,3.3c-0.2,1.3-0.3,2.8-0.3,4.7
			c0,1.9,0,3.4,0.3,4.7c0.2,1.3,0.8,2.4,1.7,3.3c0.7,0.7,1.4,1.2,2.3,1.5s1.9,0.5,3,0.5c1.1,0,2.1-0.1,3-0.5
			c0.9-0.3,1.8-0.9,2.6-1.8c0.7-0.7,1.2-1.6,1.5-2.5S546.1,196.9,546,195.4z"/>
		<polygon class="st0" points="563.1,203.6 563.1,200.1 553.9,200.1 553.9,195.3 561.7,195.3 561.7,191.9 553.9,191.9 553.9,187.2 
			563.1,187.2 563.1,183.7 550,183.7 550,203.6 		"/>
		<path class="st0" d="M579.7,197.7c0-0.9-0.1-1.7-0.4-2.4c-0.2-0.7-0.6-1.3-1.2-1.8c-0.4-0.4-0.9-0.7-1.5-1
			c-0.6-0.3-1.4-0.4-2.3-0.6l-2.4-0.4c-0.4-0.1-0.8-0.2-1.1-0.3c-0.3-0.1-0.5-0.3-0.7-0.5c-0.2-0.2-0.4-0.4-0.4-0.7
			c-0.1-0.2-0.1-0.5-0.1-0.8c0-0.7,0.2-1.3,0.7-1.8c0.5-0.5,1.3-0.7,2.3-0.7c0.7,0,1.4,0.1,2.1,0.2c0.7,0.2,1.4,0.6,2,1.1l2.5-2.4
			c-0.8-0.8-1.8-1.4-2.8-1.8c-1-0.4-2.2-0.5-3.6-0.5c-2.2,0-3.9,0.6-5.1,1.7c-1.2,1.1-1.8,2.5-1.8,4.3c0,0.8,0.1,1.6,0.4,2.2
			c0.2,0.7,0.6,1.2,1.1,1.7c0.4,0.4,1,0.8,1.6,1.1c0.6,0.3,1.4,0.5,2.2,0.6l2.4,0.4c0.5,0.1,0.9,0.1,1.1,0.3
			c0.3,0.1,0.5,0.2,0.7,0.4c0.2,0.2,0.4,0.5,0.5,0.7c0.1,0.3,0.2,0.6,0.1,0.9c0,0.8-0.3,1.4-0.9,1.8c-0.6,0.4-1.5,0.6-2.6,0.6
			c-0.9,0-1.8-0.1-2.6-0.4c-0.8-0.3-1.5-0.7-2.2-1.3l-2.5,2.5c1,1,2,1.7,3.2,2.1s2.5,0.6,4,0.6c2.1,0,3.9-0.5,5.2-1.6
			C578.9,201.2,579.6,199.7,579.7,197.7z"/>
		<rect x="583.3" y="183.7" class="st0" width="3.9" height="19.8"/>
		<rect x="332.2" y="178.5" class="st0" width="3" height="3.2"/>
		<rect x="583.8" y="178.5" class="st0" width="3" height="3.2"/>
		<rect x="466" y="178.5" class="st0" width="3" height="3.2"/>
	</g>
</g>
</svg>
