<?xml version="1.0" encoding="utf-8"?>
<!-- Generator: Adobe Illustrator 26.2.1, SVG Export Plug-In . SVG Version: 6.00 Build 0)  -->
<svg version="1.1" id="katman_1" xmlns="http://www.w3.org/2000/svg" xmlns:xlink="http://www.w3.org/1999/xlink" x="0px" y="0px"
	 viewBox="0 0 616 216" style="enable-background:new 0 0 616 216;" xml:space="preserve">
<style type="text/css">
	.st0{fill:#373737;}
</style>
<g>
	<path class="st0" d="M278.4,2.2c0,0-143.6,82.7,36.6,205.4l37.9-35.8C353,171.7,169.6,99.6,278.4,2.2"/>
	<path class="st0" d="M358.4,164.7c0,0,83.3-66.3-13.2-101.9c0,0,67.1,27.5-21.6,83.1L358.4,164.7z"/>
	<path class="st0" d="M344.8,100.9c0,11.4-14,20.7-31.2,20.7c-17.3,0-31.2-9.2-31.2-20.7s14-20.7,31.2-20.7
		C330.9,80.3,344.8,89.5,344.8,100.9"/>
	<path class="st0" d="M264,52.1c0.1,0.6,0,1.2-0.2,2c-0.2,0.7-0.5,1.4-0.9,1.9c-0.4,0.5-1,0.9-1.6,1.2c-0.6,0.3-1.4,0.5-2.2,0.5
		c-0.8,0-1.7,0-2.6-0.2c-0.9-0.2-1.7-0.5-2.5-0.9c-0.7-0.4-1.3-0.8-1.8-1.4c-0.5-0.5-0.8-1.1-1-1.7c-0.2-0.6-0.2-1.3,0-2
		c0.2-0.8,0.5-1.4,0.9-1.9c0.4-0.5,0.8-0.8,1.3-1l1.6,1.9c-0.6,0.3-1.1,0.8-1.2,1.5c-0.1,0.4-0.1,0.7,0.1,1c0.1,0.3,0.3,0.6,0.6,0.9
		c0.3,0.3,0.7,0.5,1.1,0.7c0.4,0.2,0.9,0.3,1.4,0.4c0.5,0.1,1,0.2,1.4,0.2c0.5,0,0.9,0,1.3-0.1c0.4-0.1,0.7-0.3,1-0.5
		c0.3-0.2,0.4-0.5,0.5-0.9c0.1-0.4,0.1-0.7,0-1l-2.2-0.5l-0.3,1.3l-2.3-0.5l0.8-3.6l6.3,1.4C263.8,51,264,51.5,264,52.1"/>
	<polygon class="st0" points="265.1,49.3 254.4,43.6 257.2,38.4 259.3,39.6 257.8,42.4 259.9,43.5 261.3,40.9 263.3,42 261.9,44.6 
		264.2,45.8 265.8,42.8 268,43.9 	"/>
	<path class="st0" d="M270.8,34.4c0.5,0.4,0.9,0.8,1.1,1.3c0.2,0.4,0.3,0.9,0.3,1.3c0,0.4-0.1,0.9-0.2,1.3c-0.2,0.4-0.4,0.8-0.7,1.1
		l-2.5,3.2l-9.6-7.4l2.2-2.9c0.2-0.3,0.5-0.6,0.8-0.9c0.3-0.3,0.7-0.5,1.1-0.6c0.4-0.1,0.8-0.2,1.3-0.1c0.5,0.1,1,0.3,1.5,0.7
		c0.6,0.4,0.9,0.9,1.1,1.4c0.2,0.5,0.2,1,0.1,1.4l0,0c0.2-0.1,0.4-0.3,0.7-0.4c0.3-0.1,0.5-0.1,0.8-0.1c0.3,0,0.6,0.1,0.9,0.2
		C270.1,34,270.5,34.2,270.8,34.4 M265,33.6c-0.4-0.3-0.7-0.4-1-0.3c-0.3,0.1-0.6,0.3-0.8,0.6l-0.6,0.7l2.1,1.6l0.6-0.7
		c0.2-0.3,0.3-0.6,0.3-0.9C265.6,34.2,265.4,33.8,265,33.6 M269,36.4c-0.2-0.2-0.4-0.3-0.6-0.3c-0.2,0-0.4-0.1-0.6,0
		c-0.2,0-0.4,0.1-0.5,0.2c-0.2,0.1-0.3,0.2-0.4,0.4l-0.6,0.8l2.3,1.8l0.6-0.8c0.2-0.3,0.4-0.7,0.3-1C269.6,37,269.4,36.7,269,36.4"
		/>
	<polygon class="st0" points="274.4,35.7 272.8,34.2 270.2,26.2 267.7,28.6 266,26.9 270.7,22.3 272.2,23.8 274.9,31.8 277.5,29.2 
		279.2,30.9 	"/>
	<polygon class="st0" points="280.6,29.7 273,20.2 277.6,16.6 279.1,18.5 276.6,20.5 278.1,22.4 280.4,20.5 281.8,22.3 279.5,24.1 
		281.1,26.2 283.8,24 285.4,25.9 	"/>
	<polygon class="st0" points="291.8,10.6 296.3,19.3 293.9,20.5 289.4,11.8 287.4,12.9 286.3,10.8 292.7,7.5 293.7,9.5 	"/>
	<path class="st0" d="M296.6,3.2c0.2,0.4,0.2,0.8,0,1.2c-0.1,0.4-0.4,0.7-0.8,0.8c-0.4,0.2-0.8,0.2-1.2,0c-0.4-0.2-0.6-0.5-0.8-0.9
		c-0.1-0.2-0.1-0.4-0.1-0.6c0-0.2,0-0.4,0.1-0.6c0.1-0.2,0.2-0.3,0.3-0.5c0.1-0.1,0.3-0.3,0.5-0.3c0.2-0.1,0.4-0.1,0.6-0.1
		c0.2,0,0.4,0.1,0.6,0.1c0.2,0.1,0.3,0.2,0.5,0.3C296.4,2.8,296.5,3,296.6,3.2 M299.5,17.8l-4.6-11.2l2.6-1.1l4.6,11.2L299.5,17.8z"
		/>
	<path class="st0" d="M310.2,14c-0.4,0.4-1,0.8-1.9,1c-0.7,0.2-1.3,0.2-2,0.1c-0.6-0.1-1.2-0.4-1.8-0.9c-0.6-0.4-1-1-1.5-1.7
		c-0.4-0.7-0.8-1.5-1-2.4c-0.3-0.9-0.4-1.8-0.4-2.6c0-0.8,0.1-1.6,0.4-2.2c0.2-0.7,0.6-1.2,1.1-1.7c0.5-0.5,1-0.8,1.7-1
		c0.8-0.2,1.5-0.3,2.1-0.1c0.6,0.1,1.1,0.4,1.6,0.7l-0.9,2.3c-0.3-0.2-0.6-0.4-0.8-0.4c-0.3-0.1-0.6-0.1-1,0
		c-0.4,0.1-0.6,0.3-0.8,0.5c-0.2,0.3-0.4,0.6-0.4,1c-0.1,0.4-0.1,0.8-0.1,1.3c0,0.5,0.1,1,0.3,1.5c0.1,0.5,0.3,1,0.5,1.4
		c0.2,0.4,0.5,0.8,0.7,1c0.3,0.3,0.6,0.5,0.9,0.6c0.3,0.1,0.7,0.1,1,0c0.4-0.1,0.6-0.3,0.8-0.5c0.2-0.3,0.4-0.5,0.4-0.8l2,1.4
		C310.9,13,310.6,13.5,310.2,14"/>
	<path class="st0" d="M317.8,13l-0.7-2.2l-2.7,0.3l-0.3,2.3l-2.7,0.3l1.7-12.4l3.4-0.4l4.2,11.8L317.8,13z M315,3.8L315,3.8L314.5,9
		l2.1-0.2L315,3.8z"/>
	<path class="st0" d="M326.7,13.4l-1.1-5l-0.8-0.1l-0.5,4.8l-2.6-0.3L323,0.8l3.9,0.4c1.2,0.1,2,0.5,2.6,1.2
		c0.6,0.7,0.8,1.6,0.7,2.8c0,0.4-0.1,0.8-0.3,1.2c-0.1,0.3-0.3,0.6-0.5,0.9c-0.2,0.2-0.4,0.4-0.6,0.6c-0.2,0.1-0.4,0.2-0.6,0.3
		l1.5,5.6L326.7,13.4z M327.4,5.1c0-0.3,0-0.6,0-0.8c-0.1-0.2-0.2-0.4-0.3-0.5c-0.1-0.1-0.3-0.2-0.4-0.3c-0.2-0.1-0.3-0.1-0.5-0.1
		l-0.9-0.1L325,6.4l0.8,0.1c0.4,0,0.7,0,1.1-0.3C327.2,6,327.4,5.6,327.4,5.1"/>
	<polygon class="st0" points="330.8,14.1 334.1,2.4 339.8,4 339.1,6.3 336,5.4 335.3,7.7 338.2,8.5 337.6,10.7 334.7,9.9 334,12.4 
		337.4,13.4 336.7,15.7 	"/>
	<polygon class="st0" points="345.6,8.8 341.8,17.9 339.4,16.8 343.2,7.8 341.1,6.9 342,4.7 348.6,7.5 347.7,9.7 	"/>
	<path class="st0" d="M362,22.9c-0.6,0.8-1.2,1.4-1.8,2c-0.6,0.5-1.3,0.9-1.9,1.1c-0.7,0.2-1.3,0.3-2,0.2c-0.7-0.1-1.3-0.3-1.9-0.7
		c-0.6-0.4-1-0.9-1.3-1.5c-0.3-0.6-0.4-1.2-0.4-1.9c0-0.7,0.1-1.4,0.4-2.2c0.3-0.8,0.7-1.6,1.3-2.3c0.6-0.8,1.1-1.4,1.8-2
		c0.6-0.5,1.3-0.9,1.9-1.1c0.6-0.2,1.3-0.3,1.9-0.2c0.6,0.1,1.3,0.3,1.9,0.8c0.6,0.4,1,0.9,1.3,1.5c0.3,0.6,0.4,1.2,0.5,1.9
		c0,0.7-0.1,1.4-0.4,2.2C362.9,21.3,362.5,22.1,362,22.9 M359.7,21.2c0.3-0.4,0.6-0.9,0.8-1.3c0.2-0.4,0.3-0.8,0.4-1.2
		c0.1-0.4,0.1-0.7,0-1c-0.1-0.3-0.2-0.5-0.5-0.7c-0.3-0.2-0.5-0.3-0.8-0.2c-0.3,0-0.6,0.1-0.9,0.3c-0.3,0.2-0.6,0.4-1,0.8
		c-0.3,0.3-0.6,0.7-0.9,1.1c-0.3,0.4-0.6,0.9-0.8,1.3c-0.2,0.4-0.3,0.8-0.4,1.2c-0.1,0.4-0.1,0.7,0,1s0.2,0.5,0.5,0.7
		c0.3,0.2,0.5,0.3,0.8,0.2c0.3,0,0.6-0.1,0.9-0.3c0.3-0.2,0.6-0.4,1-0.8C359,22.1,359.4,21.7,359.7,21.2"/>
	<path class="st0" d="M370.1,30.3c-0.6,0.7-1.3,1.2-1.9,1.6c-0.7,0.4-1.3,0.7-2,0.8c-0.7,0.1-1.3,0-2-0.2c-0.7-0.2-1.3-0.6-1.9-1.2
		l-2.5-2.3l8.3-8.9l2.5,2.3c0.6,0.6,1.1,1.2,1.4,1.9c0.3,0.6,0.4,1.3,0.3,2c-0.1,0.7-0.3,1.3-0.6,2C371.2,29,370.7,29.7,370.1,30.3
		 M368.1,28.5c0.8-0.9,1.3-1.7,1.4-2.5c0.1-0.7-0.1-1.3-0.5-1.8l-0.5-0.5l-5,5.4l0.5,0.5c0.5,0.5,1.1,0.6,1.8,0.4
		C366.5,29.8,367.2,29.3,368.1,28.5"/>
	<path class="st0" d="M370.3,40l1.4-1.8l-1.7-2.1l-2,1l-1.7-2.1l11.3-5.4l2.2,2.7l-7.6,10L370.3,40z M376.5,32.6L376.5,32.6
		l-4.7,2.4l1.3,1.6L376.5,32.6z"/>
	<path class="st0" d="M383.1,42.9c0.1-0.3,0.1-0.6,0.1-0.9c0-0.3-0.1-0.6-0.3-0.8c-0.2-0.3-0.4-0.5-0.7-0.6c-0.3-0.1-0.6-0.1-1,0.2
		c-0.3,0.2-0.5,0.4-0.6,0.8c-0.1,0.3-0.1,0.8,0,1.3c0,0.3,0,0.6,0,1c0,0.4-0.1,0.7-0.2,1.1c-0.1,0.4-0.3,0.7-0.5,1
		c-0.2,0.3-0.6,0.6-1.1,0.9c-0.6,0.3-1.1,0.5-1.7,0.6c-0.5,0.1-1,0-1.5-0.1c-0.5-0.1-0.9-0.4-1.2-0.7c-0.4-0.3-0.7-0.7-0.9-1.1
		c-0.4-0.6-0.6-1.3-0.6-1.9c-0.1-0.7,0-1.2,0.1-1.7l2.5,0.2c-0.1,0.4-0.1,0.7-0.1,1.1c0,0.4,0.1,0.7,0.3,1c0.2,0.3,0.4,0.5,0.7,0.6
		c0.3,0.1,0.6,0,1-0.2c0.3-0.2,0.6-0.5,0.6-0.8c0.1-0.4,0.1-0.8,0-1.4c0-0.4,0-0.7,0-1.1c0-0.3,0.1-0.7,0.2-1
		c0.1-0.3,0.3-0.6,0.6-0.9c0.3-0.3,0.6-0.6,1-0.8c0.6-0.3,1.1-0.5,1.7-0.6c0.5,0,1,0,1.5,0.2c0.4,0.2,0.8,0.4,1.2,0.7
		c0.3,0.3,0.6,0.7,0.9,1c0.3,0.6,0.5,1.1,0.6,1.7c0.1,0.6,0,1.1-0.1,1.6L383.1,42.9z"/>
	<rect x="376.4" y="48" transform="matrix(0.9406 -0.3396 0.3396 0.9406 5.9697 132.8415)" class="st0" width="12.2" height="2.8"/>
	<path class="st0" d="M325.8,209.3c0.3-0.3,0.4-0.6,0.5-0.9c0.1-0.3,0.1-0.6,0.1-1c-0.1-0.4-0.3-0.8-0.6-1.2l0.6-0.6l8.2,8.8
		l-0.8,0.7l-6.1-6.5l-2.3,2.2l-0.5-0.6C325.3,209.9,325.6,209.6,325.8,209.3"/>
	<path class="st0" d="M340.2,207.7c0.6,0,1.2-0.2,1.7-0.7c0.5-0.5,0.8-1,0.9-1.6c0.1-0.6,0-1.1-0.2-1.7c-0.2-0.6-0.5-1.1-0.8-1.6
		c-0.4-0.5-0.7-1-1.1-1.4l0,0c0.2,0.6,0.2,1.3,0,1.9c-0.2,0.7-0.5,1.2-1,1.7c-0.4,0.4-0.9,0.7-1.4,0.9c-0.5,0.2-1,0.3-1.5,0.2
		c-0.5,0-1-0.2-1.5-0.4c-0.5-0.2-0.9-0.6-1.3-1c-0.4-0.4-0.7-0.9-0.9-1.4c-0.2-0.5-0.3-1-0.3-1.5c0-0.5,0.1-1,0.4-1.5
		c0.2-0.5,0.6-0.9,1-1.3c0.5-0.5,1.1-0.8,1.6-1c0.5-0.2,1.1-0.2,1.7-0.1c0.6,0.1,1.2,0.5,1.9,0.9c0.7,0.5,1.4,1.2,2.2,2
		c0.2,0.2,0.4,0.4,0.6,0.7c0.2,0.3,0.5,0.7,0.7,1c0.2,0.4,0.4,0.8,0.6,1.3c0.2,0.5,0.3,0.9,0.3,1.4c0,0.5-0.1,1-0.3,1.4
		c-0.2,0.5-0.5,1-1,1.4c-0.8,0.7-1.6,1.1-2.4,1.2c-0.8,0.1-1.6-0.3-2.4-1l0.8-0.7C339,207.5,339.6,207.7,340.2,207.7 M339.7,202.7
		c0.2-0.4,0.2-0.8,0.2-1.1c0-0.4-0.1-0.8-0.3-1.1c-0.2-0.4-0.4-0.7-0.7-1c-0.3-0.3-0.6-0.6-0.9-0.8c-0.3-0.2-0.7-0.3-1.1-0.3
		c-0.4,0-0.7,0-1.1,0.2c-0.4,0.1-0.8,0.4-1.2,0.7c-0.3,0.3-0.5,0.6-0.7,1c-0.1,0.4-0.2,0.7-0.2,1.1c0,0.4,0.1,0.8,0.2,1.1
		c0.2,0.4,0.4,0.7,0.7,1c0.3,0.3,0.6,0.6,1,0.8c0.4,0.2,0.7,0.3,1.1,0.4c0.4,0,0.8,0,1.1-0.1c0.4-0.1,0.7-0.3,1.1-0.7
		C339.3,203.4,339.6,203.1,339.7,202.7"/>
	<path class="st0" d="M348.4,191.6c0.1,0.6-0.1,1.1-0.4,1.7l0,0c0.7-0.4,1.4-0.6,2-0.5c0.7,0.1,1.3,0.5,1.8,1.1
		c0.4,0.4,0.7,0.9,0.8,1.4c0.1,0.5,0.2,1,0.1,1.4c-0.1,0.5-0.2,0.9-0.5,1.4c-0.3,0.4-0.6,0.9-1,1.3c-0.4,0.4-0.9,0.7-1.3,0.9
		c-0.5,0.2-0.9,0.4-1.4,0.4c-0.5,0-1,0-1.4-0.2c-0.5-0.2-0.9-0.5-1.3-0.9c-0.5-0.6-0.8-1.2-0.9-1.9c-0.1-0.7,0.1-1.4,0.6-2l0,0
		c-0.6,0.3-1.2,0.4-1.7,0.3c-0.6-0.1-1.1-0.4-1.5-0.9c-0.3-0.4-0.6-0.8-0.7-1.2c-0.1-0.4-0.1-0.8,0-1.3c0.1-0.4,0.2-0.8,0.5-1.2
		c0.2-0.4,0.5-0.7,0.8-1c0.3-0.3,0.7-0.6,1.1-0.8c0.4-0.2,0.8-0.3,1.2-0.4c0.4-0.1,0.8,0,1.3,0.1c0.4,0.1,0.8,0.4,1.1,0.8
		C348.1,190.5,348.4,191,348.4,191.6 M347.1,193.4c0.2-0.3,0.3-0.6,0.3-0.9c0-0.3,0-0.6-0.1-0.9c-0.1-0.3-0.3-0.6-0.5-0.9
		c-0.2-0.3-0.5-0.4-0.8-0.5c-0.3-0.1-0.6-0.1-0.8-0.1c-0.3,0-0.6,0.1-0.9,0.3c-0.3,0.1-0.6,0.3-0.8,0.6c-0.2,0.2-0.4,0.5-0.6,0.8
		c-0.2,0.3-0.3,0.6-0.3,0.8c-0.1,0.3-0.1,0.6,0,0.9c0.1,0.3,0.2,0.6,0.5,0.8c0.3,0.3,0.6,0.5,0.9,0.6c0.3,0.1,0.6,0.1,0.9,0.1
		c0.3,0,0.6-0.1,0.9-0.3c0.3-0.2,0.5-0.3,0.8-0.6C346.8,193.9,347,193.6,347.1,193.4 M351.5,197.7c0.2-0.3,0.3-0.7,0.4-1
		c0-0.3,0-0.7-0.1-1.1c-0.1-0.4-0.3-0.7-0.6-1c-0.3-0.3-0.6-0.5-1-0.7c-0.3-0.1-0.7-0.2-1.1-0.1c-0.4,0-0.7,0.1-1.1,0.3
		c-0.3,0.2-0.7,0.4-0.9,0.7c-0.3,0.3-0.6,0.6-0.8,0.9c-0.2,0.3-0.3,0.7-0.4,1c0,0.4,0,0.7,0.1,1.1c0.1,0.4,0.3,0.7,0.6,1
		c0.3,0.3,0.6,0.6,1,0.7c0.3,0.1,0.7,0.2,1.1,0.2c0.4,0,0.7-0.1,1.1-0.3c0.3-0.2,0.7-0.4,1-0.7C351.1,198.4,351.3,198.1,351.5,197.7
		"/>
	<path class="st0" d="M357.1,183.5c0.1,0.6-0.1,1.1-0.4,1.7l0,0c0.7-0.4,1.4-0.6,2-0.5c0.7,0.1,1.3,0.5,1.8,1.1
		c0.4,0.4,0.7,0.9,0.8,1.4c0.1,0.5,0.2,1,0.1,1.4c-0.1,0.5-0.2,0.9-0.5,1.4c-0.3,0.4-0.6,0.9-1,1.3c-0.4,0.4-0.9,0.7-1.3,0.9
		c-0.5,0.2-0.9,0.4-1.4,0.4c-0.5,0-1,0-1.4-0.2s-0.9-0.5-1.3-0.9c-0.5-0.6-0.8-1.2-0.9-1.9c-0.1-0.7,0.1-1.4,0.6-2l0,0
		c-0.6,0.3-1.2,0.4-1.7,0.3c-0.6-0.1-1.1-0.4-1.5-0.9c-0.3-0.4-0.6-0.8-0.7-1.2c-0.1-0.4-0.1-0.8,0-1.3c0.1-0.4,0.2-0.8,0.5-1.2
		c0.2-0.4,0.5-0.7,0.8-1c0.3-0.3,0.7-0.6,1.1-0.8c0.4-0.2,0.8-0.3,1.2-0.4c0.4-0.1,0.8,0,1.3,0.1c0.4,0.1,0.8,0.4,1.1,0.8
		C356.8,182.4,357.1,182.9,357.1,183.5 M355.8,185.3c0.2-0.3,0.3-0.6,0.3-0.9c0-0.3,0-0.6-0.1-0.9c-0.1-0.3-0.3-0.6-0.5-0.9
		c-0.2-0.3-0.5-0.4-0.8-0.5c-0.3-0.1-0.6-0.1-0.8-0.1c-0.3,0-0.6,0.1-0.9,0.3c-0.3,0.1-0.6,0.3-0.8,0.6c-0.2,0.2-0.4,0.5-0.6,0.8
		c-0.2,0.3-0.3,0.6-0.3,0.8c-0.1,0.3-0.1,0.6,0,0.9c0.1,0.3,0.2,0.6,0.5,0.8c0.3,0.3,0.6,0.5,0.9,0.6c0.3,0.1,0.6,0.1,0.9,0.1
		c0.3,0,0.6-0.1,0.9-0.3c0.3-0.2,0.5-0.3,0.8-0.6C355.5,185.8,355.7,185.6,355.8,185.3 M360.2,189.7c0.2-0.3,0.3-0.7,0.4-1
		c0.1-0.4,0-0.7-0.1-1.1c-0.1-0.4-0.3-0.7-0.6-1c-0.3-0.3-0.6-0.5-1-0.7c-0.3-0.1-0.7-0.2-1.1-0.1c-0.4,0-0.7,0.1-1.1,0.3
		c-0.3,0.2-0.7,0.4-1,0.7c-0.3,0.3-0.6,0.6-0.8,0.9c-0.2,0.3-0.3,0.7-0.4,1c0,0.4,0,0.7,0.1,1.1c0.1,0.4,0.3,0.7,0.6,1
		c0.3,0.3,0.6,0.6,1,0.7c0.4,0.1,0.7,0.2,1.1,0.2c0.4,0,0.7-0.1,1.1-0.3c0.3-0.2,0.7-0.4,1-0.7C359.8,190.3,360,190,360.2,189.7"/>
</g>
</svg>
