<?xml version="1.0" encoding="utf-8"?>
<!-- Generator: Adobe Illustrator 26.2.1, SVG Export Plug-In . SVG Version: 6.00 Build 0)  -->
<svg version="1.1" id="katman_1" xmlns="http://www.w3.org/2000/svg" xmlns:xlink="http://www.w3.org/1999/xlink" x="0px" y="0px"
	 viewBox="0 0 616 216" style="enable-background:new 0 0 616 216;" xml:space="preserve">
<style type="text/css">
	.st0{fill-rule:evenodd;clip-rule:evenodd;fill:#373737;}
</style>
<g>
	<path class="st0" d="M28.5,92.1v-6.3H0.7v6.3h10.1v63.2H0.7v6.3h27.8v-6.3H18.3V92.1H28.5L28.5,92.1z M68.2,109.8
		c-7.4,0-13.2,2.6-17.4,7.9v-6.6h-7.5v50.5h7.5v-24.2c0-6.6,1.5-11.8,4.4-15.6c2.9-3.8,6.9-5.7,12-5.7c5.1,0,9.1,1.9,12,5.7
		c2.9,3.8,4.4,9,4.4,15.6v24.2h7.5v-24.2c0-8.6-2-15.4-6.1-20.3C81,112.3,75.4,109.8,68.2,109.8L68.2,109.8z M132.5,109.8
		c-7.4,0-13.2,2.6-17.4,7.9v-6.6h-7.5v50.5h7.5v-24.2c0-6.6,1.5-11.8,4.4-15.6c2.9-3.8,6.9-5.7,12-5.7c5.1,0,9.1,1.9,12,5.7
		c2.9,3.8,4.4,9,4.4,15.6v24.2h7.5v-24.2c0-8.6-2-15.4-6.1-20.3C145.3,112.3,139.7,109.8,132.5,109.8L132.5,109.8z M191.5,84.5
		c-14,0-20.2,6.1-20.2,20.2v56.9h7.5v-44.2h12v-6.3h-12v-6.3c0-9.7,3.8-13.9,12.7-13.9V84.5L191.5,84.5z M212.8,161.6v-50.5h-7.5
		v50.5H212.8L212.8,161.6z M209,98.4c2.7,0,5-2.2,5-5c0-2.7-2.3-5-5-5c-2.8,0-5.1,2.3-5.1,5C203.9,96.2,206.2,98.4,209,98.4
		L209,98.4z M254.6,109.8c-7.4,0-13.2,2.6-17.4,7.9v-6.6h-7.5v50.5h7.5v-24.2c0-6.6,1.5-11.8,4.4-15.6c2.9-3.8,6.9-5.7,12-5.7
		c5.1,0,9.1,1.9,12,5.7c2.9,3.8,4.4,9,4.4,15.6v24.2h7.5v-24.2c0-8.6-2-15.4-6.1-20.3C267.5,112.3,261.8,109.8,254.6,109.8
		L254.6,109.8z M301.5,161.6v-50.5H294v50.5H301.5L301.5,161.6z M297.8,98.4c2.7,0,5-2.2,5-5c0-2.7-2.3-5-5-5c-2.8,0-5.1,2.3-5.1,5
		C292.7,96.2,295,98.4,297.8,98.4L297.8,98.4z M318.4,161.6h17.7v-6.3h-10.1v-37.9h9.5v-6.3h-9.5v-8.4h-7.5V161.6L318.4,161.6z
		 M357.3,161.6v-50.5h-7.5v50.5H357.3L357.3,161.6z M353.6,98.4c2.7,0,5-2.2,5-5c0-2.7-2.3-5-5-5c-2.8,0-5.1,2.3-5.1,5
		C348.5,96.2,350.7,98.4,353.6,98.4L353.6,98.4z M392.9,145.6L377.2,111h-8.3l24,53.1l24-53.1h-8.3L392.9,145.6L392.9,145.6z
		 M474,136.3c0-7.2-2.9-14.1-7.4-18.8c-4.6-4.7-11.1-7.7-17.9-7.7c-14.3-0.3-26.9,12.2-26.5,26.5c-0.4,14.3,12.2,26.9,26.5,26.6
		c7.2,0,14-2.9,18.8-7.8l-5-4.8c-3.8,3.8-8.4,5.7-13.8,5.7c-5,0-9.4-1.7-13.1-5.1c-3.8-3.4-5.9-7.5-6.4-12.4h44.6
		C473.9,137.7,474,137,474,136.3L474,136.3z M429.5,132.2c1-4.4,3.4-8.1,6.9-11c3.5-2.9,7.7-4.4,12.3-4.4c4.3,0,8.2,1.4,11.5,4.4
		c3.4,2.9,5.5,6.6,6.4,11H429.5z"/>
	<path class="st0" d="M148,203.6V187h2.1v16.5H148L148,203.6z M154.7,203.6v-12.7h1l8.1,8.9v-8.9h2v12.7h-1l-8.1-8.9v8.9H154.7z"/>
	<path class="st0" d="M170.2,203.6v-12.7h1l8.1,8.9v-8.9h2v12.7h-1l-8.1-8.9v8.9H170.2L170.2,203.6z M192.3,202.1
		c1.7,0,3.1-0.5,4.2-1.4c1.1-0.9,1.6-2.1,1.6-3.5c0-1.4-0.5-2.6-1.6-3.5c-1.1-0.9-2.5-1.4-4.2-1.4c-1.7,0-3.1,0.5-4.1,1.4
		c-1.1,0.9-1.6,2.1-1.6,3.5c0,1.4,0.5,2.6,1.6,3.5C189.2,201.7,190.6,202.1,192.3,202.1L192.3,202.1z M192.3,204
		c-2.3,0-4.1-0.6-5.6-1.9c-1.5-1.3-2.2-2.9-2.2-4.8c0-1.9,0.7-3.6,2.2-4.8c1.5-1.3,3.3-1.9,5.6-1.9c2.3,0,4.2,0.6,5.6,1.9
		c1.5,1.3,2.2,2.9,2.2,4.8c0,1.9-0.7,3.6-2.2,4.8C196.5,203.4,194.6,204,192.3,204L192.3,204z M208.9,203.6h-1l-6.4-12.7h2.1
		l4.8,9.5l4.7-9.5h2.2L208.9,203.6L208.9,203.6z M218.7,198.7h5l-2.5-4.9L218.7,198.7L218.7,198.7z M214.1,203.6h2.1l1.6-3.2h6.7
		l1.7,3.2h2.1l-6.5-12.7h-1.3L214.1,203.6L214.1,203.6z M232.2,203.6v-11h-5.4v-1.8h12.7v1.8h-5.4v11H232.2L232.2,203.6z
		 M241.5,203.6v-12.8h2v12.8H241.5L241.5,203.6z M254.6,202.1c1.7,0,3.1-0.5,4.2-1.4c1.1-0.9,1.6-2.1,1.6-3.5c0-1.4-0.5-2.6-1.6-3.5
		c-1.1-0.9-2.5-1.4-4.2-1.4c-1.7,0-3.1,0.5-4.1,1.4c-1.1,0.9-1.6,2.1-1.6,3.5c0,1.4,0.5,2.6,1.6,3.5
		C251.6,201.7,253,202.1,254.6,202.1L254.6,202.1z M254.6,204c-2.3,0-4.1-0.6-5.6-1.9c-1.5-1.3-2.2-2.9-2.2-4.8
		c0-1.9,0.7-3.6,2.2-4.8c1.5-1.3,3.3-1.9,5.6-1.9c2.3,0,4.2,0.6,5.6,1.9c1.5,1.3,2.2,2.9,2.2,4.8c0,1.9-0.7,3.6-2.2,4.8
		C258.8,203.4,256.9,204,254.6,204L254.6,204z M265.7,203.6v-12.7h1l8.1,8.9v-8.9h2v12.7h-1l-8.1-8.9v8.9H265.7L265.7,203.6z
		 M293.3,197.7v5.9h-2v-12.7h11.8v1.9h-9.8v3.2h6.3v1.8H293.3L293.3,197.7z M312.4,202.1c1.7,0,3.1-0.5,4.2-1.4
		c1.1-0.9,1.6-2.1,1.6-3.5c0-1.4-0.5-2.6-1.6-3.5c-1.1-0.9-2.5-1.4-4.2-1.4c-1.7,0-3.1,0.5-4.1,1.4c-1.1,0.9-1.6,2.1-1.6,3.5
		c0,1.4,0.5,2.6,1.6,3.5C309.3,201.7,310.7,202.1,312.4,202.1L312.4,202.1z M312.4,204c-2.3,0-4.1-0.6-5.6-1.9
		c-1.5-1.3-2.2-2.9-2.2-4.8c0-1.9,0.7-3.6,2.2-4.8c1.5-1.3,3.3-1.9,5.6-1.9c2.3,0,4.2,0.6,5.6,1.9c1.5,1.3,2.2,2.9,2.2,4.8
		c0,1.9-0.7,3.6-2.2,4.8C316.5,203.4,314.7,204,312.4,204L312.4,204z M325.4,196.2h6.8c0.7,0,1.2-0.1,1.6-0.4
		c0.4-0.3,0.5-0.7,0.5-1.3c0-0.6-0.2-1-0.5-1.3c-0.4-0.3-0.9-0.4-1.6-0.4h-6.8V196.2L325.4,196.2z M325.4,198v5.6h-2v-12.7h8.8
		c1.3,0,2.3,0.3,3.1,0.9c0.7,0.6,1.1,1.5,1.1,2.6c0,0.9-0.3,1.7-0.9,2.3c-0.6,0.7-1.3,1.1-2.3,1.2l3.5,5.6h-2.2L331,198H325.4
		L325.4,198z M352.5,193.6h7.9c0.9,0,1.5-0.2,2-0.6c0.5-0.4,0.7-1,0.7-1.7c0-0.8-0.2-1.4-0.7-1.7c-0.4-0.4-1.1-0.6-2-0.6h-7.9V193.6
		L352.5,193.6z M352.5,201.7h8.6c0.9,0,1.7-0.3,2.2-0.8c0.5-0.6,0.8-1.3,0.8-2.3c0-0.9-0.3-1.7-0.8-2.2c-0.5-0.6-1.3-0.8-2.2-0.8
		h-8.6V201.7L352.5,201.7z M350.4,203.6v-16.5h9.7c1.6,0,2.8,0.3,3.7,1c0.8,0.7,1.2,1.7,1.2,3.1c0,0.7-0.1,1.2-0.4,1.8
		c-0.3,0.5-0.6,0.9-1.1,1.3c0.9,0.5,1.5,1.1,2,1.9c0.4,0.7,0.7,1.6,0.7,2.5c0,1.5-0.5,2.7-1.5,3.6c-1,0.9-2.4,1.3-4.1,1.3H350.4
		L350.4,203.6z M370.1,190.9h2v8.1c0,1.2,0.3,2,0.9,2.5c0.6,0.4,1.7,0.6,3.4,0.6c1.7,0,2.9-0.2,3.4-0.6c0.6-0.4,0.9-1.3,0.9-2.5
		v-8.1h2v8.7c0,1.6-0.5,2.7-1.5,3.4c-1,0.7-2.6,1-4.8,1c-2.2,0-3.8-0.3-4.8-1c-1-0.7-1.5-1.8-1.5-3.4V190.9L370.1,190.9z M385.9,202
		l1-1.7c0.9,0.6,1.8,1,2.9,1.4c1,0.3,2,0.5,3,0.5c1.1,0,2.1-0.2,2.7-0.7c0.7-0.5,1-1.1,1-1.8c0-0.7-0.3-1.3-1-1.6
		c-0.6-0.4-1.6-0.5-3-0.6c-2.3,0-3.9-0.3-4.8-0.8c-0.9-0.5-1.3-1.3-1.3-2.5c0-1.1,0.5-2,1.4-2.6c1-0.7,2.2-1,3.8-1
		c1.1,0,2.2,0.2,3.2,0.5c1,0.3,2,0.8,3,1.4l-1,1.6c-0.8-0.5-1.6-0.9-2.6-1.2c-0.9-0.3-1.8-0.4-2.6-0.4c-1,0-1.7,0.2-2.3,0.5
		c-0.6,0.3-0.9,0.8-0.9,1.3c0,0.6,0.3,1,0.9,1.2c0.6,0.2,1.6,0.4,3.1,0.4c2,0,3.6,0.3,4.6,1c1,0.7,1.6,1.7,1.6,3.1
		c0,1.2-0.5,2.2-1.6,3c-1,0.8-2.4,1.2-4.1,1.2c-1.2,0-2.5-0.2-3.7-0.5C388.1,203.1,386.9,202.6,385.9,202L385.9,202z M402.2,203.6
		v-12.8h2v12.8H402.2L402.2,203.6z M408.6,203.6v-12.7h1l8.1,8.9v-8.9h2v12.7h-1l-8.1-8.9v8.9H408.6L408.6,203.6z M424.1,203.6
		v-12.7H436v1.9h-10v3.2h6.5v1.8H426v4h10.5v1.8H424.1L424.1,203.6z M438.3,202l1-1.7c0.9,0.6,1.8,1,2.9,1.4c1,0.3,2,0.5,3,0.5
		c1.1,0,2.1-0.2,2.7-0.7c0.7-0.5,1-1.1,1-1.8c0-0.7-0.3-1.3-1-1.6c-0.6-0.4-1.6-0.5-3-0.6c-2.3,0-3.9-0.3-4.8-0.8
		c-0.9-0.5-1.3-1.3-1.3-2.5c0-1.1,0.5-2,1.4-2.6c1-0.7,2.2-1,3.8-1c1.1,0,2.2,0.2,3.2,0.5c1,0.3,2,0.8,3,1.4l-1,1.6
		c-0.8-0.5-1.6-0.9-2.6-1.2c-0.9-0.3-1.8-0.4-2.6-0.4c-1,0-1.7,0.2-2.3,0.5c-0.6,0.3-0.9,0.8-0.9,1.3c0,0.6,0.3,1,0.9,1.2
		c0.6,0.2,1.6,0.4,3.1,0.4c2,0,3.6,0.3,4.6,1c1,0.7,1.6,1.7,1.6,3.1c0,1.2-0.5,2.2-1.6,3c-1,0.8-2.4,1.2-4.1,1.2
		c-1.2,0-2.5-0.2-3.7-0.5C440.4,203.1,439.3,202.6,438.3,202L438.3,202z M452.9,202l1-1.7c0.9,0.6,1.8,1,2.9,1.4c1,0.3,2,0.5,3,0.5
		c1.1,0,2.1-0.2,2.7-0.7c0.7-0.5,1-1.1,1-1.8c0-0.7-0.3-1.3-1-1.6c-0.6-0.4-1.6-0.5-3-0.6c-2.3,0-3.9-0.3-4.8-0.8
		c-0.9-0.5-1.3-1.3-1.3-2.5c0-1.1,0.5-2,1.4-2.6c1-0.7,2.2-1,3.8-1c1.1,0,2.2,0.2,3.2,0.5c1,0.3,2,0.8,3,1.4l-1,1.6
		c-0.8-0.5-1.6-0.9-2.6-1.2c-0.9-0.3-1.8-0.4-2.6-0.4c-1,0-1.7,0.2-2.3,0.5c-0.6,0.3-0.9,0.8-0.9,1.3c0,0.6,0.3,1,0.9,1.2
		c0.6,0.2,1.6,0.4,3.1,0.4c2,0,3.6,0.3,4.6,1c1,0.7,1.6,1.7,1.6,3.1c0,1.2-0.5,2.2-1.6,3c-1,0.8-2.4,1.2-4.1,1.2
		c-1.2,0-2.5-0.2-3.7-0.5C455,203.1,453.9,202.6,452.9,202z"/>
	<path class="st0" d="M458.8,62.6c0-1.9,1.3-3.6,3.1-4l4-18c-0.9-0.8-1.4-1.9-1.4-3.1c0-2.3,1.9-4.2,4.2-4.2c0.6,0,1.2,0.1,1.7,0.4
		l22.3-18.8c0.3-0.2,0.7-0.3,1-0.1l16.5,8.1l14.1-4.4c0.5-0.2,1,0.1,1.2,0.6c0.2,0.5-0.1,1-0.6,1.2l-13.5,4.2l-1.7,35.1
		c0.7,0.2,1.4,0.6,1.9,1.2l23.9-17.1c0.4-0.3,1-0.2,1.3,0.2c0.3,0.4,0.2,1-0.2,1.3l-24.1,17.2c0.1,0.3,0.1,0.7,0.1,1.1
		c0,1.4-0.7,2.6-1.7,3.4l13.1,28.7c1.3,0.3,5,1.1,8.8,2c2.7,0.6,4.9,1.2,6.4,1.7c3,0.9,3.5,1.4,3.7,2.1c0.2,1.3-2,13.8-3,19.1
		c-0.1,0.3-0.2,0.6-0.5,0.7L502.8,139c0,0.1,0,0.2,0,0.3c0,2.2-1.7,4-3.9,4.1l-4.9,33.1l45.2-38.8c0.4-0.3,1-0.3,1.3,0.1
		c0.3,0.4,0.3,1-0.1,1.3l-46.9,40.2l-0.1,0.7c-0.1,0.5-0.5,0.8-0.9,0.8c0,0-0.1,0-0.1,0c-0.1,0-0.3-0.1-0.4-0.2
		c-0.2,0.1-0.3,0.2-0.5,0.2c-0.1,0-0.2,0-0.2,0l-17.7-4.6c-0.6,1.5-2.1,2.6-3.9,2.6c-2.3,0-4.2-1.9-4.2-4.2c0-2.3,1.9-4.2,4.2-4.2
		c0.5,0,1,0.1,1.5,0.3l24.2-29c-0.6-0.7-0.9-1.6-0.9-2.6c0-1.8,1.1-3.3,2.7-3.9l-0.7-10.1c-2.2-0.1-3.9-1.9-3.9-4.1
		c0-0.7,0.2-1.4,0.5-2L470.3,98c-0.4,0.1-0.8,0.2-1.3,0.2c-2.3,0-4.2-1.9-4.2-4.2c0-1.4,0.7-2.6,1.7-3.4l-4.9-24.1
		C460,66.1,458.8,64.5,458.8,62.6L458.8,62.6z M463.9,58.6L463.9,58.6c1.8,0.4,3.2,2.1,3.2,4c0,0.9-0.3,1.6-0.7,2.3l11.7,8.8
		c0.3-0.3,0.7-0.6,1.1-0.8l-10.9-31.3c-0.2,0-0.4-0.1-0.5-0.1L463.9,58.6L463.9,58.6z M472,97L472,97l22.3,20.7
		c0.1-0.1,0.3-0.2,0.4-0.2l-12.9-36.8c-0.2,0-0.5,0.1-0.8,0.1c-0.5,0-0.9-0.1-1.3-0.2l-7.6,10.9c0.6,0.7,1,1.7,1,2.7
		C473.2,95.2,472.8,96.3,472,97L472,97z M499.6,135.2L499.6,135.2l13.9-28.1l-12.9,12.5c0.2,0.4,0.2,0.9,0.2,1.4
		c0,1.7-1,3.2-2.5,3.8l0.7,10.2C499.3,135.2,499.5,135.2,499.6,135.2L499.6,135.2z M496.7,117L496.7,117c1.1,0,2.1,0.4,2.8,1.1
		l16.5-16l1.8-3.6c0.2-0.5,0.8-0.7,1.3-0.4c0.3,0.1,0.4,0.4,0.5,0.6l2.4-2.3l-0.1-0.3c-0.2,0.1-0.4,0.2-0.6,0.2
		c-0.1,0-0.3,0-0.4-0.1l-36.8-16.7c-0.2,0.2-0.3,0.3-0.5,0.5l13,37.1C496.6,117,496.7,117,496.7,117L496.7,117z M504.3,62.6
		L504.3,62.6l-33.1-21.9c-0.3,0.3-0.7,0.5-1.1,0.6l10.9,31c0,0,0.1,0,0.1,0c1.5,0,2.8,0.8,3.5,1.9l19.8-9.3
		c-0.2-0.4-0.2-0.9-0.2-1.4C504.2,63.3,504.2,63,504.3,62.6L504.3,62.6z M493.4,16.8L493.4,16.8l-21.5,18.1c0,0,0,0,0,0l35.6-11.1
		L493.4,16.8L493.4,16.8z M472.7,36.6L472.7,36.6c0.1,0.3,0.1,0.6,0.1,0.9c0,0.6-0.1,1.2-0.4,1.7L505.2,61c0.6-0.7,1.5-1.2,2.5-1.4
		l1.6-34.4L472.7,36.6L472.7,36.6z M508.4,67.8L508.4,67.8c-1.1,0-2.1-0.4-2.9-1.2l-20.2,9.5c0,0.1,0,0.3,0,0.4
		c0,0.4-0.1,0.8-0.2,1.2l36,16.4L509,67.8C508.8,67.8,508.6,67.8,508.4,67.8L508.4,67.8z M538,119.8L538,119.8
		c1.1-6.2,2.7-15.7,2.9-17.7c-1.6-0.9-9.8-2.9-17.3-4.5l-5.8,5.6l-16.3,32.9c0.4,0.3,0.7,0.7,0.9,1.1L538,119.8L538,119.8z
		 M491.8,178.4L491.8,178.4l5.2-35.3c0,0-0.1,0-0.1,0l-24.2,28.9c0.6,0.7,1,1.5,1.1,2.5l17.4,4.5L491.8,178.4L491.8,178.4z
		 M469.1,89.9L469.1,89.9c0.6,0,1.1,0.1,1.6,0.3l7.5-10.8c-0.7-0.8-1.2-1.8-1.2-2.9c0-0.4,0.1-0.8,0.2-1.2L465,66.2
		c-0.4,0.2-0.8,0.4-1.3,0.5l4.7,23.3C468.6,89.9,468.9,89.9,469.1,89.9z"/>
	<path class="st0" d="M557,151.5c9.1-5.1,40.6,7.6,50.1-5.3c3.1-4.2-2.1-12.6-2.1-18.5c0-2.9,1.1-2.5,1.8-5.7
		c0.7-3.2-4.3-5.5-4.4-5.9c-0.1-0.4,4-2.4,4.5-3.6c1-2.7-2.5-3-2-7.3c0.7-5.8,10.7-1.6,10.5-9.1c-0.1-3.5-14.5-16.4-18-20.5
		c-3.5-4.1,1-8.1-6.1-30c-10.1-31-80.7-36.8-96.3-32.3c-8.7,2.5,9.5,5,30.8,25.5c23.6,22.7-4.2,41.6-12.7,51.3
		c-8.4,9.7,15.6,19.6,23.2,32.9c7.6,13.3-51.8,49.2-54.5,53c-3.5,4.9,37,17,53.9,11.4C555.9,181,516.4,174.3,557,151.5z"/>
	<path class="st0" d="M536.3,123.1c-7.6-13.3-31.7-23.2-23.2-32.9c8.4-9.7,36.3-28.6,12.7-51.3c-17.3-16.6-32.6-21.4-33.1-24
		c-0.1-0.6,42.4,21.1,44.1,39.3c1.7,18.6-22,32.7-22,40.1c0,7.4,24.7,21.5,24.8,30.3c0.1,9.9-15.7,23.7-28,29.6
		C526.3,142.8,540.2,130,536.3,123.1z"/>
	<path class="st0" d="M534,17.7c0,0,37.8,6.3,49.4,22c8.8,12,7.6,24.8,3.7,24.9c-3.9,0.1-20.5-4.3-42.6-18
		C523.7,33.7,519.1,16.7,534,17.7z"/>
	<path class="st0" d="M597,77c0,0,17.7,16.5,16,18.2c-1.8,1.8-7,1.9-11.6-3.9C596.8,85.6,592.6,73.7,597,77z"/>
	<path class="st0" d="M538.2,64.2c0.4,0.1,0.7,0.3,1,0.6L554.4,49c-0.9-1.1-1.2-2.6-0.7-4c0,0,0-0.1,0-0.1l-25.8-20.3
		c-0.3,0.3-0.6,0.6-1,0.9l2.2,8.3c-0.8-0.6-1.6-1.1-2.4-1.7l-1.6-6c-0.6,0.1-1.2,0-1.8-0.2c-0.3-0.1-0.5-0.2-0.8-0.4l-2.2,3
		c-0.6-0.3-1.1-0.6-1.7-0.9l2.5-3.4c0,0,0,0,0,0l-4.3,2.5c-0.7-0.3-1.3-0.7-2-1l5.6-3.4c-0.1-0.6,0-1.2,0.2-1.7
		c0.7-2.2,3.1-3.3,5.3-2.6c1.2,0.4,2.1,1.3,2.5,2.4l18.3,2c1-1.6,3-2.3,4.8-1.7c1.8,0.6,2.9,2.3,2.8,4.1l21.2,12.4
		c1.1-0.7,2.4-1,3.8-0.5c2.2,0.7,3.3,3.1,2.6,5.3c-0.1,0.4-0.3,0.8-0.6,1.1l11.1,25.1c-0.5,0.4-1,0.8-1.6,1.2l-11.1-25
		c-1,0.5-2.1,0.6-3.2,0.2c-1-0.3-1.7-1-2.2-1.8l-12.8,3.6c0,0.4-0.1,0.9-0.2,1.3c-0.1,0.2-0.2,0.5-0.3,0.7l28.3,22.2
		c-0.5,0.4-1,0.8-1.5,1.2l-28-22.1c-0.2,0.1-0.4,0.2-0.6,0.3l3.9,40.2c0,0.1,0,0.3,0,0.4c-0.1,0.2-0.2,0.4-0.4,0.5l0.3,0.2L566,90
		c-0.2-0.1-0.4-0.4-0.4-0.7c-0.1-0.5,0.3-1,0.8-1.1l3.3-0.4c-0.8,0.5-1.7,1-2.3,1.5c-0.8,1-2.2,1.1-3.1,2.2
		c-0.1,0.4-0.7,0.5-1.2,0.5c0,0.4-0.4,0.3-0.5,0.7c-0.2,0.2-0.6,0.2-0.8,0.2L539,71.4c-1,0.7-2.2,1-3.4,0.7c0.1-0.3,0.2-0.6,0.3-1
		C536.7,68.8,537.5,66.5,538.2,64.2L538.2,64.2z M551.4,28.7L551.4,28.7c-0.8,0.2-1.6,0.2-2.4-0.1c-1.9-0.6-3-2.5-2.8-4.4l-17.4-1.9
		c0,0.2,0,0.4-0.1,0.5l26,20.5c0.3-0.3,0.7-0.6,1.1-0.8L551.4,28.7L551.4,28.7z M561.3,44.6L561.3,44.6L574,41c0-0.5,0-1.1,0.2-1.6
		c0.1-0.2,0.2-0.4,0.2-0.6l-20.5-12c-0.2,0.4-0.5,0.7-0.8,1l4.7,14.5c0.4,0,0.8,0.1,1.1,0.2C560,42.8,560.9,43.6,561.3,44.6
		L561.3,44.6z M561.3,89.9L561.3,89.9l-3.8-39.3c-0.4,0-0.8-0.1-1.2-0.2c-0.1,0-0.2-0.1-0.4-0.1l-15.5,16.1c0.4,0.9,0.5,2,0.2,3.1
		c-0.1,0.2-0.2,0.4-0.3,0.6L561.3,89.9z"/>
</g>
</svg>
