<?xml version="1.0" encoding="utf-8"?>
<!-- Generator: Adobe Illustrator 26.2.1, SVG Export Plug-In . SVG Version: 6.00 Build 0)  -->
<svg version="1.1" id="katman_1" xmlns="http://www.w3.org/2000/svg" xmlns:xlink="http://www.w3.org/1999/xlink" x="0px" y="0px"
	 viewBox="0 0 616 216" style="enable-background:new 0 0 616 216;" xml:space="preserve">
<style type="text/css">
	.st0{fill:#373737;}
</style>
<g>
	<path class="st0" d="M495,91.8h9.1l4.4,16.9c0.5,2.1,0.9,4.3,1.3,6.9c0.3-2.6,0.7-4.8,1.3-6.9l4.4-16.9h9.1l-10.1,32.3h-9.4
		L495,91.8L495,91.8z"/>
	<path class="st0" d="M532.2,91.8h8.6l11,32.3h-8.9l-1.4-4.8h-9.9l-1.4,4.8h-9L532.2,91.8L532.2,91.8z M539.7,112.7l-1.6-5.5
		c-0.6-2.1-1.1-4.4-1.5-6.9c-0.4,2.6-0.9,4.8-1.5,6.9l-1.7,5.5H539.7L539.7,112.7z"/>
	<polygon class="st0" points="554,91.8 562.6,91.8 562.6,104.5 564.7,104.5 570.4,91.8 580.3,91.8 572.2,108 580.6,124.1 
		570.7,124.1 564.8,111.5 562.6,111.5 562.6,124.1 554,124.1 	"/>
	<polygon class="st0" points="603.6,99.4 591.4,99.4 591.4,105.3 602.6,105.3 602.6,112.9 591.4,112.9 591.4,124.1 582.8,124.1 
		582.8,91.8 603.6,91.8 	"/>
	<rect x="607.3" y="91.8" class="st0" width="8.6" height="32.3"/>
	<polygon class="st0" points="145.5,99.2 137.6,99.2 137.6,91.8 161.9,91.8 161.9,99.2 154,99.2 154,123.5 145.5,123.5 	"/>
	<path class="st0" d="M164.7,113.4v-10.6h8.6v9.9c0,2.9,1.5,4,4.3,4s4.4-1.2,4.4-4v-9.9h8.5v10.6c0,7.4-5,10.8-12.9,10.8
		C169.6,124.1,164.7,120.8,164.7,113.4"/>
	<path class="st0" d="M195.1,91.8H208c6.7,0,12.2,3.5,12.2,10.7c0,4.5-2,7.7-5.3,9.3l6.5,11.7h-9.3l-5.5-10.3h-2.9v10.3h-8.6
		C195.1,123.5,195.1,91.8,195.1,91.8z M207.6,106.2c2.4,0,4-1.3,4-3.6s-1.6-3.6-4-3.6h-3.9v7.1H207.6z"/>
	<polygon class="st0" points="224.2,91.8 232.7,91.8 232.7,104.2 234.9,104.2 240.5,91.8 250.5,91.8 242.3,107.6 250.8,123.5 
		240.9,123.5 234.9,111.1 232.7,111.1 232.7,123.5 224.2,123.5 	"/>
	<polygon class="st0" points="274.3,111.5 263.9,91.8 273.2,91.8 278.5,103.7 283.7,91.8 293.1,91.8 282.8,111.5 282.8,123.5 
		274.3,123.5 	"/>
	<polygon class="st0" points="295.5,91.8 315.9,91.8 315.9,98.8 304,98.8 304,104.2 314.8,104.2 314.8,111 304,111 304,116.4 
		316.2,116.4 316.2,123.5 295.5,123.5 	"/>
	<rect x="252.9" y="102.8" class="st0" width="8.6" height="20.7"/>
	<rect x="252.9" y="91.8" class="st0" width="8.6" height="7.8"/>
	<rect x="164.7" y="91.8" class="st0" width="8.6" height="7.8"/>
	<rect x="181.9" y="91.8" class="st0" width="8.6" height="7.8"/>
	<path class="st0" d="M327.3,91.8h7.4l8.2,14.1l8.2-14.1h7.4v31.6H350v-9.4c0-3,0.3-6,0.8-8.9l-6.5,11.4h-2.9l-6.5-11.4
		c0.5,3,0.8,5.9,0.8,8.9v9.4h-8.4C327.3,123.5,327.3,91.8,327.3,91.8z"/>
	<path class="st0" d="M371.6,91.8h8.6l11,31.6h-8.9l-1.4-4.7H371l-1.4,4.7h-9C360.6,123.5,371.6,91.8,371.6,91.8z M379.1,112.3
		l-1.6-5.4c-0.6-2.1-1.1-4.3-1.6-6.8c-0.4,2.5-0.9,4.7-1.5,6.8l-1.7,5.4H379.1L379.1,112.3z"/>
	<path class="st0" d="M401.8,91.8h8.6l11,31.6h-8.9l-1.4-4.7h-9.9l-1.4,4.7h-9C390.8,123.5,401.8,91.8,401.8,91.8z M409.3,112.3
		l-1.6-5.4c-0.6-2.1-1.1-4.3-1.5-6.8c-0.4,2.5-0.9,4.7-1.5,6.8l-1.7,5.4H409.3L409.3,112.3z"/>
	<path class="st0" d="M423.7,91.8h12.9c6.7,0,12.3,3.5,12.3,10.7c0,4.5-2,7.7-5.4,9.3l6.5,11.7h-9.3l-5.5-10.3h-2.9v10.3h-8.6
		L423.7,91.8L423.7,91.8z M436.2,106.2c2.4,0,4-1.3,4-3.6s-1.6-3.6-4-3.6h-4v7.1H436.2z"/>
	<polygon class="st0" points="486.9,99.2 474.7,99.2 474.7,105 486,105 486,112.4 474.7,112.4 474.7,123.5 466.2,123.5 466.2,91.8 
		486.9,91.8 	"/>
	<rect x="452.8" y="102.8" class="st0" width="8.6" height="20.7"/>
	<rect x="452.8" y="91.8" class="st0" width="8.6" height="7.8"/>
	<path class="st0" d="M61,152.7l-16,16l-20.2-20.2L45,128.3l6.2,6.2l-14,14l7.9,7.9l11.6-11.6v-20.9l-11.4-11.4h-21L12.5,124
		l7.9,7.9l14-14l6.2,6.2l-20.2,20.2L0.2,124l16-16l-16-16l20.2-20.2L40.6,92l-6.2,6.2l-14-14L12.5,92l11.6,11.6h21l11.4-11.4V71.3
		L45,59.6l-7.9,7.9l14,14L45,87.7L24.7,67.5L45,47.3l16,16l16-16l20.2,20.2L77,87.7l-6.2-6.2l14-14L77,59.6L65.4,71.3v20.9
		l11.4,11.5h20.9L109.3,92l-7.9-7.9l-14,14L81.2,92l20.2-20.2L121.7,92l-16,16l16,16l-20.2,20.2L81.2,124l6.2-6.2l14,14l7.9-7.9
		l-11.6-11.6H76.8l-11.4,11.5v20.9L77,156.4l7.9-7.9l-14-14l6.2-6.2l20.2,20.2L77,168.7L61,152.7L61,152.7z M61,115.8l7.8-7.8
		l-7.8-7.8l-7.8,7.8C53.2,108,61,115.8,61,115.8z"/>
</g>
</svg>
