<?xml version="1.0" encoding="utf-8"?>
<!-- Generator: Adobe Illustrator 26.2.1, SVG Export Plug-In . SVG Version: 6.00 Build 0)  -->
<svg version="1.1" id="katman_1" xmlns="http://www.w3.org/2000/svg" xmlns:xlink="http://www.w3.org/1999/xlink" x="0px" y="0px"
	 viewBox="0 0 616 216" style="enable-background:new 0 0 616 216;" xml:space="preserve">
<style type="text/css">
	.st0{fill:#373737;}
</style>
<g>
	<path class="st0" d="M77.7,131c0.3,2.6,0.9,6.7,4.4,7.8c1.8,0.5,3.7,0.7,5.5,0.7c0.3,0,0.6,0.2,0.7,0.5c0,0,0,0,0,0
		c-0.4,0.6-1.1,0.9-1.7,0.7c-1.9,0-11.5,0-14.5-0.3c-2,0-2.4-0.4-2.4-0.8c0-0.3,0.3-0.6,0.6-0.6c0.6-0.8,0.7-1.8,0.4-2.6l-4.1-38.1
		h-0.2l-20.6,38.3c-1.7,3.3-2.2,4-3,4c-0.8,0-1.3-0.7-2.9-3.5c-2.2-3.7-7.9-13.3-10-17.4c-2.5-4.7-9.4-17.4-10.9-20.5h-0.4
		l-3.3,33.9c0,1.2,0,2.6,0,3.7c0,1.1,0.9,2,2,2.1c1.1,0.3,2.2,0.4,3.3,0.4c0.3,0,0.6,0.2,0.7,0.5c0,0.5-0.6,0.7-1.6,0.7
		c-3.2,0-7.4-0.3-7.9-0.3c-0.5,0-4.9,0.3-7.2,0.3c-0.9,0-1.4,0-1.4-0.7c0.1-0.4,0.5-0.6,0.9-0.5c0.8,0,1.7-0.1,2.5-0.3
		c2.8-0.4,2.9-3.2,3.3-6l6.2-49c-0.1-0.6,0.4-1.2,1-1.3c0.8,0,1.4,0.5,1.7,1.2l26,46.6L69.5,84c0.2-0.6,0.7-1.1,1.4-1.2
		c0.6,0,1.1,0.6,1.3,2L77.7,131z"/>
	<path class="st0" d="M132.8,85.5c1.1-2.5,1.4-2.9,2-2.9c1.1,0.5,1.8,1.6,2,2.7c1.6,3.2,15.2,34.2,20.5,45.6
		c3.1,6.7,5.4,7.7,7.4,8.2c1.1,0.3,2.2,0.4,3.4,0.4c0.5-0.1,0.9,0.2,1.1,0.6c-0.5,0.6-1.2,0.8-1.9,0.6c-1.3,0-7.4,0-13.5,0
		c-1,0.2-2.1,0-3-0.5c0-0.3,0.2-0.3,0.6-0.5c0.7-0.2,1.1-1,0.9-1.7c0-0.1-0.1-0.2-0.2-0.3l-7.7-17.2c-0.1-0.3-0.4-0.5-0.8-0.4h-19.7
		c-0.4,0-0.8,0.2-0.9,0.6l-4.9,12c-0.7,1.6-1.2,3.3-1.3,5c0.2,1.3,1.4,2.3,2.7,2.1c0.1,0,0.2,0,0.2,0h0.8c0.7,0,0.9,0.3,0.9,0.6
		c0,0.4-0.5,0.6-1.3,0.6c-2,0-6.7-0.3-7.6-0.3s-5.1,0.3-8.6,0.3c-1.1,0-1.7,0-1.7-0.6c0.1-0.4,0.4-0.7,0.8-0.6c0.6,0,1.9,0,2.5,0
		c3.7-0.4,5.5-3.1,7.2-6.9L132.8,85.5z M142.3,116.7c0.4,0,0.4,0,0.3-0.5l-8.4-20.6c-0.5-1.2-1-1.2-1.4,0l-7.9,20.6
		c0,0.3,0,0.5,0.3,0.5H142.3L142.3,116.7z"/>
	<path class="st0" d="M195.6,133.7c-6.8-5.3-10.7-13.6-10.4-22.3c0.2-7.9,3.7-15.3,9.6-20.5c5.2-4.5,12.9-8,26-8
		c4.2,0,8.3,0.3,12.4,0.9c2.9,0.6,5.8,1,8.7,1.2c0.9,0,1.1,0.4,1.1,0.8s-0.2,1.5-0.4,4.2c-0.2,2.7,0,6.6-0.2,7.7
		c-0.2,1.1-0.5,1.6-1,1.6c-0.5,0-0.7-0.5-0.7-1.6c0-2.9-1.4-5.7-3.7-7.4c-5.1-3-10.9-4.5-16.8-4.2c-11.1,0-16.2,2.7-19.2,5.2
		c-6.3,5.3-7.7,12-7.7,19.6c0,14.4,12.5,27.2,30.8,27.2c6.4,0,10.7-0.4,14.1-3.7c1.6-1.8,2.8-3.9,3.3-6.3c0.2-0.8,0.3-1.1,0.9-1.1
		c0.5,0.1,0.8,0.6,0.8,1.1c-0.5,3.2-1.1,6.5-2,9.6c-0.2,1.1-1,2-2.2,2.2c-5,1.3-10.2,1.8-15.4,1.7c-12.8,0-21.4-2.7-28.1-8.1"/>
	<path class="st0" d="M278.1,105.6c0-11.7,0-13.8-0.2-16.2c0.4-1.9-0.9-3.7-2.8-4.1c-0.2,0-0.5-0.1-0.7-0.1c-0.7,0-2.2,0-2.9,0
		c-0.3-0.1-0.6-0.3-0.7-0.6c0-0.4,0.4-0.6,1.4-0.6c3.7,0,9.4,0,9.9,0c0.5,0,18.6,0,20.4,0c1.8,0,3.2-0.4,3.7-0.4
		c0.4-0.2,0.8-0.3,1.2-0.4c0.3,0,0.4,0.4,0.4,0.7c-0.3,1.2-0.5,2.5-0.7,3.7c0,0.7-0.3,4.1-0.5,4.9c-0.1,0.4-0.4,0.7-0.8,0.8
		c-0.5,0-0.7-0.4-0.7-1c0-0.9-0.2-1.8-0.5-2.6c-0.6-1.3-1.4-1.8-6.1-2.3c-1.4,0-11.4-0.3-12.3-0.3c-0.4,0-0.5,0.3-0.5,0.8v20.4
		c0,0.5,0,0.8,0.5,0.8c1.1,0,12.3,0,14.2,0c1.5,0.1,2.9-0.3,4.2-1.1c0.3-0.4,0.8-0.8,1.3-1c0.3,0,0.5,0.2,0.5,0.5c0,0,0,0.1,0,0.1
		c-0.3,1.4-0.5,2.8-0.7,4.2c-0.2,1.5-0.4,4.3-0.4,4.9c0.1,0.6-0.2,1.2-0.8,1.4c-0.3,0-0.6-0.3-0.6-0.6c0,0,0-0.1,0-0.1
		c0.1-0.8-0.1-1.7-0.4-2.5c-0.3-1.1-1.1-1.9-4.4-2.3c-2.3-0.3-11.5-0.4-12.9-0.4c-0.3-0.1-0.5,0.1-0.6,0.4c0,0.1,0,0.1,0,0.2v6.3
		c0,2.6,0,11.1,0,12.8c0.2,5,1.7,6,10.2,6c2.9,0.1,5.7-0.1,8.5-0.8c2.2-0.8,3.6-2.9,3.7-5.2c0.2-0.9,0.4-1.2,0.9-1.2
		s0.6,0.6,0.6,1.2c-0.2,2.4-0.6,4.8-1.2,7.2c-0.6,1.9-1.4,1.9-4.7,1.9c-6.4,0-11.4,0-14.8-0.3c-3.5-0.3-5.8,0-7.1,0
		c-0.2,0-1.9,0-3.7,0c-1.9,0-3.7,0-4.9,0c-1.2,0-1.4,0-1.4-0.6c0-0.3,0.3-0.6,0.6-0.6c0,0,0,0,0,0c0.9-0.1,1.8-0.2,2.6-0.4
		c1.7-0.3,1.9-1.8,2.2-4c0.5-5.4,0.6-10.8,0.5-16.3v-13.2L278.1,105.6z"/>
	<path class="st0" d="M353.9,118.9c0,11.1,0.2,15.5,1.7,16.9c1.6,1.3,4.6,1.8,11.4,1.8c4.5,0,8.2,0,10.3-2.3c1.1-1.2,1.8-2.7,2-4.2
		c0-0.5,0.4-0.9,0.9-1c0.4,0,0.6,0.3,0.6,1.2c-0.2,2.5-0.6,5-1.3,7.4c-0.6,1.8-0.9,2-5.4,2c-6.1,0-10.9,0-14.8-0.3
		c-4-0.3-6.8,0-9.3,0c-0.4,0-1.9,0-3.5,0c-1.6,0-3.7,0-4.9,0c-1.2,0-1.4,0-1.4-0.6c0-0.3,0.3-0.6,0.6-0.6c0,0,0,0,0,0
		c0.9,0,1.8-0.2,2.6-0.4c1.7-0.4,1.9-1.8,2.2-4c0.5-5.4,0.6-10.8,0.5-16.3v-13.2c0-11.7,0-13.8-0.2-16.2c0.4-1.9-0.9-3.7-2.8-4.1
		c-0.2,0-0.5-0.1-0.7-0.1c-0.7,0-2.1,0-2.9,0c-0.3-0.1-0.6-0.3-0.7-0.6c0-0.4,0.4-0.6,1.4-0.6c3.7,0,9.2,0,9.7,0c0.5,0,6.8,0,9.4,0
		c0.9,0,1.4,0,1.4,0.6c-0.1,0.3-0.4,0.5-0.7,0.5h-2.8c-2,0.3-3.5,2.1-3.2,4.2c0,0,0,0,0,0.1c0,2.4,0,4.5,0,16.2v13.4L353.9,118.9z"
		/>
	<path class="st0" d="M420.4,118.9c0,11.1,0.2,15.5,1.7,16.9c1.6,1.3,4.6,1.8,11.4,1.8c4.5,0,8.2,0,10.3-2.3c1-1.2,1.8-2.7,2-4.2
		c0-0.5,0.4-0.9,0.9-1c0.4,0,0.6,0.3,0.6,1.2c-0.2,2.5-0.6,5-1.3,7.4c-0.6,1.8-0.9,2-5.4,2c-6.1,0-10.9,0-14.8-0.3
		c-4-0.3-6.8,0-9.3,0c-0.4,0-1.9,0-3.5,0s-3.7,0-4.9,0c-1.2,0-1.4,0-1.4-0.6c0-0.3,0.3-0.6,0.6-0.6c0,0,0,0,0,0
		c0.9,0,1.8-0.2,2.6-0.4c1.7-0.4,1.9-1.8,2.2-4c0.5-5.4,0.6-10.8,0.5-16.3v-13.2c0-11.7,0-13.8-0.2-16.2c0.4-1.9-0.9-3.7-2.8-4.1
		c-0.2,0-0.5-0.1-0.7-0.1c-0.7,0-2.1,0-2.9,0c-0.3,0-0.6-0.3-0.7-0.6c0-0.4,0.4-0.6,1.3-0.6c3.7,0,9.2,0,9.7,0c0.5,0,6.8,0,9.4,0
		c0.9,0,1.4,0,1.4,0.6c-0.1,0.3-0.4,0.5-0.7,0.5h-2.8c-2,0.3-3.5,2.1-3.2,4.2c0,0,0,0,0,0.1c0,2.4,0,4.5,0,16.2v13.4L420.4,118.9z"
		/>
	<path class="st0" d="M492.9,85.5c1.1-2.5,1.4-2.9,2-2.9c1.1,0.5,1.8,1.6,2,2.7c1.6,3.2,15.2,34.2,20.4,45.6
		c3.1,6.7,5.5,7.7,7.4,8.2c1.1,0.3,2.3,0.4,3.4,0.4c0.5-0.1,0.9,0.2,1.1,0.6c-0.5,0.6-1.2,0.8-1.9,0.6c-1.3,0-7.4,0-13.5,0
		c-1,0.2-2.1,0-3-0.5c0-0.3,0.2-0.3,0.6-0.5c0.7-0.2,1.1-1,0.9-1.7c0-0.1-0.1-0.2-0.2-0.3l-7.6-17.2c-0.1-0.3-0.4-0.5-0.8-0.4h-19.7
		c-0.4,0-0.7,0.3-0.9,0.6l-4.9,12c-0.7,1.6-1.2,3.3-1.3,5c0.2,1.3,1.4,2.3,2.7,2.1c0.1,0,0.2,0,0.2,0h0.8c0.7,0,0.9,0.3,0.9,0.6
		c0,0.4-0.5,0.6-1.3,0.6c-2,0-6.7-0.3-7.6-0.3c-1,0-5.1,0.3-8.6,0.3c-1.1,0-1.6,0-1.6-0.6c0.1-0.4,0.4-0.7,0.8-0.6
		c0.6,0,1.9,0,2.5,0c3.7-0.4,5.5-3.1,7.2-6.9L492.9,85.5z M502.4,116.7c0.4,0,0.4,0,0.3-0.5l-8.4-20.6c-0.5-1.2-1-1.2-1.4,0
		l-7.9,20.6c0,0.3,0,0.5,0.3,0.5H502.4L502.4,116.7z"/>
	<path class="st0" d="M558.6,130.4c0.2,6.2,1,8.1,3.3,8.6c1.4,0.3,2.8,0.4,4.3,0.4c0.3,0,0.6,0.2,0.7,0.6c0,0,0,0,0,0
		c0,0.4-0.6,0.6-1.6,0.6c-4.8,0-8.2-0.3-9-0.3s-4.3,0.3-8.2,0.3c-0.9,0-1.4,0-1.4-0.6c0-0.3,0.3-0.6,0.6-0.6c0,0,0,0,0,0
		c1.2,0,2.3-0.2,3.5-0.4c2.1-0.5,2.4-2.6,2.4-9.4v-43c0-3,0.5-3.7,1.2-3.7c1.3,0.5,2.4,1.3,3.3,2.3c1.4,1.2,13.8,13.2,27,25.6
		c8.4,7.9,17.6,16.9,20.2,19.3L604,92.5c0-4.9-0.6-6.5-3.2-7c-1.4-0.2-2.8-0.3-4.2-0.3c-0.3,0-0.6-0.2-0.7-0.6c0,0,0-0.1,0-0.1
		c0-0.4,0.7-0.5,1.6-0.5c3.7,0,7.9,0,8.9,0s3.7,0,7.4,0c0.9,0,1.6,0,1.6,0.5c-0.1,0.4-0.5,0.7-1,0.7c-0.7-0.1-1.4-0.1-2,0
		c-2.8,0.5-3,2-3,6.5l-0.2,44c0,4.9,0,5.4-0.7,5.4c-0.7,0-1.7-0.6-6.5-4.6c-0.9-0.7-13.2-11.8-22.3-20.3
		c-9.9-9.5-19.5-18.6-22.3-21.3L558.6,130.4z"/>
</g>
</svg>
