<?xml version="1.0" encoding="utf-8"?>
<!-- Generator: Adobe Illustrator 26.2.1, SVG Export Plug-In . SVG Version: 6.00 Build 0)  -->
<svg version="1.1" id="katman_1" xmlns="http://www.w3.org/2000/svg" xmlns:xlink="http://www.w3.org/1999/xlink" x="0px" y="0px"
	 viewBox="0 0 616 216" style="enable-background:new 0 0 616 216;" xml:space="preserve">
<style type="text/css">
	.st0{fill-rule:evenodd;clip-rule:evenodd;fill:#373737;}
	.st1{fill:#373737;}
</style>
<g>
	<path class="st0" d="M158.1,110.7l9.2-0.7l-3.4-20l-10.2,2l-9.6-16.5l8-7.4L139,55l10.4-11.4l-26.1-15.1L116.8,43l-22.1-5.6
		L94.5,39l-1.4,7.3l-21.7-0.9l-0.2-1.5l-1.4-5.8l-21.3,5.6l-9.8-14.5L14.6,44.4l12.2,12L16.6,67.7l5.8,7.3l-8.8,16.2l-9.4-2.4
		l-3.6,20.3l8.8,0.5l2.4,19.6l-8.8,3.5l7.8,14.7l8-2.4L31,159.6l-6.2,6.9l22.5,14.4l14.5-34.7l11,40.6l22.6,0.9l10.2-41.4l14.1,35.4
		l22.5-14.7l-5.6-6.5l12.2-14.9l8.2,3.3l8.2-15.8l-9.8-2.7L158.1,110.7z M115.8,48.2l17.9,9.4l-1.6,4.2l-18.3-10.4L115.8,48.2z
		 M49.1,49l4,2.5L35.4,62.6l-3-2.4L49.1,49z M129.6,134.7l-6.4-17.1l7.7-0.2L130.4,98l-35.2-0.7l-12.6,32.3L72.4,97.3H36l-1.2,19.6
		l7.7,0.6L37,134.2c-1.7-3.6-3.1-6.8-4.1-10.1c-2-6.2-2.6-11-2.2-16.1c1.7-20.6,19.7-37.8,41.8-42.3
		C115.5,56.9,150.4,99.3,129.6,134.7z"/>
	<g>
		<path class="st1" d="M259,133.8v-17.3h13.7V48.9H259V31.6h52.7L335,91.5l23.3-59.9h54.1v17.3h-13.7v67.6h13.7v17.3h-53.2v-17.3
			H372V48.9h-2.5l-32.7,84.9h-11.4l-33.1-84.9h-2.5v67.6h13.8v17.3H259L259,133.8z M419.8,133.8v-17.3H434V48.9h-14.1V31.6h54.9
			v17.3h-13.2v67.6h12.3v17.3H419.8L419.8,133.8z M482,133.8v-17.3h12.2l-31.9-36.4l34.4-31.2H484V31.6h51.6v17.3h-12.9l-29.8,28.2
			l34.6,39.5h11v17.3H482L482,133.8z M545.6,133.8V99.1h17.9c0.2,6.4,1.9,11,5.2,14c3.2,3,6.9,4.5,11.1,4.5c3.2,0,6-1.1,8.2-3.3
			c2.2-2.2,3.3-4.7,3.3-7.7c0-3.1-1.1-5.8-3.3-7.9c-2.2-2.1-6.2-4.5-11.9-7.3c-12.3-5.7-20.5-10.7-24.9-15.1
			c-4.4-4.4-6.5-10.3-6.5-17.7c0-8.9,2.9-15.9,8.6-20.8c5.8-4.9,12.3-7.4,19.6-7.4c8.4,0,14.9,3.2,19.5,9.5v-8.5h17.9v31h-17.9
			c-0.5-4.8-2.3-8.5-5.1-11.1c-2.8-2.6-6.2-3.9-9.9-3.9c-2.9,0-5.4,0.8-7.4,2.3c-2,1.5-3,3.5-3,5.9c0,2.1,0.8,4.1,2.5,6
			c1.7,1.9,6.6,4.6,14.7,8c7.8,3.4,13.8,6.4,18,9.1c4.2,2.7,7.5,6.2,9.9,10.6c2.4,4.3,3.6,9.4,3.6,15.1c0,10.1-3,17.7-9.1,22.8
			c-6.1,5.1-13.2,7.7-21.6,7.7c-9.2,0-16.4-3.3-21.4-10v8.8H545.6L545.6,133.8z"/>
		<path class="st1" d="M254.6,185.7v-3.7h2.1v-14.3h-2.1v-3.7h8l3.6,12.6l3.5-12.6h8.2v3.7h-2.1v14.3h2.1v3.7h-8.1v-3.7h1.9v-14.3
			h-0.4l-5,17.9h-1.7l-5-17.9h-0.4v14.3h2.1v3.7H254.6L254.6,185.7z M295.2,182.1v3.7h-7.9v-3.7h2.1l-0.8-3.7h-4.2l-0.9,3.7h2.2v3.7
			h-7.1v-3.7h2l3.1-14.3h-2.1v-3.7h10.5v3.7h-2.2l3.4,14.3H295.2L295.2,182.1z M287.9,175.2l-1.3-6.5l-1.4,6.5H287.9L287.9,175.2z
			 M296.3,185.7v-7.3h2.7c0,1.3,0.3,2.3,0.8,3c0.5,0.6,1.1,0.9,1.7,0.9c0.5,0,0.9-0.2,1.3-0.7c0.3-0.5,0.5-1,0.5-1.6
			c0-0.7-0.2-1.2-0.5-1.7c-0.3-0.5-0.9-1-1.8-1.5c-1.9-1.2-3.1-2.3-3.8-3.2c-0.7-0.9-1-2.2-1-3.7c0-1.9,0.4-3.3,1.3-4.4
			c0.9-1,1.9-1.6,3-1.6c1.3,0,2.3,0.7,3,2v-1.8h2.7v6.5h-2.7c-0.1-1-0.3-1.8-0.8-2.3c-0.4-0.6-0.9-0.8-1.5-0.8
			c-0.4,0-0.8,0.2-1.1,0.5c-0.3,0.3-0.5,0.7-0.5,1.3c0,0.4,0.1,0.9,0.4,1.3c0.3,0.4,1,1,2.2,1.7c1.2,0.7,2.1,1.4,2.7,1.9
			c0.6,0.6,1.1,1.3,1.5,2.2c0.4,0.9,0.6,2,0.6,3.2c0,2.1-0.5,3.7-1.4,4.8c-0.9,1.1-2,1.6-3.3,1.6c-1.4,0-2.5-0.7-3.3-2.1v1.9H296.3
			L296.3,185.7z M322.2,164.2h2.7v7.6h-2.7c-0.8-2.7-2.1-4.1-4-4.1c-1.6,0-2.8,0.7-3.6,2.2c-0.8,1.4-1.2,3.2-1.2,5.2
			c0,2.1,0.4,3.8,1.3,5.1c0.9,1.3,1.9,1.9,3.3,1.9c1.1,0,2-0.5,2.8-1.5c0.8-1,1.4-2.3,1.6-4.1l3.2,2c-1.2,5-3.9,7.5-7.9,7.5
			c-2.9,0-5.1-1-6.5-3.1c-1.5-2.1-2.2-4.7-2.2-7.9c0-2.3,0.4-4.3,1.1-6c0.8-1.7,1.8-3,3.1-3.8c1.3-0.9,2.7-1.3,4.3-1.3
			c1.9,0,3.5,0.7,4.8,2V164.2L322.2,164.2z M327,185.7v-3.7h2v-14.3h-2v-3.7h7.8v3.7H333v4.7h4.4v-4.7h-1.6v-3.7h7.7v3.7h-2v14.3h2
			v3.7h-7.7v-3.7h1.6v-5.9H333v5.9h1.7v3.7H327L327,185.7z M344.7,185.7v-3.7h2.4v-14.3h-2.4v-3.7h9.1v3.7h-2.5v14.3h2.5v3.7H344.7
			L344.7,185.7z M355,185.7v-3.7h2.2v-14.3H355v-3.7h6.8l5.9,13.4v-9.8h-2.1v-3.7h7.2v3.7h-2.2v18.1h-3.6l-6.9-16v12.2h2v3.7H355
			L355,185.7z M373.9,185.7v-3.7h1.9v-14.3h-1.9v-3.7H388v6.9H385v-3.2h-5v5h4v3.7h-4v5.7h5v-3.2h3.1v6.9H373.9L373.9,185.7z
			 M389.5,185.7v-3.7h2.2v-14.3h-2.2v-3.7h6.8l5.9,13.4v-9.8h-2.1v-3.7h7.2v3.7H405v18.1h-3.6l-6.9-16v12.2h2v3.7H389.5L389.5,185.7
			z M414.3,185.7v-3.7h2v-14.3h-2v-3.7h7.8v3.7h-1.7v4.7h4.4v-4.7h-1.6v-3.7h7.7v3.7h-2v14.3h2v3.7h-7.7v-3.7h1.6v-5.9h-4.4v5.9h1.7
			v3.7H414.3L414.3,185.7z M448.1,182.1v3.7h-7.9v-3.7h2.1l-0.8-3.7h-4.2l-0.9,3.7h2.2v3.7h-7.1v-3.7h2l3.1-14.3h-2.1v-3.7H445v3.7
			h-2.2l3.4,14.3H448.1L448.1,182.1z M440.8,175.2l-1.3-6.5l-1.4,6.5H440.8L440.8,175.2z M448.7,185.7v-3.7h2.2v-14.3h-2.2v-3.7h6.8
			l5.9,13.4v-9.8h-2.1v-3.7h7.2v3.7h-2.2v18.1h-3.6l-6.9-16v12.2h2v3.7H448.7L448.7,185.7z M467.4,185.7v-3.7h2.4v-14.3h-2.4v-3.7
			h7.6c1.6,0,2.9,0.1,3.9,0.4c1,0.3,1.9,0.8,2.8,1.8c0.9,0.9,1.6,2.1,2.2,3.6c0.5,1.5,0.8,3.2,0.8,5.1c0,1.5-0.2,2.9-0.6,4.3
			c-0.4,1.4-0.8,2.5-1.4,3.3c-0.6,0.8-1.2,1.5-2,2c-0.8,0.5-1.5,0.8-2.1,1c-0.7,0.1-1.7,0.2-3,0.2H467.4L467.4,185.7z M474,182.1h1
			c1.2,0,2.2-0.2,2.9-0.6c0.7-0.4,1.3-1.2,1.7-2.2c0.4-1.1,0.7-2.5,0.7-4.2c0-1.6-0.2-3-0.7-4.2c-0.4-1.1-1-1.9-1.8-2.4
			c-0.7-0.4-1.7-0.7-2.9-0.7h-1V182.1L474,182.1z M486.6,185.7v-3.7h1.9v-14.3h-1.9v-3.7h14.2v6.9h-3.1v-3.2h-5v5h4v3.7h-4v5.7h5
			v-3.2h3.1v6.9H486.6L486.6,185.7z M502.3,185.7v-3.7h2.3v-14.3h-2.3v-3.7h8.8v3.7h-2.3v14.3h4.8v-6.7h3.1v10.3H502.3L502.3,185.7z
			 M518,185.7v-7.3h2.7c0,1.3,0.3,2.3,0.8,3c0.5,0.6,1.1,0.9,1.7,0.9c0.5,0,0.9-0.2,1.3-0.7c0.3-0.5,0.5-1,0.5-1.6
			c0-0.7-0.2-1.2-0.5-1.7c-0.3-0.5-0.9-1-1.8-1.5c-1.9-1.2-3.1-2.3-3.8-3.2c-0.7-0.9-1-2.2-1-3.7c0-1.9,0.4-3.3,1.3-4.4
			c0.9-1,1.9-1.6,3-1.6c1.3,0,2.3,0.7,3,2v-1.8h2.7v6.5h-2.7c-0.1-1-0.3-1.8-0.8-2.3c-0.4-0.6-0.9-0.8-1.5-0.8
			c-0.4,0-0.8,0.2-1.1,0.5c-0.3,0.3-0.5,0.7-0.5,1.3c0,0.4,0.1,0.9,0.4,1.3c0.3,0.4,1,1,2.2,1.7c1.2,0.7,2.1,1.4,2.7,1.9
			c0.6,0.6,1.1,1.3,1.5,2.2c0.4,0.9,0.6,2,0.6,3.2c0,2.1-0.5,3.7-1.4,4.8c-0.9,1.1-2,1.6-3.3,1.6c-1.4,0-2.5-0.7-3.3-2.1v1.9H518
			L518,185.7z M546.8,178.5v-3.7h7.5c0,2.6-0.4,4.7-1.1,6.2c-0.7,1.5-1.7,2.7-3.1,3.6c-1.3,0.9-2.9,1.3-4.5,1.3
			c-2.9,0-5.1-1-6.7-3.1c-1.6-2.1-2.3-4.7-2.3-8c0-2.2,0.4-4.2,1.2-5.9c0.8-1.7,1.8-3,3.1-3.9c1.3-0.9,2.7-1.3,4.3-1.3
			c2.2,0,3.8,0.7,5,2.1v-1.8h2.7v7.7h-2.7c-0.3-1.3-0.9-2.3-1.7-3c-0.9-0.7-1.8-1.1-2.7-1.1c-1.3,0-2.4,0.6-3.3,1.8
			c-0.9,1.2-1.4,2.9-1.4,5c0,2.5,0.5,4.3,1.4,5.6c0.9,1.3,2,1.9,3.4,1.9c1,0,1.8-0.3,2.4-0.9c0.6-0.6,1.1-1.5,1.3-2.6H546.8
			L546.8,178.5z M556,185.7v-3.7h2.1v-14.3H556v-3.7h8l3.6,12.6l3.5-12.6h8.2v3.7h-2.1v14.3h2.1v3.7h-8.1v-3.7h1.9v-14.3h-0.4
			l-5,17.9h-1.7l-5-17.9h-0.4v14.3h2.1v3.7H556L556,185.7z M580.8,185.7v-3.7h2v-14.3h-2v-3.7h7.3c1.6,0,2.8,0.1,3.6,0.4
			c0.8,0.3,1.5,0.9,2.1,1.8c0.6,1,0.9,2.1,0.9,3.4c0,2.1-0.8,3.6-2.3,4.5c1.9,1,2.9,2.7,2.9,5.2c0,1.4-0.3,2.7-0.9,3.7
			c-0.6,1-1.4,1.7-2.3,2.1c-0.9,0.4-2.3,0.6-4,0.6H580.8L580.8,185.7z M587,172.7h1.2c0.8,0,1.4-0.2,1.8-0.6c0.4-0.4,0.6-1,0.6-2
			c0-0.9-0.2-1.5-0.6-1.8c-0.4-0.3-1-0.5-2-0.5h-1V172.7L587,172.7z M587,182.1h1.2c1.1,0,1.8-0.2,2.2-0.6c0.4-0.4,0.6-1.1,0.6-2.2
			c0-1.1-0.2-1.9-0.7-2.3c-0.5-0.4-1.2-0.7-2.2-0.7H587V182.1L587,182.1z M597.3,185.7v-3.7h2v-14.3h-2v-3.7h7.8v3.7h-1.7v4.7h4.4
			v-4.7h-1.6v-3.7h7.7v3.7h-2v14.3h2v3.7h-7.7v-3.7h1.6v-5.9h-4.4v5.9h1.7v3.7H597.3L597.3,185.7z"/>
	</g>
	<polygon class="st0" points="204.3,57.2 204.3,160 202.7,160 202.7,57.2 204.3,57.2 	"/>
</g>
</svg>
