<?xml version="1.0" encoding="utf-8"?>
<!-- Generator: Adobe Illustrator 26.2.1, SVG Export Plug-In . SVG Version: 6.00 Build 0)  -->
<svg version="1.1" id="katman_1" xmlns="http://www.w3.org/2000/svg" xmlns:xlink="http://www.w3.org/1999/xlink" x="0px" y="0px"
	 viewBox="0 0 616 216" style="enable-background:new 0 0 616 216;" xml:space="preserve">
<style type="text/css">
	.st0{fill:#373737;}
</style>
<g>
	<polygon class="st0" points="7.8,153.9 3,164.6 1.7,164.6 7.2,152.6 8.5,152.6 14,164.6 12.6,164.6 	"/>
	<path class="st0" d="M101.2,164.3c-0.6-0.3-1.1-0.7-1.4-1.3l0.8-0.9c0.7,1,1.5,1.5,2.6,1.5c1.5,0,2.2-0.9,2.2-2.7v-7.3h-4.4v-1.1
		h5.7v8.4c0,1.3-0.3,2.2-0.9,2.9c-0.6,0.6-1.5,1-2.6,1C102.4,164.7,101.7,164.6,101.2,164.3"/>
	<polygon class="st0" points="199.9,153.9 195.1,164.6 193.8,164.6 199.3,152.6 200.6,152.6 206.1,164.6 204.7,164.6 	"/>
	<polygon class="st0" points="303.7,152.6 303.7,164.6 302.7,164.6 294.9,154.8 294.9,164.6 293.6,164.6 293.6,152.6 294.7,152.6 
		302.5,162.4 302.5,152.6 	"/>
	<path class="st0" d="M393.9,164.3c-0.8-0.3-1.5-0.7-1.9-1.1l0.5-1c0.4,0.4,1,0.8,1.7,1.1c0.7,0.3,1.5,0.4,2.2,0.4
		c1.1,0,1.9-0.2,2.4-0.6c0.5-0.4,0.8-0.9,0.8-1.5c0-0.5-0.1-0.9-0.4-1.2c-0.3-0.3-0.7-0.5-1.1-0.7c-0.4-0.2-1-0.3-1.8-0.5
		c-0.9-0.2-1.6-0.4-2.2-0.7c-0.5-0.2-1-0.5-1.4-1s-0.6-1-0.6-1.8c0-0.6,0.2-1.2,0.5-1.7c0.3-0.5,0.8-0.9,1.5-1.2
		c0.7-0.3,1.5-0.4,2.5-0.4c0.7,0,1.4,0.1,2,0.3c0.7,0.2,1.2,0.4,1.7,0.8l-0.4,1c-0.5-0.3-1-0.6-1.6-0.7c-0.6-0.2-1.1-0.3-1.7-0.3
		c-1.1,0-1.9,0.2-2.4,0.6c-0.5,0.4-0.8,0.9-0.8,1.6c0,0.5,0.1,0.9,0.4,1.2c0.3,0.3,0.7,0.5,1.1,0.7c0.4,0.2,1,0.3,1.8,0.5
		c0.9,0.2,1.6,0.4,2.1,0.7s1,0.5,1.4,1s0.6,1,0.6,1.8c0,0.6-0.2,1.2-0.5,1.7c-0.3,0.5-0.8,0.9-1.5,1.2c-0.7,0.3-1.5,0.4-2.5,0.4
		C395.6,164.7,394.7,164.6,393.9,164.3"/>
	<path class="st0" d="M99.2,82.1c4.7,4.6,7,11.5,7,20.8v36.2H91.4v-34.4c0-5.5-1.2-9.7-3.7-12.5c-2.4-2.8-6-4.2-10.5-4.2
		c-5,0-9,1.6-12,4.9c-3,3.3-4.5,8-4.5,14v32.1H45.9v-34.4c0-5.5-1.2-9.7-3.7-12.5c-2.4-2.8-6-4.2-10.5-4.2c-5.1,0-9.1,1.6-12,4.9
		c-3,3.2-4.4,7.9-4.4,14.1v32.1H0.4V75.9h14.1v8.1c2.4-2.8,5.3-5,8.9-6.5s7.5-2.3,11.8-2.3c4.7,0,8.9,0.9,12.6,2.7
		c3.7,1.8,6.6,4.4,8.7,7.9c2.6-3.3,6-5.9,10.1-7.8c4.1-1.9,8.6-2.8,13.6-2.8C88.2,75.2,94.5,77.5,99.2,82.1"/>
	<path class="st0" d="M333.6,82.2c4.8,4.7,7.2,11.6,7.2,20.7v36.2h-14.8v-34.4c0-5.5-1.3-9.7-3.9-12.5c-2.6-2.8-6.3-4.2-11.1-4.2
		c-5.4,0-9.7,1.6-12.9,4.9c-3.2,3.3-4.7,8-4.7,14.2v32h-14.8V75.9h14.1v8.2c2.4-2.9,5.5-5.1,9.2-6.6c3.7-1.5,7.9-2.3,12.6-2.3
		C322.4,75.2,328.8,77.5,333.6,82.2"/>
	<rect x="362.5" y="51.3" class="st0" width="5.9" height="87.9"/>
	<path class="st0" d="M393,60.9c-1-0.9-1.4-2-1.4-3.4s0.5-2.5,1.4-3.4c1-1,2.1-1.4,3.4-1.4s2.5,0.5,3.4,1.4c1,0.9,1.4,2,1.4,3.4
		c0,1.3-0.5,2.5-1.4,3.4c-1,1-2.1,1.4-3.4,1.4S393.9,61.8,393,60.9 M393.5,77.3h5.9v61.8h-5.9C393.5,139.1,393.5,77.3,393.5,77.3z"
		/>
	<path class="st0" d="M480,77.3v55.2c0,10.3-2.5,17.8-7.5,22.7c-5,4.9-12.5,7.3-22.5,7.3c-5.7,0-11.1-0.9-16.1-2.6
		c-5.1-1.7-9.1-4.1-12.2-7.2l3.2-4.5c3.1,2.8,6.8,5.1,11.1,6.6c4.3,1.6,9,2.4,13.9,2.4c8.2,0,14.3-2,18.2-5.9c4-3.9,5.9-10,5.9-18.2
		v-10.4c-2.5,4.5-6,8-10.5,10.4c-4.5,2.4-9.6,3.7-15.2,3.7s-11-1.3-15.7-3.9c-4.7-2.6-8.4-6.1-11.1-10.7c-2.7-4.6-4-9.7-4-15.5
		c0-5.8,1.3-10.9,4-15.5c2.7-4.6,6.4-8.1,11.1-10.7c4.7-2.5,9.9-3.8,15.7-3.8s10.8,1.3,15.4,3.8c4.6,2.5,8.1,6.1,10.5,10.7v-14
		L480,77.3L480,77.3z M461.9,128.4c3.9-2.1,6.9-5,9.1-8.8c2.2-3.7,3.3-8,3.3-12.8c0-4.8-1.1-9.1-3.3-12.8c-2.2-3.7-5.2-6.6-9.1-8.7
		c-3.9-2.1-8.2-3.1-13-3.1s-9.1,1-13,3.1c-3.8,2.1-6.8,5-9,8.7c-2.2,3.7-3.3,8-3.3,12.8c0,4.8,1.1,9.1,3.3,12.8
		c2.2,3.7,5.2,6.7,9,8.8c3.8,2.1,8.2,3.1,13,3.1S458.1,130.5,461.9,128.4"/>
	<path class="st0" d="M553.7,83.6c4.5,4.5,6.7,11,6.7,19.4v36.1h-5.9v-35.7c0-7-1.8-12.2-5.3-15.9s-8.4-5.4-14.7-5.4
		c-7.3,0-13,2.2-17.2,6.5c-4.2,4.3-6.3,10.2-6.3,17.5v32.9h-5.9V51.3h5.9v39c2.1-4.3,5.3-7.6,9.5-9.9c4.2-2.3,9.1-3.5,14.8-3.5
		C543.1,76.8,549.2,79.1,553.7,83.6"/>
	<path class="st0" d="M615.6,135.2c-1.5,1.4-3.4,2.5-5.6,3.3c-2.3,0.7-4.6,1.1-7,1.1c-5.4,0-9.5-1.5-12.4-4.4
		c-2.9-3-4.4-7.1-4.4-12.4V82.4h-11.4v-5.1h11.4V63.8h5.9v13.5h19.7v5.1H592v39.8c0,4,1,7.1,2.9,9.2c1.9,2.1,4.8,3.1,8.6,3.1
		c3.8,0,7.1-1.1,9.6-3.4L615.6,135.2L615.6,135.2z"/>
	<path class="st0" d="M187.9,127.5c0-6.2-1.4-11.8-4.3-16.7c-2.9-4.9-6.9-8.7-12-11.5c-5.1-2.8-10.9-4.1-17.4-4.1
		c-6.5,0-12.2,1.4-17.3,4.1c-5.1,2.8-9.1,6.6-12,11.5c-2.9,4.9-4.3,10.5-4.3,16.7c0,4.2,0.7,8,2,11.6H186
		C187.2,135.6,187.9,131.7,187.9,127.5"/>
	<path class="st0" d="M263.6,88.3c-0.7-3.5-1.8-6.8-3.6-9.8c-2.9-4.9-6.9-8.7-12-11.5c-5.1-2.8-10.9-4.1-17.4-4.1
		c-6.5,0-12.2,1.4-17.3,4.1c-3.2,1.7-5.9,3.9-8.2,6.5l37.1,1.8l-39.9,1.9c-0.3,0.5-0.6,0.9-0.9,1.3c-2.9,4.9-4.3,10.5-4.3,16.7
		c0,5,1,9.5,2.8,13.6l38.5,1.8l-36.6,1.8c0.5,0.9,1.1,1.8,1.7,2.6l21.4,1l-19.7,0.9c2.3,2.6,5.1,4.8,8.3,6.5
		c5.1,2.8,10.9,4.1,17.3,4.1s12.3-1.4,17.4-4.1c5.1-2.8,9.1-6.6,12-11.5c2.4-4.1,3.7-8.6,4.1-13.5l-22.4-1.1l22.6-1.1
		c0-0.4,0.1-0.7,0.1-1.1c0-1.2-0.1-2.3-0.2-3.4L227.7,90L263.6,88.3L263.6,88.3z"/>
</g>
</svg>
