<?xml version="1.0" encoding="utf-8"?>
<!-- Generator: Adobe Illustrator 26.2.1, SVG Export Plug-In . SVG Version: 6.00 Build 0)  -->
<svg version="1.1" id="katman_1" xmlns="http://www.w3.org/2000/svg" xmlns:xlink="http://www.w3.org/1999/xlink" x="0px" y="0px"
	 viewBox="0 0 616 216" style="enable-background:new 0 0 616 216;" xml:space="preserve">
<style type="text/css">
	.st0{fill:#373737;}
	.st1{fill-rule:evenodd;clip-rule:evenodd;fill:#373737;}
</style>
<g>
	<polygon class="st0" points="153,129.4 143,129.4 105,99.4 105,129.4 94.5,129.4 94.5,86.6 104.3,86.6 142.6,116.5 142.6,86.6 
		153,86.6 	"/>
	<path class="st0" d="M193.5,92.3h-10.7v-5.3h10.7L193.5,92.3z M193.5,129.4h-10.7v-36h10.7L193.5,129.4z"/>
	<polygon class="st0" points="270.7,94.3 247.9,94.3 247.9,129.4 235.8,129.4 235.8,94.3 213,94.3 213,86.6 270.7,86.6 	"/>
	<path class="st0" d="M346.6,129.4h-14.5l-18.2-16h-10.7v16H292V86.9h42.3c7.4,0,11.1,2.5,11.1,7.4v11.5c0,3.5-2.4,6.6-5.8,7.4
		h-11.8L346.6,129.4z M334.3,102.7v-5.1c0.2-1.6-0.8-3-2.4-3.3c-0.3,0-0.5,0-0.8,0h-27.8v11.8H331
		C333.2,106.1,334.3,105,334.3,102.7"/>
	<path class="st0" d="M430.3,129.4H418l-7.2-9.3h-35.7l-6.8,9.3h-12.6l31-42.5h12.3L430.3,129.4z M405.1,112.3l-12.3-17.2
		l-12.3,17.2H405.1z"/>
	<path class="st1" d="M52,122.3c-0.6-0.8-0.5-1.9,0.2-2.6c0,0,0.1-0.1,0.1-0.1l13.1-11.3v-1.8L52,94.2c-0.8-0.9-0.9-2.1-0.3-3.1
		l8.3-7l24.2,20.9c1.5,1.2,1.7,3.3,0.5,4.8c-0.2,0.2-0.3,0.4-0.5,0.5l-24.6,20.4L52,122.3z"/>
	<path class="st1" d="M2.5,110.1c-1.5-1.6-1.5-4.2,0-5.8l38.3-32.7c1.5-0.8,3.3-0.7,4.7,0.2l7.1,6.1c1.4,1.6,1.3,3-0.4,4.1l-9.3,8
		c-1.3,1.7-1.3,4,0,5.6l12.6,10.2c0.9,1.2,0.8,2.3,0,3.1L44,118.2c-2,1.1-2.6,3.7-1.5,5.6c0.4,0.6,0.9,1.1,1.5,1.5l8.7,7.5
		c1.3,1.3,1.3,2.5,0,3.5l-7.1,6.2c-1.6,1.2-3.7,1.2-5.3,0.1L2.5,110.1z"/>
	<path class="st1" d="M1.4,111.6c-1.5-1.6-1.5-4.2,0-5.8l38.3-32.7c1.5-0.8,3.3-0.7,4.7,0.2l7.2,6.2c1,0.9,1.2,2.4,0.3,3.5
		c-0.2,0.3-0.5,0.5-0.8,0.6l-9.3,8c-1.3,1.7-1.3,4,0,5.6l12.6,10.2c0.9,1.2,0.8,2.2,0,3L43,119.7c-2,1.1-2.6,3.7-1.5,5.6
		c0.4,0.6,0.9,1.1,1.5,1.5l8.7,7.5c1.3,1.3,1.3,2.5,0,3.5l-7.1,6.3c-1.6,1.2-3.7,1.2-5.3,0.1L1.4,111.6z"/>
	<path class="st1" d="M51.5,123.6c-0.6-0.8-0.5-2,0.4-2.7c0,0,0.1-0.1,0.1-0.1l13.1-11.3v-1.8L51.5,95.5c-0.8-0.9-0.9-2.1-0.4-3.1
		l8.3-7l24.2,20.9c1.5,1.2,1.7,3.3,0.5,4.8c-0.2,0.2-0.3,0.4-0.5,0.5L59.3,132L51.5,123.6z"/>
	<polygon class="st0" points="441.9,129.4 441.9,86.7 450.5,86.7 450.5,123.5 489.4,123.5 489.4,129.4 	"/>
	<polygon class="st0" points="492,129.4 492,86.7 541.5,86.7 541.5,92.4 500.6,92.4 500.6,104.3 525.6,104.3 525.6,110 500.6,110 
		500.6,123.5 541.9,123.5 541.9,129.4 	"/>
	<path class="st0" d="M575.7,86.7c3.9-0.1,7.9,0.2,11.8,0.8c1.5,0.2,2.9,0.5,4.3,1c1.3,0.4,2.5,0.9,3.7,1.6c3.2,1.7,5.9,4.2,7.8,7.4
		c0.9,1.5,1.6,3.2,2.1,4.9c0.5,1.8,0.7,3.6,0.7,5.4c0,3.8-0.9,7.5-2.9,10.8c-1.9,3.2-4.6,5.8-7.9,7.5c-2.5,1.2-5.1,2.1-7.9,2.5
		c-1.6,0.3-3.3,0.5-5.2,0.6s-4.1,0.2-6.6,0.2h-28.3V86.7H575.7z M574.4,92.5h-18.5v30.9h18.5c8.3,0,14.2-1.2,17.6-3.7
		c3.4-2.5,5.2-6.4,5.2-12c0.4-4.5-1.6-9-5.3-11.7C588.4,93.7,582.6,92.5,574.4,92.5"/>
	<path class="st0" d="M610.8,85.9c0.9,0,1.7,0.2,2.5,0.6c0.8,0.4,1.4,1,1.8,1.8c0.4,0.7,0.7,1.6,0.7,2.5c0,0.9-0.2,1.7-0.6,2.5
		c-0.4,0.8-1,1.4-1.8,1.8c-0.8,0.4-1.6,0.6-2.5,0.6c-0.9,0-1.7-0.2-2.5-0.6c-0.8-0.4-1.4-1-1.8-1.8c-0.4-0.8-0.6-1.6-0.6-2.5
		c0-0.9,0.2-1.7,0.6-2.5c0.4-0.8,1.1-1.4,1.8-1.8C609.1,86,610,85.8,610.8,85.9 M610.8,86.7c-0.7,0-1.4,0.2-2,0.5
		c-0.6,0.3-1.2,0.9-1.5,1.5c-0.4,0.6-0.6,1.3-0.6,2c0,0.7,0.2,1.4,0.5,2c0.3,0.6,0.9,1.2,1.5,1.5c0.6,0.4,1.3,0.5,2,0.5
		c0.7,0,1.4-0.2,2-0.5c0.6-0.3,1.2-0.9,1.5-1.5c0.4-0.6,0.5-1.3,0.5-2c0-0.7-0.2-1.4-0.5-2c-0.4-0.6-0.9-1.2-1.5-1.5
		C612.2,86.8,611.5,86.7,610.8,86.7 M608.7,93.4v-5.2h1.8c0.4,0,0.9,0,1.3,0.1c0.3,0.1,0.5,0.3,0.7,0.5c0.1,0.2,0.2,0.5,0.2,0.8
		c0,0.4-0.1,0.7-0.4,1c-0.3,0.3-0.7,0.5-1.1,0.5c0.2,0.1,0.3,0.2,0.4,0.3c0.3,0.3,0.5,0.7,0.8,1l0.6,1h-1l-0.4-0.8
		c-0.2-0.5-0.5-0.9-0.9-1.2c-0.2-0.1-0.4-0.2-0.7-0.2h-0.5v2.2H608.7z M609.6,90.5h1c0.3,0,0.7,0,1-0.2c0.2-0.1,0.3-0.3,0.3-0.6
		c0-0.1,0-0.3-0.1-0.4c-0.1-0.1-0.2-0.2-0.4-0.3c-0.3-0.1-0.6-0.1-0.8,0h-1L609.6,90.5z"/>
</g>
</svg>
