<?xml version="1.0" encoding="utf-8"?>
<!-- Generator: Adobe Illustrator 26.2.1, SVG Export Plug-In . SVG Version: 6.00 Build 0)  -->
<svg version="1.1" id="katman_1" xmlns="http://www.w3.org/2000/svg" xmlns:xlink="http://www.w3.org/1999/xlink" x="0px" y="0px"
	 viewBox="0 0 616 216" style="enable-background:new 0 0 616 216;" xml:space="preserve">
<style type="text/css">
	.st0{fill:#373737;}
</style>
<g>
	<g>
		<path class="st0" d="M201.1,94.8v-5h7.8v36.4h-7.8v-5c-3.3,3.4-7.2,5-11.7,5s-8.7-1.8-12-5.3c-3.3-3.6-4.9-7.9-4.9-12.9
			s1.6-9.3,4.9-12.9c3.3-3.6,7.3-5.3,12-5.3C194.1,89.8,197.9,91.5,201.1,94.8 M190.7,118.4c2.9,0,5.3-1,7.4-3c2-2,3-4.5,3-7.4
			s-1-5.3-3-7.4c-2-2-4.5-3-7.4-3c-2.9,0-5.3,1-7.4,3c-2,2-3,4.5-3,7.4s1,5.3,3,7.4S187.8,118.4,190.7,118.4"/>
		<rect x="214.8" y="71.5" class="st0" width="7.8" height="54.7"/>
		<path class="st0" d="M262.4,114.5c-0.9,2.3-2.3,4.4-4.2,6.4c-3.5,3.6-7.8,5.4-12.9,5.4s-9.4-1.8-12.9-5.4
			c-3.6-3.6-5.3-7.9-5.3-12.9s1.8-9.3,5.3-12.9c3.6-3.5,7.9-5.3,12.9-5.3s9.3,1.8,12.9,5.3c3.5,3.5,5.3,7.8,5.3,12.9
			c0,1.4-0.1,2.7-0.4,4h-27.5c0.5,1.3,1.3,2.4,2.3,3.4c2,2,4.5,3.1,7.3,3.1c2.9,0,5.3-1,7.4-3.1c0.3-0.3,0.5-0.6,0.8-0.8H262.4z
			 M255,104.1c-0.5-1.3-1.3-2.4-2.3-3.5c-2-2-4.5-3-7.4-3c-2.9,0-5.3,1-7.3,3c-1.1,1-1.9,2.2-2.3,3.5H255z"/>
		<polygon class="st0" points="278.4,97.6 278.4,118.4 288.8,118.4 288.8,126.2 270.6,126.2 270.6,97.6 265.4,97.6 265.4,89.8 
			270.6,89.8 270.6,82 278.4,71.5 278.4,89.8 288.8,89.8 288.8,97.6 		"/>
		<polygon class="st0" points="131.5,126.2 139.3,126.2 139.3,112 168,112 168,89.8 131.5,89.8 131.5,97.6 160.2,97.6 160.2,104.1 
			131.5,104.1 		"/>
		<g>
			<rect x="543.1" y="120.4" class="st0" width="5.8" height="5.8"/>
			<g>
				<path class="st0" d="M560,112.7c1.2,0,2.2,0.4,3.1,1.3c0.3,0.3,0.5,0.6,0.7,0.9l0.2,0.3h5l-0.2-0.7c-0.4-1.4-1.2-2.7-2.3-3.9
					c-1.8-1.8-3.9-2.7-6.4-2.7s-4.7,0.9-6.5,2.7c-1.8,1.8-2.7,3.9-2.7,6.4s0.9,4.7,2.7,6.5c1.8,1.8,3.9,2.7,6.5,2.7s4.7-0.9,6.4-2.7
					c1.1-1.1,1.9-2.4,2.3-3.8l0.2-0.7h-5l-0.2,0.3c-0.2,0.3-0.4,0.6-0.7,0.9c-0.9,0.9-1.9,1.3-3.1,1.3c-1.2,0-2.2-0.4-3.1-1.3
					c-0.9-0.9-1.3-1.9-1.3-3.1s0.4-2.2,1.3-3.1C557.7,113.2,558.8,112.7,560,112.7"/>
				<path class="st0" d="M578.7,108c-2.5,0-4.7,0.9-6.5,2.7c-1.8,1.8-2.7,3.9-2.7,6.4s0.9,4.7,2.7,6.5c1.8,1.8,3.9,2.7,6.5,2.7
					s4.7-0.9,6.4-2.7c1.8-1.8,2.7-4,2.7-6.5s-0.9-4.7-2.7-6.4C583.4,108.9,581.2,108,578.7,108 M575.6,114c0.9-0.9,1.9-1.3,3.1-1.3
					c1.2,0,2.2,0.4,3.1,1.3c0.9,0.9,1.3,1.9,1.3,3.1s-0.4,2.2-1.3,3.1c-0.9,0.9-1.9,1.3-3.1,1.3c-1.2,0-2.2-0.4-3.1-1.3
					c-0.9-0.9-1.3-1.9-1.3-3.1C574.3,115.9,574.7,114.9,575.6,114"/>
				<polygon class="st0" points="615.1,108 615.1,126.2 610.3,126.2 610.3,112.7 604.7,112.7 604.7,126.2 599.9,126.2 599.9,112.7 
					594.3,112.7 594.3,126.2 589.5,126.2 589.5,108 				"/>
			</g>
		</g>
		<g>
			<path class="st0" d="M367.6,89.8c-5,0-9.4,1.8-12.9,5.3s-5.3,7.9-5.3,12.9s1.8,9.4,5.3,12.9c3.5,3.6,7.9,5.4,12.9,5.4
				c5,0,9.3-1.8,12.9-5.4c1.9-1.9,3.3-4,4.2-6.3l0.3-0.9h-9.8l-0.2,0.2c-0.2,0.3-0.5,0.5-0.7,0.8c-1.9,1.9-4,2.8-6.7,2.8
				c-2.6,0-4.8-0.9-6.6-2.8c-0.7-0.7-1.3-1.4-1.7-2.2h26l0.1-0.5c0.3-1.2,0.4-2.6,0.4-4c0-5-1.8-9.3-5.3-12.9
				C376.9,91.5,372.6,89.8,367.6,89.8 M359.2,103.6c0.4-0.8,1-1.6,1.7-2.2c1.8-1.8,4-2.7,6.6-2.7c2.6,0,4.8,0.9,6.7,2.7
				c0.7,0.7,1.2,1.4,1.7,2.2L359.2,103.6L359.2,103.6z"/>
			<polygon class="st0" points="420.3,89.8 420.3,108.6 411.4,108.6 411.4,98.6 397.7,98.6 397.7,126.2 388.8,126.2 388.8,89.8 			
				"/>
			<polygon class="st0" points="433.5,126.2 433.5,112.8 446.2,126.2 458.7,126.2 441.3,108 458.7,89.8 446.2,89.8 433.5,102.8 
				433.5,71.5 424.6,71.5 424.6,126.2 			"/>
			<path class="st0" d="M473.5,89.8c-5,0-9.4,1.8-12.9,5.3s-5.3,7.9-5.3,12.9s1.8,9.4,5.3,12.9c3.5,3.6,7.9,5.4,12.9,5.4
				c5,0,9.3-1.8,12.9-5.4c1.9-1.9,3.3-4,4.2-6.3l0.3-0.9H481l-0.2,0.2c-0.2,0.3-0.5,0.5-0.7,0.8c-1.9,1.9-4,2.8-6.7,2.8
				s-4.8-0.9-6.6-2.8c-0.7-0.7-1.3-1.4-1.7-2.2h26l0.1-0.5c0.3-1.2,0.4-2.6,0.4-4c0-5-1.8-9.3-5.3-12.9
				C482.8,91.5,478.5,89.8,473.5,89.8 M465.1,103.6c0.4-0.8,1-1.6,1.7-2.2c1.8-1.8,4-2.7,6.6-2.7s4.8,0.9,6.7,2.7
				c0.7,0.7,1.2,1.4,1.7,2.2L465.1,103.6L465.1,103.6z"/>
			<polygon class="st0" points="492.4,126.2 526.2,126.2 526.2,109.8 517.3,109.8 517.3,117.4 508.8,117.4 526.8,89.8 494.7,89.8 
				494.7,106.1 503.6,106.1 503.6,98.6 510.4,98.6 			"/>
			<rect x="530.5" y="71.5" class="st0" width="8.8" height="8.8"/>
			<rect x="530.5" y="89.8" class="st0" width="8.8" height="36.5"/>
			<polygon class="st0" points="324.9,106.7 324.9,98.6 337.4,98.6 337.4,106.7 346.2,106.7 346.2,89.8 294.7,89.8 294.7,106.7 
				303.5,106.7 303.5,98.6 316,98.6 316,106.7 			"/>
			<polygon class="st0" points="324.9,126.2 324.9,118.1 337.4,118.1 337.4,126.2 346.2,126.2 346.2,109.3 294.7,109.3 294.7,126.2 
				303.5,126.2 303.5,118.1 316,118.1 316,126.2 			"/>
		</g>
	</g>
	<g>
		<polygon class="st0" points="48,120.5 95.1,93.5 95.1,108.5 85.3,114 85.3,109.7 75.9,115.2 75.9,119.5 64.6,125.9 64.6,121.2 
			55.2,126.6 55.2,131.3 48,135.4 40.8,131.3 40.8,126.6 31.3,121.2 31.3,125.9 20,119.4 20,115.1 10.7,109.7 10.7,114 0.9,108.5 
			0.9,93.5 		"/>
		<g>
			<polygon class="st0" points="0.9,89.2 8.5,93.6 47.6,71.2 49.9,72.5 10.8,94.9 28.3,105 35.9,100.6 26,94.9 65.1,72.5 47.6,62.4 
							"/>
			<polygon class="st0" points="95.1,89.7 87.5,85.4 48.4,107.8 46.1,106.4 85.2,84 67.7,74 60.1,78.3 70,84 30.9,106.4 48.4,116.5 
							"/>
		</g>
		<polygon class="st0" points="48,138.6 95.1,111.7 95.1,126.6 85.3,132.2 85.3,127.9 75.9,133.3 75.9,137.6 64.6,144.1 64.6,139.4 
			55.2,144.8 55.2,149.5 48,153.6 40.8,149.5 40.8,144.8 31.3,139.3 31.3,144 20,137.5 20,133.2 10.7,127.9 10.7,132.2 0.9,126.6 
			0.9,111.7 		"/>
	</g>
</g>
</svg>
