<?xml version="1.0" encoding="utf-8"?>
<!-- Generator: Adobe Illustrator 26.2.1, SVG Export Plug-In . SVG Version: 6.00 Build 0)  -->
<svg version="1.1" id="katman_1" xmlns="http://www.w3.org/2000/svg" xmlns:xlink="http://www.w3.org/1999/xlink" x="0px" y="0px"
	 viewBox="0 0 616 216" style="enable-background:new 0 0 616 216;" xml:space="preserve">
<style type="text/css">
	.st0{fill-rule:evenodd;clip-rule:evenodd;fill:#373737;}
	.st1{fill:#373737;}
</style>
<g id="Layer_1">
	<g id="_x3C_Group_x3E__00000044900226424513776240000013111166987967233714_">
		<g id="_x3C_Group_x3E__00000084494506213644697210000012797804096400545455_">
			<path id="_x3C_Compound_Path_x3E_" class="st0" d="M217.2,84c0,15.9-12.9,28.8-28.8,28.8c-7.3,0-13.3-2.6-17.6-6.9v22.6h-9.7
				l-2.1-1.7l2.1-69.7l7.7-1.7l2.1,1.7v5.7c4.4-4.6,10.3-7.5,17.6-7.5C204.3,55.2,217.2,68.2,217.2,84z M207.5,84
				c0-10.5-8.6-19.1-19.1-19.1c-10.5,0-17.5,8.9-17.5,19.4s7,18.7,17.5,18.7C199,103.1,207.5,94.5,207.5,84z"/>
			<g id="_x3C_Group_x3E_">
				<path id="_x3C_Compound_Path_x3E__00000008129068825957301100000004430433923433830821_" class="st0" d="M250.5,112.5
					c-15.9,0-27.9-12.5-27.9-28.4c0-15.9,12-29.1,27.9-29.1s27.9,13,27.9,28.9C278.4,99.9,266.4,112.5,250.5,112.5z M250.8,65.4
					c-10.5,0-17.8,7.9-17.8,18.4s7.3,19,17.8,19c10.5,0,18-9.2,18-19.7S261.4,65.4,250.8,65.4z"/>
			</g>
			<g id="_x3C_Group_x3E__00000126283370156459754200000018343590532137276800_">
				<path id="_x3C_Path_x3E__00000182506244685008823580000014306461593988265881_" class="st1" d="M296.2,111h-9.7l-2-1.7l2-69.6
					l7.6-1.7l2.1,1.7V111z"/>
			</g>
			<path id="_x3C_Path_x3E__00000137832000339921423440000013201703511408435106_" class="st1" d="M351.4,55.4l2.1,1.7l-29,71.5
				h-10.1l-2-1.7l9.8-17.6l-0.1,0.1l-19.7-52.2l8.8-1.7l2,1.7l14.2,39.2l15.8-39.2L351.4,55.4z"/>
			<g id="_x3C_Group_x3E__00000127031398791201073220000016414008079974430593_">
				<path id="_x3C_Path_x3E__00000093890572795125426430000005312036797952343742_" class="st1" d="M263.7,132.8H254l-2-1.7l2-8.8
					l7.6-1.7l2.1,1.7V132.8z"/>
			</g>
			<g id="_x3C_Group_x3E__00000173158095645156891100000001618901175148395146_">
				<path id="_x3C_Path_x3E__00000000205272340638544210000014056810836519996855_" class="st1" d="M263.9,193.9h-9.7l-2.1-1.7
					l2.1-52.2l7.7-1.7l2.1,1.7V193.9z"/>
			</g>
			<path id="_x3C_Path_x3E__00000179635422945958838220000013015794945231694750_" class="st1" d="M247.2,148.7h-7.7v44.8h-9.7
				l-2.1-1.7l2.1-43.1h-7.2l-2-1.7l2-8h7.2v-16.8l7.6-1.7l2.1,1.7V139l5.7-1.7l2.1,1.7V148.7z"/>
			<path id="_x3C_Path_x3E__00000123416153596099096810000017543926370307415179_" class="st1" d="M350.9,156.8v37.1h-9.7l-2.1-1.7
				l2.1-34c-1.1-6.3-5.4-10.3-12-10.1c-4.1,0.1-8.2,1.4-10.9,9.6v36.2h-9.7l-2.1-1.7l2.1-33.1c-1.2-6.2-5.1-11.1-12.1-11
				c-4.5,0.1-9.2,1.7-11.8,12.6v33.3h-9.7l-2.1-1.7l2.1-52.4l7.6-1.7l2.1,1.7v5c2.8-3,6.5-5.7,11.1-5.9c9.7-0.6,13.3,2.3,18.4,9
				c2.9-4.3,7.6-8.9,14.3-9C339.7,138.8,347.8,142.4,350.9,156.8L350.9,156.8z"/>
			<path id="_x3C_Compound_Path_x3E__00000098204321843654251490000006033534748359686839_" class="st0" d="M370.4,170.4
				c1.6,8.6,8.3,15.2,17.5,15.2c6.8,0,12.3-3.1,15.4-8.6l8.3-1.7l2.1,1.7c-3.9,10.7-13.8,18.3-26.1,18.3
				c-15.9,0-27.9-12.5-27.9-28.4c0-15.9,12-29.1,27.9-29.1c15.9,0,27.9,13,27.9,28.9c0,1.4-0.1,2.3-0.3,3.6H370.4z M370.6,161.7
				h34.8c-1.7-8.2-8.6-13.5-17.6-13.5C379,148.2,372.5,153.7,370.6,161.7z"/>
		</g>
		<g id="_x3C_Group_x3E__00000157274077407832118130000017669395069554736783_">
			<path id="_x3C_Compound_Path_x3E__00000106847681988772101110000014735362276796990643_" class="st0" d="M428.2,215.7l-190.2,0
				c-22.4-2.9-41.5-9.9-56.9-20.8c-12.4-8.8-22.4-20-29.7-33.5c-12.4-22.9-12.8-43.9-12.8-44.8v-89h184.3c31,0,52.2,15.1,53.1,15.7
				l-1.7,2.4l0.1-0.2l-1.6,2.1c-0.3-0.2-20.8-14.7-50-14.7h-179v83.7c0,0.2,0.4,20.8,12.2,42.5c15.8,29,43.5,46.3,82.3,51.3h184.4
				V127l3.4-3.8l1.8,1.5L428.2,215.7z M372.9,47.6l1.4-1.9L372.9,47.6C372.9,47.6,372.9,47.6,372.9,47.6z"/>
		</g>
		<path id="_x3C_Path_x3E__00000047038765446956867350000012582800021874159034_" class="st1" d="M436.6,2
			c22.9,77.9,0.2,116.5-68.1,115.9c-19-80.9,28.7-85.4,46.8-89.8c11.7-2.8,17.1-12.8,19.5-19.5l-0.1-8.2L436.6,2z"/>
		<path id="_x3C_Path_x3E__00000177452448465975283930000017709300960644884397_" class="st1" d="M479.3,45.1
			c-14.8,79.8-53.1,103.8-114.9,71.9c19.6-80.7,65.5-62.8,83.6-58.6c11.7,2.7,21-3.6,26.2-8.6l3.6-7.4L479.3,45.1z"/>
		<path id="_x3C_Path_x3E__00000134250986754880511750000001929849466136746150_" class="st1" d="M364.7,114.7
			C384.3,34,429,51.8,447.2,56.1c12.1,2.8,22.4-1.7,30.8-13.6C463.2,122.3,425.4,146.4,364.7,114.7z"/>
		<path id="_x3C_Path_x3E__00000078047348631649341940000004984968671886181046_" class="st1" d="M364.5,117.1
			c-19-80.9,30.7-86.3,48.9-90.7c12.1-2.9,19.2-11.6,21.3-26.1C457.6,78.2,434.2,117.2,364.5,117.1z"/>
		<g id="_x3C_Group_x3E__00000033344193890914047190000000767938784583499927_">
			<path id="_x3C_Compound_Path_x3E__00000014625343373705200180000007359809160930908593_" class="st0" d="M426.2,214.1l-190.2,0
				c-22.4-2.9-41.5-9.9-56.9-20.8c-12.4-8.8-22.3-20-29.7-33.5C137,137,136.7,115.9,136.7,115V26h184.3c31,0,52.2,15.1,53.1,15.7
				l-1.7,2.3l0.1-0.1l-1.6,2.1c-0.3-0.2-20.8-14.7-50-14.7H142V115c0,0.2,0.4,20.8,12.2,42.5c15.8,29,43.5,46.3,82.3,51.3h184.3
				v-85.7h5.3V214.1z M370.9,46.1l1.5-2L370.9,46.1L370.9,46.1z"/>
		</g>
		<g id="_x3C_Group_x3E__00000171704182944521633090000012395693940894278332_">
			<path id="_x3C_Compound_Path_x3E__00000027571950118152923920000000657732832933781179_" class="st0" d="M215.2,82.3
				c0,15.9-12.9,28.8-28.8,28.8c-7.3,0-13.3-2.6-17.6-6.9v22.6H159V55.3h9.7V61c4.4-4.6,10.3-7.5,17.6-7.5
				C202.3,53.5,215.2,66.4,215.2,82.3z M205.4,82.3c0-10.5-8.6-19.1-19.1-19.1s-17.5,8.9-17.5,19.4s7,18.7,17.5,18.7
				S205.4,92.8,205.4,82.3z"/>
			<g id="_x3C_Group_x3E__00000123424189426654218620000011139918008958015372_">
				<path id="_x3C_Compound_Path_x3E__00000095321253080958803940000007583709840969403321_" class="st0" d="M248.5,110.8
					c-15.9,0-27.9-12.5-27.9-28.4c0-15.9,12-29.1,27.9-29.1c15.9,0,27.9,13,27.9,28.9C276.3,98.1,264.4,110.8,248.5,110.8z
					 M248.8,63.7c-10.5,0-17.8,7.9-17.8,18.4s7.3,19,17.8,19c10.5,0,18-9.2,18-19.7C266.8,70.9,259.3,63.7,248.8,63.7z"/>
			</g>
			<g id="_x3C_Group_x3E__00000052085158155972762640000014570406086354586028_">
				<path id="_x3C_Path_x3E__00000023277126087463356370000008740395558754574256_" class="st1" d="M294.2,109.3h-9.7V38h9.7V109.3z
					"/>
			</g>
			<path id="_x3C_Path_x3E__00000043421168050693756980000007841681973313792690_" class="st1" d="M351.4,55.4l-29,71.5h-10.1
				l7.7-19.3l-19.9-52.2H311l14.2,39.2L341,55.4H351.4z"/>
			<g id="_x3C_Group_x3E__00000181045148815655243400000008430452376368525748_">
				<path id="_x3C_Path_x3E__00000145737541544683086890000004211566443684683428_" class="st1" d="M261.7,131.1h-9.7v-10.5h9.7
					V131.1z"/>
			</g>
			<g id="_x3C_Group_x3E__00000150820904737358797490000003943894880745447093_">
				<path id="_x3C_Path_x3E__00000069360773669083304920000005343159700560341411_" class="st1" d="M261.8,192.2h-9.7l0-54h9.7
					V192.2z"/>
			</g>
			<path id="_x3C_Path_x3E__00000000928671832260523880000008727653427847510944_" class="st1" d="M245.1,147h-7.7v44.8h-9.7V147
				h-7.2v-9.7h7.2v-16.8h9.7v16.8h7.7V147z"/>
			<path id="_x3C_Path_x3E__00000031166452551904555380000015363680465723653253_" class="st1" d="M348.8,155.1v37.1h-9.7l0-35.7
				c-1.1-6.3-5.4-10.3-12-10.1c-4.1,0.1-8.2,1.4-10.9,9.6v36.2h-9.7l0-34.8c-1.2-6.2-5.1-11.1-12-11c-4.5,0.1-9.2,1.7-11.8,12.6
				v33.3h-9.7l0-54.1h9.7v5c2.8-3,6.5-5.7,11.1-5.9c9.7-0.6,13.3,2.3,18.4,9c2.9-4.3,7.6-8.9,14.3-9
				C337.6,137,345.7,140.7,348.8,155.1L348.8,155.1z"/>
			<path id="_x3C_Compound_Path_x3E__00000143601837649259451220000005392805925642669229_" class="st0" d="M368.3,168.8
				c1.6,8.6,8.3,15.1,17.5,15.1c6.8,0,12.3-3.1,15.4-8.6h10.4c-3.9,10.7-13.8,18.3-26.1,18.3c-15.9,0-27.9-12.5-27.9-28.4
				c0-15.9,12-29.1,27.9-29.1c15.9,0,27.9,13,27.9,28.9c0,1.4,0,2.4-0.2,3.7H368.3z M368.6,160h34.8c-1.7-8.2-8.6-13.5-17.6-13.5
				C377,146.5,370.5,152,368.6,160z"/>
		</g>
	</g>
</g>
</svg>
