<?xml version="1.0" encoding="utf-8"?>
<!-- Generator: Adobe Illustrator 26.2.1, SVG Export Plug-In . SVG Version: 6.00 Build 0)  -->
<svg version="1.1" id="katman_1" xmlns="http://www.w3.org/2000/svg" xmlns:xlink="http://www.w3.org/1999/xlink" x="0px" y="0px"
	 viewBox="0 0 616 216" style="enable-background:new 0 0 616 216;" xml:space="preserve">
<style type="text/css">
	.st0{fill-rule:evenodd;clip-rule:evenodd;fill:#373737;}
	.st1{fill:#373737;}
</style>
<g>
	<path class="st0" d="M0.3,22.9c0,12.7,4.2,15.6,11.1,26.6c3.4,5.5,6.3,11,7.5,17.7c3.7,20.9-8.4,42.5-8.4,58
		c0,14.3,1.7,17.1,11.2,26.6l6,5.1c-0.1-1.4-1.9-4.9-2.5-6.2c-6.7-14.3-6.8-22.9-3-37.9c4.2-16.7,15.5-39.3,7.9-54.8
		c-4.7-9.5-16-18.6-16-28.6c0-19.4,34.2-15.7,47.3-15.7c-0.4-1.2-0.3-0.7-2.9-2C45.4,5.3,21.2,1.4,8.2,9.5
		C4.6,11.8,0.3,17.2,0.3,22.9"/>
	<path class="st0" d="M30.4,154.7c1.1-1.3,5.2-16.4,5.8-18.3c1.9-5.8,3.9-12.1,6.2-17.9c2.4-6,4.4-11.5,7.1-16.9
		c1.6-3.2,7-13.4,11.1-13.4c17.3,0,15.1,59.5,30.7,58.5h27.2l2.3-8.5l2.9,0.9l0.6-1.9c-0.7-0.2-1.4-0.4-2-0.7H97
		c-8.9,0-8.2-5.8-9.7-13c-4.5-21.7-12.8-51-24.8-51c-4.5,0-7.4,1.8-10.4,4.9c-2.7,2.7-4.1,4.8-6,8.1c-6.5,10.7-11.1,30.7-12.9,43.6
		C32.4,134.8,30.4,149.4,30.4,154.7 M142.2,146.7h118l2.3-8.5l2.9,0.9l0.6-1.9c-0.7-0.2-1.4-0.4-2-0.7h-11v0.1h-17v-0.1h-14.4v0.1
		h-14.3v-0.1h-14.4v0.1h-17.1v-0.1H174v0.1h-17.3v-0.1h-14.1c0.9,1.4,1.3,2.9,1.3,4.5C143.9,143.2,143.3,145.1,142.2,146.7
		 M283.8,146.7h308.5v-10.2h-10v0.1h-12v-0.1h-15.9v0.1h-5.7l-0.1-0.1h-35.1v0.1h-12.1v-0.1h-4.7v0.1h-39.9v-0.1h-36.2
		c-1.3,0.1-2.6,0.1-3.9,0.1H374l-0.1-0.1h-13.8v0.1h-17.4v-0.1H338v0.1h-38.6v-0.1h-15c0.9,1.4,1.3,2.9,1.3,4.5
		C285.5,143.2,284.9,145.1,283.8,146.7"/>
	<path class="st0" d="M44.8,27.1v0.8c2.2,0,3.6,0.8,6.1,0.8c21.4,0,56.9-22.7,56.9,2.3c0,9.5-8.3,17.9-13.1,27.4h13.5
		c4-10,10-17.6,12.9-27.4c0.8-2.6,1.3-5.2,1.5-7.8V20c-0.2-3.5-1.2-7-3.4-10.1c-2.2-3.2-5.3-4.6-8.8-4.9h-3.7
		C101.1,5.4,95,8,90.8,9.6L76.1,16C70.4,18.8,50.7,27,44.8,27.1"/>
	<polygon class="st1" points="559.6,79.7 559.6,73.9 592.3,73.9 592.4,79.7 579,79.7 579.3,133.7 573.2,133.7 573,79.7 	"/>
	<polygon class="st1" points="504.2,133.7 504,73.9 505.2,73.9 545.3,119.6 545,73.9 551,73.9 551.3,133.7 550,133.7 510.2,88.3 
		510.4,133.7 	"/>
	<polygon class="st1" points="459.3,73.9 493.5,73.9 493.6,79.7 465.3,79.7 465.4,98.4 493.4,98.4 493.4,104.3 465.4,104.3 
		465.5,127.9 493.5,127.9 493.6,133.7 459.6,133.7 	"/>
	<path class="st1" d="M397.5,133.7l-0.3-59.8h12.4c8.9,0,15.5,0.7,19.5,2.2c5.8,2,10.4,5.6,13.7,10.6c3.3,5,5,11,5,17.9
		c0,6-1.2,11.3-3.8,15.8c-2.6,4.6-5.9,7.9-10,10.1c-4.1,2.2-9.9,3.2-17.4,3.2H397.5L397.5,133.7z M403.2,128h6.9
		c8.3,0,14-0.5,17.1-1.5c4.5-1.5,8-4.1,10.6-7.9s3.8-8.5,3.8-14c0-5.8-1.4-10.7-4.2-14.8c-2.8-4.1-6.7-6.9-11.7-8.4
		c-3.7-1.1-9.9-1.7-18.5-1.7H403L403.2,128L403.2,128z"/>
	<polygon class="st1" points="345.2,73.9 356.7,73.9 356.8,94.5 372.9,73.9 386.6,73.9 365.8,100.6 388.9,133.7 375.4,133.7 
		356.8,107 356.9,133.7 345.4,133.7 	"/>
	<polygon class="st1" points="301.8,73.9 334.5,73.9 334.5,85 313.2,85 313.3,95.8 334.6,95.8 334.6,106.8 313.3,106.8 313.4,122.5 
		334.7,122.5 334.8,133.7 302.1,133.7 	"/>
	<path class="st1" d="M289.9,82l-8.4,7.4c-3-4.1-6-6.2-9.1-6.2c-1.5,0-2.7,0.4-3.7,1.2c-1,0.8-1.4,1.7-1.4,2.7s0.3,2,1,2.9
		c0.9,1.2,3.7,3.7,8.4,7.7c4.4,3.6,7,5.9,7.9,6.9c2.3,2.3,4,4.6,4.9,6.7c1,2.1,1.5,4.5,1.5,7c0,4.9-1.7,9-5,12.2
		c-3.4,3.2-7.8,4.8-13.3,4.8c-4.3,0-8-1-11.2-3.1s-5.9-5.4-8.2-9.8l9.6-5.8c2.9,5.3,6.2,7.9,10,7.9c2,0,3.6-0.6,4.9-1.7s2-2.5,2-3.9
		c0-1.3-0.5-2.7-1.5-4.1c-1-1.3-3.2-3.4-6.7-6.2c-6.6-5.3-10.8-9.4-12.7-12.3c-1.9-2.9-2.9-5.8-2.9-8.6c0-4.2,1.5-7.7,4.7-10.7
		s7.1-4.5,11.7-4.5c3,0,5.8,0.7,8.5,2.1C283.8,75.8,286.7,78.3,289.9,82 M270.3,133h6.9l-0.5,1.8c1.8,0.4,3.2,1.2,4.3,2.4
		c1,1.2,1.6,2.5,1.6,3.9c0,2.2-0.9,4.1-2.7,5.6c-1.8,1.6-4.4,2.4-7.7,2.4c-2.7,0-5.7-0.6-9.1-1.9l1.4-5.2c2,0.6,3.9,0.9,5.8,0.9
		c1.4,0,2.4-0.3,3.1-0.8s1-1.2,1-2.1c0-0.7-0.3-1.3-0.8-1.7s-1.3-0.6-2.5-0.6l-2.3,0.1L270.3,133L270.3,133z"/>
	<polygon class="st1" points="189.2,73.9 200.2,73.9 214.3,115.6 228.1,73.9 239.1,73.9 249.5,133.7 238.5,133.7 231.9,95.9 
		219.4,133.7 209.4,133.7 196.6,95.9 190.2,133.7 179.1,133.7 	"/>
	<path class="st1" d="M159.3,73.9h11.3l0.3,59.8h-11.3L159.3,73.9z M164.8,57.5c1.6,0,3,0.6,4.2,1.7c1.1,1.1,1.7,2.5,1.7,4.1
		c0,1.6-0.6,3-1.7,4.2c-1.1,1.1-2.5,1.7-4.1,1.7s-3-0.6-4.1-1.7s-1.7-2.5-1.7-4.2c0-1.6,0.6-3,1.7-4.1
		C161.9,58.1,163.2,57.5,164.8,57.5"/>
	<path class="st1" d="M148.2,82l-8.4,7.4c-3-4.1-6-6.2-9.1-6.2c-1.5,0-2.7,0.4-3.7,1.2c-1,0.8-1.4,1.7-1.4,2.7s0.3,2,1,2.9
		c0.9,1.2,3.7,3.7,8.4,7.7c4.4,3.6,7,5.9,7.9,6.9c2.3,2.3,4,4.6,4.9,6.7c1,2.1,1.5,4.5,1.5,7c0,4.9-1.7,9-5,12.2
		c-3.4,3.2-7.8,4.8-13.3,4.8c-4.3,0-8-1-11.2-3.1s-5.9-5.4-8.2-9.8l9.6-5.8c2.9,5.3,6.2,7.9,10,7.9c2,0,3.6-0.6,4.9-1.7
		c1.3-1.1,2-2.5,2-3.9c0-1.3-0.5-2.7-1.5-4.1c-1-1.3-3.2-3.4-6.7-6.2c-6.6-5.3-10.8-9.4-12.7-12.3c-1.9-2.9-2.9-5.8-2.9-8.6
		c0-4.2,1.5-7.7,4.7-10.7s7-4.5,11.7-4.5c3,0,5.8,0.7,8.5,2.1C142.1,75.8,145.1,78.3,148.2,82 M128.6,133h6.9l-0.5,1.8
		c1.8,0.4,3.2,1.2,4.3,2.4c1,1.2,1.6,2.5,1.6,3.9c0,2.2-0.9,4.1-2.7,5.6c-1.8,1.6-4.4,2.4-7.7,2.4c-2.7,0-5.7-0.6-9-1.9l1.4-5.2
		c2,0.6,3.9,0.9,5.8,0.9c1.4,0,2.4-0.3,3.1-0.8c0.7-0.5,1-1.2,1-2.1c0-0.7-0.3-1.3-0.8-1.7s-1.3-0.6-2.5-0.6l-2.3,0.1L128.6,133
		L128.6,133z"/>
	<path class="st1" d="M34.9,176.4l12.4,26.7h-2.9l-4.2-8.8l-11.5-0.1l-4.1,8.7h-3l12.6-26.5L34.9,176.4L34.9,176.4z M34.5,182
		l-4.6,9.7l9.1,0.1L34.5,182L34.5,182z M77.1,181.1L75,183c-1.5-1.5-3.1-2.6-4.9-3.3c-1.8-0.8-3.5-1.2-5.2-1.2c-2.1,0-4.1,0.5-6,1.5
		s-3.4,2.4-4.4,4.1c-1,1.8-1.6,3.6-1.6,5.6s0.5,3.9,1.6,5.7s2.6,3.2,4.5,4.3c1.9,1,4,1.6,6.2,1.6c2.7,0,5.1-0.7,7-2.3
		c1.9-1.5,3-3.5,3.4-6h-8.5v-2.6l11.5,0.1c0,4.1-1.2,7.4-3.7,9.8c-2.4,2.4-5.7,3.6-9.7,3.6c-4.9,0-8.8-1.7-11.7-5.1
		c-2.2-2.6-3.3-5.6-3.3-9c0-2.5,0.6-4.9,1.9-7c1.3-2.2,3-3.8,5.2-5.1c2.2-1.2,4.7-1.8,7.5-1.8c2.3,0,4.4,0.4,6.4,1.3
		C73.2,178,75.2,179.3,77.1,181.1 M57.9,170.3h2.4c0.4,0.6,1,1.1,1.7,1.4c0.7,0.3,1.5,0.5,2.5,0.5c1,0,1.8-0.1,2.3-0.4
		c0.6-0.3,1.2-0.8,1.7-1.5h2.3c-0.3,1.1-0.9,2-2,2.7s-2.5,1.1-4.3,1.1c-1.8,0-3.2-0.4-4.3-1.1C58.9,172.3,58.2,171.4,57.9,170.3
		 M83.3,176.7H86v26.6h-2.7V176.7z M91,179.4v-2.6l14,0.1l-11.2,23.9l10.6,0.1v2.6l-14.7-0.1l11.2-23.9L91,179.4L91,179.4z
		 M117.8,183.9h2.6l6.6,14.4l6.6-14.3h2.7l-9,19.6h-0.5L117.8,183.9L117.8,183.9z M156.8,197.2l2.1,1.1c-0.7,1.4-1.5,2.5-2.4,3.3
		s-2,1.5-3.1,1.9c-1.2,0.4-2.5,0.6-3.9,0.6c-3.2,0-5.7-1.1-7.6-3.2s-2.7-4.5-2.7-7.1c0-2.5,0.8-4.7,2.3-6.6c1.9-2.5,4.6-3.7,7.8-3.7
		c3.4,0,6.1,1.3,8.1,3.9c1.4,1.8,2.2,4,2.2,6.7l-17.8-0.1c0.1,2.3,0.8,4.2,2.2,5.6c1.4,1.5,3.2,2.2,5.3,2.2c1,0,2-0.2,2.9-0.5
		c1-0.3,1.8-0.8,2.4-1.4C155.3,199.4,156.1,198.5,156.8,197.2 M156.9,192c-0.3-1.4-0.8-2.4-1.5-3.2s-1.5-1.5-2.6-2s-2.2-0.8-3.4-0.8
		c-1.9,0-3.6,0.6-5,1.8c-1,0.9-1.8,2.3-2.3,4.1L156.9,192L156.9,192z M175,203.9v-26.6h5.5c4,0,6.9,0.4,8.7,1
		c2.6,0.9,4.6,2.5,6.1,4.7c1.4,2.2,2.2,4.9,2.2,8c0,2.7-0.6,5-1.7,7c-1.1,2-2.7,3.5-4.5,4.5s-4.4,1.4-7.7,1.4L175,203.9L175,203.9z
		 M177.5,201.4h3.1c3.7,0,6.2-0.2,7.6-0.6c2-0.6,3.6-1.8,4.7-3.5c1.1-1.7,1.7-3.8,1.7-6.2c0-2.6-0.6-4.8-1.9-6.6
		c-1.2-1.8-3-3.1-5.2-3.8c-1.7-0.5-4.4-0.8-8.2-0.8h-1.9L177.5,201.4L177.5,201.4z M202.2,177.4h2.7V204h-2.7V177.4z M203.5,171.3
		c0.6,0,1.1,0.2,1.5,0.6c0.4,0.4,0.6,0.9,0.6,1.5s-0.2,1.1-0.6,1.5c-0.4,0.4-0.9,0.6-1.5,0.6s-1.1-0.2-1.5-0.6
		c-0.4-0.4-0.6-0.9-0.6-1.5s0.2-1.1,0.6-1.5C202.4,171.5,202.9,171.3,203.5,171.3 M208.2,199.1l2.3-1.3c1.6,2.9,3.4,4.4,5.5,4.4
		c0.9,0,1.7-0.2,2.5-0.6c0.8-0.4,1.4-1,1.8-1.7c0.4-0.7,0.6-1.4,0.6-2.2c0-0.9-0.3-1.8-0.9-2.6c-0.8-1.2-2.4-2.6-4.6-4.3
		c-2.2-1.7-3.6-2.9-4.2-3.7c-0.9-1.3-1.4-2.6-1.4-4.1c0-1.2,0.3-2.2,0.8-3.2c0.6-0.9,1.3-1.7,2.4-2.2c1-0.5,2.1-0.8,3.3-0.8
		c1.3,0,2.4,0.3,3.5,1c1.1,0.6,2.3,1.8,3.5,3.4l-2.2,1.6c-1-1.3-1.9-2.2-2.6-2.6c-0.7-0.4-1.5-0.6-2.3-0.6c-1.1,0-2,0.3-2.6,1
		c-0.7,0.6-1,1.4-1,2.4c0,0.6,0.1,1.1,0.4,1.7c0.2,0.5,0.7,1.1,1.3,1.8c0.3,0.3,1.5,1.2,3.5,2.7c2.3,1.7,3.9,3.2,4.8,4.6
		c0.9,1.3,1.3,2.7,1.3,4c0,1.9-0.7,3.6-2.2,5s-3.3,2.1-5.4,2.1c-1.6,0-3.1-0.5-4.4-1.3C210.5,202.6,209.3,201.2,208.2,199.1
		 M215.5,204.1h1.6l-0.3,2.2c0.3,0,0.5,0,0.7,0c0.6,0,1.1,0.2,1.5,0.6c0.4,0.4,0.6,0.8,0.6,1.4c0,0.8-0.4,1.5-1.1,2
		c-0.7,0.5-1.7,0.8-3.1,0.8c-1.1,0-2.1-0.2-3-0.6l0.4-1.3c0.8,0.2,1.5,0.4,2.2,0.4c0.9,0,1.5-0.1,1.9-0.3s0.5-0.5,0.5-0.8
		c0-0.2-0.1-0.4-0.3-0.6c-0.2-0.2-0.5-0.2-0.8-0.2s-0.7,0-1.3,0.2L215.5,204.1L215.5,204.1z M236.9,199.3l2.3-1.3
		c1.6,2.9,3.4,4.4,5.5,4.4c0.9,0,1.7-0.2,2.5-0.6c0.8-0.4,1.4-1,1.8-1.7c0.4-0.7,0.6-1.4,0.6-2.2c0-0.9-0.3-1.8-0.9-2.6
		c-0.8-1.2-2.3-2.6-4.6-4.3c-2.2-1.7-3.6-2.9-4.2-3.7c-0.9-1.3-1.4-2.6-1.4-4.1c0-1.2,0.3-2.2,0.8-3.2c0.6-0.9,1.3-1.7,2.4-2.2
		c1-0.5,2.1-0.8,3.3-0.8c1.3,0,2.4,0.3,3.5,1c1.1,0.6,2.3,1.8,3.5,3.4l-2.2,1.6c-1-1.3-1.9-2.2-2.6-2.6c-0.7-0.4-1.5-0.6-2.3-0.6
		c-1.1,0-2,0.3-2.6,1c-0.7,0.6-1,1.4-1,2.4c0,0.6,0.1,1.1,0.4,1.7c0.2,0.5,0.7,1.1,1.3,1.8c0.3,0.3,1.5,1.2,3.4,2.7
		c2.3,1.7,3.9,3.2,4.8,4.6c0.9,1.3,1.3,2.7,1.3,4c0,1.9-0.7,3.6-2.2,5s-3.3,2.1-5.4,2.1c-1.6,0-3.1-0.5-4.4-1.3
		C239.2,202.8,238,201.3,236.9,199.3 M269,177.9l12.4,26.7h-2.9l-4.2-8.8l-11.5-0.1l-4.1,8.7h-3l12.6-26.5L269,177.9L269,177.9z
		 M268.6,183.4l-4.6,9.7l9.1,0.1L268.6,183.4z M311.2,182.6l-2.1,1.9c-1.5-1.5-3.1-2.6-4.9-3.3c-1.8-0.8-3.5-1.2-5.2-1.2
		c-2.1,0-4.1,0.5-6,1.5s-3.4,2.4-4.4,4.1c-1,1.8-1.6,3.6-1.6,5.6s0.5,3.9,1.6,5.7s2.6,3.2,4.5,4.3c1.9,1,4,1.6,6.2,1.6
		c2.7,0,5.1-0.7,7-2.3c1.9-1.5,3-3.5,3.4-6l-8.5-0.1v-2.6l11.5,0.1c0,4.1-1.2,7.4-3.7,9.8c-2.4,2.4-5.7,3.6-9.7,3.6
		c-4.9,0-8.8-1.7-11.7-5.1c-2.2-2.6-3.3-5.6-3.3-9c0-2.5,0.6-4.8,1.9-7s3-3.9,5.2-5.1c2.2-1.2,4.7-1.8,7.5-1.8
		c2.3,0,4.4,0.4,6.4,1.3C307.3,179.5,309.3,180.8,311.2,182.6 M292,171.7h2.4c0.4,0.6,1,1.1,1.7,1.4c0.7,0.3,1.5,0.5,2.5,0.5
		s1.8-0.1,2.3-0.4c0.6-0.3,1.2-0.8,1.7-1.5h2.3c-0.3,1.1-0.9,2-2,2.7s-2.5,1.1-4.3,1.1s-3.2-0.4-4.3-1.1
		C293,173.7,292.3,172.8,292,171.7 M317.8,178.2h2.7v24l10.3,0.1v2.6l-12.9-0.1v-26.6H317.8z M334.5,178.3h2.7v26.6h-2.7V178.3
		L334.5,178.3z M369,182.9l-2.1,1.9c-1.5-1.5-3.1-2.6-4.9-3.3c-1.8-0.8-3.5-1.2-5.2-1.2c-2.1,0-4.1,0.5-6,1.5s-3.4,2.4-4.4,4.1
		c-1,1.8-1.6,3.6-1.6,5.6s0.5,3.9,1.6,5.7s2.6,3.2,4.5,4.3c1.9,1,4,1.6,6.2,1.6c2.7,0,5.1-0.7,7-2.3c1.9-1.5,3-3.5,3.4-6l-8.5-0.1
		v-2.6l11.5,0.1c0,4.1-1.2,7.4-3.7,9.8c-2.4,2.4-5.7,3.6-9.7,3.6c-4.9,0-8.8-1.7-11.7-5.1c-2.2-2.6-3.3-5.6-3.3-9
		c0-2.5,0.6-4.9,1.9-7c1.3-2.2,3-3.9,5.2-5.1c2.2-1.2,4.7-1.8,7.5-1.8c2.3,0,4.4,0.4,6.4,1.3C365.1,179.8,367.1,181.1,369,182.9
		 M349.8,172.1h2.4c0.4,0.6,1,1.1,1.7,1.4c0.7,0.3,1.5,0.5,2.5,0.5s1.8-0.1,2.3-0.4c0.6-0.3,1.2-0.8,1.7-1.5h2.3
		c-0.3,1.1-0.9,2-2,2.7s-2.5,1.1-4.3,1.1s-3.2-0.4-4.3-1.1C350.8,174.1,350.1,173.2,349.8,172.1 M375.2,178.5h2.7v26.6h-2.7V178.5z
		 M394.2,178.6h5.3c3,0,5.1,0.2,6.2,0.4c1.5,0.4,2.8,1.2,3.7,2.3c1,1.2,1.4,2.6,1.4,4.4c0,1.8-0.5,3.2-1.4,4.4
		c-0.9,1.1-2.2,1.9-3.9,2.3c-1.2,0.3-3.5,0.4-6.8,0.4h-1.9v12.4h-2.7L394.2,178.6L394.2,178.6z M396.9,181.3v9l4.5,0.1
		c1.8,0,3.2-0.1,4-0.5c0.8-0.3,1.5-0.9,2-1.6c0.5-0.7,0.7-1.6,0.7-2.5s-0.2-1.7-0.7-2.5c-0.5-0.7-1.1-1.3-1.9-1.6s-2.1-0.5-3.9-0.5
		L396.9,181.3L396.9,181.3z M428.8,178.2c4,0,7.4,1.4,10.1,4.1c2.7,2.7,4.1,6,4.1,9.9s-1.4,7.2-4.1,9.9s-6,4-9.9,4s-7.3-1.4-10-4.1
		c-2.7-2.7-4.1-6-4.1-9.8c0-2.6,0.6-4.9,1.9-7.1c1.2-2.2,2.9-3.9,5.1-5.1C424,178.8,426.3,178.2,428.8,178.2 M428.9,180.8
		c-2,0-3.8,0.5-5.6,1.5c-1.8,1-3.1,2.4-4.1,4.1c-1,1.7-1.5,3.7-1.5,5.8c0,3.2,1.1,5.8,3.3,8c2.2,2.2,4.8,3.3,7.9,3.3
		c2.1,0,4-0.5,5.7-1.5c1.8-1,3.1-2.4,4.1-4.1c1-1.7,1.5-3.7,1.5-5.8s-0.5-4-1.5-5.7s-2.4-3.1-4.2-4.1
		C432.8,181.3,430.9,180.8,428.9,180.8 M448.3,179h2.7v24l10.3,0.1v2.6l-12.9-0.1V179H448.3z M465.1,179.1h2.7v26.6h-2.7V179.1z
		 M466.4,172.9c0.6,0,1.1,0.2,1.5,0.6c0.4,0.4,0.6,0.9,0.6,1.5s-0.2,1.1-0.6,1.5s-0.9,0.6-1.5,0.6s-1.1-0.2-1.5-0.6
		c-0.4-0.4-0.6-0.9-0.6-1.5s0.2-1.1,0.6-1.5S465.8,172.9,466.4,172.9 M473.8,179.1h2.7v10l10.7-9.9h3.6L478,191l13.8,14.8h-3.5
		l-11.7-12.5v12.4h-2.7L473.8,179.1L473.8,179.1z M495.7,179.3h2.7v24l10.3,0.1v2.6l-12.9-0.1v-26.6H495.7z M512.4,179.4h2.7V206
		h-2.7V179.4z M513.8,173.2c0.6,0,1.1,0.2,1.5,0.6c0.4,0.4,0.6,0.9,0.6,1.5s-0.2,1.1-0.6,1.5c-0.4,0.4-0.9,0.6-1.5,0.6
		s-1.1-0.2-1.5-0.6c-0.4-0.4-0.6-0.9-0.6-1.5s0.2-1.1,0.6-1.5C512.7,173.4,513.2,173.2,513.8,173.2 M521.2,206v-26.6h0.6l17.7,20.5
		v-20.3h2.7v26.6h-0.6L524,185.9V206H521.2L521.2,206z M548.2,179.6h2.7v26.6h-2.7V179.6z M549.5,173.4c0.6,0,1.1,0.2,1.5,0.6
		c0.4,0.4,0.6,0.9,0.6,1.5s-0.2,1.1-0.6,1.5c-0.4,0.4-0.9,0.6-1.5,0.6s-1.1-0.2-1.5-0.6c-0.4-0.4-0.6-0.9-0.6-1.5s0.2-1.1,0.6-1.5
		C548.5,173.6,549,173.4,549.5,173.4 M582.7,184.3l-2.1,1.9c-1.5-1.5-3.1-2.6-4.9-3.3c-1.8-0.8-3.5-1.2-5.2-1.2
		c-2.1,0-4.1,0.5-6,1.5s-3.4,2.4-4.4,4.1c-1,1.7-1.6,3.6-1.6,5.6s0.5,3.9,1.6,5.7s2.6,3.2,4.5,4.3c1.9,1,4,1.6,6.2,1.6
		c2.7,0,5.1-0.7,7-2.3c1.9-1.5,3-3.5,3.4-6h-8.5v-2.6l11.5,0.1c0,4.1-1.2,7.4-3.7,9.8c-2.4,2.4-5.7,3.6-9.7,3.6
		c-4.9,0-8.8-1.7-11.7-5.1c-2.2-2.6-3.3-5.6-3.3-9c0-2.5,0.6-4.9,1.9-7c1.3-2.2,3-3.8,5.2-5.1c2.2-1.2,4.7-1.8,7.5-1.8
		c2.3,0,4.4,0.4,6.4,1.3C578.8,181.2,580.8,182.5,582.7,184.3 M563.5,173.4h2.4c0.4,0.6,1,1.1,1.7,1.4c0.7,0.3,1.5,0.5,2.5,0.5
		s1.8-0.1,2.3-0.4c0.6-0.3,1.2-0.8,1.7-1.5h2.3c-0.3,1.1-0.9,2-2,2.7s-2.5,1.1-4.3,1.1s-3.2-0.4-4.3-1.1
		C564.5,175.4,563.8,174.5,563.5,173.4 M588.9,179.9h2.7v26.6h-2.7V179.9z M590.2,173.7c0.6,0,1.1,0.2,1.5,0.6
		c0.4,0.4,0.6,0.9,0.6,1.5s-0.2,1.1-0.6,1.5c-0.4,0.4-0.9,0.6-1.5,0.6s-1.1-0.2-1.5-0.6c-0.4-0.4-0.6-0.9-0.6-1.5s0.2-1.1,0.6-1.5
		C589.2,173.9,589.7,173.7,590.2,173.7"/>
	<g>
		<path class="st1" d="M597,60.9c0-5.2,4.2-9.4,9.4-9.3c5.2,0,9.3,4.3,9.3,9.4s-4.3,9.3-9.5,9.3C601.2,70.1,597,66,597,60.9z
			 M614.6,60.9c0-4.5-3.7-8.2-8.2-8.2s-8.2,3.7-8.2,8.2s3.7,8.2,8.1,8.2C610.9,69.1,614.6,65.4,614.6,60.9L614.6,60.9z"/>
		<path class="st1" d="M603,65.8V56h0.1c1.3,0,2.5,0,3.8,0c0.6,0,1.1,0.1,1.7,0.4c0.9,0.4,1.3,1.1,1.4,2.1c0.1,0.6,0,1.2-0.2,1.8
			c-0.3,0.6-0.8,1-1.4,1.3c0,0-0.1,0-0.2,0.1c0.7,1.4,1.5,2.8,2.2,4.1l0,0h-0.1c-0.5,0-1,0-1.6,0c-0.1,0-0.2,0-0.2-0.1
			c-0.6-1.2-1.2-2.3-1.8-3.5c-0.1-0.1-0.1-0.2-0.3-0.2c-0.5,0-1,0-1.6,0c-0.1,0-0.1,0-0.2,0v3.8H603L603,65.8z M604.7,60.6
			C604.8,60.6,604.8,60.6,604.7,60.6c0.7,0,1.3,0,2,0c0.4,0,0.7-0.1,1-0.4c0.5-0.4,0.6-0.9,0.6-1.5s-0.3-1.1-0.9-1.3
			c-0.3-0.1-0.6-0.2-0.9-0.2c-0.6,0-1.1,0-1.7,0h-0.1L604.7,60.6L604.7,60.6z"/>
	</g>
</g>
</svg>
