<?xml version="1.0" encoding="utf-8"?>
<!-- Generator: Adobe Illustrator 26.2.1, SVG Export Plug-In . SVG Version: 6.00 Build 0)  -->
<svg version="1.1" id="katman_1" xmlns="http://www.w3.org/2000/svg" xmlns:xlink="http://www.w3.org/1999/xlink" x="0px" y="0px"
	 viewBox="0 0 616 216" style="enable-background:new 0 0 616 216;" xml:space="preserve">
<style type="text/css">
	.st0{fill:#373737;}
</style>
<g>
	<path class="st0" d="M17.4,183c0-0.4,0.2-0.6,0.6-0.6h1.5c0.2,0,0.3,0.1,0.5,0.2c0.1,0.1,0.2,0.3,0.2,0.5v6.4c0,0.1,0,0.2-0.1,0.3
		c0,0.1-0.1,0.2-0.2,0.3l-0.1,0.1c-0.9,0.6-1.9,1.1-3,1.5c-1.1,0.3-2.3,0.5-3.5,0.5c-1,0-2-0.1-2.9-0.4c-0.9-0.3-1.8-0.6-2.6-1.1
		c-0.8-0.5-1.5-1.1-2.2-1.7c-0.7-0.7-1.2-1.4-1.7-2.2c-0.5-0.8-0.8-1.7-1.1-2.6c-0.3-0.9-0.4-1.9-0.4-2.9c0-1,0.1-2,0.4-2.9
		c0.3-0.9,0.6-1.8,1.1-2.6c0.5-0.8,1.1-1.6,1.7-2.2c0.7-0.7,1.4-1.2,2.2-1.7c0.8-0.5,1.7-0.8,2.6-1.1c0.9-0.3,1.9-0.4,2.9-0.4
		c1.2,0,2.3,0.2,3.4,0.5c1.1,0.4,2.1,0.9,3.1,1.5c0.1,0.1,0.2,0.2,0.3,0.3c0.1,0.1,0.1,0.2,0.1,0.3c0,0.1,0,0.3-0.1,0.3l-0.8,1.3
		c-0.2,0.2-0.3,0.3-0.5,0.3c-0.1,0-0.1,0-0.2,0c-0.1,0-0.2-0.1-0.3-0.2c-0.7-0.5-1.4-0.9-2.3-1.2c-0.8-0.3-1.7-0.4-2.6-0.4
		c-1.2,0-2.3,0.2-3.3,0.7c-1,0.5-1.9,1.1-2.6,1.8c-0.7,0.8-1.3,1.6-1.7,2.6c-0.4,1-0.6,2-0.6,3.1c0,1.1,0.2,2.2,0.6,3.2
		c0.4,1,1,1.9,1.7,2.6c0.7,0.7,1.6,1.3,2.6,1.7c1,0.4,2,0.6,3.1,0.6c0.7,0,1.4-0.1,2.1-0.3c0.7-0.2,1.4-0.5,2.1-0.8L17.4,183
		L17.4,183z"/>
	<path class="st0" d="M27.8,170.2c0,0.4-0.2,0.6-0.6,0.6h-1.5c-0.5,0-0.7-0.2-0.7-0.6v-1.5c0-0.2,0.1-0.3,0.2-0.5
		c0.1-0.1,0.3-0.2,0.4-0.2h1.5c0.2,0,0.4,0.1,0.5,0.2c0.1,0.1,0.2,0.3,0.2,0.5V170.2L27.8,170.2z M27.8,191.1c0,0.4-0.2,0.6-0.6,0.6
		h-1.5c-0.5,0-0.7-0.2-0.7-0.6v-17c0-0.2,0.1-0.3,0.2-0.5c0.1-0.1,0.3-0.2,0.4-0.2h1.5c0.2,0,0.4,0.1,0.5,0.2
		c0.1,0.1,0.2,0.3,0.2,0.4V191.1z"/>
	<path class="st0" d="M35.9,175.5c0.1-0.2,0.3-0.5,0.5-0.7c0.2-0.3,0.5-0.5,0.8-0.7c0.3-0.2,0.7-0.4,1.1-0.6
		c0.4-0.1,0.8-0.2,1.3-0.2c0.5,0,1,0,1.4,0.1c0.4,0,0.8,0.1,1.2,0.2c0.4,0.1,0.7,0.3,1.1,0.4c0.3,0.2,0.7,0.4,1.1,0.7
		c0.1,0.1,0.2,0.2,0.4,0.3c0.1,0.1,0.2,0.3,0.2,0.5c0,0.1,0,0.2-0.1,0.3l-0.8,1.3c-0.1,0.2-0.3,0.2-0.4,0.2c-0.1,0-0.1,0-0.2-0.1
		c-0.1,0-0.1-0.1-0.2-0.2c-0.6-0.4-1.2-0.7-1.7-0.9c-0.6-0.2-1.2-0.3-1.8-0.3c-0.5,0-0.9,0.1-1.4,0.3c-0.4,0.2-0.8,0.4-1.2,0.8
		c-0.3,0.3-0.6,0.8-0.8,1.3c-0.2,0.5-0.3,1.1-0.3,1.7v11.3c0,0.4-0.2,0.6-0.6,0.6h-1.5c-0.4,0-0.7-0.2-0.7-0.6v-17
		c0-0.2,0.1-0.3,0.2-0.5c0.1-0.1,0.3-0.2,0.4-0.2h1.5c0.2,0,0.4,0.1,0.5,0.2c0.1,0.1,0.2,0.3,0.2,0.4L35.9,175.5L35.9,175.5z"/>
	<path class="st0" d="M51.5,170.2c0,0.4-0.2,0.6-0.6,0.6h-1.5c-0.5,0-0.7-0.2-0.7-0.6v-1.5c0-0.2,0.1-0.3,0.2-0.5
		c0.1-0.1,0.3-0.2,0.4-0.2h1.5c0.2,0,0.4,0.1,0.5,0.2c0.1,0.1,0.2,0.3,0.2,0.5L51.5,170.2L51.5,170.2z M51.5,191.1
		c0,0.4-0.2,0.6-0.6,0.6h-1.5c-0.5,0-0.7-0.2-0.7-0.6v-17c0-0.2,0.1-0.3,0.2-0.5c0.1-0.1,0.3-0.2,0.4-0.2h1.5c0.2,0,0.4,0.1,0.5,0.2
		c0.1,0.1,0.2,0.3,0.2,0.4L51.5,191.1L51.5,191.1z"/>
	<path class="st0" d="M55.6,188.2c0-0.1-0.1-0.3-0.1-0.3c0-0.1,0-0.2,0-0.2c0-0.1,0.1-0.1,0.1-0.2s0.1-0.1,0.2-0.1l1.4-0.6
		c0.2-0.1,0.4-0.1,0.6,0c0.1,0.1,0.2,0.3,0.3,0.4c0.1,0.4,0.4,0.7,0.7,1c0.3,0.3,0.6,0.5,1,0.7c0.4,0.2,0.7,0.3,1.1,0.4
		c0.4,0.1,0.7,0.1,1,0.1c0.4,0,0.8,0,1.2-0.2c0.4-0.1,0.8-0.3,1.2-0.5c0.4-0.2,0.7-0.5,1-0.8c0.3-0.3,0.4-0.8,0.4-1.2
		c0-0.5-0.1-0.9-0.4-1.2s-0.6-0.6-1-0.8c-0.4-0.2-0.8-0.4-1.3-0.5c-0.5-0.1-1-0.3-1.5-0.4c-0.9-0.2-1.6-0.5-2.3-0.8
		c-0.7-0.3-1.2-0.7-1.7-1.1c-0.5-0.4-0.8-0.9-1.1-1.5c-0.3-0.6-0.4-1.2-0.4-1.9c0-0.8,0.1-1.5,0.4-2.1s0.7-1.2,1.2-1.6
		c0.5-0.5,1.2-0.8,1.9-1.1c0.7-0.3,1.6-0.4,2.5-0.4c0.7,0,1.4,0.1,1.9,0.2c0.5,0.1,1,0.3,1.4,0.6c0.4,0.3,0.8,0.6,1.1,1
		c0.3,0.4,0.7,0.8,1.1,1.3c0.1,0.2,0.2,0.4,0.2,0.5c0,0.1-0.1,0.3-0.3,0.4l-1.1,0.8c-0.2,0.1-0.4,0.2-0.5,0.1
		c-0.1-0.1-0.2-0.2-0.4-0.3c-0.2-0.3-0.4-0.5-0.6-0.7c-0.2-0.2-0.5-0.5-0.7-0.6c-0.3-0.2-0.6-0.3-0.9-0.4c-0.3-0.1-0.7-0.2-1.2-0.2
		c-0.4,0-0.8,0-1.2,0.1c-0.4,0.1-0.7,0.3-1.1,0.5c-0.3,0.2-0.6,0.5-0.7,0.8c-0.2,0.3-0.3,0.7-0.3,1.1c0,0.3,0.1,0.6,0.3,0.9
		c0.2,0.3,0.5,0.5,0.9,0.8c0.4,0.2,0.7,0.4,1.2,0.6c0.4,0.2,0.8,0.3,1.2,0.4c0.9,0.2,1.7,0.5,2.5,0.8c0.8,0.3,1.4,0.7,1.9,1.2
		c0.5,0.5,1,1,1.2,1.6c0.3,0.6,0.4,1.3,0.4,2c0,0.8-0.2,1.6-0.5,2.3c-0.3,0.7-0.8,1.2-1.4,1.7c-0.6,0.5-1.3,0.8-2.1,1.1
		c-0.8,0.3-1.7,0.4-2.7,0.4c-0.6,0-1.2-0.1-1.9-0.2c-0.6-0.2-1.2-0.4-1.8-0.7c-0.6-0.3-1.1-0.7-1.5-1.2
		C56.2,189.4,55.8,188.9,55.6,188.2 M63.3,191.8c-0.2,0.1-0.3,0.3-0.3,0.5c0,0.2,0.1,0.3,0.2,0.4c0.1,0.1,0.3,0.3,0.6,0.4
		c0.2,0.1,0.5,0.3,0.7,0.4c0.3,0.2,0.5,0.3,0.7,0.6c0.2,0.2,0.4,0.4,0.6,0.7c0.1,0.3,0.2,0.6,0.2,0.9c0,0.3-0.1,0.7-0.2,1
		c-0.1,0.3-0.4,0.6-0.7,0.8c-0.3,0.3-0.7,0.5-1.2,0.8c-0.5,0.2-1.1,0.5-1.8,0.7H62c-0.1,0-0.3-0.1-0.4-0.2c-0.1-0.1-0.2-0.3-0.3-0.4
		c-0.1-0.2-0.1-0.3-0.2-0.5c0-0.2-0.1-0.3-0.1-0.4c0-0.1,0-0.2,0.2-0.3c1.6-0.4,2.5-0.9,2.5-1.5c0-0.2-0.1-0.4-0.2-0.6
		c-0.1-0.2-0.3-0.3-0.5-0.5c-0.2-0.1-0.4-0.3-0.7-0.4c-0.3-0.1-0.5-0.3-0.7-0.5c-0.2-0.2-0.4-0.4-0.5-0.6c-0.1-0.2-0.2-0.5-0.2-0.7
		c0-0.1,0-0.2,0-0.3c0-0.1,0.1-0.2,0.2-0.4L63.3,191.8L63.3,191.8z"/>
	<path class="st0" d="M75.4,170.2c0,0.4-0.2,0.6-0.6,0.6h-1.5c-0.5,0-0.7-0.2-0.7-0.6v-1.5c0-0.2,0.1-0.3,0.2-0.5
		c0.1-0.1,0.3-0.2,0.4-0.2h1.5c0.2,0,0.4,0.1,0.5,0.2c0.1,0.1,0.2,0.3,0.2,0.5L75.4,170.2L75.4,170.2z M75.4,191.1
		c0,0.4-0.2,0.6-0.6,0.6h-1.5c-0.5,0-0.7-0.2-0.7-0.6v-17c0-0.2,0.1-0.3,0.2-0.5c0.1-0.1,0.3-0.2,0.4-0.2h1.5c0.2,0,0.4,0.1,0.5,0.2
		c0.1,0.1,0.2,0.3,0.2,0.4L75.4,191.1L75.4,191.1z"/>
	<path class="st0" d="M83.6,175.7c0.3-0.3,0.6-0.6,0.9-0.9c0.3-0.3,0.6-0.6,1-0.8c0.4-0.2,0.8-0.4,1.3-0.5c0.5-0.1,1-0.2,1.7-0.2
		c1.5,0,2.8,0.3,3.7,0.8c1,0.6,1.7,1.4,2.3,2.4c0.3-0.6,0.6-1.1,1-1.5c0.4-0.4,0.9-0.8,1.4-1c0.5-0.3,1.1-0.5,1.7-0.6
		c0.6-0.1,1.2-0.2,1.9-0.2c1.2,0,2.2,0.2,3.1,0.6c0.9,0.4,1.7,1,2.3,1.7c0.6,0.7,1.1,1.5,1.4,2.5c0.3,0.9,0.5,2,0.5,3v9.8
		c0,0.3-0.1,0.6-0.3,0.7c-0.2,0.2-0.4,0.2-0.6,0.2h-1.1c-0.4,0-0.6-0.1-0.7-0.2c-0.1-0.1-0.2-0.4-0.2-0.7V181c0-0.6-0.1-1.2-0.2-1.8
		s-0.4-1.1-0.8-1.6c-0.4-0.5-0.8-0.9-1.4-1.2c-0.6-0.3-1.3-0.5-2.2-0.5c-0.7,0-1.4,0.1-2,0.3c-0.6,0.2-1.1,0.6-1.5,1
		c-0.4,0.4-0.7,1-0.9,1.6c-0.2,0.6-0.3,1.3-0.3,2.1v9.8c0,0.3-0.1,0.6-0.3,0.7c-0.2,0.2-0.4,0.2-0.6,0.2h-1.1
		c-0.4,0-0.6-0.1-0.7-0.2c-0.1-0.1-0.2-0.4-0.2-0.7V181c0-0.6-0.1-1.2-0.2-1.8s-0.4-1.1-0.8-1.6c-0.4-0.5-0.8-0.9-1.4-1.2
		c-0.6-0.3-1.3-0.5-2.2-0.5c-0.6,0-1.1,0.1-1.7,0.3c-0.6,0.2-1.1,0.5-1.5,0.9s-0.8,0.9-1.1,1.4c-0.3,0.6-0.4,1.2-0.4,1.9v10.6
		c0,0.4-0.2,0.6-0.6,0.6h-1.5c-0.5,0-0.7-0.2-0.7-0.6v-17c0-0.2,0.1-0.3,0.2-0.5c0.1-0.1,0.3-0.2,0.4-0.2h1.5c0.2,0,0.4,0.1,0.5,0.2
		c0.1,0.1,0.2,0.3,0.2,0.4L83.6,175.7L83.6,175.7z"/>
	<path class="st0" d="M123.2,174.1c0.2,0.5,0.4,1.1,0.7,1.8c0.3,0.7,0.6,1.5,0.9,2.4s0.7,1.7,1,2.6c0.4,0.9,0.7,1.8,1,2.6
		c0.3,0.8,0.6,1.6,0.9,2.3c0.3,0.7,0.5,1.2,0.7,1.6c0.2-0.4,0.4-0.9,0.6-1.6c0.3-0.7,0.6-1.4,0.9-2.3s0.7-1.7,1-2.6s0.7-1.8,1-2.7
		s0.6-1.7,0.9-2.4c0.3-0.7,0.5-1.3,0.7-1.8c0.1-0.2,0.2-0.3,0.3-0.4c0.1-0.1,0.3-0.1,0.5-0.1h1.6c0.4,0,0.6,0.2,0.6,0.5
		c0,0,0,0.1,0,0.1c0,0,0,0.1,0,0.1c0,0,0,0.1,0,0.2l-6.8,16.8c0,0-0.1,0.1-0.1,0.2c0,0.1-0.1,0.1-0.1,0.2c0,0-0.1,0.1-0.2,0.1
		c-0.1,0-0.2,0.1-0.4,0.1H128c-0.2,0-0.3,0-0.4-0.1c-0.1,0-0.2-0.1-0.2-0.1c0,0-0.1-0.1-0.1-0.2c0-0.1,0-0.1-0.1-0.2l-6.9-16.8
		c0,0,0-0.1,0-0.1c0-0.1,0-0.2,0-0.3c0-0.3,0.2-0.5,0.7-0.5h1.5c0.2,0,0.3,0,0.5,0.1C123,173.8,123.1,173.9,123.2,174.1"/>
	<path class="st0" d="M153.1,187.6c0.1-0.1,0.2-0.1,0.3-0.2c0.1-0.1,0.2-0.1,0.3-0.1c0.1,0,0.3,0.1,0.4,0.3c0.2,0.3,0.3,0.5,0.5,0.6
		c0.1,0.2,0.2,0.3,0.3,0.4c0.1,0.1,0.1,0.2,0.2,0.2c0,0.1,0.1,0.1,0.1,0.2c0,0.1,0,0.1,0,0.2c0,0.1,0,0.2-0.1,0.3
		c-0.1,0.1-0.2,0.3-0.4,0.4c-0.4,0.3-0.8,0.6-1.3,0.9c-0.4,0.3-0.9,0.5-1.4,0.7c-0.5,0.2-1,0.3-1.5,0.4c-0.5,0.1-1.1,0.2-1.7,0.2
		c-0.8,0-1.7-0.1-2.5-0.3s-1.5-0.6-2.3-1c-0.7-0.4-1.3-0.9-1.9-1.5c-0.6-0.6-1.1-1.2-1.5-1.9c-0.4-0.7-0.7-1.4-1-2.3
		c-0.2-0.8-0.3-1.6-0.3-2.5s0.1-1.7,0.3-2.5c0.2-0.8,0.5-1.6,0.9-2.3c0.4-0.7,0.9-1.3,1.4-1.9c0.6-0.6,1.2-1.1,1.9-1.5
		c0.7-0.4,1.5-0.7,2.3-1c0.8-0.2,1.7-0.3,2.6-0.3c0.7,0,1.4,0.1,2.1,0.2c0.7,0.2,1.4,0.4,2,0.7c0.6,0.3,1.3,0.7,1.8,1.2
		c0.6,0.5,1.1,1,1.5,1.6c0.6,0.8,1.1,1.8,1.4,2.8s0.4,2.3,0.4,3.6c0,0.5-0.2,0.7-0.6,0.7h-15.1c0.2,0.8,0.4,1.5,0.8,2.1
		c0.4,0.6,0.9,1.2,1.5,1.7c0.6,0.5,1.2,0.9,1.9,1.1c0.7,0.3,1.4,0.4,2.2,0.4c0.5,0,1,0,1.4-0.2c0.4-0.1,0.8-0.2,1.2-0.4
		c0.3-0.2,0.7-0.4,1-0.6C152.5,188.1,152.8,187.9,153.1,187.6L153.1,187.6L153.1,187.6z M145.2,177c-0.7,0.5-1.4,1.1-1.9,1.8
		c-0.5,0.7-0.9,1.6-1.1,2.5h13c-0.1-0.8-0.3-1.5-0.7-2.2c-0.4-0.6-0.9-1.2-1.5-1.7s-1.2-0.8-2-1.1c-0.7-0.3-1.5-0.4-2.3-0.4
		c-0.6,0-1.2,0.1-1.8,0.2C146.3,176.4,145.8,176.6,145.2,177"/>
	<path class="st0" d="M186.2,170.4c0.2,0,0.3,0,0.5,0.2c0.1,0.1,0.2,0.3,0.2,0.5v1.4c0,0.2-0.1,0.4-0.2,0.5
		c-0.1,0.1-0.3,0.2-0.5,0.2h-6v17.9c0,0.2-0.1,0.3-0.2,0.5c-0.1,0.1-0.3,0.2-0.5,0.2h-1.4c-0.2,0-0.3-0.1-0.5-0.2
		c-0.1-0.1-0.2-0.3-0.2-0.5v-17.9h-6c-0.2,0-0.3-0.1-0.5-0.2c-0.1-0.1-0.2-0.3-0.2-0.5v-1.4c0-0.2,0.1-0.3,0.2-0.5
		c0.1-0.1,0.3-0.2,0.5-0.2L186.2,170.4L186.2,170.4z"/>
	<path class="st0" d="M203.9,187.6c0.1-0.1,0.2-0.1,0.3-0.2c0.1-0.1,0.2-0.1,0.3-0.1c0.1,0,0.3,0.1,0.4,0.3c0.2,0.3,0.3,0.5,0.5,0.6
		c0.1,0.2,0.2,0.3,0.3,0.4c0.1,0.1,0.1,0.2,0.2,0.2c0,0.1,0.1,0.1,0.1,0.2c0,0.1,0,0.1,0,0.2c0,0.1,0,0.2-0.1,0.3
		c-0.1,0.1-0.2,0.3-0.4,0.4c-0.4,0.3-0.8,0.6-1.3,0.9c-0.4,0.3-0.9,0.5-1.4,0.7c-0.5,0.2-1,0.3-1.5,0.4c-0.5,0.1-1.1,0.2-1.7,0.2
		c-0.8,0-1.7-0.1-2.5-0.3s-1.5-0.6-2.3-1c-0.7-0.4-1.3-0.9-1.9-1.5c-0.6-0.6-1.1-1.2-1.5-1.9c-0.4-0.7-0.7-1.4-1-2.3
		c-0.2-0.8-0.3-1.6-0.3-2.5s0.1-1.7,0.3-2.5c0.2-0.8,0.5-1.6,0.9-2.3c0.4-0.7,0.9-1.3,1.4-1.9c0.6-0.6,1.2-1.1,1.9-1.5
		c0.7-0.4,1.5-0.7,2.3-1c0.8-0.2,1.7-0.3,2.6-0.3c0.7,0,1.4,0.1,2.1,0.2c0.7,0.2,1.4,0.4,2,0.7c0.6,0.3,1.3,0.7,1.8,1.2
		c0.6,0.5,1.1,1,1.5,1.6c0.6,0.8,1.1,1.8,1.4,2.8s0.4,2.3,0.4,3.6c0,0.5-0.2,0.7-0.6,0.7h-15.1c0.2,0.8,0.4,1.5,0.8,2.1
		c0.4,0.6,0.9,1.2,1.5,1.7c0.6,0.5,1.2,0.9,1.9,1.1c0.7,0.3,1.4,0.4,2.2,0.4c0.5,0,1,0,1.4-0.2c0.4-0.1,0.8-0.2,1.2-0.4
		c0.3-0.2,0.7-0.4,1-0.6C203.3,188.1,203.6,187.9,203.9,187.6L203.9,187.6L203.9,187.6z M196,177c-0.7,0.5-1.4,1.1-1.9,1.8
		c-0.5,0.7-0.9,1.6-1.1,2.5h13c-0.1-0.8-0.3-1.5-0.7-2.2c-0.4-0.6-0.9-1.2-1.5-1.7s-1.2-0.8-2-1.1c-0.7-0.3-1.5-0.4-2.3-0.4
		c-0.6,0-1.2,0.1-1.8,0.2C197.2,176.4,196.6,176.6,196,177"/>
	<path class="st0" d="M213.4,168.7c0-0.2,0.1-0.3,0.2-0.4c0.1-0.1,0.3-0.2,0.5-0.2h1.5c0.2,0,0.3,0.1,0.5,0.2
		c0.1,0.1,0.2,0.3,0.2,0.5v13.1l7.5-7.9c0.1-0.1,0.2-0.2,0.3-0.3s0.3-0.1,0.4-0.1h2.2c0.2,0,0.3,0,0.4,0.1c0.1,0.1,0.1,0.1,0.1,0.2
		c0,0.2,0,0.3-0.2,0.5l-7,7.3l7.9,9.4h0c0.1,0.1,0.2,0.2,0.2,0.3c0,0.1,0,0.2,0,0.3c0,0.1,0,0.2-0.1,0.2c-0.1,0-0.2,0-0.3,0h-2.5
		c-0.1,0-0.3,0-0.4-0.1c-0.1-0.1-0.2-0.2-0.3-0.4l-6.4-7.8l-1.9,1.9v5.7c0,0.4-0.2,0.6-0.7,0.6h-1.5c-0.4,0-0.6-0.2-0.6-0.6
		L213.4,168.7L213.4,168.7z"/>
	<path class="st0" d="M234.9,175.9c0.3-0.3,0.6-0.7,0.9-1c0.3-0.3,0.7-0.6,1.1-0.9c0.4-0.3,0.9-0.5,1.4-0.6c0.5-0.2,1.1-0.2,1.7-0.2
		c1.2,0,2.2,0.2,3.1,0.6c0.9,0.4,1.7,1,2.3,1.7c0.6,0.7,1.1,1.5,1.4,2.5c0.3,0.9,0.5,2,0.5,3v9.8c0,0.3-0.1,0.6-0.3,0.7
		c-0.2,0.2-0.4,0.2-0.6,0.2h-1.1c-0.3,0-0.6-0.1-0.7-0.2c-0.1-0.1-0.2-0.4-0.2-0.7V181c0-0.6-0.1-1.2-0.2-1.8
		c-0.2-0.6-0.4-1.1-0.8-1.6c-0.4-0.5-0.8-0.9-1.4-1.2s-1.3-0.5-2.2-0.5c-0.6,0-1.1,0.1-1.7,0.3c-0.6,0.2-1.1,0.5-1.6,0.9
		c-0.5,0.4-0.9,0.9-1.2,1.4c-0.3,0.6-0.5,1.2-0.5,1.9v10.6c0,0.4-0.2,0.6-0.6,0.6h-1.5c-0.5,0-0.7-0.2-0.7-0.6v-17
		c0-0.2,0.1-0.3,0.2-0.5c0.1-0.1,0.3-0.2,0.4-0.2h1.5c0.2,0,0.4,0.1,0.5,0.2c0.1,0.1,0.2,0.3,0.2,0.4L234.9,175.9L234.9,175.9z"/>
	<path class="st0" d="M250.9,182.7c0-1.3,0.3-2.5,0.8-3.7c0.5-1.1,1.2-2.1,2-3s1.9-1.5,3-2c1.1-0.5,2.4-0.7,3.6-0.7
		c0.8,0,1.7,0.1,2.5,0.3c0.8,0.2,1.5,0.6,2.3,1c0.7,0.4,1.3,0.9,1.9,1.5c0.6,0.6,1.1,1.2,1.5,1.9c0.4,0.7,0.7,1.5,1,2.3
		c0.2,0.8,0.3,1.6,0.3,2.5s-0.1,1.7-0.3,2.5c-0.2,0.8-0.6,1.5-1,2.3c-0.4,0.7-0.9,1.3-1.5,1.9c-0.6,0.6-1.2,1.1-1.9,1.5
		c-0.7,0.4-1.4,0.7-2.3,1s-1.6,0.3-2.5,0.3c-0.8,0-1.7-0.1-2.5-0.3c-0.8-0.2-1.5-0.5-2.3-1c-0.7-0.4-1.3-0.9-1.9-1.5
		c-0.6-0.6-1.1-1.2-1.5-1.9c-0.4-0.7-0.7-1.4-1-2.3S250.9,183.5,250.9,182.7 M253.8,182.7c0,0.9,0.2,1.8,0.5,2.6s0.8,1.5,1.4,2.1
		c0.6,0.6,1.3,1.1,2.1,1.5s1.7,0.6,2.5,0.6s1.7-0.2,2.5-0.6c0.8-0.4,1.5-0.8,2.1-1.5s1.1-1.3,1.4-2.1c0.3-0.8,0.5-1.7,0.5-2.6
		c0-0.9-0.2-1.7-0.5-2.6c-0.3-0.8-0.8-1.5-1.4-2.2c-0.6-0.6-1.3-1.1-2.1-1.5s-1.6-0.6-2.5-0.6s-1.8,0.2-2.5,0.6s-1.5,0.9-2.1,1.5
		s-1.1,1.4-1.4,2.2C254,180.9,253.8,181.8,253.8,182.7"/>
	<path class="st0" d="M277.1,191.1c0,0.4-0.2,0.6-0.6,0.6h-1.5c-0.5,0-0.7-0.2-0.7-0.6v-22.4c0-0.2,0.1-0.3,0.2-0.5
		c0.1-0.1,0.3-0.2,0.4-0.2h1.5c0.2,0,0.4,0.1,0.5,0.2c0.1,0.1,0.2,0.3,0.2,0.4V191.1L277.1,191.1z"/>
	<path class="st0" d="M281.7,182.7c0-1.3,0.3-2.5,0.8-3.7c0.5-1.1,1.2-2.1,2-3c0.9-0.9,1.9-1.5,3-2c1.1-0.5,2.4-0.7,3.6-0.7
		c0.8,0,1.7,0.1,2.5,0.3s1.5,0.6,2.3,1c0.7,0.4,1.3,0.9,1.9,1.5c0.6,0.6,1.1,1.2,1.5,1.9c0.4,0.7,0.7,1.5,1,2.3
		c0.2,0.8,0.3,1.6,0.3,2.5s-0.1,1.7-0.3,2.5c-0.2,0.8-0.6,1.5-1,2.3s-0.9,1.3-1.5,1.9c-0.6,0.6-1.2,1.1-1.9,1.5
		c-0.7,0.4-1.4,0.7-2.3,1s-1.6,0.3-2.5,0.3c-0.8,0-1.7-0.1-2.5-0.3s-1.6-0.5-2.3-1c-0.7-0.4-1.3-0.9-1.9-1.5
		c-0.6-0.6-1.1-1.2-1.5-1.9c-0.4-0.7-0.7-1.4-1-2.3C281.8,184.4,281.7,183.5,281.7,182.7 M284.5,182.7c0,0.9,0.2,1.8,0.5,2.6
		c0.3,0.8,0.8,1.5,1.4,2.1c0.6,0.6,1.3,1.1,2.1,1.5c0.8,0.4,1.7,0.6,2.6,0.6c0.9,0,1.7-0.2,2.5-0.6c0.8-0.4,1.5-0.8,2.1-1.5
		c0.6-0.6,1.1-1.3,1.4-2.1c0.3-0.8,0.5-1.7,0.5-2.6c0-0.9-0.2-1.7-0.5-2.6c-0.3-0.8-0.8-1.5-1.4-2.2c-0.6-0.6-1.3-1.1-2.1-1.5
		c-0.8-0.4-1.6-0.6-2.5-0.6s-1.8,0.2-2.6,0.6s-1.5,0.9-2.1,1.5s-1.1,1.4-1.4,2.2C284.7,180.9,284.5,181.8,284.5,182.7"/>
	<path class="st0" d="M303.1,197.5c-0.2,0-0.4-0.1-0.5-0.2c-0.1-0.1-0.2-0.3-0.2-0.5v-0.9c0-0.2,0.1-0.4,0.2-0.6
		c0.1-0.1,0.3-0.2,0.6-0.2h0.1c0.3,0,0.5-0.1,0.7-0.3s0.4-0.3,0.6-0.6c0.2-0.2,0.3-0.5,0.4-0.7c0.1-0.3,0.1-0.5,0.1-0.8v-18.5
		c0-0.3,0.1-0.4,0.2-0.6c0.2-0.1,0.3-0.2,0.6-0.2h1.4c0.3,0,0.4,0.1,0.6,0.2c0.1,0.1,0.2,0.3,0.2,0.6v18.5c0,0.6-0.1,1.3-0.4,1.8
		c-0.3,0.6-0.6,1.1-1.1,1.5c-0.5,0.4-1,0.8-1.6,1C304.3,197.4,303.7,197.5,303.1,197.5 M304.9,168.7c0-0.4,0.2-0.6,0.6-0.6h1.7
		c0.1,0,0.2,0,0.3,0c0.1,0,0.2,0,0.2,0.1c0,0,0.1,0.1,0.1,0.2c0,0.1,0,0.2,0,0.4v1.2c0,0.1,0,0.2,0,0.3c0,0.1,0,0.2-0.1,0.3
		c0,0.1-0.1,0.2-0.2,0.2c-0.1,0.1-0.2,0.1-0.4,0.1h-1.7c-0.4-0.1-0.6-0.3-0.6-0.8L304.9,168.7L304.9,168.7z"/>
	<path class="st0" d="M316,170.2c0,0.4-0.2,0.6-0.6,0.6h-1.5c-0.5,0-0.7-0.2-0.7-0.6v-1.5c0-0.2,0.1-0.3,0.2-0.5
		c0.1-0.1,0.3-0.2,0.4-0.2h1.5c0.2,0,0.4,0.1,0.5,0.2c0.1,0.1,0.2,0.3,0.2,0.5V170.2L316,170.2z M316,191.1c0,0.4-0.2,0.6-0.6,0.6
		h-1.5c-0.5,0-0.7-0.2-0.7-0.6v-17c0-0.2,0.1-0.3,0.2-0.5c0.1-0.1,0.3-0.2,0.4-0.2h1.5c0.2,0,0.4,0.1,0.5,0.2
		c0.1,0.1,0.2,0.3,0.2,0.4V191.1z"/>
	<path class="st0" d="M329.3,171.1c-0.1-0.2-0.2-0.4-0.2-0.5c0-0.1,0.1-0.2,0.4-0.2h2.3c0.1,0,0.2,0,0.2,0c0.1,0,0.1,0,0.2,0.1
		c0,0,0.1,0.1,0.1,0.2c0,0.1,0.1,0.2,0.2,0.3l5.1,8.9h0l5.2-9c0.1-0.2,0.2-0.3,0.3-0.4c0.1,0,0.2-0.1,0.3-0.1h2.4
		c0.2,0,0.3,0.1,0.3,0.3c0,0.1,0,0.2-0.2,0.4c-0.6,0.9-1.2,1.9-1.8,2.9c-0.6,1-1.2,2-1.7,3c-0.6,1-1.2,2-1.7,3c-0.6,1-1.2,2-1.8,2.9
		v8.3c0,0.5-0.2,0.7-0.6,0.7h-1.5c-0.4,0-0.6-0.2-0.6-0.7v-8.2L329.3,171.1L329.3,171.1z"/>
	<path class="st0" d="M364.8,189.3c-0.8,0.8-1.8,1.5-2.9,2c-1.1,0.5-2.3,0.7-3.5,0.7c-0.8,0-1.7-0.1-2.5-0.3c-0.8-0.2-1.6-0.6-2.3-1
		c-0.7-0.4-1.3-0.9-1.9-1.5c-0.6-0.6-1.1-1.2-1.5-1.9c-0.4-0.7-0.7-1.5-1-2.3c-0.2-0.8-0.3-1.6-0.3-2.5s0.1-1.7,0.3-2.5
		c0.2-0.8,0.6-1.5,1-2.3c0.4-0.7,0.9-1.3,1.5-1.9c0.6-0.6,1.2-1.1,1.9-1.5c0.7-0.4,1.4-0.7,2.2-1c0.8-0.2,1.6-0.3,2.5-0.3
		c1.3,0,2.5,0.2,3.5,0.7c1.1,0.5,2,1.1,2.9,2v-1.7c0-0.4,0.2-0.6,0.6-0.6h1.5c0.5,0,0.7,0.2,0.7,0.6v17c0,0.2-0.1,0.3-0.2,0.5
		c-0.1,0.1-0.3,0.2-0.4,0.2h-1.5c-0.2,0-0.4-0.1-0.5-0.2c-0.1-0.1-0.2-0.3-0.2-0.4L364.8,189.3L364.8,189.3z M365,182.6
		c0-0.9-0.2-1.8-0.5-2.6c-0.3-0.8-0.8-1.5-1.4-2.1c-0.6-0.6-1.3-1.1-2.1-1.5s-1.7-0.6-2.5-0.6s-1.7,0.2-2.5,0.6
		c-0.8,0.4-1.5,0.8-2.1,1.5c-0.6,0.6-1.1,1.3-1.4,2.1c-0.3,0.8-0.5,1.7-0.5,2.6s0.2,1.7,0.5,2.6c0.3,0.8,0.8,1.5,1.4,2.2
		c0.6,0.6,1.3,1.1,2.1,1.5c0.8,0.4,1.6,0.6,2.5,0.6s1.7-0.2,2.5-0.6c0.8-0.4,1.5-0.9,2.1-1.5c0.6-0.6,1.1-1.4,1.4-2.2
		C364.8,184.4,365,183.5,365,182.6"/>
	<path class="st0" d="M377.1,192c-0.4,0-0.9,0-1.3-0.2c-0.4-0.1-0.8-0.3-1.2-0.6c-0.4-0.3-0.6-0.6-0.9-1.1c-0.2-0.5-0.3-1-0.3-1.7
		V176h-1.7c-0.2,0-0.4,0-0.5-0.1c-0.1-0.1-0.2-0.2-0.2-0.5v-1.3c0-0.3,0.1-0.4,0.2-0.5c0.1-0.1,0.3-0.1,0.5-0.1h1.7v-3.1
		c0-0.2,0-0.3,0.1-0.3c0.1-0.1,0.2-0.1,0.3-0.2c0.1,0,0.2,0,0.3-0.1c0.2,0,0.4-0.1,0.6-0.1c0.2,0,0.5-0.1,0.7-0.1c0.2,0,0.3,0,0.4,0
		c0.1,0,0.2,0.1,0.2,0.2c0,0.1,0.1,0.2,0.1,0.3c0,0.1,0,0.2,0,0.3v3.1h2c0.2,0,0.4,0,0.5,0.1c0.1,0.1,0.2,0.3,0.2,0.5v1.1
		c0,0.3,0,0.4-0.2,0.5c-0.1,0.1-0.3,0.2-0.5,0.2h-2v12.4c0,0.3,0.1,0.6,0.2,0.7c0.2,0.1,0.4,0.2,0.7,0.2c0.2,0,0.4,0.1,0.6,0.2
		c0.1,0.1,0.2,0.3,0.2,0.6v1.2c0,0.2-0.1,0.4-0.2,0.5C377.5,191.9,377.3,192,377.1,192"/>
	<path class="st0" d="M385.3,191.1c0,0.4-0.2,0.6-0.6,0.6h-1.5c-0.5,0-0.7-0.2-0.7-0.6v-17c0-0.2,0.1-0.3,0.2-0.5
		c0.1-0.1,0.3-0.2,0.4-0.2h1.5c0.2,0,0.4,0.1,0.5,0.2c0.1,0.1,0.2,0.3,0.2,0.4V191.1z"/>
	<path class="st0" d="M393.4,175.5c0.1-0.2,0.3-0.5,0.5-0.7c0.2-0.3,0.5-0.5,0.8-0.7c0.3-0.2,0.7-0.4,1.1-0.6
		c0.4-0.1,0.8-0.2,1.3-0.2c0.5,0,1,0,1.4,0.1c0.4,0,0.8,0.1,1.2,0.2c0.4,0.1,0.7,0.3,1.1,0.4c0.3,0.2,0.7,0.4,1.1,0.7
		c0.1,0.1,0.2,0.2,0.4,0.3c0.1,0.1,0.2,0.3,0.2,0.5c0,0.1,0,0.2-0.1,0.3l-0.8,1.3c-0.1,0.2-0.3,0.2-0.4,0.2c-0.1,0-0.1,0-0.2-0.1
		c-0.1,0-0.1-0.1-0.2-0.2c-0.6-0.4-1.2-0.7-1.7-0.9c-0.6-0.2-1.1-0.3-1.8-0.3c-0.5,0-0.9,0.1-1.4,0.3c-0.4,0.2-0.8,0.4-1.2,0.8
		c-0.3,0.3-0.6,0.8-0.8,1.3c-0.2,0.5-0.3,1.1-0.3,1.7v11.3c0,0.4-0.2,0.6-0.6,0.6h-1.5c-0.4,0-0.7-0.2-0.7-0.6v-17
		c0-0.2,0.1-0.3,0.2-0.5c0.1-0.1,0.3-0.2,0.4-0.2h1.5c0.2,0,0.4,0.1,0.5,0.2c0.1,0.1,0.2,0.3,0.2,0.4L393.4,175.5L393.4,175.5z"/>
	<path class="st0" d="M409.1,191.1c0,0.4-0.2,0.6-0.6,0.6H407c-0.5,0-0.7-0.2-0.7-0.6v-17c0-0.2,0.1-0.3,0.2-0.5
		c0.1-0.1,0.3-0.2,0.4-0.2h1.5c0.2,0,0.4,0.1,0.5,0.2c0.1,0.1,0.2,0.3,0.2,0.4V191.1z"/>
	<path class="st0" d="M417.3,175.7c0.3-0.3,0.6-0.6,0.9-0.9c0.3-0.3,0.6-0.6,1-0.8c0.4-0.2,0.8-0.4,1.3-0.5c0.5-0.1,1-0.2,1.7-0.2
		c1.5,0,2.8,0.3,3.7,0.8c1,0.6,1.7,1.4,2.3,2.4c0.3-0.6,0.6-1.1,1-1.5c0.4-0.4,0.9-0.8,1.4-1s1.1-0.5,1.7-0.6
		c0.6-0.1,1.2-0.2,1.9-0.2c1.2,0,2.2,0.2,3.1,0.6c0.9,0.4,1.7,1,2.3,1.7c0.6,0.7,1.1,1.5,1.4,2.5c0.3,0.9,0.5,2,0.5,3v9.8
		c0,0.3-0.1,0.6-0.3,0.7c-0.2,0.2-0.4,0.2-0.6,0.2h-1.1c-0.4,0-0.6-0.1-0.7-0.2c-0.1-0.1-0.2-0.4-0.2-0.7V181c0-0.6-0.1-1.2-0.2-1.8
		s-0.4-1.1-0.8-1.6c-0.4-0.5-0.8-0.9-1.4-1.2c-0.6-0.3-1.3-0.5-2.2-0.5c-0.7,0-1.4,0.1-2,0.3c-0.6,0.2-1.1,0.6-1.5,1
		c-0.4,0.4-0.7,1-0.9,1.6c-0.2,0.6-0.3,1.3-0.3,2.1v9.8c0,0.3-0.1,0.6-0.3,0.7c-0.2,0.2-0.4,0.2-0.6,0.2h-1.1
		c-0.4,0-0.6-0.1-0.7-0.2c-0.1-0.1-0.2-0.4-0.2-0.7V181c0-0.6-0.1-1.2-0.2-1.8s-0.4-1.1-0.8-1.6c-0.4-0.5-0.8-0.9-1.4-1.2
		c-0.6-0.3-1.3-0.5-2.2-0.5c-0.6,0-1.1,0.1-1.7,0.3c-0.6,0.2-1.1,0.5-1.5,0.9c-0.4,0.4-0.8,0.9-1.1,1.4c-0.3,0.6-0.4,1.2-0.4,1.9
		v10.6c0,0.4-0.2,0.6-0.6,0.6h-1.5c-0.5,0-0.7-0.2-0.7-0.6v-17c0-0.2,0.1-0.3,0.2-0.5c0.1-0.1,0.3-0.2,0.4-0.2h1.5
		c0.2,0,0.4,0.1,0.5,0.2c0.1,0.1,0.2,0.3,0.2,0.4L417.3,175.7L417.3,175.7z"/>
	<path class="st0" d="M457.7,191.2c-0.1,0.2-0.2,0.3-0.3,0.4c-0.1,0.1-0.3,0.1-0.5,0.1h-1.5c-0.4,0-0.7-0.2-0.7-0.5
		c0-0.1,0-0.1,0-0.2s0-0.1,0-0.1c0,0,0-0.1,0-0.1l8.3-19.9c0,0,0-0.1,0.1-0.2c0-0.1,0.1-0.1,0.1-0.2c0,0,0.1-0.1,0.2-0.1
		c0.1,0,0.2-0.1,0.4-0.1h0.9c0.1,0,0.3,0,0.3,0.1c0.1,0,0.2,0.1,0.2,0.1c0,0.1,0.1,0.1,0.1,0.2c0,0.1,0,0.1,0.1,0.2l8.2,19.9
		c0,0,0,0.1,0,0.1s0,0.1,0,0.1s0,0.1,0,0.1c0,0.3-0.2,0.5-0.7,0.5h-1.5c-0.2,0-0.3,0-0.5-0.1c-0.1-0.1-0.2-0.2-0.3-0.4l-1.6-3.9
		h-10.1c-0.3,0.8-0.6,1.6-0.9,2.3C458,190.3,457.8,190.8,457.7,191.2 M460.3,184.5h7.8l-3.9-9.8L460.3,184.5L460.3,184.5z"/>
	<path class="st0" d="M480.6,191.1c0,0.4-0.2,0.6-0.6,0.6h-1.5c-0.4,0-0.7-0.2-0.7-0.6v-1.5c0-0.2,0.1-0.3,0.2-0.5
		c0.1-0.1,0.3-0.2,0.5-0.2h1.5c0.2,0,0.4,0.1,0.5,0.2s0.2,0.3,0.2,0.5L480.6,191.1L480.6,191.1z"/>
	<path class="st0" d="M498.4,175.1c-0.1-0.1-0.4-0.3-0.7-0.5c-0.3-0.3-0.7-0.5-1.1-0.8s-0.9-0.5-1.5-0.7c-0.6-0.2-1.1-0.3-1.8-0.3
		c-0.8,0-1.4,0.1-2,0.3c-0.6,0.2-1,0.4-1.4,0.7c-0.4,0.3-0.6,0.6-0.8,1c-0.2,0.4-0.3,0.8-0.3,1.1c0,0.5,0.2,1,0.5,1.4
		c0.4,0.4,0.8,0.7,1.4,0.9c0.6,0.3,1.2,0.5,2,0.7c0.7,0.2,1.5,0.4,2.3,0.7c0.8,0.2,1.5,0.5,2.3,0.8s1.4,0.7,2,1.1
		c0.6,0.4,1.1,1,1.4,1.6c0.4,0.6,0.5,1.4,0.5,2.2c0,1-0.2,1.9-0.6,2.7c-0.4,0.8-1,1.5-1.7,2.1c-0.7,0.6-1.6,1-2.5,1.3
		c-1,0.3-2,0.5-3.1,0.5c-0.7,0-1.5-0.1-2.2-0.3c-0.7-0.2-1.4-0.4-2.1-0.7c-0.7-0.3-1.3-0.7-1.9-1.2c-0.6-0.5-1.1-1-1.6-1.6
		c-0.1-0.2-0.2-0.3-0.2-0.5c0-0.2,0.1-0.3,0.3-0.4l1.1-0.9c0.2-0.1,0.3-0.2,0.5-0.2c0.2,0,0.3,0.1,0.4,0.3l0.2,0.2
		c0.4,0.5,0.9,0.8,1.4,1.2s1,0.6,1.5,0.8c0.5,0.2,1,0.4,1.5,0.5c0.5,0.1,0.9,0.2,1.2,0.2c0.6,0,1.2-0.1,1.8-0.2
		c0.6-0.2,1.2-0.4,1.7-0.7c0.5-0.3,0.9-0.7,1.2-1.2c0.3-0.5,0.5-1.1,0.5-1.7c0-0.6-0.2-1-0.5-1.4s-0.8-0.7-1.3-1s-1.2-0.5-1.9-0.8
		s-1.5-0.5-2.3-0.7c-1.1-0.3-2.1-0.7-3-1.1s-1.5-0.8-2-1.2c-0.5-0.4-0.9-0.9-1.2-1.5c-0.3-0.6-0.4-1.2-0.4-1.9
		c0-0.9,0.2-1.7,0.5-2.4c0.3-0.7,0.8-1.4,1.5-1.9c0.6-0.5,1.4-0.9,2.3-1.2c0.9-0.3,1.9-0.4,3-0.4c0.6,0,1.2,0.1,1.9,0.2
		c0.6,0.2,1.3,0.4,1.9,0.6c0.6,0.3,1.2,0.6,1.7,1c0.5,0.4,1,0.8,1.4,1.3c0.1,0.1,0.2,0.3,0.2,0.5c0,0.2-0.1,0.3-0.2,0.5l-1,1
		c-0.2,0.1-0.3,0.2-0.5,0.2C498.7,175.3,498.6,175.2,498.4,175.1 M493.7,191.7c-0.2,0.1-0.3,0.3-0.3,0.5c0,0.2,0.1,0.3,0.2,0.4
		c0.1,0.1,0.3,0.3,0.6,0.4c0.2,0.1,0.5,0.3,0.7,0.4c0.3,0.2,0.5,0.3,0.7,0.6c0.2,0.2,0.4,0.4,0.6,0.7c0.1,0.3,0.2,0.6,0.2,0.9
		c0,0.3-0.1,0.7-0.2,1c-0.1,0.3-0.4,0.6-0.7,0.8c-0.3,0.3-0.7,0.5-1.2,0.8c-0.5,0.2-1.1,0.5-1.8,0.7h-0.1c-0.1,0-0.3-0.1-0.4-0.2
		c-0.1-0.1-0.2-0.3-0.3-0.4c-0.1-0.2-0.1-0.3-0.2-0.5c0-0.2-0.1-0.3-0.1-0.4c0-0.1,0-0.2,0.2-0.3c1.6-0.4,2.5-0.9,2.5-1.5
		c0-0.2-0.1-0.4-0.2-0.6c-0.1-0.2-0.3-0.3-0.5-0.5c-0.2-0.1-0.4-0.3-0.7-0.4c-0.3-0.1-0.5-0.3-0.7-0.5c-0.2-0.2-0.4-0.4-0.5-0.6
		c-0.1-0.2-0.2-0.5-0.2-0.7c0-0.1,0-0.2,0-0.3c0-0.1,0.1-0.2,0.2-0.4L493.7,191.7L493.7,191.7z"/>
	<path class="st0" d="M508.8,191.1c0,0.4-0.2,0.6-0.6,0.6h-1.5c-0.4,0-0.7-0.2-0.7-0.6v-1.5c0-0.2,0.1-0.3,0.2-0.5
		c0.1-0.1,0.3-0.2,0.5-0.2h1.5c0.2,0,0.4,0.1,0.5,0.2s0.2,0.3,0.2,0.5L508.8,191.1L508.8,191.1z"/>
	<path class="st0" d="M107.3,37.5c0-1.5,0.5-2.6,1.5-3.3c1-0.7,2.4-1.4,4.2-2.1l16.3-5.7c0.2,0,0.5-0.1,0.7-0.1h0.6
		c1.8,0,3,0.5,3.6,1.5c0.6,1,0.9,2.4,0.9,4.1l-0.1,22.6h12c1.5,0,2.8,0.5,3.7,1.4c1,0.9,1.4,2.3,1.4,4.1v13.9c0,2-0.5,3.5-1.4,4.4
		c-1,0.9-2.2,1.4-3.7,1.4h-12l0.1,57.7c0,1.8-0.5,3.2-1.6,4.1c-1.1,0.9-2.5,1.4-4.4,1.4h-16.2c-3.7,0-5.5-1.8-5.5-5.5l-0.1-57.7H102
		c-3.7,0-5.5-1.9-5.5-5.8V60c0-3.6,1.8-5.5,5.5-5.5h5.2L107.3,37.5L107.3,37.5z"/>
	<path class="st0" d="M255.1,137.6c0,0.8-0.1,1.6-0.4,2.3s-0.8,1.3-1.4,1.8c-0.5,0.5-1.1,0.9-1.9,1c-0.7,0.1-1.3,0.2-1.9,0.2h-14.1
		c-1,0-1.8-0.1-2.4-0.4c-0.6-0.3-1.1-0.6-1.5-1.1c-0.4-0.5-0.7-1.1-1-1.8c-0.3-0.7-0.5-1.4-0.8-2.3l-2.1-5.4
		c-1.3,1.3-2.7,2.7-4.2,4.1c-1.5,1.5-3.2,2.8-5.1,4.1c-1.8,1.2-3.8,2.3-6,3.1s-4.5,1.3-6.9,1.3c-4.4,0-8.5-0.6-12.5-1.7
		c-4-1.1-7.7-2.7-11.2-4.7s-6.6-4.5-9.4-7.3c-2.8-2.8-5.3-6-7.3-9.5s-3.6-7.3-4.7-11.3c-1.1-4-1.7-8.3-1.7-12.7
		c0-6.7,1.2-12.8,3.7-18.6c2.4-5.7,5.8-10.7,10-14.9s9.2-7.6,14.9-10c5.7-2.4,11.8-3.6,18.3-3.6c3,0,5.7,0.4,8.2,1.3
		c2.5,0.9,4.8,2,6.8,3.5s3.9,3.1,5.5,4.9c1.7,1.8,3.1,3.7,4.4,5.5l2.8-8.7c0.5-1.2,0.9-2.2,1.2-2.9c0.3-0.7,0.6-1.3,1-1.7
		c0.4-0.4,0.8-0.6,1.3-0.7c0.5-0.1,1.3-0.2,2.2-0.2h10.7c0.5,0,1.1,0.1,1.9,0.2s1.3,0.5,1.9,1c0.7,0.5,1.1,1.1,1.4,1.8
		c0.3,0.7,0.4,1.4,0.4,2.3L255.1,137.6L255.1,137.6z M184.4,97.4c0,3.2,0.5,6.1,1.5,8.9c1,2.8,2.4,5.1,4.2,7.1s4,3.6,6.6,4.8
		c2.6,1.2,5.4,1.8,8.5,1.8c3.1,0,6.2-0.6,8.9-1.8c2.8-1.2,5.1-2.8,7.2-4.8s3.6-4.4,4.8-7.1s1.7-5.7,1.7-8.9s-0.6-6-1.7-8.8
		s-2.7-5.2-4.8-7.3c-2-2.1-4.4-3.8-7.2-5c-2.8-1.2-5.7-1.8-8.9-1.8c-3.2,0-5.9,0.6-8.5,1.8s-4.8,2.9-6.6,5c-1.8,2.1-3.2,4.5-4.2,7.3
		C184.8,91.4,184.4,94.3,184.4,97.4"/>
	<path class="st0" d="M272.3,57c0-0.8,0.2-1.6,0.5-2.3c0.4-0.7,0.8-1.3,1.3-1.8c1.2-0.8,2.5-1.2,3.9-1.2h10.8c0.9,0,1.6,0.2,2.2,0.5
		c0.5,0.3,1,0.8,1.3,1.3c0.4,0.5,0.7,1.1,0.9,1.8c0.3,0.7,0.6,1.3,1,2c0.1,0.2,0.3,0.7,0.6,1.4s0.6,1.6,0.9,2.4
		c0.3,0.9,0.7,1.7,1,2.5c0.3,0.8,0.5,1.3,0.6,1.5c1.4-1.6,2.8-3.2,4.1-5c1.3-1.7,2.7-3.4,4.2-4.8c1.5-1.5,3.1-2.7,5-3.7
		c1.8-1,4-1.4,6.5-1.4s4.9,0.2,6.9,0.6c2,0.4,4,0.9,5.8,1.7s3.6,1.7,5.4,2.8c1.8,1.1,3.7,2.5,5.9,4c3.3,1.8,3.9,4.4,1.9,7.9
		l-6.5,11.1c-1,1.4-2.1,2.3-3.5,2.7c-1.4,0.3-2.9,0.1-4.5-0.6c-2.1-2-4.2-3.5-6.3-4.5c-2.1-1-4.6-1.5-7.3-1.5
		c-1.9,0-3.5,0.3-4.9,0.8c-1.4,0.5-2.7,1.3-3.8,2.2s-2.2,2.1-3.2,3.4c-1,1.3-2,2.8-3,4.5v52c0,1.8-0.4,3.2-1.3,4.1
		c-0.9,0.9-2.4,1.4-4.4,1.4h-16.2c-3.7,0-5.6-1.8-5.6-5.5L272.3,57L272.3,57z"/>
	<path class="st0" d="M360.5,37.5c0-1.5,0.5-2.6,1.5-3.3c1-0.7,2.4-1.4,4.2-2.1l16.3-5.7c0.2,0,0.5-0.1,0.7-0.1h0.6
		c1.8,0,3,0.5,3.6,1.5c0.6,1,0.9,2.4,0.9,4.1l-0.1,22.6h12c1.5,0,2.8,0.5,3.7,1.4c1,0.9,1.4,2.3,1.4,4.1v13.9c0,2-0.5,3.5-1.4,4.4
		c-1,0.9-2.2,1.4-3.7,1.4h-12l0.1,57.7c0,1.8-0.5,3.2-1.6,4.1c-1.1,0.9-2.5,1.4-4.4,1.4H366c-3.7,0-5.5-1.8-5.5-5.5l-0.1-57.7h-5.2
		c-3.7,0-5.5-1.9-5.5-5.8V60c0-3.6,1.8-5.5,5.5-5.5h5.2L360.5,37.5L360.5,37.5z"/>
	<path class="st0" d="M501.3,141.7c-0.6,0.5-1.3,0.9-2,1c-0.7,0.1-1.4,0.2-2,0.2h-10.8c-0.9,0-1.6-0.2-2.2-0.5s-1.1-0.7-1.6-1.3
		c-0.4-0.5-0.8-1.1-1.1-1.8c-0.3-0.7-0.5-1.4-0.7-2.1l-2.2-9.2c-0.7,1.5-1.8,3.2-3.1,5.1c-1.4,1.9-3.1,3.7-5.2,5.3
		c-2.1,1.7-4.6,3-7.5,4.2c-2.9,1.1-6.3,1.7-10.1,1.7c-5.5,0-10.4-1.1-14.9-3.2c-4.5-2.1-8.2-5-11.4-8.6c-3.1-3.6-5.6-7.9-7.3-12.7
		s-2.6-10-2.6-15.5v-47c0-1.8,0.4-3.2,1.2-4.1c0.8-0.9,2-1.4,3.8-1.4h16.6c2.1,0,3.5,0.3,4.2,1c0.8,0.7,1.1,2,1.1,4.1v46.8
		c0,2.1,0.5,4,1.4,5.9c0.9,1.8,2.2,3.5,3.7,4.9c1.5,1.4,3.3,2.5,5.2,3.3c1.9,0.8,3.9,1.2,5.9,1.2c1.7,0,3.5-0.4,5.4-1.2
		s3.5-1.9,5.1-3.3c1.6-1.4,2.8-3,3.8-4.8c1-1.8,1.5-3.8,1.5-5.9V57c0-0.8,0.2-1.6,0.5-2.4c0.3-0.8,0.8-1.4,1.4-1.9
		c0.6-0.4,1.2-0.6,1.8-0.8c0.6-0.1,1.2-0.2,1.9-0.2h16.2c2.1,0,3.5,0.5,4.5,1.5c0.9,1,1.4,2.3,1.4,4v80.4c0,0.9-0.2,1.7-0.6,2.5
		c-0.4,0.8-1,1.4-1.7,1.8L501.3,141.7L501.3,141.7z"/>
	<path class="st0" d="M522.3,52.6c0.6-0.5,1.3-0.9,1.9-1c0.7-0.1,1.3-0.2,1.9-0.2H537c0.9,0,1.7,0.1,2.3,0.4s1.1,0.7,1.5,1.2
		s0.7,1.1,1,1.7c0.3,0.6,0.5,1.4,0.8,2.1l3,8.7c1.3-1.7,2.7-3.5,4.1-5.3c1.4-1.8,3-3.4,4.8-4.9c1.9-1.5,4.1-2.7,6.7-3.6
		s5.7-1.4,9.5-1.4c6.6,0,12.6,1.2,18.1,3.6s10.3,5.7,14.3,10s7.1,9.2,9.4,14.9c2.3,5.7,3.4,11.9,3.4,18.6s-1.1,12.8-3.4,18.5
		c-2.3,5.7-5.4,10.7-9.4,15c-4,4.2-8.8,7.6-14.3,10c-5.5,2.4-11.6,3.7-18.1,3.7c-3.1,0-5.8-0.4-8-1.1c-2.3-0.7-4.2-1.7-6-2.9
		s-3.3-2.5-4.6-3.9c-1.3-1.4-2.7-2.9-3.9-4.3v33.5c0,1.4-0.4,2.7-1.3,3.7c-0.9,1-2.2,1.5-4,1.5h-16.4c-0.6,0-1.2-0.1-1.9-0.4
		c-0.7-0.2-1.3-0.6-1.9-1c-0.6-0.4-1.1-1-1.4-1.6c-0.4-0.6-0.6-1.4-0.6-2.2V56.6c0-1,0.2-1.7,0.5-2.4
		C521.3,53.7,521.8,53.1,522.3,52.6 M589.4,97.4c0-3.1-0.5-6-1.5-8.7s-2.4-5.2-4.2-7.2c-1.8-2.1-4-3.7-6.5-4.9
		c-2.5-1.2-5.3-1.8-8.4-1.8c-3.1,0-5.9,0.6-8.6,1.7S555,79.1,553,81c-2,1.9-3.7,4.2-5,6.9c-1.3,2.6-2,5.4-2.1,8.4v1.1
		c0,3.2,0.6,6.1,1.8,8.9s2.8,5.2,4.9,7.2s4.5,3.7,7.3,4.8c2.8,1.2,5.7,1.8,8.8,1.8s5.9-0.6,8.4-1.8c2.5-1.2,4.7-2.8,6.5-4.8
		c1.8-2,3.2-4.4,4.2-7.2C588.9,103.5,589.4,100.5,589.4,97.4"/>
	<path class="st0" d="M80.8,86.8c-3.4-5.6-8.5-10.1-15.1-13.5c-2.3-1.2-5.4-2.4-9.3-3.7c-0.7-0.2-1.5-0.5-2.4-0.8l-10.4-3.4
		l-8.2,4.4l1.6-9.1l-6.7-6.5l9.2-1.3l4.1-8.4l4.1,8.4l14.5,2.1l21,2.6L83,53.8c-0.5-6.8-2.3-12.8-5.2-18c-3.4-6-8.2-10.8-14.4-14
		c-6-3.2-13-4.8-20.8-4.8c-11.6,0-21,3.5-28,10.4C7.6,34.3,4,43.3,4,54c0,6,1.2,11.5,3.7,16.3c2.5,4.9,6,8.9,10.4,12
		c4.3,3,11,5.9,20.5,8.7c12,3.5,16.6,5.5,18.5,6.5c2.1,1.1,3.7,2.6,4.7,4.2c1,1.7,1.5,3.8,1.5,6.2c0,4.3-1.4,7.5-4.4,10.2
		c-3.1,2.7-7.7,4.1-13.8,4.1c0,0-5.6,0.1-9.8-4.2c-3.3-3.4-4.8-8.6-4.5-15.5l0-1.1L0.3,96.7l0.1,5.6c0.3,13.3,4.4,24.1,12.3,32.1
		c7.9,8,18.6,12.1,31.6,12.1c8.3,0,15.6-1.6,21.7-4.8c6.2-3.3,11.1-8.1,14.7-14.4c3.5-6.2,5.3-13.1,5.3-20.6
		C85.9,99.3,84.2,92.4,80.8,86.8"/>
	<polygon class="st0" points="37.2,60.7 37.3,60.6 37.1,60.5 30.9,54.4 39.5,53.2 39.7,53.1 39.7,53 43.6,45.1 47.7,52.9 43.9,44.4 
		43.6,43.8 43.3,44.4 39.3,52.6 30.2,53.9 29.6,54 30.1,54.4 36.6,60.8 35.1,69.8 35,70.4 35.5,70.1 43.6,65.4 35.8,69.3 	"/>
</g>
</svg>
