<?xml version="1.0" encoding="utf-8"?>
<!-- Generator: Adobe Illustrator 26.2.1, SVG Export Plug-In . SVG Version: 6.00 Build 0)  -->
<svg version="1.1" id="katman_1" xmlns="http://www.w3.org/2000/svg" xmlns:xlink="http://www.w3.org/1999/xlink" x="0px" y="0px"
	 viewBox="0 0 616 216" style="enable-background:new 0 0 616 216;" xml:space="preserve">
<style type="text/css">
	.st0{fill:#373737;}
</style>
<g>
	<g>
		<path class="st0" d="M144.1,10c23.3,11.6,46.6,23.3,69.9,34.8c8.1,4,8.7,10.2,7.8,17.1c-0.3,2.2-1.8,3.8-3.8,4.8
			c-2.6,1.3-5.2,2.7-7.9,3.9c-2.3,1.1-3.6,0.3-3.6-2.3c0-3.7,0-7.3,0.1-11c0.2-0.1,0.4-0.1,0.7-0.2c-0.6-0.4-1.3-0.7-1.9-1.1
			c-19.3-9.7-38.7-19.3-58-29c-3-1.5-5.8-1.6-8.8-0.1c-8.5,4.3-17.1,8.5-25.6,12.8c-0.5,0.3-1,0.6-1.8,1c0.9,0.5,1.5,0.8,2.2,1.2
			c18.5,9.3,37,18.6,55.6,27.8c3.8,1.9,5.8,4.6,5.5,8.9c-0.1,1.3-0.1,2.6,0,3.9c0.2,4-1.8,6.7-5.3,8.5
			c-11.6,5.8-23.3,11.6-34.9,17.5c-4.8,2.4-9.6,2.4-14.4,0C97.5,97.5,75.3,86.4,53,75.3c-3.6-1.8-5.3-4.6-5.3-8.7
			c0.1-9.6,0.2-9.9,8.8-14.2c1.2-0.6,2.3-1.2,3.5-1.7c2-0.9,3.2-0.2,3.2,2c0,3.5,0,7,0,10.4c0,1.2,0.4,1.9,1.4,2.4
			c19.6,9.8,39.2,19.5,58.8,29.3c2.2,1.1,4.5,1.2,6.7,0.1c9.2-4.6,18.4-9.2,27.6-13.8c0.2-0.1,0.3-0.2,0.7-0.6
			c-0.8-0.5-1.6-0.9-2.3-1.3c-18.5-9.2-37-18.5-55.5-27.6c-3.8-1.9-5.7-4.6-5.5-8.9c0.1-1,0.1-1.9,0-2.9c-0.4-4.8,1.7-7.8,6-9.9
			c12.3-6,24.5-12.2,36.8-18.3c1.1-0.6,2.3-1.1,3.5-1.6C142.4,10,143.2,10,144.1,10z"/>
		<path class="st0" d="M15.8,88.5c0.9,0.5,1.5,0.9,2.2,1.2c34.9,17.4,69.8,34.8,104.6,52.2c3,1.5,5.8,1.5,8.8,0
			c35-17.5,70-35,105.1-52.4c1.4-0.7,2-1.6,1.9-3.2c-0.1-2.9-0.1-5.9,0-8.8c0-2.7,1.7-3.7,4.1-2.5c2.4,1.1,4.8,2.3,7.1,3.6
			c2,1.1,3.6,2.7,3.8,5c0.3,3.1,0.3,6.2,0,9.3c-0.3,3-2.6,4.8-5.2,6.1c-14.5,7.2-28.9,14.5-43.4,21.7c-24,12-48.1,24-72.1,36.1
			c-3.9,2-7.4,2.1-11.4,0C82.9,137.6,44.4,118.4,5.9,99.2c-3.9-1.9-5.9-4.6-5.6-9c0.1-1.6,0-3.1,0-4.7c-0.1-3.1,1.4-5.4,4-6.8
			c7.4-3.8,14.9-7.5,22.3-11.2c2.9-1.4,4.9-0.1,4.9,3c0,2.5-0.1,4.9,0,7.4c0.1,1.9-0.7,3.1-2.4,3.9c-3.7,1.8-7.5,3.7-11.2,5.5
			C17.4,87.5,16.7,87.9,15.8,88.5z"/>
		<path class="st0" d="M15.6,129.5c-1.6,5.3,1.4,7.4,5.8,9.6c33.7,16.6,67.2,33.4,100.7,50.2c3.4,1.7,6.4,1.7,9.7,0
			c34.7-17.4,69.4-34.7,104.1-51.9c1.9-0.9,2.6-2,2.5-4.1c-0.2-2.7-0.1-5.5,0-8.2c0.1-2.5,1.7-3.6,4-2.5c2.5,1.2,5,2.4,7.5,3.8
			c2.6,1.5,3.8,3.8,3.9,6.8c0,1.2-0.1,2.3,0,3.5c0.4,5.1-1.8,8.2-6.4,10.5c-17.9,8.8-35.8,17.9-53.7,26.8
			c-20.4,10.2-40.9,20.4-61.3,30.7c-3.7,1.9-7.1,1.9-10.9,0C83,185.2,44.4,165.9,5.8,146.7c-3.9-1.9-5.9-4.7-5.5-9
			c0.1-1.6,0-3.1,0-4.7c-0.1-3,1.4-5.2,4-6.7c2.6-1.4,5.2-2.7,7.9-4c2-1,3.4,0,3.5,2.3c0,0.8,0,1.6,0,2.5
			C15.6,127.9,15.6,128.7,15.6,129.5z"/>
	</g>
	<g>
		<path class="st0" d="M291.6,116.9h7.6c0.3,5.9,5.7,10.1,14.9,10.1c9.6,0,14.9-4.5,14.9-10.4c0-6.7-7-7.5-14.9-8.5
			c-9.9-1.2-21.2-2.8-21.2-14.9c0-10.4,8.1-17.4,21.1-17.4c12.9,0,20.8,7.1,21.1,16.5h-7.4c-0.3-5.5-5.3-9.7-13.8-9.7
			c-8.5,0-13.5,4.2-13.5,9.9c0,6.8,7.1,7.6,14.9,8.6c8.6,1.1,21.3,2.5,21.3,14.9c0,10.5-8.8,17.7-22.5,17.7
			C300.5,133.8,292,126.6,291.6,116.9z"/>
		<path class="st0" d="M345.6,106.1V77.4h7.5v28.7c0,13.5,7.8,20.8,19.7,20.8c11.9,0,19.7-7.4,19.7-20.8V77.4h7.5v28.7
			c0,18.3-10.9,27.7-27.2,27.7C356.6,133.8,345.6,124.4,345.6,106.1z"/>
		<path class="st0" d="M411,139.6h7.6c3,7.8,10.7,11.1,20.1,11.1c12.7,0,21.7-6.3,21.7-22.6v-8c-4.2,8.6-12.7,13.4-23.2,13.4
			c-15.5,0-28.5-10.7-28.5-28.6c0-16.7,12.3-29,29.6-29c17.4,0,29.5,11.8,29.5,29.3v22.6c0,21.3-12.8,29.5-29.2,29.5
			C425.4,157.3,414.8,151.9,411,139.6z M460.4,104.9c0-12.7-8.9-22.1-22.1-22.1c-13.1,0-22.1,9.4-22.1,22.1s8.9,21.7,22.1,21.7
			C451.5,126.6,460.4,117.6,460.4,104.9z"/>
		<path class="st0" d="M479,89.7c0-19.5,11.1-31.6,31.7-31.6s32,12.1,32,31.6v42.7h-14.3v-21.8h-35.5v21.8H479V89.7z M528.4,97.6
			v-7.9c0-11.7-5.8-18.4-17.8-18.4c-11.9,0-17.7,6.7-17.7,18.4v7.9H528.4z"/>
		<path class="st0" d="M555.9,59.5h30.5c18.5,0,26.6,10.1,26.6,24.1c0,11.5-5.5,19.4-15.3,22.6l17.9,26.2h-16.9l-15.5-24.6h-13.1
			v24.6h-14.3V59.5z M586.7,94.5c9,0,12-4.7,12-10.9c0-6.2-3-10.8-12-10.8h-16.5v21.7H586.7z"/>
	</g>
</g>
</svg>
