<?xml version="1.0" encoding="utf-8"?>
<!-- Generator: Adobe Illustrator 26.2.1, SVG Export Plug-In . SVG Version: 6.00 Build 0)  -->
<svg version="1.1" id="katman_1" xmlns="http://www.w3.org/2000/svg" xmlns:xlink="http://www.w3.org/1999/xlink" x="0px" y="0px"
	 viewBox="0 0 616 216" style="enable-background:new 0 0 616 216;" xml:space="preserve">
<style type="text/css">
	.st0{fill:#373737;}
</style>
<g>
	<polygon class="st0" points="76.7,21.1 130.1,21.1 130.1,167.6 149.7,167.6 149.7,21.1 203.1,21.1 203.1,1.4 76.7,1.4 	"/>
	<polygon class="st0" points="539.3,21.1 539.3,1.4 423,1.4 423,167.6 539.3,167.6 539.3,147.8 442.8,147.8 442.8,96.5 522,96.5 
		522,76.7 442.8,76.7 442.8,21.1 	"/>
	<g>
		<polygon class="st0" points="257.1,167.6 276.9,167.6 276.9,24.8 257.1,0.3 		"/>
		<polygon class="st0" points="386.1,167.6 405.9,167.6 405.9,0.3 386.1,24.8 		"/>
	</g>
	<path class="st0" d="M379,43.1l-40.8,50.5c0.5,1.5,0.5,3,0.1,4.6c-0.7,2.3-2.4,4-4.7,4.7c-2.2,0.7-4.5,0.3-6.2-0.8
		c-0.2-0.1-0.7-0.5-1.1-0.9c-0.6-0.5-1.1-1.1-1.5-1.8c-0.6-1-0.9-2.2-0.9-3.4c0-1.1,0.2-2.2,0.7-3.2l-26.3-32.2v-9.1L328.6,89
		c1.7-0.6,3.5-0.6,5.2,0.1l45-55.7L379,43.1L379,43.1z"/>
	<rect x="331.2" y="96.6" class="st0" width="0.6" height="112.6"/>
	<rect x="220.2" y="28.8" class="st0" width="19.8" height="138.8"/>
	<rect x="220.2" y="1.4" class="st0" width="19.8" height="19.7"/>
	<g>
		<path class="st0" d="M365.2,195.5l-8.1,20.1h-1.8l2.7-6.5l-5.6-13.6h1.9l4.7,11.7l4.5-11.7H365.2L365.2,195.5z"/>
		<path class="st0" d="M385.1,198.7c0.6-1.1,1.3-1.9,2.3-2.5s2.1-0.9,3.4-0.9s2.4,0.3,3.4,0.9c0.9,0.6,1.6,1.4,2.1,2.3v-3h1.8v13.7
			h-1.8v-3c-0.4,0.9-1.1,1.7-2.1,2.3c-0.9,0.6-2.1,0.9-3.4,0.9s-2.4-0.3-3.4-0.9c-1-0.6-1.8-1.4-2.3-2.5c-0.6-1.1-0.8-2.3-0.8-3.7
			C384.3,200.9,384.6,199.7,385.1,198.7L385.1,198.7z M395.6,199.5c-0.5-0.8-1.1-1.5-1.8-1.9c-0.8-0.5-1.6-0.7-2.6-0.7
			s-1.8,0.2-2.6,0.7c-0.8,0.4-1.4,1.1-1.8,1.9c-0.4,0.8-0.7,1.8-0.7,2.9c0,1.1,0.2,2.1,0.7,2.9c0.4,0.8,1,1.5,1.8,1.9
			s1.6,0.7,2.6,0.7s1.8-0.2,2.6-0.7c0.8-0.5,1.4-1.1,1.8-1.9c0.5-0.8,0.7-1.8,0.7-2.9C396.2,201.2,396,200.3,395.6,199.5
			L395.6,199.5z"/>
		<path class="st0" d="M420.4,207.8h7.2v1.4h-9.2v-1.4l7-10.8h-6.9v-1.4h8.9v1.4L420.4,207.8L420.4,207.8z"/>
		<path class="st0" d="M449.8,195.5v13.7H448v-13.7H449.8z"/>
		<path class="st0" d="M473,190.7v18.6h-1.8v-18.6H473z"/>
		<path class="st0" d="M496.2,195.5v13.7h-1.8v-13.7H496.2z"/>
		<path class="st0" d="M537.8,196.8c1,1,1.5,2.5,1.5,4.4v8h-1.7v-7.8c0-1.5-0.4-2.6-1.1-3.4c-0.7-0.8-1.7-1.2-2.9-1.2
			s-2.3,0.4-3.1,1.3c-0.8,0.9-1.2,2.1-1.2,3.7v7.4h-1.7v-7.8c0-1.5-0.4-2.6-1.1-3.4c-0.7-0.8-1.7-1.2-3-1.2s-2.3,0.4-3.1,1.3
			c-0.8,0.8-1.2,2.1-1.2,3.7v7.4h-1.8v-13.7h1.8v2.4c0.4-0.8,1.1-1.5,1.9-1.9c0.8-0.4,1.7-0.7,2.7-0.7c1.2,0,2.2,0.3,3.1,0.8
			c0.9,0.6,1.5,1.4,1.9,2.5c0.4-1.1,1-1.9,1.9-2.5s1.9-0.9,3-0.9C535.5,195.4,536.8,195.9,537.8,196.8L537.8,196.8z"/>
	</g>
</g>
</svg>
