<?xml version="1.0" encoding="utf-8"?>
<!-- Generator: Adobe Illustrator 26.2.1, SVG Export Plug-In . SVG Version: 6.00 Build 0)  -->
<svg version="1.1" id="katman_1" xmlns="http://www.w3.org/2000/svg" xmlns:xlink="http://www.w3.org/1999/xlink" x="0px" y="0px"
	 viewBox="0 0 616 216" style="enable-background:new 0 0 616 216;" xml:space="preserve">
<style type="text/css">
	.st0{fill:#373737;}
</style>
<g>
	<g>
		<path class="st0" d="M142.3,172.8L131.4,200h-2.5l3.6-8.8l-7.6-18.4h2.6l6.3,15.8l6.1-15.8H142.3L142.3,172.8z"/>
		<path class="st0" d="M187.9,177c0.8-1.4,1.8-2.5,3.1-3.3s2.9-1.2,4.5-1.2s3.3,0.4,4.5,1.2c1.3,0.8,2.2,1.8,2.8,3.1v-4.1h2.4v18.5
			h-2.4v-4.1c-0.6,1.3-1.5,2.3-2.8,3.1s-2.8,1.2-4.5,1.2s-3.2-0.4-4.5-1.2s-2.4-1.9-3.1-3.3c-0.7-1.4-1.1-3.1-1.1-5
			S187.1,178.4,187.9,177z M201.9,178.1c-0.6-1.1-1.4-2-2.5-2.6s-2.2-0.9-3.5-0.9s-2.5,0.3-3.5,0.9c-1,0.6-1.8,1.4-2.5,2.6
			c-0.6,1.1-0.9,2.5-0.9,4s0.3,2.9,0.9,4c0.6,1.1,1.4,2,2.5,2.6c1,0.6,2.2,0.9,3.5,0.9s2.4-0.3,3.5-0.9c1.1-0.6,1.9-1.5,2.5-2.6
			s0.9-2.4,0.9-3.9C202.8,180.5,202.5,179.2,201.9,178.1z"/>
		<path class="st0" d="M256,174.8v11.5c0,1.1,0.2,1.9,0.6,2.3c0.4,0.4,1.2,0.7,2.3,0.7h2.2v2h-2.5c-1.7,0-2.9-0.4-3.7-1.2
			s-1.2-2.1-1.2-3.8v-11.5H251v-2h2.6v-4.6h2.4v4.6h5.1v2H256L256,174.8z"/>
		<path class="st0" d="M309.6,172.8v18.5h-2.4v-18.5H309.6z"/>
		<path class="st0" d="M362,173.4c1.1-0.6,2.4-1,3.9-1v2.5h-0.6c-1.7,0-3.1,0.5-4.1,1.4s-1.6,2.5-1.6,4.6v10.3h-2.4v-18.5h2.4v3.3
			C360.2,174.9,361,174,362,173.4L362,173.4z"/>
		<path class="st0" d="M414.2,172.8v18.5h-2.4v-18.5H414.2z"/>
		<path class="st0" d="M489.1,174.5c1.4,1.4,2,3.3,2,6v10.8h-2.3v-10.6c0-2-0.5-3.6-1.4-4.6c-1-1.1-2.3-1.6-4-1.6s-3.1,0.6-4.2,1.7
			c-1,1.1-1.6,2.8-1.6,5v10h-2.3v-10.6c0-2-0.5-3.6-1.4-4.6c-1-1.1-2.3-1.6-4-1.6s-3.1,0.6-4.1,1.7c-1,1.1-1.6,2.8-1.6,5v10h-2.4
			v-18.5h2.4v3.2c0.6-1.1,1.4-2,2.5-2.6s2.3-0.9,3.6-0.9c1.6,0,3,0.4,4.2,1.2s2.1,1.9,2.6,3.4c0.5-1.5,1.3-2.6,2.5-3.4
			c1.2-0.8,2.6-1.2,4.1-1.2C485.9,172.5,487.7,173.1,489.1,174.5L489.1,174.5z"/>
	</g>
	<g>
		<path class="st0" d="M15.5,126.8h61.6v10.7H1.4v-9.6L62.1,28H2.4V17.4h73.9V27L15.5,126.8L15.5,126.8z"/>
		<path class="st0" d="M112,27.2V72h45.7v10H112v45.5h50.9v10h-63V17.2h63v10H112z"/>
		<path class="st0" d="M252.5,137.5l-29.8-50.2h-22.3v50.2h-12.1V17.4h36.2c13.4,0,23.7,3.2,30.6,9.6s10.4,14.8,10.4,25.2
			c0,8.7-2.5,16.1-7.5,22.2s-12.4,10.1-22.2,11.9l31.1,51L252.5,137.5L252.5,137.5z M200.3,77.5h24.3c9.4,0,16.5-2.3,21.3-6.9
			s7.2-10.7,7.2-18.4s-2.3-14-6.9-18.3c-4.6-4.3-11.9-6.5-21.7-6.5h-24.2L200.3,77.5L200.3,77.5z"/>
		<path class="st0" d="M563.8,27.2V72h45.7v10h-45.7v45.5h50.9v10h-63V17.2h63v10C614.6,27.2,563.8,27.2,563.8,27.2z"/>
		<polygon class="st0" points="509,17.4 509,118.2 459.3,43.2 459.3,62.3 509,137.5 521.1,137.5 521.1,17.4 		"/>
		<path class="st0" d="M423.3,16c-11.2,0-21.3,2.6-30.4,7.8c-3.9,2.3-7.5,4.9-10.7,7.9c-2.5,2.4-4.9,5.1-7,8
			c3.1,2.5,5.8,5.4,8.1,8.8c2-3.2,4.2-6.2,6.7-8.7c0.7-0.7,1.4-1.4,2.2-2.1c2.1-1.8,4.3-3.5,6.8-4.9c7.1-4.1,15.2-6.2,24.1-6.2
			c2.5,0,4.9,0.2,7.2,0.5v110.3h12.1V18.9C436.5,17,430.1,16,423.3,16L423.3,16z"/>
		<path class="st0" d="M399.4,50.6c-0.8,0.7-1.5,1.4-2.2,2.1c-2.5,2.5-4.7,5.4-6.6,8.6c1.3,5,2.1,10.3,2.1,16.1
			c0,10.2-2.1,19.1-6.2,26.9c-4.1,7.7-9.8,13.7-16.9,17.8s-15.2,6.2-24.1,6.2c-9,0-17-2.1-24.2-6.2c-7.1-4.1-12.8-10.1-16.9-17.8
			s-6.2-16.7-6.2-26.9s2.1-19.1,6.2-26.8s9.8-13.6,16.9-17.7s15.2-6.2,24.2-6.2c6.8,0,13,1.3,18.7,3.7c2-2.8,4.2-5.3,6.7-7.6
			c0.3-0.3,0.7-0.6,1-0.9c-8-3.8-16.8-5.8-26.5-5.8c-11.2,0-21.3,2.6-30.4,7.8s-16.2,12.5-21.5,21.8c-5.2,9.3-7.9,19.9-7.9,31.7
			s2.6,22.4,7.9,31.7c5.2,9.3,12.4,16.6,21.5,21.8c9.1,5.2,19.2,7.8,30.4,7.8c11.2,0,21.4-2.6,30.5-7.8s16.2-12.5,21.4-21.8
			c5.2-9.3,7.8-19.9,7.8-31.7c0-9.8-1.9-18.7-5.5-26.8C399.4,50.5,399.4,50.6,399.4,50.6L399.4,50.6z"/>
	</g>
</g>
</svg>
